<svg width="46" height="46" viewBox="0 0 46 46" fill="none" xmlns="http://www.w3.org/2000/svg">
<path d="M23 45.5C35.4264 45.5 45.5 35.4264 45.5 23C45.5 10.5736 35.4264 0.5 23 0.5C10.5736 0.5 0.5 10.5736 0.5 23C0.5 35.4264 10.5736 45.5 23 45.5Z" fill="white"/>
<path d="M22.6484 6.125C13.5219 6.125 6.125 13.5219 6.125 22.6484C6.125 31.775 13.5219 39.1719 22.6484 39.1719C31.775 39.1719 39.1719 31.775 39.1719 22.6484C39.1719 18.2661 37.431 14.0633 34.3323 10.9646C31.2335 7.86586 27.0307 6.125 22.6484 6.125ZM22.6484 35.0516C19.3589 35.0516 16.2041 33.7448 13.8781 31.4188C11.5521 29.0927 10.2453 25.938 10.2453 22.6484C10.2453 19.3589 11.5521 16.2041 13.8781 13.8781C16.2041 11.5521 19.3589 10.2453 22.6484 10.2453C25.938 10.2453 29.0927 11.5521 31.4188 13.8781C33.7448 16.2041 35.0516 19.3589 35.0516 22.6484C35.0516 25.938 33.7448 29.0927 31.4188 31.4188C29.0927 33.7448 25.938 35.0516 22.6484 35.0516ZM18.5281 22.6625L22.6625 28.85L26.7688 22.6625L22.6625 16.4609L18.5281 22.6625Z" fill="black"/>
</svg>
