<svg width="46" height="46" viewBox="0 0 46 46" fill="none" xmlns="http://www.w3.org/2000/svg">
<path d="M7.3125 42.2244V37.3805C7.3125 35.8021 8.24241 34.3738 9.73491 33.8604C12.6155 32.8694 17.7323 31.4375 23.25 31.4375C28.7677 31.4375 33.8845 32.8694 36.7651 33.8604C38.2576 34.3738 39.1875 35.8021 39.1875 37.3805V42.0388" stroke="#14142B" stroke-width="5"/>
<path d="M23.25 23C28.4277 23 32.625 18.8027 32.625 13.625C32.625 8.44733 28.4277 4.25 23.25 4.25C18.0723 4.25 13.875 8.44733 13.875 13.625C13.875 18.8027 18.0723 23 23.25 23Z" stroke="#14142B" stroke-width="5"/>
<circle cx="30.5" cy="31" r="12.5" fill="white" stroke="black" stroke-width="3"/>
<g clip-path="url(#clip0_1571_4800)">
<path fill-rule="evenodd" clip-rule="evenodd" d="M26.5 25.1509V37.3945C26.5 38.3282 27.5282 38.8954 28.32 38.3872L37.94 32.2654C38.6727 31.8045 38.6727 30.7409 37.94 30.2682L28.32 24.1582C27.5282 23.65 26.5 24.2172 26.5 25.1509Z" fill="#1D1D1D"/>
</g>
<defs>
<clipPath id="clip0_1571_4800">
<rect width="13" height="16.5455" fill="white" transform="translate(26.5 23)"/>
</clipPath>
</defs>
</svg>
