<svg width="46" height="45" viewBox="0 0 46 45" fill="none" xmlns="http://www.w3.org/2000/svg">
<path d="M41.3529 43.1651L41.3546 43.1836L41.3576 43.202C41.3674 43.2607 41.3725 43.3222 41.3727 43.3856C41.3721 44.0011 40.8732 44.4998 40.2575 44.4998H40.2575H40.2575H40.2574H40.2574H40.2574H40.2573H40.2573H40.2573H40.2572H40.2572H40.2572H40.2571H40.2571H40.2571H40.257H40.257H40.257H40.2569H40.2569H40.2569H40.2568H40.2568H40.2568H40.2567H40.2567H40.2567H40.2566H40.2566H40.2566H40.2565H40.2565H40.2565H40.2564H40.2564H40.2564H40.2563H40.2563H40.2563H40.2562H40.2562H40.2562H40.2561H40.2561H40.2561H40.256H40.256H40.256H40.2559H40.2559H40.2558H40.2558H40.2558H40.2557H40.2557H40.2557H40.2556H40.2556H40.2556H40.2555H40.2555H40.2555H40.2554H40.2554H40.2554H40.2553H40.2553H40.2553H40.2552H40.2552H40.2551H40.2551H40.2551H40.255H40.255H40.255H40.2549H40.2549H40.2549H40.2548H40.2548H40.2548H40.2547H40.2547H40.2547H40.2546H40.2546H40.2545H40.2545H40.2545H40.2544H40.2544H40.2544H40.2543H40.2543H40.2543H40.2542H40.2542H40.2542H40.2541H40.2541H40.2541H40.254H40.254H40.254H40.2539H40.2539H40.2539H40.2538H40.2538H40.2538H40.2537H40.2537H40.2537H40.2536H40.2536H40.2536H40.2535H40.2535H40.2535H40.2535H40.2534H40.2534H40.2534H40.2533H40.2533H40.2533H40.2532H40.2532H6.24269C5.92972 44.4998 5.63097 44.3682 5.41968 44.1371C5.20842 43.9061 5.10403 43.5971 5.13197 43.285C5.13197 43.285 5.13197 43.285 5.13197 43.2849L7.881 12.6703L7.881 12.6702C7.93259 12.0953 8.41445 11.6549 8.99172 11.6549H14.6425H15.1425V11.1549V8.60805C15.1425 4.13765 18.7796 0.5 23.2495 0.5C27.7195 0.5 31.3571 4.13769 31.3571 8.60805V11.1549V11.6549H31.8571H37.504C38.0812 11.6549 38.5631 12.0953 38.6147 12.6702L38.6147 12.6703L41.3529 43.1651ZM28.6269 11.6549H29.1269V11.1549V8.60805C29.1269 5.36669 26.4909 2.73036 23.2497 2.73036C20.0086 2.73036 17.3728 5.36673 17.3728 8.60805V11.1549V11.6549H17.8728H28.6269ZM7.51148 41.7249L7.46257 42.2696H8.00948H38.4864H39.0333L38.9844 41.7249L36.5255 14.3405L36.4846 13.8852H36.0275H31.8573H31.3573V14.3852V17.2736C31.3573 17.8895 30.8581 18.3888 30.2421 18.3888C29.6261 18.3888 29.1269 17.8895 29.1269 17.2736V14.3852V13.8852H28.6269H17.8728H17.3728V14.3852V17.2736C17.3728 17.8895 16.8737 18.3888 16.2577 18.3888C15.6416 18.3888 15.1425 17.8895 15.1425 17.2736V14.3852V13.8852H14.6425H10.4684H10.0113L9.97043 14.3405L7.51148 41.7249Z" fill="black" stroke="black"/>
</svg>
