<svg width="45" height="46" viewBox="0 0 45 46" fill="none" xmlns="http://www.w3.org/2000/svg">
<path d="M11.25 11.75H18.2812" stroke="black" stroke-width="4" stroke-miterlimit="10" stroke-linecap="round" stroke-linejoin="round"/>
<path d="M11.25 17.375H14.0625" stroke="black" stroke-width="4" stroke-miterlimit="10" stroke-linecap="round" stroke-linejoin="round"/>
<path d="M7.03125 4.71875C5.48437 4.71875 4.21875 5.98437 4.21875 7.53125V24.4062V31.4375L15.0469 24.4062H26.7188C28.2656 24.4062 29.5312 23.1406 29.5312 21.5938V7.53125C29.5312 5.98437 28.2656 4.71875 26.7188 4.71875H7.03125Z" stroke="black" stroke-width="4" stroke-miterlimit="10" stroke-linecap="round" stroke-linejoin="round"/>
<path d="M29.5312 14.5625H37.9688C39.5156 14.5625 40.7812 15.8281 40.7812 17.375V41.2812L29.9531 34.25H18.2812C16.7344 34.25 15.4688 32.9844 15.4688 31.4375V24.4062" stroke="black" stroke-width="4" stroke-miterlimit="10" stroke-linecap="round" stroke-linejoin="round"/>
<circle cx="29.75" cy="31" r="12.5" fill="white" stroke="black" stroke-width="3"/>
<g clip-path="url(#clip0_2127_16396)">
<path d="M24.0516 31.1917C24.0227 30.9504 24.0078 30.7108 24.0078 30.5C24.0078 27.3534 26.6034 24.7578 29.75 24.7578C31.2177 24.7578 32.5918 25.3496 33.6025 26.2724L33.0957 26.7881C32.9815 26.9023 32.9375 27.0693 32.9815 27.2276C33.0342 27.3769 33.1572 27.4912 33.3154 27.5264C33.4039 27.5441 36.31 28.4806 36.1249 28.4434C36.3603 28.5218 36.7085 28.2707 36.6436 27.9249C36.6257 27.8363 35.9823 24.608 36.0195 24.7929C35.9844 24.6348 35.8701 24.503 35.7119 24.459C35.5626 24.4151 35.3955 24.459 35.2813 24.5732L34.8506 24.995C33.5235 23.7559 31.7011 23 29.75 23C25.628 23 22.25 26.378 22.25 30.5V30.5175C22.25 30.7653 22.2613 30.9567 22.2745 31.1032C22.292 31.2973 22.4351 31.4563 22.6262 31.4946L23.529 31.6751C23.8229 31.7339 24.0871 31.4875 24.0516 31.1917Z" fill="black"/>
<path d="M36.8765 29.5051L35.971 29.3206C35.6768 29.2606 35.4107 29.5072 35.4469 29.8044C35.4782 30.0609 35.4922 30.3103 35.4922 30.5003C35.4922 33.6468 32.8966 36.2425 29.75 36.2425C28.2823 36.2425 26.9082 35.6508 25.8975 34.7191L26.4043 34.2122C26.5185 34.098 26.5625 33.9311 26.5185 33.7728C26.4658 33.6233 26.3427 33.5091 26.1846 33.474C26.0961 33.4561 23.19 32.5198 23.3751 32.557C23.2256 32.5306 23.0761 32.5746 22.9796 32.68C22.874 32.7767 22.8301 32.9348 22.8564 33.0755C22.8743 33.164 23.5178 36.3629 23.4806 36.178C23.5156 36.3363 23.6299 36.4681 23.7881 36.5119C23.9715 36.5579 24.1247 36.5023 24.2187 36.3977L24.6407 35.9759C25.9677 37.2152 27.7901 38.0003 29.75 38.0003C33.872 38.0003 37.25 34.6224 37.25 30.5003V30.4739C37.25 30.2791 37.2429 30.0879 37.2267 29.8978C37.2099 29.7036 37.0675 29.5441 36.8765 29.5051Z" fill="black"/>
</g>
<defs>
<clipPath id="clip0_2127_16396">
<rect width="15" height="15" fill="white" transform="translate(22.25 23)"/>
</clipPath>
</defs>
</svg>
