<svg width="25" height="25" viewBox="0 0 25 25" fill="none" xmlns="http://www.w3.org/2000/svg">
<path d="M17.4507 2.57823C14.9453 1.42952 12.1046 1.24348 9.4707 2.0556C6.83681 2.86772 4.59412 4.62115 3.17057 6.98132C1.74701 9.34148 1.24224 12.1432 1.75258 14.8517C2.26291 17.5603 3.75263 19.9862 5.93746 21.6665C6.77472 22.3127 7.8025 22.6633 8.86012 22.6634C9.87752 22.6612 10.8687 22.3405 11.6945 21.7462C12.1898 21.392 12.5935 20.9248 12.872 20.3834C13.1506 19.8419 13.2959 19.2418 13.2961 18.6329C13.2947 18.4237 13.2782 18.2148 13.2468 18.0079C13.151 17.4252 13.2872 16.8281 13.6263 16.3446C13.9654 15.8611 14.4804 15.5296 15.0609 15.4212L16.6468 15.1321C16.7478 15.1138 16.8441 15.0757 16.9304 15.0201C17.0166 14.9645 17.0911 14.8925 17.1495 14.8081C17.2079 14.7237 17.2491 14.6287 17.2707 14.5284C17.2924 14.4281 17.2941 14.3245 17.2757 14.2235C17.2574 14.1226 17.2193 14.0262 17.1637 13.94C17.1081 13.8538 17.0361 13.7793 16.9517 13.7209C16.8673 13.6625 16.7723 13.6213 16.672 13.5996C16.5717 13.578 16.4681 13.5763 16.3672 13.5946L14.7812 13.8837C13.8003 14.0657 12.9293 14.6238 12.354 15.4389C11.7788 16.2541 11.5449 17.2618 11.7023 18.247C11.7216 18.3734 11.7321 18.5011 11.7336 18.629C11.7362 18.9895 11.6515 19.3453 11.4867 19.6659C11.322 19.9866 11.0821 20.2626 10.7875 20.4704C10.2197 20.8837 9.53358 21.1024 8.83138 21.0941C8.12918 21.0858 7.44844 20.8509 6.89059 20.4243C5.01867 18.9753 3.74429 16.8891 3.30961 14.5621C2.87493 12.2351 3.31023 9.82955 4.53281 7.80247C5.75538 5.77538 7.68003 4.26805 9.94104 3.5669C12.202 2.86575 14.6418 3.01964 16.7968 3.99932C16.8902 4.04226 16.991 4.0664 17.0936 4.07036C17.1963 4.07432 17.2987 4.05802 17.395 4.0224C17.4914 3.98678 17.5798 3.93253 17.6551 3.86276C17.7305 3.79298 17.7914 3.70904 17.8343 3.61573C17.8773 3.52242 17.9014 3.42157 17.9054 3.31893C17.9093 3.21629 17.893 3.11388 17.8574 3.01753C17.8218 2.92119 17.7675 2.83281 17.6978 2.75744C17.628 2.68206 17.5441 2.62117 17.4507 2.57823Z" fill="black"/>
<path d="M4.6875 14.0625C4.6875 14.5261 4.82496 14.9792 5.08249 15.3646C5.34003 15.75 5.70607 16.0505 6.13434 16.2278C6.5626 16.4052 7.03385 16.4517 7.48849 16.3612C7.94314 16.2708 8.36075 16.0476 8.68853 15.7198C9.01631 15.392 9.23953 14.9744 9.32997 14.5197C9.4204 14.0651 9.37399 13.5939 9.19659 13.1656C9.0192 12.7373 8.7188 12.3713 8.33337 12.1137C7.94794 11.8562 7.4948 11.7187 7.03125 11.7188C6.40965 11.7188 5.81351 11.9657 5.37397 12.4052C4.93443 12.8448 4.6875 13.4409 4.6875 14.0625ZM7.8125 14.0625C7.8125 14.217 7.76668 14.3681 7.68084 14.4965C7.59499 14.625 7.47298 14.7252 7.33022 14.7843C7.18747 14.8434 7.03038 14.8589 6.87884 14.8287C6.72729 14.7986 6.58808 14.7242 6.47882 14.6149C6.36956 14.5057 6.29516 14.3665 6.26501 14.2149C6.23487 14.0634 6.25034 13.9063 6.30947 13.7635C6.3686 13.6208 6.46873 13.4988 6.59721 13.4129C6.72569 13.3271 6.87673 13.2813 7.03125 13.2813C7.23845 13.2813 7.43716 13.3636 7.58368 13.5101C7.73019 13.6566 7.8125 13.8553 7.8125 14.0625Z" fill="black"/>
<path d="M10.9375 8.59375C10.9375 8.1302 10.8 7.67706 10.5425 7.29163C10.285 6.90621 9.91893 6.6058 9.49067 6.42841C9.0624 6.25102 8.59115 6.2046 8.13651 6.29504C7.68187 6.38547 7.26425 6.60869 6.93647 6.93647C6.60869 7.26425 6.38547 7.68187 6.29504 8.13651C6.2046 8.59115 6.25102 9.0624 6.42841 9.49067C6.6058 9.91893 6.90621 10.285 7.29163 10.5425C7.67706 10.8 8.1302 10.9375 8.59375 10.9375C9.21535 10.9375 9.81149 10.6906 10.251 10.251C10.6906 9.81149 10.9375 9.21535 10.9375 8.59375ZM8.59375 9.375C8.43923 9.375 8.28819 9.32918 8.15971 9.24334C8.03124 9.15749 7.9311 9.03548 7.87197 8.89272C7.81284 8.74997 7.79737 8.59288 7.82751 8.44134C7.85766 8.28979 7.93206 8.15058 8.04132 8.04132C8.15058 7.93206 8.28979 7.85766 8.44134 7.82751C8.59288 7.79737 8.74997 7.81284 8.89272 7.87197C9.03548 7.9311 9.15749 8.03124 9.24334 8.15971C9.32918 8.28819 9.375 8.43923 9.375 8.59375C9.375 8.80095 9.29269 8.99967 9.14618 9.14618C8.99967 9.29269 8.80095 9.375 8.59375 9.375Z" fill="black"/>
<path d="M11.7188 7.03125C11.7188 7.4948 11.8562 7.94794 12.1137 8.33337C12.3713 8.7188 12.7373 9.0192 13.1656 9.19659C13.5939 9.37399 14.0651 9.4204 14.5197 9.32997C14.9744 9.23953 15.392 9.01631 15.7198 8.68853C16.0476 8.36075 16.2708 7.94314 16.3612 7.48849C16.4517 7.03385 16.4052 6.5626 16.2278 6.13434C16.0505 5.70607 15.75 5.34003 15.3646 5.08249C14.9792 4.82496 14.5261 4.6875 14.0625 4.6875C13.4409 4.6875 12.8448 4.93443 12.4052 5.37397C11.9657 5.81351 11.7188 6.40965 11.7188 7.03125ZM14.8438 7.03125C14.8438 7.18577 14.7979 7.33681 14.7121 7.46529C14.6262 7.59377 14.5042 7.6939 14.3615 7.75303C14.2187 7.81216 14.0616 7.82763 13.9101 7.79749C13.7585 7.76734 13.6193 7.69294 13.5101 7.58368C13.4008 7.47442 13.3264 7.33521 13.2963 7.18366C13.2661 7.03212 13.2816 6.87503 13.3407 6.73228C13.3999 6.58952 13.5 6.46751 13.6285 6.38166C13.7569 6.29582 13.908 6.25 14.0625 6.25C14.2697 6.25 14.4684 6.33231 14.6149 6.47882C14.7614 6.62534 14.8438 6.82405 14.8438 7.03125Z" fill="black"/>
<path d="M23.3437 14.0195L22.6961 2.99844C22.6687 2.61146 22.4967 2.24895 22.2143 1.98293C21.9319 1.7169 21.5598 1.56682 21.1719 1.5625H21.0156C20.6267 1.563 20.2526 1.71184 19.9697 1.97867C19.6867 2.2455 19.5162 2.61022 19.493 2.99844L18.8438 14.0188C18.8257 14.3254 18.8705 14.6325 18.9754 14.9212C19.0803 15.2098 19.2431 15.474 19.4538 15.6975C19.6645 15.921 19.9186 16.0991 20.2007 16.2208C20.4827 16.3425 20.7866 16.4053 21.0937 16.4053C21.4009 16.4053 21.7048 16.3425 21.9868 16.2208C22.2689 16.0991 22.523 15.921 22.7337 15.6975C22.9444 15.474 23.1072 15.2098 23.2121 14.9212C23.317 14.6325 23.3618 14.3254 23.3437 14.0188V14.0195ZM21.5977 14.6266C21.5318 14.6932 21.4533 14.7461 21.3668 14.7823C21.2803 14.8184 21.1875 14.837 21.0937 14.837C21 14.837 20.9072 14.8184 20.8207 14.7823C20.7342 14.7461 20.6557 14.6932 20.5898 14.6266C20.5252 14.5579 20.4753 14.4767 20.4432 14.3881C20.4111 14.2994 20.3974 14.2051 20.4031 14.1109L21.0156 3.125L21.1383 3.08984L21.7859 14.1117C21.7914 14.2058 21.7774 14.3001 21.7451 14.3886C21.7127 14.4772 21.6625 14.5581 21.5977 14.6266Z" fill="black"/>
<path d="M21.0938 16.4062C20.4721 16.4063 19.876 16.6532 19.4365 17.0927C18.9969 17.5323 18.75 18.1284 18.75 18.75C18.7659 19.5026 18.9116 20.2469 19.1805 20.95C19.3957 21.494 19.5145 22.0714 19.5312 22.6562C19.5312 22.8635 19.6136 23.0622 19.7601 23.2087C19.9066 23.3552 20.1053 23.4375 20.3125 23.4375C20.3964 23.4374 20.4797 23.424 20.5594 23.3977C20.6773 23.3594 23.4375 22.3961 23.4375 18.75C23.4375 18.1284 23.1906 17.5323 22.751 17.0927C22.3115 16.6532 21.7154 16.4063 21.0938 16.4062ZM20.9266 21.3281C20.8484 21.0156 20.7531 20.7266 20.6633 20.4563C20.448 19.9122 20.3293 19.3348 20.3125 18.75C20.3125 18.5428 20.3948 18.3441 20.5413 18.1976C20.6878 18.0511 20.8865 17.9688 21.0938 17.9688C21.301 17.9688 21.4997 18.0511 21.6462 18.1976C21.7927 18.3441 21.875 18.5428 21.875 18.75C21.8992 19.2215 21.8277 19.693 21.6647 20.1361C21.5017 20.5792 21.2506 20.9847 20.9266 21.3281Z" fill="black"/>
</svg>
