<svg width="20" height="21" viewBox="0 0 20 21" fill="none" xmlns="http://www.w3.org/2000/svg">
<g clip-path="url(#clip0_611_13487)">
<path d="M6.84326 13.1334C6.37419 13.8671 6.58855 14.8422 7.32228 15.3114C8.05601 15.7805 9.03106 15.5662 9.50013 14.8324C9.96939 14.0989 9.75503 13.1238 9.02149 12.6546C8.28758 12.1863 7.3131 12.4004 6.84326 13.1334ZM9.08728 14.5697C8.76353 15.0751 8.09138 15.2225 7.58598 14.899C7.08038 14.5752 6.93295 13.9033 7.25631 13.3977C7.57986 12.8921 8.25182 12.7444 8.75741 13.0676C9.26263 13.3919 9.41025 14.0637 9.08728 14.5697Z" fill="black"/>
<path d="M17.3538 2.01101L15.1971 0.630175C14.8518 0.407972 14.3953 0.475857 14.1295 0.788891C13.8637 1.10193 13.871 1.56335 14.1462 1.86816L9.6962 7.6024C9.47686 7.88331 9.10665 7.99938 8.76608 7.89402C8.21325 7.7223 7.61357 7.94068 7.30054 8.42792L2.536 15.8717C2.1438 16.4861 2.32278 17.3023 2.93642 17.696L6.99267 20.2913C7.20416 20.4274 7.45046 20.4997 7.70192 20.4999C7.79811 20.4999 7.89391 20.4894 7.9878 20.4687C8.3299 20.3947 8.62821 20.1869 8.81638 19.8918L11.1881 16.187C11.2373 16.1132 11.2426 16.0189 11.2025 15.9402C11.1621 15.8614 11.0826 15.8103 10.9942 15.8069C10.9059 15.8032 10.8225 15.8476 10.776 15.923L9.57706 17.7962L4.82763 14.7565C4.75401 14.7075 4.65954 14.7022 4.58076 14.7423C4.50197 14.7825 4.45111 14.862 4.44747 14.9506C4.44384 15.0389 4.4884 15.1223 4.56355 15.1688L9.31318 18.2085L8.40505 19.6277C8.15761 20.0144 7.6436 20.1272 7.25713 19.8798L3.20012 17.2837C2.81404 17.0361 2.70122 16.5224 2.94809 16.1356L6.78424 10.1422L11.5186 13.1722C11.6322 13.2422 11.7811 13.2083 11.853 13.0959C11.9251 12.9835 11.8937 12.8339 11.7825 12.7601L7.04793 9.72977L7.71263 8.692C7.90634 8.39006 8.27789 8.25448 8.62056 8.36061C9.15599 8.52602 9.73788 8.34359 10.0832 7.90205L14.5397 2.15882L14.8684 2.36936C14.9824 2.44222 15.1339 2.40894 15.2067 2.29516C15.2796 2.18119 15.2463 2.02994 15.1325 1.95708L14.5757 1.60064C14.4315 1.49795 14.3932 1.30042 14.4887 1.15145C14.5843 1.00249 14.7797 0.954683 14.9331 1.04265L17.0906 2.42367C17.2037 2.49576 17.2622 2.62923 17.2385 2.76137C17.2149 2.89351 17.114 2.9983 16.983 3.02698C16.8969 3.04591 16.8069 3.02947 16.7331 2.98128L15.8838 2.43763C15.7701 2.36764 15.6213 2.40168 15.5492 2.51412C15.4773 2.62656 15.5086 2.7759 15.6199 2.84991L16.241 3.24765L12.8931 9.70052C12.6365 10.1988 12.7143 10.8039 13.0889 11.2209C13.3289 11.4873 13.3616 11.881 13.1688 12.1834L11.2491 15.1839C11.2002 15.2575 11.1946 15.3518 11.2348 15.4306C11.2751 15.5093 11.3547 15.5604 11.443 15.5638C11.5314 15.5675 11.6149 15.5231 11.6612 15.4478L13.5817 12.4473C13.8932 11.9591 13.8402 11.3227 13.4524 10.8926C13.2141 10.6274 13.1646 10.2426 13.3277 9.92578L16.6684 3.48668C16.7464 3.51135 16.8279 3.52397 16.9097 3.52435C16.9694 3.52416 17.0291 3.51766 17.0874 3.50466C17.4119 3.43352 17.6615 3.17384 17.72 2.84685C17.7783 2.51985 17.6337 2.18999 17.354 2.01101H17.3538Z" fill="black"/>
<path d="M11.425 7.04106L10.7094 8.07711C10.6326 8.18821 10.6605 8.3408 10.7716 8.41748C10.8829 8.49436 11.0353 8.46644 11.1122 8.35534L11.8279 7.31929C11.9048 7.20799 11.8769 7.05559 11.7656 6.97872C11.6545 6.90185 11.5019 6.92976 11.425 7.04106Z" fill="black"/>
<path d="M12.0568 6.80165C12.1373 6.80184 12.2126 6.76225 12.2583 6.6959L12.352 6.56013C12.4289 6.44865 12.4008 6.29605 12.2893 6.21937C12.178 6.1425 12.0254 6.17061 11.9487 6.28209L11.8548 6.41786C11.8032 6.49282 11.7973 6.58996 11.8395 6.67047C11.8816 6.75116 11.965 6.80165 12.056 6.80165H12.0568Z" fill="black"/>
</g>
<defs>
<clipPath id="clip0_611_13487">
<rect width="20" height="20" fill="white" transform="translate(0 0.5)"/>
</clipPath>
</defs>
</svg>
