<svg width="258" height="120" viewBox="0 0 258 120" fill="none" xmlns="http://www.w3.org/2000/svg">
<g clip-path="url(#clip0_1832_56065)">
<g filter="url(#filter0_dddddd_1832_56065)">
<path d="M0.154053 3H62.5717C64.6468 3 66.6704 3.64549 68.3621 4.84701L97.5165 25.553C99.2083 26.7545 101.232 27.4 103.307 27.4H132.476C134.935 27.4 137.308 28.3061 139.141 29.945L174.385 61.455C176.218 63.0939 178.591 64 181.05 64H214.245C216.184 64 218.082 63.4362 219.706 62.3771L258.154 37.3125" stroke="#0757A2" stroke-width="2"/>
</g>
<circle cx="213" cy="64" r="5.5" fill="#0757A2" stroke="#0757A2"/>
<circle cx="213" cy="64" r="8.5" stroke="#0757A2"/>
<g filter="url(#filter1_d_1832_56065)">
<rect x="180" width="65" height="48" rx="5" fill="white" shape-rendering="crispEdges"/>
<path d="M185.51 15.27C186.357 14.59 187.02 14.0333 187.5 13.6C187.98 13.16 188.383 12.7033 188.71 12.23C189.043 11.75 189.21 11.28 189.21 10.82C189.21 10.3867 189.103 10.0467 188.89 9.8C188.683 9.54667 188.347 9.42 187.88 9.42C187.427 9.42 187.073 9.56333 186.82 9.85C186.573 10.13 186.44 10.5067 186.42 10.98H185.54C185.567 10.2333 185.793 9.65667 186.22 9.25C186.647 8.84333 187.197 8.64 187.87 8.64C188.557 8.64 189.1 8.83 189.5 9.21C189.907 9.59 190.11 10.1133 190.11 10.78C190.11 11.3333 189.943 11.8733 189.61 12.4C189.283 12.92 188.91 13.38 188.49 13.78C188.07 14.1733 187.533 14.6333 186.88 15.16H190.32V15.92H185.51V15.27ZM191.152 14.39V13.7L194.662 8.84H195.752V13.6H196.752V14.39H195.752V16H194.852V14.39H191.152ZM194.892 9.79L192.202 13.6H194.892V9.79ZM200.967 9.63C200.794 9.63 200.647 9.57 200.527 9.45C200.414 9.33 200.357 9.18333 200.357 9.01C200.357 8.83667 200.414 8.69 200.527 8.57C200.647 8.45 200.794 8.39 200.967 8.39C201.14 8.39 201.284 8.45 201.397 8.57C201.517 8.69 201.577 8.83667 201.577 9.01C201.577 9.18333 201.517 9.33 201.397 9.45C201.284 9.57 201.14 9.63 200.967 9.63ZM201.417 17.19C201.417 17.6767 201.294 18.0333 201.047 18.26C200.8 18.4867 200.44 18.6 199.967 18.6H199.437V17.83H199.817C200.07 17.83 200.247 17.78 200.347 17.68C200.454 17.58 200.507 17.41 200.507 17.17V10.52H201.417V17.19ZM207.818 10.52V16H206.908V15.19C206.734 15.47 206.491 15.69 206.178 15.85C205.871 16.0033 205.531 16.08 205.158 16.08C204.731 16.08 204.348 15.9933 204.008 15.82C203.668 15.64 203.398 15.3733 203.198 15.02C203.004 14.6667 202.908 14.2367 202.908 13.73V10.52H203.808V13.61C203.808 14.15 203.944 14.5667 204.218 14.86C204.491 15.1467 204.864 15.29 205.338 15.29C205.824 15.29 206.208 15.14 206.488 14.84C206.768 14.54 206.908 14.1033 206.908 13.53V10.52H207.818ZM212.024 10.42C212.691 10.42 213.231 10.6233 213.644 11.03C214.057 11.43 214.264 12.01 214.264 12.77V16H213.364V12.9C213.364 12.3533 213.227 11.9367 212.954 11.65C212.681 11.3567 212.307 11.21 211.834 11.21C211.354 11.21 210.971 11.36 210.684 11.66C210.404 11.96 210.264 12.3967 210.264 12.97V16H209.354V10.52H210.264V11.3C210.444 11.02 210.687 10.8033 210.994 10.65C211.307 10.4967 211.651 10.42 212.024 10.42ZM220.75 13.05C220.75 13.2233 220.74 13.4067 220.72 13.6H216.34C216.374 14.14 216.557 14.5633 216.89 14.87C217.23 15.17 217.64 15.32 218.12 15.32C218.514 15.32 218.84 15.23 219.1 15.05C219.367 14.8633 219.554 14.6167 219.66 14.31H220.64C220.494 14.8367 220.2 15.2667 219.76 15.6C219.32 15.9267 218.774 16.09 218.12 16.09C217.6 16.09 217.134 15.9733 216.72 15.74C216.314 15.5067 215.994 15.1767 215.76 14.75C215.527 14.3167 215.41 13.8167 215.41 13.25C215.41 12.6833 215.524 12.1867 215.75 11.76C215.977 11.3333 216.294 11.0067 216.7 10.78C217.114 10.5467 217.587 10.43 218.12 10.43C218.64 10.43 219.1 10.5433 219.5 10.77C219.9 10.9967 220.207 11.31 220.42 11.71C220.64 12.1033 220.75 12.55 220.75 13.05ZM219.81 12.86C219.81 12.5133 219.734 12.2167 219.58 11.97C219.427 11.7167 219.217 11.5267 218.95 11.4C218.69 11.2667 218.4 11.2 218.08 11.2C217.62 11.2 217.227 11.3467 216.9 11.64C216.58 11.9333 216.397 12.34 216.35 12.86H219.81Z" fill="black"/>
<rect x="185" y="25" width="55" height="1" fill="#F2F2F2"/>
<path d="M185.408 39.416C186.085 38.872 186.616 38.4267 187 38.08C187.384 37.728 187.707 37.3627 187.968 36.984C188.235 36.6 188.368 36.224 188.368 35.856C188.368 35.5093 188.283 35.2373 188.112 35.04C187.947 34.8373 187.677 34.736 187.304 34.736C186.941 34.736 186.659 34.8507 186.456 35.08C186.259 35.304 186.152 35.6053 186.136 35.984H185.432C185.453 35.3867 185.635 34.9253 185.976 34.6C186.317 34.2747 186.757 34.112 187.296 34.112C187.845 34.112 188.28 34.264 188.6 34.568C188.925 34.872 189.088 35.2907 189.088 35.824C189.088 36.2667 188.955 36.6987 188.688 37.12C188.427 37.536 188.128 37.904 187.792 38.224C187.456 38.5387 187.027 38.9067 186.504 39.328H189.256V39.936H185.408V39.416ZM191.034 38.448C191.087 38.752 191.21 38.9867 191.402 39.152C191.599 39.3173 191.863 39.4 192.194 39.4C192.636 39.4 192.962 39.2267 193.17 38.88C193.383 38.5333 193.484 37.9493 193.474 37.128C193.362 37.368 193.175 37.5573 192.914 37.696C192.652 37.8293 192.362 37.896 192.042 37.896C191.684 37.896 191.364 37.824 191.082 37.68C190.804 37.5307 190.586 37.3147 190.426 37.032C190.266 36.7493 190.186 36.408 190.186 36.008C190.186 35.4373 190.351 34.9787 190.682 34.632C191.012 34.28 191.482 34.104 192.09 34.104C192.836 34.104 193.359 34.3467 193.658 34.832C193.962 35.3173 194.114 36.04 194.114 37C194.114 37.672 194.052 38.2267 193.93 38.664C193.812 39.1013 193.61 39.4347 193.322 39.664C193.039 39.8933 192.65 40.008 192.154 40.008C191.61 40.008 191.186 39.8613 190.882 39.568C190.578 39.2747 190.404 38.9013 190.362 38.448H191.034ZM192.162 37.28C192.519 37.28 192.812 37.1707 193.042 36.952C193.271 36.728 193.386 36.4267 193.386 36.048C193.386 35.648 193.274 35.3253 193.05 35.08C192.826 34.8347 192.511 34.712 192.106 34.712C191.732 34.712 191.434 34.8293 191.21 35.064C190.991 35.2987 190.882 35.608 190.882 35.992C190.882 36.3813 190.991 36.6933 191.21 36.928C191.428 37.1627 191.746 37.28 192.162 37.28ZM194.961 38.712V38.16L197.769 34.272H198.641V38.08H199.441V38.712H198.641V40H197.921V38.712H194.961ZM197.953 35.032L195.801 38.08H197.953V35.032ZM200.168 37.048C200.168 36.1307 200.317 35.416 200.616 34.904C200.915 34.3867 201.437 34.128 202.184 34.128C202.925 34.128 203.445 34.3867 203.744 34.904C204.043 35.416 204.192 36.1307 204.192 37.048C204.192 37.9813 204.043 38.7067 203.744 39.224C203.445 39.7413 202.925 40 202.184 40C201.437 40 200.915 39.7413 200.616 39.224C200.317 38.7067 200.168 37.9813 200.168 37.048ZM203.472 37.048C203.472 36.584 203.44 36.192 203.376 35.872C203.317 35.5467 203.192 35.2853 203 35.088C202.813 34.8907 202.541 34.792 202.184 34.792C201.821 34.792 201.544 34.8907 201.352 35.088C201.165 35.2853 201.04 35.5467 200.976 35.872C200.917 36.192 200.888 36.584 200.888 37.048C200.888 37.528 200.917 37.9307 200.976 38.256C201.04 38.5813 201.165 38.8427 201.352 39.04C201.544 39.2373 201.821 39.336 202.184 39.336C202.541 39.336 202.813 39.2373 203 39.04C203.192 38.8427 203.317 38.5813 203.376 38.256C203.44 37.9307 203.472 37.528 203.472 37.048ZM210.484 36.76V37.376H207.292V36.76H210.484ZM211.938 40V37.944H211.314V37.432H211.938V36.776H211.314V36.264H211.938V34.288H212.77L213.53 36.264H214.474V34.288H215.106V36.264H215.73V36.776H215.106V37.432H215.73V37.944H215.106V40H214.266L213.506 37.944H212.562V40H211.938ZM212.562 37.432H213.314L213.074 36.776H212.546L212.562 37.432ZM214.474 38.872H214.506L214.482 37.944H214.146L214.474 38.872ZM212.546 36.264H212.882L212.546 35.272H212.514L212.546 36.264ZM213.954 37.432H214.49L214.474 36.776H213.714L213.954 37.432ZM216.117 34.88V34.216H217.621V40H216.885V34.88H216.117ZM218.855 35.672C218.892 35.1813 219.082 34.7973 219.423 34.52C219.764 34.2427 220.207 34.104 220.751 34.104C221.114 34.104 221.426 34.1707 221.687 34.304C221.954 34.432 222.154 34.608 222.287 34.832C222.426 35.056 222.495 35.3093 222.495 35.592C222.495 35.9227 222.399 36.208 222.207 36.448C222.02 36.688 221.775 36.8427 221.471 36.912V36.952C221.818 37.0373 222.092 37.2053 222.295 37.456C222.498 37.7067 222.599 38.0347 222.599 38.44C222.599 38.744 222.53 39.0187 222.391 39.264C222.252 39.504 222.044 39.6933 221.767 39.832C221.49 39.9707 221.156 40.04 220.767 40.04C220.202 40.04 219.738 39.8933 219.375 39.6C219.012 39.3013 218.81 38.88 218.767 38.336H219.471C219.508 38.656 219.639 38.9173 219.863 39.12C220.087 39.3227 220.386 39.424 220.759 39.424C221.132 39.424 221.415 39.328 221.607 39.136C221.804 38.9387 221.903 38.6853 221.903 38.376C221.903 37.976 221.77 37.688 221.503 37.512C221.236 37.336 220.834 37.248 220.295 37.248H220.111V36.64H220.303C220.794 36.6347 221.164 36.5547 221.415 36.4C221.666 36.24 221.791 35.9947 221.791 35.664C221.791 35.3813 221.698 35.1547 221.511 34.984C221.33 34.8133 221.068 34.728 220.727 34.728C220.396 34.728 220.13 34.8133 219.927 34.984C219.724 35.1547 219.604 35.384 219.567 35.672H218.855ZM224.454 38.992L223.558 41.144H223.07L223.654 38.992H224.454ZM228.856 34.848H226.048V36.672C226.171 36.5013 226.352 36.3627 226.592 36.256C226.832 36.144 227.091 36.088 227.368 36.088C227.811 36.088 228.171 36.1813 228.448 36.368C228.725 36.5493 228.923 36.7867 229.04 37.08C229.163 37.368 229.224 37.6747 229.224 38C229.224 38.384 229.152 38.728 229.008 39.032C228.864 39.336 228.643 39.576 228.344 39.752C228.051 39.928 227.685 40.016 227.248 40.016C226.688 40.016 226.235 39.872 225.888 39.584C225.541 39.296 225.331 38.912 225.256 38.432H225.968C226.037 38.736 226.184 38.9733 226.408 39.144C226.632 39.3147 226.915 39.4 227.256 39.4C227.677 39.4 227.995 39.2747 228.208 39.024C228.421 38.768 228.528 38.432 228.528 38.016C228.528 37.6 228.421 37.28 228.208 37.056C227.995 36.8267 227.68 36.712 227.264 36.712C226.981 36.712 226.733 36.7813 226.52 36.92C226.312 37.0533 226.16 37.2373 226.064 37.472H225.376V34.208H228.856V34.848ZM230.191 37.048C230.191 36.1307 230.341 35.416 230.639 34.904C230.938 34.3867 231.461 34.128 232.207 34.128C232.949 34.128 233.469 34.3867 233.767 34.904C234.066 35.416 234.215 36.1307 234.215 37.048C234.215 37.9813 234.066 38.7067 233.767 39.224C233.469 39.7413 232.949 40 232.207 40C231.461 40 230.938 39.7413 230.639 39.224C230.341 38.7067 230.191 37.9813 230.191 37.048ZM233.495 37.048C233.495 36.584 233.463 36.192 233.399 35.872C233.341 35.5467 233.215 35.2853 233.023 35.088C232.837 34.8907 232.565 34.792 232.207 34.792C231.845 34.792 231.567 34.8907 231.375 35.088C231.189 35.2853 231.063 35.5467 230.999 35.872C230.941 36.192 230.911 36.584 230.911 37.048C230.911 37.528 230.941 37.9307 230.999 38.256C231.063 38.5813 231.189 38.8427 231.375 39.04C231.567 39.2373 231.845 39.336 232.207 39.336C232.565 39.336 232.837 39.2373 233.023 39.04C233.215 38.8427 233.341 38.5813 233.399 38.256C233.463 37.9307 233.495 37.528 233.495 37.048ZM236.151 38.448C236.204 38.752 236.327 38.9867 236.519 39.152C236.716 39.3173 236.98 39.4 237.311 39.4C237.753 39.4 238.079 39.2267 238.287 38.88C238.5 38.5333 238.601 37.9493 238.591 37.128C238.479 37.368 238.292 37.5573 238.031 37.696C237.769 37.8293 237.479 37.896 237.159 37.896C236.801 37.896 236.481 37.824 236.199 37.68C235.921 37.5307 235.703 37.3147 235.543 37.032C235.383 36.7493 235.303 36.408 235.303 36.008C235.303 35.4373 235.468 34.9787 235.799 34.632C236.129 34.28 236.599 34.104 237.207 34.104C237.953 34.104 238.476 34.3467 238.775 34.832C239.079 35.3173 239.231 36.04 239.231 37C239.231 37.672 239.169 38.2267 239.047 38.664C238.929 39.1013 238.727 39.4347 238.439 39.664C238.156 39.8933 237.767 40.008 237.271 40.008C236.727 40.008 236.303 39.8613 235.999 39.568C235.695 39.2747 235.521 38.9013 235.479 38.448H236.151ZM237.279 37.28C237.636 37.28 237.929 37.1707 238.159 36.952C238.388 36.728 238.503 36.4267 238.503 36.048C238.503 35.648 238.391 35.3253 238.167 35.08C237.943 34.8347 237.628 34.712 237.223 34.712C236.849 34.712 236.551 34.8293 236.327 35.064C236.108 35.2987 235.999 35.608 235.999 35.992C235.999 36.3813 236.108 36.6933 236.327 36.928C236.545 37.1627 236.863 37.28 237.279 37.28Z" fill="#A6A6A6"/>
<rect x="180.5" y="0.5" width="64" height="47" rx="4.5" stroke="#F2F2F2" shape-rendering="crispEdges"/>
</g>
</g>
<defs>
<filter id="filter0_dddddd_1832_56065" x="-69.8459" y="2" width="398.546" height="233" filterUnits="userSpaceOnUse" color-interpolation-filters="sRGB">
<feFlood flood-opacity="0" result="BackgroundImageFix"/>
<feColorMatrix in="SourceAlpha" type="matrix" values="0 0 0 0 0 0 0 0 0 0 0 0 0 0 0 0 0 0 127 0" result="hardAlpha"/>
<feOffset dy="2.76726"/>
<feGaussianBlur stdDeviation="0.96854"/>
<feColorMatrix type="matrix" values="0 0 0 0 0.027451 0 0 0 0 0.341176 0 0 0 0 0.631373 0 0 0 1 0"/>
<feBlend mode="normal" in2="BackgroundImageFix" result="effect1_dropShadow_1832_56065"/>
<feColorMatrix in="SourceAlpha" type="matrix" values="0 0 0 0 0 0 0 0 0 0 0 0 0 0 0 0 0 0 127 0" result="hardAlpha"/>
<feOffset dy="6.6501"/>
<feGaussianBlur stdDeviation="2.32754"/>
<feColorMatrix type="matrix" values="0 0 0 0 0.027451 0 0 0 0 0.341176 0 0 0 0 0.631373 0 0 0 1 0"/>
<feBlend mode="normal" in2="effect1_dropShadow_1832_56065" result="effect2_dropShadow_1832_56065"/>
<feColorMatrix in="SourceAlpha" type="matrix" values="0 0 0 0 0 0 0 0 0 0 0 0 0 0 0 0 0 0 127 0" result="hardAlpha"/>
<feOffset dy="12.5216"/>
<feGaussianBlur stdDeviation="4.38254"/>
<feColorMatrix type="matrix" values="0 0 0 0 0.027451 0 0 0 0 0.341176 0 0 0 0 0.631373 0 0 0 1 0"/>
<feBlend mode="normal" in2="effect2_dropShadow_1832_56065" result="effect3_dropShadow_1832_56065"/>
<feColorMatrix in="SourceAlpha" type="matrix" values="0 0 0 0 0 0 0 0 0 0 0 0 0 0 0 0 0 0 127 0" result="hardAlpha"/>
<feOffset dy="22.3363"/>
<feGaussianBlur stdDeviation="7.81771"/>
<feColorMatrix type="matrix" values="0 0 0 0 0.027451 0 0 0 0 0.341176 0 0 0 0 0.631373 0 0 0 0.5961 0"/>
<feBlend mode="normal" in2="effect3_dropShadow_1832_56065" result="effect4_dropShadow_1832_56065"/>
<feColorMatrix in="SourceAlpha" type="matrix" values="0 0 0 0 0 0 0 0 0 0 0 0 0 0 0 0 0 0 127 0" result="hardAlpha"/>
<feOffset dy="41.7776"/>
<feGaussianBlur stdDeviation="14.6222"/>
<feColorMatrix type="matrix" values="0 0 0 0 0.027451 0 0 0 0 0.341176 0 0 0 0 0.631373 0 0 0 0.7189 0"/>
<feBlend mode="normal" in2="effect4_dropShadow_1832_56065" result="effect5_dropShadow_1832_56065"/>
<feColorMatrix in="SourceAlpha" type="matrix" values="0 0 0 0 0 0 0 0 0 0 0 0 0 0 0 0 0 0 127 0" result="hardAlpha"/>
<feOffset dy="100"/>
<feGaussianBlur stdDeviation="35"/>
<feColorMatrix type="matrix" values="0 0 0 0 0.027451 0 0 0 0 0.341176 0 0 0 0 0.631373 0 0 0 1 0"/>
<feBlend mode="normal" in2="effect5_dropShadow_1832_56065" result="effect6_dropShadow_1832_56065"/>
<feBlend mode="normal" in="SourceGraphic" in2="effect6_dropShadow_1832_56065" result="shape"/>
</filter>
<filter id="filter1_d_1832_56065" x="176" y="0" width="73" height="56" filterUnits="userSpaceOnUse" color-interpolation-filters="sRGB">
<feFlood flood-opacity="0" result="BackgroundImageFix"/>
<feColorMatrix in="SourceAlpha" type="matrix" values="0 0 0 0 0 0 0 0 0 0 0 0 0 0 0 0 0 0 127 0" result="hardAlpha"/>
<feOffset dy="4"/>
<feGaussianBlur stdDeviation="2"/>
<feComposite in2="hardAlpha" operator="out"/>
<feColorMatrix type="matrix" values="0 0 0 0 0 0 0 0 0 0 0 0 0 0 0 0 0 0 0.1 0"/>
<feBlend mode="normal" in2="BackgroundImageFix" result="effect1_dropShadow_1832_56065"/>
<feBlend mode="normal" in="SourceGraphic" in2="effect1_dropShadow_1832_56065" result="shape"/>
</filter>
<clipPath id="clip0_1832_56065">
<rect width="258" height="120" fill="white"/>
</clipPath>
</defs>
</svg>
