<svg width="67" height="67" viewBox="0 0 67 67" fill="none" xmlns="http://www.w3.org/2000/svg">
<path d="M9.81192 9.81192C14.4115 5.21234 20.2507 2.05135 26.6167 0.714792C32.9827 -0.621762 39.6001 -0.0760511 45.6611 2.28531C51.7222 4.64667 56.9646 8.72153 60.7486 14.0125C64.5325 19.3034 66.6943 25.5815 66.9699 32.0805C67.2455 38.5794 65.6232 45.018 62.3008 50.6104C58.9784 56.2027 54.0998 60.7068 48.2605 63.5729C42.4211 66.439 35.8737 67.543 29.4174 66.7503C22.9611 65.9576 16.8752 63.3023 11.9027 59.1087L16.5741 53.5696C20.4711 56.8562 25.2406 58.9371 30.3004 59.5583C35.3603 60.1796 40.4915 59.3144 45.0678 57.0682C49.6441 54.822 53.4675 51.2922 56.0712 46.9094C58.675 42.5267 59.9465 37.4808 59.7304 32.3875C59.5144 27.2943 57.8203 22.3741 54.8548 18.2276C51.8893 14.081 47.7808 10.8876 43.0307 9.03697C38.2807 7.18637 33.0946 6.75869 28.1055 7.80615C23.1165 8.85361 18.5403 11.3309 14.9356 14.9356L9.81192 9.81192Z" fill="#842A83"/>
<path d="M9.81192 9.81192C6.422 13.2018 3.79915 17.2799 2.12058 21.7705C0.442004 26.2611 -0.25319 31.0596 0.0819646 35.842C0.417119 40.6243 1.77481 45.279 4.06332 49.4916C6.35183 53.7042 9.51783 57.3765 13.3474 60.2605L17.7481 54.4168C14.7548 52.1626 12.2802 49.2922 10.4914 45.9995C8.70263 42.7069 7.64142 39.0686 7.37945 35.3306C7.11748 31.5925 7.66087 27.8418 8.97289 24.3318C10.2849 20.8219 12.335 17.6343 14.9847 14.9847L9.81192 9.81192Z" fill="#EBE6FB"/>
<path d="M29.0632 21.278L25.3392 30H23.3512L27.1032 21.502H22.3152V19.822H29.0632V21.278ZM29.9991 21.6V19.794H33.3731V30H31.3571V21.6H29.9991ZM35.0854 22.3C35.0854 21.5907 35.2907 21.0353 35.7014 20.634C36.1214 20.2327 36.658 20.032 37.3114 20.032C37.9647 20.032 38.4967 20.2327 38.9074 20.634C39.3274 21.0353 39.5374 21.5907 39.5374 22.3C39.5374 23.0187 39.3274 23.5787 38.9074 23.98C38.4967 24.3813 37.9647 24.582 37.3114 24.582C36.658 24.582 36.1214 24.3813 35.7014 23.98C35.2907 23.5787 35.0854 23.0187 35.0854 22.3ZM44.0734 20.2L38.5714 30H36.6674L42.1554 20.2H44.0734ZM37.2974 21.208C36.784 21.208 36.5274 21.572 36.5274 22.3C36.5274 23.0373 36.784 23.406 37.2974 23.406C37.5494 23.406 37.7454 23.3173 37.8854 23.14C38.0254 22.9533 38.0954 22.6733 38.0954 22.3C38.0954 21.572 37.8294 21.208 37.2974 21.208ZM41.2314 27.886C41.2314 27.1673 41.4367 26.612 41.8474 26.22C42.2674 25.8187 42.804 25.618 43.4574 25.618C44.1107 25.618 44.638 25.8187 45.0394 26.22C45.4501 26.612 45.6554 27.1673 45.6554 27.886C45.6554 28.6047 45.4501 29.1647 45.0394 29.566C44.638 29.9673 44.1107 30.168 43.4574 30.168C42.7947 30.168 42.258 29.9673 41.8474 29.566C41.4367 29.1647 41.2314 28.6047 41.2314 27.886ZM43.4434 26.794C42.9114 26.794 42.6454 27.158 42.6454 27.886C42.6454 28.6233 42.9114 28.992 43.4434 28.992C43.9661 28.992 44.2274 28.6233 44.2274 27.886C44.2274 27.158 43.9661 26.794 43.4434 26.794Z" fill="#842A83"/>
<path d="M23.0444 41.12C23.3698 41.1893 23.6311 41.352 23.8284 41.608C24.0258 41.8587 24.1244 42.1467 24.1244 42.472C24.1244 42.9413 23.9591 43.3147 23.6284 43.592C23.3031 43.864 22.8471 44 22.2604 44H19.6444V38.384H22.1724C22.7431 38.384 23.1884 38.5147 23.5084 38.776C23.8338 39.0373 23.9964 39.392 23.9964 39.84C23.9964 40.1707 23.9084 40.4453 23.7324 40.664C23.5618 40.8827 23.3324 41.0347 23.0444 41.12ZM21.0124 40.656H21.9084C22.1324 40.656 22.3031 40.608 22.4204 40.512C22.5431 40.4107 22.6044 40.264 22.6044 40.072C22.6044 39.88 22.5431 39.7333 22.4204 39.632C22.3031 39.5307 22.1324 39.48 21.9084 39.48H21.0124V40.656ZM22.0204 42.896C22.2498 42.896 22.4258 42.8453 22.5484 42.744C22.6764 42.6373 22.7404 42.4853 22.7404 42.288C22.7404 42.0907 22.6738 41.936 22.5404 41.824C22.4124 41.712 22.2338 41.656 22.0044 41.656H21.0124V42.896H22.0204ZM29.3259 39.536V44H27.9579V43.392C27.8192 43.5893 27.6299 43.7493 27.3899 43.872C27.1552 43.9893 26.8939 44.048 26.6059 44.048C26.2645 44.048 25.9632 43.9733 25.7019 43.824C25.4405 43.6693 25.2379 43.448 25.0939 43.16C24.9499 42.872 24.8779 42.5333 24.8779 42.144V39.536H26.2379V41.96C26.2379 42.2587 26.3152 42.4907 26.4699 42.656C26.6245 42.8213 26.8325 42.904 27.0939 42.904C27.3605 42.904 27.5712 42.8213 27.7259 42.656C27.8805 42.4907 27.9579 42.2587 27.9579 41.96V39.536H29.3259ZM30.0365 41.76C30.0365 41.3013 30.1218 40.8987 30.2925 40.552C30.4685 40.2053 30.7058 39.9387 31.0045 39.752C31.3032 39.5653 31.6365 39.472 32.0045 39.472C32.2978 39.472 32.5645 39.5333 32.8045 39.656C33.0498 39.7787 33.2418 39.944 33.3805 40.152V38.08H34.7485V44H33.3805V43.36C33.2525 43.5733 33.0685 43.744 32.8285 43.872C32.5938 44 32.3192 44.064 32.0045 44.064C31.6365 44.064 31.3032 43.9707 31.0045 43.784C30.7058 43.592 30.4685 43.3227 30.2925 42.976C30.1218 42.624 30.0365 42.2187 30.0365 41.76ZM33.3805 41.768C33.3805 41.4267 33.2845 41.1573 33.0925 40.96C32.9058 40.7627 32.6765 40.664 32.4045 40.664C32.1325 40.664 31.9005 40.7627 31.7085 40.96C31.5218 41.152 31.4285 41.4187 31.4285 41.76C31.4285 42.1013 31.5218 42.3733 31.7085 42.576C31.9005 42.7733 32.1325 42.872 32.4045 42.872C32.6765 42.872 32.9058 42.7733 33.0925 42.576C33.2845 42.3787 33.3805 42.1093 33.3805 41.768ZM37.4342 39.472C37.7489 39.472 38.0235 39.536 38.2582 39.664C38.4982 39.792 38.6822 39.96 38.8102 40.168V39.536H40.1782V43.992C40.1782 44.4027 40.0955 44.7733 39.9302 45.104C39.7702 45.44 39.5222 45.7067 39.1862 45.904C38.8555 46.1013 38.4422 46.2 37.9462 46.2C37.2849 46.2 36.7489 46.0427 36.3382 45.728C35.9275 45.4187 35.6929 44.9973 35.6342 44.464H36.9862C37.0289 44.6347 37.1302 44.768 37.2902 44.864C37.4502 44.9653 37.6475 45.016 37.8822 45.016C38.1649 45.016 38.3889 44.9333 38.5542 44.768C38.7249 44.608 38.8102 44.3493 38.8102 43.992V43.36C38.6769 43.568 38.4929 43.7387 38.2582 43.872C38.0235 44 37.7489 44.064 37.4342 44.064C37.0662 44.064 36.7329 43.9707 36.4342 43.784C36.1355 43.592 35.8982 43.3227 35.7222 42.976C35.5515 42.624 35.4662 42.2187 35.4662 41.76C35.4662 41.3013 35.5515 40.8987 35.7222 40.552C35.8982 40.2053 36.1355 39.9387 36.4342 39.752C36.7329 39.5653 37.0662 39.472 37.4342 39.472ZM38.8102 41.768C38.8102 41.4267 38.7142 41.1573 38.5222 40.96C38.3355 40.7627 38.1062 40.664 37.8342 40.664C37.5622 40.664 37.3302 40.7627 37.1382 40.96C36.9515 41.152 36.8582 41.4187 36.8582 41.76C36.8582 42.1013 36.9515 42.3733 37.1382 42.576C37.3302 42.7733 37.5622 42.872 37.8342 42.872C38.1062 42.872 38.3355 42.7733 38.5222 42.576C38.7142 42.3787 38.8102 42.1093 38.8102 41.768ZM45.3759 41.696C45.3759 41.824 45.3679 41.9573 45.3519 42.096H42.2559C42.2772 42.3733 42.3652 42.5867 42.5199 42.736C42.6799 42.88 42.8745 42.952 43.1039 42.952C43.4452 42.952 43.6825 42.808 43.8159 42.52H45.2719C45.1972 42.8133 45.0612 43.0773 44.8639 43.312C44.6719 43.5467 44.4292 43.7307 44.1359 43.864C43.8425 43.9973 43.5145 44.064 43.1519 44.064C42.7145 44.064 42.3252 43.9707 41.9839 43.784C41.6425 43.5973 41.3759 43.3307 41.1839 42.984C40.9919 42.6373 40.8959 42.232 40.8959 41.768C40.8959 41.304 40.9892 40.8987 41.1759 40.552C41.3679 40.2053 41.6345 39.9387 41.9759 39.752C42.3172 39.5653 42.7092 39.472 43.1519 39.472C43.5839 39.472 43.9679 39.5627 44.3039 39.744C44.6399 39.9253 44.9012 40.184 45.0879 40.52C45.2799 40.856 45.3759 41.248 45.3759 41.696ZM43.9759 41.336C43.9759 41.1013 43.8959 40.9147 43.7359 40.776C43.5759 40.6373 43.3759 40.568 43.1359 40.568C42.9065 40.568 42.7119 40.6347 42.5519 40.768C42.3972 40.9013 42.3012 41.0907 42.2639 41.336H43.9759ZM48.5856 42.84V44H47.8896C47.3936 44 47.0069 43.88 46.7296 43.64C46.4522 43.3947 46.3136 42.9973 46.3136 42.448V40.672H45.7696V39.536H46.3136V38.448H47.6816V39.536H48.5776V40.672H47.6816V42.464C47.6816 42.5973 47.7136 42.6933 47.7776 42.752C47.8416 42.8107 47.9482 42.84 48.0976 42.84H48.5856Z" fill="#842A83"/>
</svg>
