<svg width="11" height="11" viewBox="0 0 11 11" fill="none" xmlns="http://www.w3.org/2000/svg">
<path d="M10.3739 1.80473C10.2186 1.64922 10.0343 1.57145 9.82149 1.57145H9.03587V0.982148C9.03587 0.712112 8.93961 0.480883 8.7473 0.288547C8.55488 0.096211 8.32378 0 8.05361 0H7.66085C7.39071 0 7.15952 0.0962111 6.96718 0.288569C6.77478 0.480883 6.67862 0.712134 6.67862 0.98217V1.57148H4.3216V0.98217C4.3216 0.712134 4.22539 0.480905 4.03303 0.288569C3.84071 0.0962111 3.60951 0 3.33936 0H2.94654C2.67646 0 2.44523 0.0962111 2.25287 0.288569C2.06056 0.480883 1.96432 0.712134 1.96432 0.98217V1.57148H1.17868C0.965833 1.57148 0.781709 1.64924 0.626201 1.80475C0.470694 1.96023 0.392929 2.14444 0.392929 2.35722V10.2143C0.392929 10.427 0.470694 10.6111 0.626201 10.7667C0.781687 10.9222 0.965811 11 1.17868 11H9.82134C10.0341 11 10.2184 10.9222 10.3738 10.7667C10.5293 10.6112 10.6071 10.427 10.6071 10.2143V2.3572C10.607 2.14436 10.5293 1.96023 10.3739 1.80473ZM2.94647 10.2142H1.17868V8.44632H2.94647V10.2142ZM2.94647 8.05356H1.17868V6.0894H2.94647V8.05356ZM2.94647 5.69636H1.17868V3.92859H2.94647V5.69636ZM2.80845 2.88812C2.76955 2.84922 2.75014 2.80328 2.75014 2.75002V0.982234C2.75014 0.929044 2.76955 0.88297 2.80845 0.844142C2.84734 0.805249 2.89328 0.785835 2.94654 0.785835H3.33936C3.39255 0.785835 3.43863 0.805249 3.47745 0.844142C3.51635 0.882992 3.5358 0.929044 3.5358 0.982234V2.75002C3.5358 2.8033 3.51626 2.84924 3.47745 2.88812C3.4386 2.92701 3.39262 2.94642 3.33936 2.94642H2.94654C2.89335 2.94644 2.84734 2.92701 2.80845 2.88812ZM5.30362 10.2142H3.3393V8.44632H5.30362V10.2142ZM5.30362 8.05356H3.3393V6.0894H5.30362V8.05356ZM5.30362 5.69636H3.3393V3.92859H5.30362V5.69636ZM7.66085 10.2142H5.69655V8.44632H7.66085V10.2142ZM7.66085 8.05356H5.69655V6.0894H7.66085V8.05356ZM7.66085 5.69636H5.69655V3.92859H7.66085V5.69636ZM7.52267 2.88812C7.48382 2.84922 7.46447 2.80328 7.46447 2.75002V0.982234C7.46447 0.929044 7.48382 0.88297 7.52267 0.844142C7.56154 0.805249 7.60758 0.785835 7.66085 0.785835H8.05361C8.10689 0.785835 8.15287 0.805249 8.19179 0.844142C8.23066 0.882992 8.24999 0.929044 8.24999 0.982234V2.75002C8.24999 2.8033 8.23057 2.84924 8.19179 2.88812C8.15294 2.92701 8.10689 2.94642 8.05361 2.94642H7.66085C7.6076 2.94644 7.56139 2.92701 7.52267 2.88812ZM9.82134 10.2142H8.05346V8.44632H9.82134V10.2142ZM9.82134 8.05356H8.05346V6.0894H9.82134V8.05356ZM9.82134 5.69636H8.05346V3.92859H9.82134V5.69636Z" fill="black"/>
</svg>
