<svg width="25" height="25" viewBox="0 0 25 25" fill="none" xmlns="http://www.w3.org/2000/svg">
<path d="M17.5 6.32813C17.7344 6.25 18.0469 6.25 18.3594 6.25C20.7031 6.25 22.6562 8.20312 22.6562 10.5469C22.6562 12.8906 20.7031 14.8438 18.3594 14.8438L18.75 21.875H6.25L6.64062 14.8438C4.29688 14.8438 2.34375 12.8906 2.34375 10.5469C2.34375 8.20312 4.29688 6.25 6.64062 6.25C6.95313 6.25 7.26563 6.25 7.5 6.32813" stroke="black" stroke-width="2" stroke-miterlimit="10" stroke-linecap="round" stroke-linejoin="round"/>
<path d="M17.9688 8.59375C17.9688 5.54687 15.5469 3.125 12.5 3.125C9.45312 3.125 7.03125 5.54687 7.03125 8.59375" stroke="black" stroke-width="2" stroke-miterlimit="10" stroke-linecap="round" stroke-linejoin="round"/>
<path d="M12.5 16.4062V18.75" stroke="black" stroke-width="2" stroke-miterlimit="10" stroke-linecap="round" stroke-linejoin="round"/>
<path d="M9.76562 16.4062L9.375 18.5156" stroke="black" stroke-width="2" stroke-miterlimit="10" stroke-linecap="round" stroke-linejoin="round"/>
<path d="M15.2344 16.4062L15.625 18.5156" stroke="black" stroke-width="2" stroke-miterlimit="10" stroke-linecap="round" stroke-linejoin="round"/>
</svg>
