<svg width="19" height="20" viewBox="0 0 19 20" fill="none" xmlns="http://www.w3.org/2000/svg">
<g clip-path="url(#clip0_1571_5133)">
<path d="M9.5 17.5C13.6421 17.5 17 14.1421 17 10C17 5.85786 13.6421 2.5 9.5 2.5C5.35786 2.5 2 5.85786 2 10C2 14.1421 5.35786 17.5 9.5 17.5Z" fill="#F0F0F0"/>
<path d="M3.71433 5.22733H15.2857C14.8583 4.7098 14.3626 4.25087 13.8127 3.86371H5.18729C4.63742 4.25081 4.14174 4.70977 3.71433 5.22733Z" fill="#F0F0F0"/>
<path d="M2 9.99997C2 10.2299 2.01093 10.4572 2.03117 10.6818H16.9688C16.9891 10.4572 17 10.2299 17 9.99997C17 9.77008 16.9891 9.5428 16.9688 9.31818H2.03117C2.01093 9.5428 2 9.77008 2 9.99997Z" fill="#F0F0F0"/>
<path d="M2.81785 13.4091H16.1821C16.403 12.9771 16.5831 12.5209 16.7176 12.0455H2.28242C2.41687 12.5209 2.59704 12.9771 2.81785 13.4091Z" fill="#F0F0F0"/>
<path d="M5.18729 16.1364H13.8127C14.3625 15.7492 14.8583 15.2903 15.2856 14.7728H3.71433C4.14174 15.2902 4.63742 15.7492 5.18729 16.1364Z" fill="#F0F0F0"/>
<path d="M2.28239 7.95457H16.7176C16.5831 7.47914 16.403 7.02292 16.1821 6.59094H2.81785C2.59704 7.02292 2.41687 7.47914 2.28239 7.95457Z" fill="#F0F0F0"/>
<path d="M5.58696 3.86362H13.8127C12.5928 3.0047 11.1054 2.5 9.5 2.5C8.52175 2.5 6.80688 3.0047 5.58696 3.86362Z" fill="#D80027"/>
<path d="M9.17393 6.59092H16.1822C15.9327 6.10304 15.6315 5.64604 15.2857 5.22729H9.17393V6.59092Z" fill="#D80027"/>
<path d="M9.17393 9.31821H16.9688C16.9266 8.84999 16.8419 8.39401 16.7176 7.95459H9.17393V9.31821Z" fill="#D80027"/>
<path d="M2.28242 12.0455H16.7176C16.8419 11.6061 16.9266 11.1501 16.9688 10.6819H2.03117C2.07336 11.1501 2.15815 11.6061 2.28242 12.0455Z" fill="#D80027"/>
<path d="M3.71434 14.7727H15.2857C15.6315 14.3539 15.9327 13.8969 16.1821 13.4091H2.81786C3.06726 13.8969 3.36849 14.3539 3.71434 14.7727Z" fill="#D80027"/>
<path d="M9.5 17.5C11.1054 17.5 12.5928 16.9953 13.8127 16.1364H5.18729C6.40722 16.9953 7.89462 17.5 9.5 17.5Z" fill="#D80027"/>
<path d="M2.28239 7.95455C2.15812 8.394 2.07336 8.84995 2.03117 9.31817H9.5V2.5C6.067 2.5 3.17279 4.8066 2.28239 7.95455Z" fill="#0052B4"/>
<path d="M6.46449 4.45654L6.95009 5.95112H8.52174L7.25032 6.87492L7.73589 8.36958L6.46449 7.44585L5.19304 8.36958L5.67872 6.87492L4.4073 5.95112H5.97887L6.46449 4.45654Z" fill="#F0F0F0"/>
</g>
<defs>
<clipPath id="clip0_1571_5133">
<rect width="15" height="15" fill="white" transform="translate(2 2.5)"/>
</clipPath>
</defs>
</svg>
