<svg width="50" height="50" viewBox="0 0 50 50" fill="none" xmlns="http://www.w3.org/2000/svg">
<g clip-path="url(#clip0_1832_56757)">
<path d="M31.8968 18.1152C31.25 18.1152 30.7258 18.6394 30.7258 19.2862V41.4173C30.7258 42.0636 31.25 42.5883 31.8968 42.5883C32.5436 42.5883 33.0677 42.0636 33.0677 41.4173V19.2862C33.0677 18.6394 32.5436 18.1152 31.8968 18.1152Z" fill="#842A83"/>
<path d="M18.0794 18.1152C17.4326 18.1152 16.9084 18.6394 16.9084 19.2862V41.4173C16.9084 42.0636 17.4326 42.5883 18.0794 42.5883C18.7262 42.5883 19.2504 42.0636 19.2504 41.4173V19.2862C19.2504 18.6394 18.7262 18.1152 18.0794 18.1152Z" fill="#842A83"/>
<path d="M8.00918 14.8855V43.7354C8.00918 45.4406 8.63445 47.042 9.72673 48.191C10.814 49.3432 12.3271 49.9972 13.9106 50H36.0655C37.6495 49.9972 39.1626 49.3432 40.2494 48.191C41.3416 47.042 41.9669 45.4406 41.9669 43.7354V14.8855C44.1382 14.3092 45.5452 12.2115 45.2547 9.98347C44.9638 7.75591 43.0661 6.08958 40.8193 6.08913H34.8241V4.62543C34.8309 3.39456 34.3443 2.21262 33.4729 1.34309C32.6016 0.474025 31.4178 -0.00990905 30.1869 0.000153854H19.7892C18.5583 -0.00990905 17.3745 0.474025 16.5032 1.34309C15.6318 2.21262 15.1452 3.39456 15.152 4.62543V6.08913H9.15681C6.91003 6.08958 5.01226 7.75591 4.72135 9.98347C4.4309 12.2115 5.83788 14.3092 8.00918 14.8855ZM36.0655 47.6581H13.9106C11.9086 47.6581 10.3511 45.9382 10.3511 43.7354V14.9884H39.625V43.7354C39.625 45.9382 38.0675 47.6581 36.0655 47.6581ZM17.4939 4.62543C17.4862 4.01571 17.7258 3.42886 18.1585 2.99844C18.5908 2.56802 19.179 2.33155 19.7892 2.34207H30.1869C30.7971 2.33155 31.3853 2.56802 31.8176 2.99844C32.2503 3.4284 32.4899 4.01571 32.4822 4.62543V6.08913H17.4939V4.62543ZM9.15681 8.43104H40.8193C41.9834 8.43104 42.927 9.37467 42.927 10.5388C42.927 11.7029 41.9834 12.6465 40.8193 12.6465H9.15681C7.99271 12.6465 7.04909 11.7029 7.04909 10.5388C7.04909 9.37467 7.99271 8.43104 9.15681 8.43104Z" fill="#842A83"/>
<path d="M24.9881 18.1152C24.3413 18.1152 23.8171 18.6394 23.8171 19.2862V41.4173C23.8171 42.0636 24.3413 42.5883 24.9881 42.5883C25.6349 42.5883 26.1591 42.0636 26.1591 41.4173V19.2862C26.1591 18.6394 25.6349 18.1152 24.9881 18.1152Z" fill="#842A83"/>
</g>
<defs>
<clipPath id="clip0_1832_56757">
<rect width="50" height="50" fill="white"/>
</clipPath>
</defs>
</svg>
