<svg width="35" height="35" viewBox="0 0 35 35" fill="none" xmlns="http://www.w3.org/2000/svg">
<g clip-path="url(#clip0_1832_58966)">
<path d="M34.4421 27.0297L21.0642 3.85853C20.3203 2.5701 18.9879 1.80078 17.5 1.80078C16.0121 1.80078 14.6797 2.5701 13.9358 3.85853L0.557965 27.0296C-0.185988 28.3182 -0.185988 29.8567 0.557965 31.1452C1.30192 32.4337 2.63424 33.203 4.12215 33.203H30.8778C32.3656 33.203 33.698 32.4337 34.4421 31.1453C35.186 29.8567 35.186 28.3182 34.4421 27.0297ZM32.6662 30.12C32.2929 30.7666 31.6244 31.1525 30.8778 31.1525H4.12215C3.37553 31.1525 2.70697 30.7666 2.33373 30.12C1.96049 29.4735 1.96049 28.7016 2.33373 28.055L15.7117 4.88385C16.0849 4.23731 16.7535 3.85135 17.5 3.85135C18.2465 3.85135 18.9152 4.23731 19.2884 4.88385L32.6663 28.055C33.0395 28.7016 33.0395 29.4735 32.6662 30.12Z" fill="black"/>
<path d="M18.5251 12.0312H16.4746V22.2839H18.5251V12.0312Z" fill="black"/>
<path d="M17.4999 24.3359C16.7461 24.3359 16.1328 24.9492 16.1328 25.703C16.1328 26.4568 16.7461 27.07 17.4999 27.07C18.2536 27.07 18.8669 26.4568 18.8669 25.703C18.8669 24.9492 18.2537 24.3359 17.4999 24.3359Z" fill="black"/>
</g>
<defs>
<clipPath id="clip0_1832_58966">
<rect width="35" height="35" fill="white"/>
</clipPath>
</defs>
</svg>
