<svg width="22" height="22" viewBox="0 0 22 22" fill="none" xmlns="http://www.w3.org/2000/svg">
<g clip-path="url(#clip0_1807_19322)">
<path d="M19.7911 1.05811C19.1406 1.05811 18.6237 1.57499 18.6237 2.22555V4.61595C16.7768 2.41272 14.0229 1.05811 11.0005 1.05811C5.51445 1.05811 1.05859 5.51508 1.05859 11.0162C1.05859 16.5185 5.51557 20.9581 11.0005 20.9581C16.4859 20.9581 20.9423 16.5017 20.9423 11.0162C20.9423 10.3657 20.4254 9.8488 19.7749 9.8488C19.1243 9.8488 18.6074 10.3657 18.6074 11.0162C18.6074 15.2168 15.1848 18.6395 10.9842 18.6395C6.78618 18.6395 3.3772 15.2032 3.3772 11C3.3772 6.79936 6.79985 3.37671 11.0005 3.37671C13.7378 3.37671 16.2085 4.82952 17.5524 7.11392H13.7028C13.0522 7.11392 12.5353 7.6308 12.5353 8.28136C12.5353 8.93192 13.0522 9.4488 13.7028 9.4488H19.7749C20.4254 9.4488 20.9423 8.93192 20.9423 8.28136V2.20927C20.9423 1.57499 20.4254 1.05811 19.7911 1.05811Z" fill="#D80027" stroke="#D80027"/>
</g>
<defs>
<clipPath id="clip0_1807_19322">
<rect width="21" height="21" fill="white" transform="translate(0.5 0.5)"/>
</clipPath>
</defs>
</svg>
