<svg width="36" height="35" viewBox="0 0 36 35" fill="none" xmlns="http://www.w3.org/2000/svg">
<g clip-path="url(#clip0_865_31733)">
<path d="M20.3698 1.57048C20.3698 0.935303 20.9964 0.414062 21.7797 0.414062C22.563 0.414062 23.1896 0.929606 23.1896 1.57048V6.62337C23.1896 7.25854 22.563 7.77979 21.7797 7.77979C20.9964 7.77979 20.3698 7.26424 20.3698 6.62337V1.57048ZM4.59302 22.6451H7.823C8.02808 22.6451 8.19613 22.8132 8.19613 23.0182V25.4051C8.19613 25.6102 8.02808 25.7782 7.823 25.7782H4.59302C4.38794 25.7782 4.21989 25.6102 4.21989 25.4051V23.0182C4.21989 22.8103 4.38794 22.6451 4.59302 22.6451ZM16.9604 15.8433H20.1903C20.29 15.8433 20.3783 15.8832 20.4467 15.9459C19.1792 16.7377 18.0798 17.7688 17.2082 18.9793H16.9604C16.7553 18.9793 16.5872 18.8113 16.5872 18.6062V16.2193C16.5872 16.0114 16.7553 15.8433 16.9604 15.8433ZM10.7767 15.8433H14.0067C14.2118 15.8433 14.3798 16.0114 14.3798 16.2165V18.6034C14.3798 18.8084 14.2118 18.9765 14.0067 18.9765H10.7767C10.5716 18.9765 10.4036 18.8084 10.4036 18.6034V16.2165C10.4036 16.0114 10.5716 15.8433 10.7767 15.8433ZM4.59302 15.8433H7.823C8.02808 15.8433 8.19613 16.0114 8.19613 16.2165V18.6034C8.19613 18.8084 8.02808 18.9765 7.823 18.9765H4.59302C4.38794 18.9765 4.21989 18.8084 4.21989 18.6034V16.2165C4.21989 16.0114 4.38794 15.8433 4.59302 15.8433ZM10.7767 22.6451H14.0067C14.2118 22.6451 14.3798 22.8132 14.3798 23.0182V25.4051C14.3798 25.6102 14.2118 25.7782 14.0067 25.7782H10.7767C10.5716 25.7782 10.4036 25.6102 10.4036 25.4051V23.0182C10.4036 22.8103 10.5716 22.6451 10.7767 22.6451ZM29.9771 17.3729C33.3125 18.7543 35.5 22.0099 35.5 25.6387C35.5 28.1082 34.4974 30.3469 32.8796 31.9648C31.2617 33.5826 29.0258 34.5852 26.5535 34.5852C24.084 34.5852 21.8481 33.5826 20.2274 31.9648C18.6095 30.3441 17.6069 28.1082 17.6069 25.6387C17.6069 22.0384 19.8457 18.6803 23.1754 17.3131C25.2404 16.47 27.9264 16.5212 29.9771 17.3729ZM25.1777 25.3994C25.2888 25.2769 25.4255 25.1715 25.5737 25.0918V21.201C25.5737 20.8051 25.8955 20.4832 26.2914 20.4832C26.6873 20.4832 27.012 20.8051 27.012 21.201V25.0918C27.2741 25.2342 27.4906 25.4478 27.6301 25.7099H30.4101C30.8088 25.7099 31.1278 26.0317 31.1278 26.4277C31.1278 26.8236 30.806 27.1454 30.4101 27.1454H27.6301C27.3738 27.6239 26.8725 27.9486 26.2914 27.9486C25.8357 27.9486 25.4284 27.7464 25.1493 27.4303C24.6337 26.8407 24.6593 25.9605 25.1777 25.3994ZM31.8656 20.469C28.1599 16.7633 21.9107 17.8115 19.7432 22.477C19.2988 23.4369 19.0482 24.5079 19.0482 25.6358C19.0482 27.7094 19.8884 29.5864 21.2471 30.9451C22.6057 32.3037 24.4827 33.144 26.5563 33.144C28.6299 33.144 30.5069 32.3009 31.8656 30.9451C33.2242 29.5864 34.0645 27.7094 34.0645 25.6358C34.0645 24.4595 33.7939 23.3458 33.3125 22.3546C32.9451 21.6055 32.4552 21.0586 31.8656 20.469ZM7.71476 1.57048C7.71476 0.935303 8.34139 0.414062 9.12468 0.414062C9.90511 0.414062 10.5346 0.929606 10.5346 1.57048V6.62337C10.5346 7.25854 9.90511 7.77979 9.12468 7.77979C8.34424 7.77979 7.71476 7.26424 7.71476 6.62337V1.57048ZM2.05233 11.4626H28.8862V5.6464C28.8862 5.44702 28.8065 5.27327 28.6783 5.1451C28.5501 5.01693 28.3678 4.93717 28.177 4.93717H25.605C25.1749 4.93717 24.8245 4.58683 24.8245 4.15674C24.8245 3.72664 25.1749 3.3763 25.605 3.3763H28.177C28.8065 3.3763 29.3733 3.6298 29.7863 4.04281C30.1993 4.45581 30.4528 5.02262 30.4528 5.6521V14.8892C29.9401 14.7126 29.4132 14.5701 28.8691 14.4648V13.0207H28.8862H2.05233V28.0911C2.05233 28.2904 2.13208 28.4642 2.26025 28.5924C2.38843 28.7205 2.57072 28.8003 2.76156 28.8003H15.5134C15.6587 29.3415 15.841 29.8713 16.0603 30.3783H2.7758C2.14917 30.3783 1.57951 30.1248 1.1665 29.7118C0.753499 29.2959 0.5 28.7319 0.5 28.1025V5.6521C0.5 5.02547 0.753499 4.45866 1.1665 4.04281C1.57951 3.6298 2.14632 3.3763 2.7758 3.3763H5.52157C5.95166 3.3763 6.302 3.72664 6.302 4.15674C6.302 4.58683 5.95166 4.93717 5.52157 4.93717H2.7758C2.57642 4.93717 2.40267 5.01693 2.2745 5.1451C2.14632 5.27327 2.06657 5.45557 2.06657 5.6464V11.4655H2.05233V11.4626ZM12.7848 4.93433C12.3547 4.93433 12.0043 4.58398 12.0043 4.15389C12.0043 3.7238 12.3547 3.37345 12.7848 3.37345H18.0228C18.4529 3.37345 18.8032 3.7238 18.8032 4.15389C18.8032 4.58398 18.4529 4.93433 18.0228 4.93433H12.7848Z" fill="black"/>
</g>
<defs>
<clipPath id="clip0_865_31733">
<rect width="35" height="34.1711" fill="white" transform="translate(0.5 0.414062)"/>
</clipPath>
</defs>
</svg>
