<svg width="20" height="21" viewBox="0 0 20 21" fill="none" xmlns="http://www.w3.org/2000/svg">
<path d="M2.5 4.875H5.625H5.6875C5.9375 5.9375 6.9375 6.75 8.125 6.75C9.3125 6.75 10.25 5.9375 10.5625 4.875H10.625H17.5C17.875 4.875 18.125 4.625 18.125 4.25C18.125 3.875 17.875 3.625 17.5 3.625H10.625H10.5625C10.3125 2.5625 9.3125 1.75 8.125 1.75C6.9375 1.75 6 2.5625 5.6875 3.625H5.625H2.5C2.125 3.625 1.875 3.875 1.875 4.25C1.875 4.625 2.125 4.875 2.5 4.875Z" fill="black"/>
<path d="M17.5 9.875H15H14.9375C14.6875 8.8125 13.6875 8 12.5 8C11.3125 8 10.375 8.8125 10.0625 9.875H10H2.5C2.125 9.875 1.875 10.125 1.875 10.5C1.875 10.875 2.125 11.125 2.5 11.125H10H10.0625C10.3125 12.1875 11.3125 13 12.5 13C13.6875 13 14.625 12.1875 14.9375 11.125H15H17.5C17.875 11.125 18.125 10.875 18.125 10.5C18.125 10.125 17.875 9.875 17.5 9.875Z" fill="black"/>
<path d="M17.5 16.125H10.625H10.5625C10.3125 15.0625 9.3125 14.25 8.125 14.25C6.9375 14.25 6 15.0625 5.6875 16.125H5.625H2.5C2.125 16.125 1.875 16.375 1.875 16.75C1.875 17.125 2.125 17.375 2.5 17.375H5.625H5.6875C5.9375 18.4375 6.9375 19.25 8.125 19.25C9.3125 19.25 10.25 18.4375 10.5625 17.375H10.625H17.5C17.875 17.375 18.125 17.125 18.125 16.75C18.125 16.375 17.875 16.125 17.5 16.125Z" fill="black"/>
</svg>
