<svg width="91" height="90" viewBox="0 0 91 90" fill="none" xmlns="http://www.w3.org/2000/svg">
<g clip-path="url(#clip0_1832_58334)">
<path d="M86.5831 39.9375C86.5831 68.8126 49.8331 86.2501 49.8331 86.2501C49.8331 86.2501 13.083 68.8126 13.083 39.9375C13.083 29.2501 21.7081 20.625 32.3956 20.625C40.083 20.625 46.6456 24.9374 49.8331 31.5001C53.0205 25.125 59.5831 20.625 67.2706 20.625C77.7705 20.625 86.5831 29.2501 86.5831 39.9375Z" fill="white"/>
<path d="M49.833 90C49.2705 90 48.708 89.8124 48.1455 89.6251C46.6456 88.875 9.33301 70.875 9.33301 39.9375C9.33301 27.1876 19.6456 16.875 32.3955 16.875C39.1455 16.875 45.5206 19.6875 49.833 24.75C54.1455 19.6875 60.3329 16.875 67.0829 16.875C80.0204 16.875 90.333 27.1876 90.333 39.9375C90.333 70.875 53.0205 88.875 51.5205 89.6251C50.958 89.8124 50.3955 90 49.833 90ZM32.3955 24.5624C23.7704 24.5624 16.8331 31.5 16.8331 40.1249C16.8331 62.9998 42.8956 78.3749 49.6456 82.1248C56.3956 78.3749 82.4582 62.9998 82.4582 40.1249C82.4582 31.4998 75.5206 24.5624 66.8957 24.5624C60.8958 24.5624 55.6457 27.9374 53.0208 33.1875C52.4583 34.5001 50.9584 35.2499 49.6458 35.2499C48.1459 35.2499 46.8333 34.4999 46.2708 33.1875C43.6455 27.7501 38.3954 24.5624 32.3955 24.5624Z" fill="#FFD15C"/>
<path d="M39.1456 39.5625V41.8125H33.8956V44.25H38.7705V46.5H33.8956V50.8124H31.458V39.7501H39.1456V39.5625Z" fill="#415A6B"/>
<path d="M49.2704 46.5C49.2704 47.8126 48.8955 48.7501 47.9579 49.6875C47.0205 50.625 46.0828 51.0001 44.7705 51.0001C43.4581 51.0001 42.3329 50.6252 41.5831 49.6875C40.6456 48.7501 40.2705 47.8124 40.2705 46.5C40.2705 45.1877 40.6454 44.25 41.5831 43.3126C42.5205 42.3751 43.4581 42 44.7705 42C46.0828 42 47.208 42.3749 47.9579 43.3126C48.8955 44.25 49.2704 45.1877 49.2704 46.5ZM42.708 46.5C42.708 47.2501 42.8956 47.8126 43.2705 48.1876C43.6455 48.5625 44.208 48.9376 44.7705 48.9376C45.333 48.9376 45.8955 48.7501 46.2704 48.1876C46.6453 47.8126 46.8329 47.2501 46.8329 46.5C46.8329 45.75 46.6453 45.1875 46.2704 44.8125C45.8955 44.4376 45.333 44.0625 44.7705 44.0625C44.208 44.0625 43.6455 44.25 43.2705 44.8125C42.8954 45.1877 42.708 45.7502 42.708 46.5Z" fill="#415A6B"/>
<path d="M55.6455 44.2498C54.8954 44.2498 54.3329 44.4373 54.1456 44.9998C53.7706 45.5623 53.5831 46.1248 53.5831 47.0622V50.8121H51.1455V42.1874H53.5831V43.3124C53.958 42.9374 54.3331 42.7499 54.7081 42.3749C55.083 42.1874 55.6455 42 56.208 42V44.25H55.6455V44.2498Z" fill="#415A6B"/>
<path d="M43.4581 65.2499H41.0205V60.9375L37.083 54.1875H39.7082L42.1457 58.3126L44.5833 54.1875H47.2083L43.4581 60.7499V65.2499Z" fill="#415A6B"/>
<path d="M55.833 60.9375C55.833 62.2501 55.458 63.1875 54.5204 64.125C53.583 65.0624 52.6454 65.4376 51.333 65.4376C50.0206 65.4376 48.8956 65.0624 48.1456 64.125C47.2081 63.1875 46.833 62.2499 46.833 60.9375C46.833 59.6251 47.208 58.6875 48.1456 57.7501C49.083 56.8126 50.0206 56.4375 51.333 56.4375C52.6454 56.4375 53.7706 56.8124 54.5204 57.7501C55.458 58.5 55.833 59.625 55.833 60.9375ZM49.2706 60.9375C49.2706 61.6876 49.4581 62.2501 49.8331 62.625C50.208 63 50.7705 63.3751 51.333 63.3751C51.8955 63.3751 52.458 63.1875 52.8329 62.625C53.2079 62.2501 53.3954 61.6876 53.3954 60.9375C53.3954 60.1875 53.2079 59.625 52.8329 59.25C52.458 58.8751 51.8955 58.5 51.333 58.5C50.7705 58.5 50.208 58.6875 49.8331 59.25C49.4581 59.625 49.2706 60.1875 49.2706 60.9375Z" fill="#415A6B"/>
<path d="M63.1455 61.1251V56.4375H65.583V65.0626H63.1455V63.9376C62.583 64.6876 61.8329 65.2501 60.8955 65.2501C59.9581 65.2501 59.208 64.8752 58.4579 64.3127C57.8954 63.7502 57.5205 62.8127 57.5205 61.6877V56.4377H59.9581V61.1252C59.9581 62.4378 60.5206 63.1877 61.458 63.1877C62.0205 63.1877 62.3954 63.0001 62.7706 62.6252C62.9581 62.4376 63.1455 61.8751 63.1455 61.1251Z" fill="#415A6B"/>
<path d="M43.8331 24.375C43.8331 24.9375 44.0206 25.3124 44.0206 25.8749C44.7707 30.1874 45.8957 32.9999 43.6457 35.8124C37.2706 35.4374 35.9582 28.1249 29.3956 28.3123C28.0831 28.3123 26.3956 29.6249 25.2706 29.9998C21.8956 31.4998 18.8955 32.4374 16.8331 35.9998C14.5831 40.1248 16.6455 46.1248 14.958 50.2498C9.52057 47.6249 7.27057 36.5624 6.52051 28.6874L4.08295 33.9375L0.333008 31.3124C1.27045 40.8749 4.45807 54.3749 13.0829 52.8749C13.0829 53.0625 18.8955 51.5624 20.583 49.125C24.7081 43.1251 19.458 35.9999 24.8954 31.125C27.1454 31.6875 28.2704 33.7499 30.3329 35.4374C34.0828 38.6249 36.1455 39.3749 41.208 38.0624C43.2704 37.4999 45.333 36.5624 47.3955 35.6248C49.083 34.8748 50.3955 33.7498 51.1454 31.8749C52.0828 29.6249 51.333 27.1873 50.5829 24.7499L43.8331 24.375Z" fill="#F05540"/>
<path d="M43.8331 24.375C43.8331 24.9375 44.0206 25.3124 44.0206 25.8749C44.7707 30.1874 45.8957 32.9999 43.6457 35.8124C37.2706 35.4374 35.9582 28.1249 29.3956 28.3123C28.0831 28.3123 26.3956 29.6249 25.2706 29.9998C21.8956 31.4998 18.8955 32.4374 16.8331 35.9998C14.5831 40.1248 16.6455 46.1248 14.958 50.2498C14.958 50.2498 17.0204 50.9999 19.6456 50.0623C20.0205 49.6873 20.3956 49.3122 20.7706 48.9373C24.8956 42.9373 19.6456 35.8122 25.083 30.9373C27.333 31.4998 28.458 33.5622 30.5204 35.2497C34.2704 38.4371 36.333 39.1872 41.3955 37.8746C43.4579 37.3121 45.5206 36.3747 47.583 35.4371C49.2705 34.687 50.583 33.562 51.3329 31.6871C52.2704 29.4371 51.5205 26.9996 50.7704 24.5622L43.8331 24.375Z" fill="#F3705A"/>
<path d="M43.8329 24.375C43.8329 24.9375 44.0204 25.3124 44.0204 25.8749C44.7705 30.1874 45.8955 32.9999 43.6455 35.8124C37.2705 35.4374 35.9581 28.1249 29.3955 28.3123C29.2079 28.3123 29.0205 28.3123 28.833 28.4999C28.6454 28.4999 28.458 28.4999 28.458 28.6874C26.9581 29.2499 26.0204 30.1874 25.083 31.125C27.333 31.6875 28.458 33.7499 30.5204 35.4374C34.2704 38.6249 36.333 39.3749 41.3955 38.0624C43.458 37.4999 45.5206 36.5624 47.583 35.6248C49.2705 34.8747 50.5831 33.7497 51.333 31.8749C52.2704 29.6249 51.5205 27.1873 50.7704 24.7499L43.8329 24.375Z" fill="#F3705A"/>
<path d="M43.6455 35.8126C43.6455 35.8126 42.1455 37.1252 39.8955 38.2502C35.7704 39.1876 33.8955 38.2502 30.333 35.2501C28.2705 33.5626 27.1455 31.5002 24.8955 30.9377C25.6456 30.1876 26.7706 29.0626 28.2705 28.5001C28.4581 28.5001 28.4581 28.3126 28.6455 28.3126C28.8328 28.3126 29.0204 28.3126 29.208 28.125C35.7704 28.1252 37.083 35.4377 43.6455 35.8126Z" fill="#F05540"/>
<path d="M76.8328 30.9374C76.8328 30.7499 73.0829 26.625 70.2704 26.4374C63.3329 25.6874 59.7705 33.375 53.2079 31.125C52.6454 29.0626 53.9579 27.1875 54.5204 24.5626C54.708 24.0001 54.708 23.6251 54.708 23.25L47.958 24.5626C47.958 25.8751 48.1456 27.1875 48.8954 28.5001C49.4579 29.4375 51.333 30.3751 52.2704 31.125C55.0829 33.375 57.3329 35.25 61.0829 35.25C65.5829 35.25 69.7079 30.7501 73.8328 30.1876C74.0203 35.8125 65.5829 42.9375 59.3954 47.2501L64.8328 46.6876L64.2703 51C72.1453 46.3125 82.0829 37.4999 76.8328 30.9374Z" fill="#F05540"/>
<path d="M71.5828 26.9999C71.0203 26.8123 70.6454 26.6249 70.2703 26.6249C63.3328 25.8749 59.7704 33.5625 53.2078 31.3125C52.6454 29.25 53.9579 27.375 54.5204 24.7501C54.7079 24.1876 54.708 23.8126 54.708 23.4375L47.958 24.7501C47.958 26.0626 48.1456 27.375 48.8954 28.6875C49.4579 29.625 51.333 30.5626 52.2704 31.3125C55.0829 33.5625 57.3329 35.4375 61.0828 35.4375C65.5827 35.4375 69.7078 30.9375 73.8326 30.375C73.8328 30.7498 73.6454 28.6874 71.5828 26.9999Z" fill="#F3705A"/>
<path d="M47.7705 24.7501C47.7705 26.0626 47.9581 27.375 48.708 28.6876C48.8955 28.8751 48.8955 29.0625 49.0829 29.2501C49.2705 29.4376 49.2705 29.4376 49.4578 29.625C50.5828 30.5624 51.8954 30.9376 53.0204 31.3125C52.4579 29.2501 53.7705 27.375 54.333 24.7501C54.5205 24.1876 54.5205 23.8126 54.5205 23.4375L47.7705 24.7501Z" fill="#F3705A"/>
<path d="M47.7705 24.7501C47.7705 26.0626 47.9581 27.375 48.708 28.6876C48.8955 28.8751 48.8955 29.0625 49.0829 29.2501C49.2705 29.4376 49.2705 29.4376 49.4578 29.625C50.5828 30.5624 51.8954 30.9376 53.0204 31.3125C52.4579 29.2501 53.7705 27.375 54.333 24.7501C54.5205 24.1876 54.5205 23.8126 54.5205 23.4375L47.7705 24.7501Z" fill="#F05540"/>
<path d="M53.7705 0H45.8955V24.75H53.7705V0Z" fill="#F05540"/>
<path d="M47.583 23.4374C47.583 23.4374 59.3955 14.625 64.2705 14.625C69.1454 14.625 66.5205 18.5625 66.5205 23.4374C66.5205 28.3124 69.1454 32.2499 64.2705 32.2499C59.5831 32.25 47.583 23.4374 47.583 23.4374Z" fill="#F3705A"/>
<path d="M64.2704 32.2501C66.3329 32.2501 67.0829 31.5001 67.0829 30.3751C67.2705 28.5 66.1455 26.6251 64.2704 25.8751C59.7705 24 53.7705 23.4375 47.3955 23.4375C47.5831 23.4375 59.5831 32.2501 64.2704 32.2501Z" fill="#F05540"/>
<path d="M51.8951 23.4374C51.8951 23.4374 40.0826 14.625 35.2077 14.625C30.3327 14.625 32.9577 18.5625 32.9577 23.4374C32.9577 28.3124 30.3327 32.2499 35.2077 32.2499C40.0826 32.2499 51.8951 23.4374 51.8951 23.4374Z" fill="#F3705A"/>
<path d="M35.2078 32.2501C33.1454 32.2501 32.3953 31.5001 32.3953 30.3751C32.2078 28.5 33.3328 26.6251 35.2078 25.8751C39.7078 24 45.7078 23.4375 52.0828 23.4375C51.8953 23.4375 40.0828 32.2501 35.2078 32.2501Z" fill="#F05540"/>
<path d="M52.8329 26.9999C50.9579 28.1249 48.7079 28.1249 46.833 26.9999C46.833 24.5624 46.833 22.3124 46.833 19.875C48.7081 18.75 50.9581 18.75 52.8329 19.875C52.8329 22.3124 52.8329 24.5624 52.8329 26.9999Z" fill="#E8EAE9"/>
</g>
<defs>
<clipPath id="clip0_1832_58334">
<rect width="90" height="90" fill="white" transform="translate(0.333008)"/>
</clipPath>
</defs>
</svg>
