<svg width="16" height="10" viewBox="0 0 16 10" fill="none" xmlns="http://www.w3.org/2000/svg">
<path d="M15.1464 0.641907L11.9878 0.913374C11.9718 0.914747 11.9566 0.920707 11.9439 0.930536C11.9313 0.940366 11.9218 0.953644 11.9165 0.96877C11.9112 0.983896 11.9104 1.00022 11.9142 1.01578C11.918 1.03134 11.9263 1.04547 11.9379 1.05646L12.7347 1.80793L12.5578 1.98845L12.4398 2.10889L11.8407 2.73081C11.6099 2.97411 11.38 3.21798 11.151 3.46244C10.9869 3.63825 10.8238 3.8151 10.6616 3.99299C10.2733 4.41798 9.88996 4.84783 9.51157 5.28251C9.3233 5.50055 9.13572 5.71962 8.9509 5.94112C8.90176 5.99995 8.85331 6.05948 8.80451 6.11866L8.60689 6.00758L5.52359 4.27437L5.03145 3.99784L4.67879 4.382L4.23753 4.86272L0.763489 8.64685L1.49304 9.35841L5.25191 5.73105H5.25226L7.45269 7.16247L8.57783 7.89445L8.98586 8.1599L9.07931 8.22047L9.61021 7.75532C9.82755 7.56463 10.0415 7.37082 10.2522 7.1739C10.4637 6.97732 10.672 6.77832 10.8797 6.57862C11.2943 6.1782 11.7028 5.77224 12.1052 5.36074C12.5094 4.95062 12.906 4.53324 13.3016 4.11517L13.8903 3.48321L13.9699 3.39634L14.178 3.16918L14.9388 3.88668C14.9503 3.89756 14.9647 3.9049 14.9803 3.90785C14.9959 3.9108 15.012 3.90923 15.0267 3.90332C15.0414 3.89741 15.0541 3.88741 15.0633 3.87451C15.0725 3.86161 15.0778 3.84634 15.0787 3.83051L15.2364 0.728822C15.237 0.716982 15.235 0.705151 15.2307 0.694124C15.2263 0.683097 15.2197 0.673131 15.2111 0.664896C15.2026 0.656661 15.1924 0.650348 15.1812 0.646383C15.1701 0.642417 15.1582 0.640891 15.1464 0.641907Z" fill="#32AB45"/>
</svg>
