<svg width="35" height="35" viewBox="0 0 35 35" fill="none" xmlns="http://www.w3.org/2000/svg">
<path d="M25.1346 19.5977C25.0502 19.4095 24.8634 19.2883 24.657 19.2883H19.7539L17.6375 15.0119C17.5492 14.8335 17.3673 14.7207 17.1683 14.7207C16.9693 14.7207 16.7874 14.8338 16.699 15.0122L14.5833 19.2887H9.8544C9.65051 19.2887 9.46477 19.4074 9.37923 19.5924C9.2937 19.7775 9.32302 19.9953 9.45499 20.1514L12.9431 24.2627L11.8636 29.0412C11.8189 29.2385 11.8919 29.4434 12.0508 29.5684C12.2096 29.6941 12.4264 29.7157 12.6073 29.626L17.1683 27.3643L21.73 29.626C21.8036 29.6623 21.8829 29.6805 21.9625 29.6805C22.0777 29.6805 22.1918 29.6427 22.2861 29.5684C22.445 29.4437 22.5179 29.2388 22.4732 29.0415L21.3955 24.2704L25.0484 20.1605C25.1856 20.0058 25.2191 19.7855 25.1346 19.5977ZM20.434 23.7753C20.3219 23.9013 20.2776 24.0738 20.3146 24.2383L21.2094 28.1984L17.4008 26.3107C17.3278 26.2744 17.2479 26.2562 17.1683 26.2562C17.0887 26.2562 17.0087 26.2744 16.9354 26.3107L13.1278 28.1984L14.0223 24.2386C14.0586 24.078 14.0174 23.9097 13.9109 23.784L10.9856 20.3357H14.9084C15.1074 20.3357 15.2893 20.2229 15.3776 20.0442L17.1679 16.4251L18.9589 20.0442C19.0473 20.2229 19.2292 20.3357 19.4285 20.3357H23.491L20.434 23.7753Z" fill="black"/>
<path d="M17.8054 10.8406V8.46545H23.566C23.8551 8.46545 24.0897 8.23118 24.0897 7.94176V2.35572C24.0897 2.0663 23.8551 1.83203 23.566 1.83203H11.3466C11.0572 1.83203 10.8229 2.0663 10.8229 2.35572V7.94176C10.8229 8.23118 11.0572 8.46545 11.3466 8.46545H16.7581V10.8427C10.5715 11.1398 5.62964 16.2653 5.62964 22.5241C5.62964 28.9732 10.8763 34.2199 17.3254 34.2199C23.7745 34.2199 29.0212 28.9732 29.0212 22.5241C29.0212 16.236 24.0325 11.0937 17.8054 10.8406ZM11.8703 2.87941H23.0424V7.41807H11.8703V2.87941ZM17.3254 33.1725C11.4538 33.1725 6.67702 28.3954 6.67702 22.5241C6.67702 16.7555 11.289 12.0468 17.0189 11.8834C17.1554 11.8799 17.404 11.8799 17.5485 11.8813C23.3168 12.0011 27.9738 16.7272 27.9738 22.5241C27.9738 28.3954 23.1967 33.1725 17.3254 33.1725Z" fill="black"/>
</svg>
