<svg width="35" height="35" viewBox="0 0 35 35" fill="none" xmlns="http://www.w3.org/2000/svg">
<path d="M33.3594 32.8125H27.8906V30.625V24.0625C27.8906 23.7617 27.6445 23.5156 27.3438 23.5156H24.0625C23.7617 23.5156 23.5156 23.7617 23.5156 24.0625V30.625V32.8125H21.3281V26.25V16.9531C21.3281 16.6523 21.082 16.4062 20.7812 16.4062H17.5C17.1992 16.4062 16.9531 16.6523 16.9531 16.9531V26.25V32.8125H14.7656V24.6094V18.5938C14.7656 18.293 14.5195 18.0469 14.2188 18.0469H10.9375C10.6367 18.0469 10.3906 18.293 10.3906 18.5938V24.6094V32.8125H8.20312V26.25V13.6719C8.20312 13.3711 7.95703 13.125 7.65625 13.125H4.375C4.07422 13.125 3.82812 13.3711 3.82812 13.6719V26.25V32.8125H2.1875V1.64062C2.1875 1.33984 1.94141 1.09375 1.64062 1.09375C1.33984 1.09375 1.09375 1.33984 1.09375 1.64062V33.3594C1.09375 33.6602 1.33984 33.9062 1.64062 33.9062H4.375H7.65625H10.9375H14.2188H17.5H20.7812H24.0625H27.3438H33.3594C33.6602 33.9062 33.9062 33.6602 33.9062 33.3594C33.9062 33.0586 33.6602 32.8125 33.3594 32.8125ZM26.7969 24.6094V30.0781H24.6094V24.6094H26.7969ZM20.2344 17.5V25.7031H18.0469V17.5H20.2344ZM13.6719 19.1406V24.0625H11.4844V19.1406H13.6719ZM7.10938 14.2188V25.7031H4.92188V14.2188H7.10938ZM4.92188 32.8125V26.7969H7.10938V32.8125H4.92188ZM11.4844 32.8125V25.1562H13.6719V32.8125H11.4844ZM18.0469 32.8125V26.7969H20.2344V32.8125H18.0469ZM24.6094 32.8125V31.1719H26.7969V32.8125H24.6094Z" fill="black"/>
<path d="M6.01562 10.9375C6.52832 10.9375 7.00684 10.7598 7.38281 10.459L10.5547 12.8379C10.4453 13.0977 10.3906 13.3779 10.3906 13.6719C10.3906 14.875 11.375 15.8594 12.5781 15.8594C13.7812 15.8594 14.7588 14.8887 14.7656 13.6855L17.2197 13.0703C17.5889 13.7539 18.3135 14.2119 19.1406 14.2119C19.5166 14.2119 19.8652 14.1162 20.1729 13.9521L23.8643 17.9512C23.6455 18.293 23.5156 18.6963 23.5156 19.1338C23.5156 20.3369 24.5 21.3213 25.7031 21.3213C26.9062 21.3213 27.8906 20.3369 27.8906 19.1338C27.8906 17.9307 26.9062 16.9463 25.7031 16.9463C25.3271 16.9463 24.9785 17.042 24.6709 17.2061L20.9795 13.207C21.1982 12.8652 21.3281 12.4619 21.3281 12.0244C21.3281 10.8213 20.3438 9.83691 19.1406 9.83691C17.9375 9.83691 16.96 10.8076 16.9531 12.0107L14.499 12.626C14.1299 11.9424 13.4053 11.4844 12.5781 11.4844C12.0654 11.4844 11.5869 11.6621 11.2109 11.9629L8.03906 9.58398C8.14844 9.32422 8.20312 9.04395 8.20312 8.75C8.20312 7.54688 7.21875 6.5625 6.01562 6.5625C4.8125 6.5625 3.82812 7.54688 3.82812 8.75C3.82812 9.95312 4.8125 10.9375 6.01562 10.9375ZM26.7969 19.1406C26.7969 19.7422 26.3047 20.2344 25.7031 20.2344C25.1016 20.2344 24.6094 19.7422 24.6094 19.1406C24.6094 18.5391 25.1016 18.0469 25.7031 18.0469C26.3047 18.0469 26.7969 18.5391 26.7969 19.1406ZM19.1406 10.9375C19.7422 10.9375 20.2344 11.4297 20.2344 12.0312C20.2344 12.6328 19.7422 13.125 19.1406 13.125C18.5391 13.125 18.0469 12.6328 18.0469 12.0312C18.0469 11.4297 18.5391 10.9375 19.1406 10.9375ZM13.6719 13.6719C13.6719 14.2734 13.1797 14.7656 12.5781 14.7656C11.9766 14.7656 11.4844 14.2734 11.4844 13.6719C11.4844 13.0703 11.9766 12.5781 12.5781 12.5781C13.1797 12.5781 13.6719 13.0703 13.6719 13.6719ZM6.01562 7.65625C6.61719 7.65625 7.10938 8.14844 7.10938 8.75C7.10938 9.35156 6.61719 9.84375 6.01562 9.84375C5.41406 9.84375 4.92188 9.35156 4.92188 8.75C4.92188 8.14844 5.41406 7.65625 6.01562 7.65625Z" fill="black"/>
<path d="M32.0398 18.5935H30.2693C29.9685 18.5935 29.7224 18.8396 29.7224 19.1404C29.7224 19.4412 29.9685 19.6873 30.2693 19.6873H33.3591C33.3797 19.6873 33.3933 19.6873 33.4138 19.6873C33.4207 19.6873 33.4275 19.6873 33.4343 19.6804C33.4412 19.6804 33.4548 19.6804 33.4617 19.6736C33.4685 19.6736 33.4822 19.6668 33.489 19.6668C33.4959 19.6668 33.5027 19.6599 33.5164 19.6599C33.5232 19.6599 33.53 19.6531 33.5437 19.6531C33.5506 19.6531 33.5574 19.6463 33.5711 19.6463C33.5779 19.6463 33.5847 19.6394 33.5916 19.6326C33.5984 19.6258 33.6121 19.6258 33.6189 19.6189C33.6257 19.6121 33.6326 19.6121 33.6394 19.6052C33.6463 19.5984 33.6599 19.5984 33.6668 19.5916C33.6736 19.5847 33.6804 19.5847 33.6873 19.5779C33.6941 19.5711 33.7009 19.5642 33.7078 19.5642C33.7146 19.5574 33.7283 19.5506 33.7351 19.5369C33.742 19.53 33.742 19.53 33.7488 19.5232C33.7556 19.5164 33.7556 19.5164 33.7625 19.5095C33.7693 19.5027 33.783 19.489 33.7898 19.4822C33.7966 19.4754 33.8035 19.4685 33.8103 19.4617C33.8172 19.4549 33.8172 19.448 33.824 19.4412C33.8308 19.4343 33.8377 19.4207 33.8377 19.4138C33.8445 19.407 33.8445 19.4002 33.8513 19.3933C33.8582 19.3865 33.8582 19.3728 33.865 19.366C33.865 19.3591 33.8718 19.3523 33.8718 19.3455C33.8787 19.3386 33.8787 19.325 33.8787 19.3181C33.8787 19.3113 33.8855 19.3045 33.8855 19.2908C33.8855 19.284 33.8923 19.2703 33.8923 19.2634C33.8923 19.2566 33.8992 19.2498 33.8992 19.2361C33.8992 19.2224 33.8992 19.2156 33.906 19.2019C33.906 19.1951 33.906 19.1883 33.906 19.1814C33.906 19.1609 33.906 19.1472 33.906 19.1267V16.0369C33.906 15.7361 33.6599 15.49 33.3591 15.49C33.0584 15.49 32.8123 15.7361 32.8123 16.0369V17.8074L16.2488 1.25073C16.0369 1.03882 15.6882 1.03882 15.4763 1.25073C15.2644 1.46265 15.2644 1.81128 15.4763 2.02319L32.0398 18.5935Z" fill="black"/>
</svg>
