<svg width="32" height="33" viewBox="0 0 32 33" fill="none" xmlns="http://www.w3.org/2000/svg">
<path d="M25 20.5L21 24.5L19 22.5" stroke="white" stroke-width="2" stroke-miterlimit="10" stroke-linecap="round" stroke-linejoin="round"/>
<path d="M22 29.5C25.866 29.5 29 26.366 29 22.5C29 18.634 25.866 15.5 22 15.5C18.134 15.5 15 18.634 15 22.5C15 26.366 18.134 29.5 22 29.5Z" stroke="white" stroke-width="2" stroke-miterlimit="10" stroke-linecap="round" stroke-linejoin="round"/>
<path d="M25 9.5H3V14.5H25V9.5Z" stroke="white" stroke-width="2" stroke-miterlimit="10" stroke-linecap="round" stroke-linejoin="round"/>
<path d="M18 9.5H10V14.5H18V9.5Z" stroke="white" stroke-width="2" stroke-miterlimit="10" stroke-linecap="round" stroke-linejoin="round"/>
<path d="M11 27.5V14.5" stroke="white" stroke-width="2" stroke-miterlimit="10" stroke-linecap="round" stroke-linejoin="round"/>
<path d="M21.7 4.90001C20.7 2.90001 17.9 3.00001 16.7 5.10001L14 9.50001H18.8C21.1 9.40001 22.7 6.90001 21.7 4.90001Z" stroke="white" stroke-width="2" stroke-miterlimit="10" stroke-linecap="round" stroke-linejoin="round"/>
<path d="M6.30022 4.90001C7.30022 2.90001 10.1002 3.00001 11.3002 5.10001L14.0002 9.50001H9.20022C6.90022 9.40001 5.30022 6.90001 6.30022 4.90001Z" stroke="white" stroke-width="2" stroke-miterlimit="10" stroke-linecap="round" stroke-linejoin="round"/>
<path d="M17.1 27.5H4V14.5H24V15.8" stroke="white" stroke-width="2" stroke-miterlimit="10" stroke-linecap="round" stroke-linejoin="round"/>
</svg>
