<svg width="419" height="109" viewBox="0 0 419 109" fill="none" xmlns="http://www.w3.org/2000/svg">
<g clip-path="url(#clip0_1832_55976)" filter="url(#filter0_ddd_1832_55976)">
<g filter="url(#filter1_dddddd_1832_55976)">
<path d="M420 0H316.018C314.497 0 312.995 0.347275 311.628 1.01538L260.122 26.1846C258.755 26.8527 257.253 27.2 255.732 27.2H202.261C200.411 27.2 198.597 27.7132 197.022 28.6825L135.517 66.5175C133.941 67.4868 132.128 68 130.277 68H70.4648C69.054 68 67.6593 67.7015 66.3721 67.1242L2.00001 38.25" stroke="#32AB45" stroke-width="2"/>
</g>
<g filter="url(#filter2_d_1832_55976)">
<rect x="103" y="7" width="70" height="48" rx="5" fill="white" shape-rendering="crispEdges"/>
<path d="M108.51 22.27C109.357 21.59 110.02 21.0333 110.5 20.6C110.98 20.16 111.383 19.7033 111.71 19.23C112.043 18.75 112.21 18.28 112.21 17.82C112.21 17.3867 112.103 17.0467 111.89 16.8C111.683 16.5467 111.347 16.42 110.88 16.42C110.427 16.42 110.073 16.5633 109.82 16.85C109.573 17.13 109.44 17.5067 109.42 17.98H108.54C108.567 17.2333 108.793 16.6567 109.22 16.25C109.647 15.8433 110.197 15.64 110.87 15.64C111.557 15.64 112.1 15.83 112.5 16.21C112.907 16.59 113.11 17.1133 113.11 17.78C113.11 18.3333 112.943 18.8733 112.61 19.4C112.283 19.92 111.91 20.38 111.49 20.78C111.07 21.1733 110.533 21.6333 109.88 22.16H113.32V22.92H108.51V22.27ZM114.152 21.39V20.7L117.662 15.84H118.752V20.6H119.752V21.39H118.752V23H117.852V21.39H114.152ZM117.892 16.79L115.202 20.6H117.892V16.79ZM123.967 16.63C123.794 16.63 123.647 16.57 123.527 16.45C123.414 16.33 123.357 16.1833 123.357 16.01C123.357 15.8367 123.414 15.69 123.527 15.57C123.647 15.45 123.794 15.39 123.967 15.39C124.14 15.39 124.284 15.45 124.397 15.57C124.517 15.69 124.577 15.8367 124.577 16.01C124.577 16.1833 124.517 16.33 124.397 16.45C124.284 16.57 124.14 16.63 123.967 16.63ZM124.417 24.19C124.417 24.6767 124.294 25.0333 124.047 25.26C123.8 25.4867 123.44 25.6 122.967 25.6H122.437V24.83H122.817C123.07 24.83 123.247 24.78 123.347 24.68C123.454 24.58 123.507 24.41 123.507 24.17V17.52H124.417V24.19ZM130.818 17.52V23H129.908V22.19C129.734 22.47 129.491 22.69 129.178 22.85C128.871 23.0033 128.531 23.08 128.158 23.08C127.731 23.08 127.348 22.9933 127.008 22.82C126.668 22.64 126.398 22.3733 126.198 22.02C126.004 21.6667 125.908 21.2367 125.908 20.73V17.52H126.808V20.61C126.808 21.15 126.944 21.5667 127.218 21.86C127.491 22.1467 127.864 22.29 128.338 22.29C128.824 22.29 129.208 22.14 129.488 21.84C129.768 21.54 129.908 21.1033 129.908 20.53V17.52H130.818ZM135.024 17.42C135.691 17.42 136.231 17.6233 136.644 18.03C137.057 18.43 137.264 19.01 137.264 19.77V23H136.364V19.9C136.364 19.3533 136.227 18.9367 135.954 18.65C135.681 18.3567 135.307 18.21 134.834 18.21C134.354 18.21 133.971 18.36 133.684 18.66C133.404 18.96 133.264 19.3967 133.264 19.97V23H132.354V17.52H133.264V18.3C133.444 18.02 133.687 17.8033 133.994 17.65C134.307 17.4967 134.651 17.42 135.024 17.42ZM143.75 20.05C143.75 20.2233 143.74 20.4067 143.72 20.6H139.34C139.374 21.14 139.557 21.5633 139.89 21.87C140.23 22.17 140.64 22.32 141.12 22.32C141.514 22.32 141.84 22.23 142.1 22.05C142.367 21.8633 142.554 21.6167 142.66 21.31H143.64C143.494 21.8367 143.2 22.2667 142.76 22.6C142.32 22.9267 141.774 23.09 141.12 23.09C140.6 23.09 140.134 22.9733 139.72 22.74C139.314 22.5067 138.994 22.1767 138.76 21.75C138.527 21.3167 138.41 20.8167 138.41 20.25C138.41 19.6833 138.524 19.1867 138.75 18.76C138.977 18.3333 139.294 18.0067 139.7 17.78C140.114 17.5467 140.587 17.43 141.12 17.43C141.64 17.43 142.1 17.5433 142.5 17.77C142.9 17.9967 143.207 18.31 143.42 18.71C143.64 19.1033 143.75 19.55 143.75 20.05ZM142.81 19.86C142.81 19.5133 142.734 19.2167 142.58 18.97C142.427 18.7167 142.217 18.5267 141.95 18.4C141.69 18.2667 141.4 18.2 141.08 18.2C140.62 18.2 140.227 18.3467 139.9 18.64C139.58 18.9333 139.397 19.34 139.35 19.86H142.81Z" fill="black"/>
<rect x="108" y="32" width="60" height="1" fill="#F2F2F2"/>
<path d="M112.184 41.848H109.376V43.672C109.499 43.5013 109.68 43.3627 109.92 43.256C110.16 43.144 110.419 43.088 110.696 43.088C111.139 43.088 111.499 43.1813 111.776 43.368C112.053 43.5493 112.251 43.7867 112.368 44.08C112.491 44.368 112.552 44.6747 112.552 45C112.552 45.384 112.48 45.728 112.336 46.032C112.192 46.336 111.971 46.576 111.672 46.752C111.379 46.928 111.013 47.016 110.576 47.016C110.016 47.016 109.563 46.872 109.216 46.584C108.869 46.296 108.659 45.912 108.584 45.432H109.296C109.365 45.736 109.512 45.9733 109.736 46.144C109.96 46.3147 110.243 46.4 110.584 46.4C111.005 46.4 111.323 46.2747 111.536 46.024C111.749 45.768 111.856 45.432 111.856 45.016C111.856 44.6 111.749 44.28 111.536 44.056C111.323 43.8267 111.008 43.712 110.592 43.712C110.309 43.712 110.061 43.7813 109.848 43.92C109.64 44.0533 109.488 44.2373 109.392 44.472H108.704V41.208H112.184V41.848ZM114.455 45.448C114.509 45.752 114.631 45.9867 114.823 46.152C115.021 46.3173 115.285 46.4 115.615 46.4C116.058 46.4 116.383 46.2267 116.591 45.88C116.805 45.5333 116.906 44.9493 116.895 44.128C116.783 44.368 116.597 44.5573 116.335 44.696C116.074 44.8293 115.783 44.896 115.463 44.896C115.106 44.896 114.786 44.824 114.503 44.68C114.226 44.5307 114.007 44.3147 113.847 44.032C113.687 43.7493 113.607 43.408 113.607 43.008C113.607 42.4373 113.773 41.9787 114.103 41.632C114.434 41.28 114.903 41.104 115.511 41.104C116.258 41.104 116.781 41.3467 117.079 41.832C117.383 42.3173 117.535 43.04 117.535 44C117.535 44.672 117.474 45.2267 117.351 45.664C117.234 46.1013 117.031 46.4347 116.743 46.664C116.461 46.8933 116.071 47.008 115.575 47.008C115.031 47.008 114.607 46.8613 114.303 46.568C113.999 46.2747 113.826 45.9013 113.783 45.448H114.455ZM115.583 44.28C115.941 44.28 116.234 44.1707 116.463 43.952C116.693 43.728 116.807 43.4267 116.807 43.048C116.807 42.648 116.695 42.3253 116.471 42.08C116.247 41.8347 115.933 41.712 115.527 41.712C115.154 41.712 114.855 41.8293 114.631 42.064C114.413 42.2987 114.303 42.608 114.303 42.992C114.303 43.3813 114.413 43.6933 114.631 43.928C114.85 44.1627 115.167 44.28 115.583 44.28ZM118.383 45.712V45.16L121.191 41.272H122.062V45.08H122.863V45.712H122.062V47H121.343V45.712H118.383ZM121.375 42.032L119.223 45.08H121.375V42.032ZM123.59 44.048C123.59 43.1307 123.739 42.416 124.038 41.904C124.336 41.3867 124.859 41.128 125.606 41.128C126.347 41.128 126.867 41.3867 127.166 41.904C127.464 42.416 127.614 43.1307 127.614 44.048C127.614 44.9813 127.464 45.7067 127.166 46.224C126.867 46.7413 126.347 47 125.606 47C124.859 47 124.336 46.7413 124.038 46.224C123.739 45.7067 123.59 44.9813 123.59 44.048ZM126.894 44.048C126.894 43.584 126.862 43.192 126.798 42.872C126.739 42.5467 126.614 42.2853 126.422 42.088C126.235 41.8907 125.963 41.792 125.606 41.792C125.243 41.792 124.966 41.8907 124.774 42.088C124.587 42.2853 124.462 42.5467 124.398 42.872C124.339 43.192 124.31 43.584 124.31 44.048C124.31 44.528 124.339 44.9307 124.398 45.256C124.462 45.5813 124.587 45.8427 124.774 46.04C124.966 46.2373 125.243 46.336 125.606 46.336C125.963 46.336 126.235 46.2373 126.422 46.04C126.614 45.8427 126.739 45.5813 126.798 45.256C126.862 44.9307 126.894 44.528 126.894 44.048ZM133.906 43.76V44.376H130.714V43.76H133.906ZM137.493 47V44.944H136.869V44.432H137.493V43.776H136.869V43.264H137.493V41.288H138.325L139.085 43.264H140.029V41.288H140.661V43.264H141.285V43.776H140.661V44.432H141.285V44.944H140.661V47H139.821L139.061 44.944H138.117V47H137.493ZM138.117 44.432H138.869L138.629 43.776H138.101L138.117 44.432ZM140.029 45.872H140.061L140.037 44.944H139.701L140.029 45.872ZM138.101 43.264H138.437L138.101 42.272H138.069L138.101 43.264ZM139.509 44.432H140.045L140.029 43.776H139.269L139.509 44.432ZM141.687 45.712V45.16L144.495 41.272H145.367V45.08H146.167V45.712H145.367V47H144.647V45.712H141.687ZM144.679 42.032L142.527 45.08H144.679V42.032ZM146.806 46.416C147.484 45.872 148.014 45.4267 148.398 45.08C148.782 44.728 149.105 44.3627 149.366 43.984C149.633 43.6 149.766 43.224 149.766 42.856C149.766 42.5093 149.681 42.2373 149.51 42.04C149.345 41.8373 149.076 41.736 148.702 41.736C148.34 41.736 148.057 41.8507 147.854 42.08C147.657 42.304 147.55 42.6053 147.534 42.984H146.83C146.852 42.3867 147.033 41.9253 147.374 41.6C147.716 41.2747 148.156 41.112 148.694 41.112C149.244 41.112 149.678 41.264 149.998 41.568C150.324 41.872 150.486 42.2907 150.486 42.824C150.486 43.2667 150.353 43.6987 150.086 44.12C149.825 44.536 149.526 44.904 149.19 45.224C148.854 45.5387 148.425 45.9067 147.902 46.328H150.654V46.936H146.806V46.416ZM151.848 47.048C151.709 47.048 151.592 47 151.496 46.904C151.4 46.808 151.352 46.6907 151.352 46.552C151.352 46.4133 151.4 46.296 151.496 46.2C151.592 46.104 151.709 46.056 151.848 46.056C151.981 46.056 152.093 46.104 152.184 46.2C152.28 46.296 152.328 46.4133 152.328 46.552C152.328 46.6907 152.28 46.808 152.184 46.904C152.093 47 151.981 47.048 151.848 47.048ZM153 45.712V45.16L155.808 41.272H156.68V45.08H157.48V45.712H156.68V47H155.96V45.712H153ZM155.992 42.032L153.84 45.08H155.992V42.032ZM159.143 45.448C159.196 45.752 159.319 45.9867 159.511 46.152C159.708 46.3173 159.972 46.4 160.303 46.4C160.746 46.4 161.071 46.2267 161.279 45.88C161.492 45.5333 161.594 44.9493 161.583 44.128C161.471 44.368 161.284 44.5573 161.023 44.696C160.762 44.8293 160.471 44.896 160.151 44.896C159.794 44.896 159.474 44.824 159.191 44.68C158.914 44.5307 158.695 44.3147 158.535 44.032C158.375 43.7493 158.295 43.408 158.295 43.008C158.295 42.4373 158.46 41.9787 158.791 41.632C159.122 41.28 159.591 41.104 160.199 41.104C160.946 41.104 161.468 41.3467 161.767 41.832C162.071 42.3173 162.223 43.04 162.223 44C162.223 44.672 162.162 45.2267 162.039 45.664C161.922 46.1013 161.719 46.4347 161.431 46.664C161.148 46.8933 160.759 47.008 160.263 47.008C159.719 47.008 159.295 46.8613 158.991 46.568C158.687 46.2747 158.514 45.9013 158.471 45.448H159.143ZM160.271 44.28C160.628 44.28 160.922 44.1707 161.151 43.952C161.38 43.728 161.495 43.4267 161.495 43.048C161.495 42.648 161.383 42.3253 161.159 42.08C160.935 41.8347 160.62 41.712 160.215 41.712C159.842 41.712 159.543 41.8293 159.319 42.064C159.1 42.2987 158.991 42.608 158.991 42.992C158.991 43.3813 159.1 43.6933 159.319 43.928C159.538 44.1627 159.855 44.28 160.271 44.28ZM166.934 41.848H164.126V43.672C164.249 43.5013 164.43 43.3627 164.67 43.256C164.91 43.144 165.169 43.088 165.446 43.088C165.889 43.088 166.249 43.1813 166.526 43.368C166.803 43.5493 167.001 43.7867 167.118 44.08C167.241 44.368 167.302 44.6747 167.302 45C167.302 45.384 167.23 45.728 167.086 46.032C166.942 46.336 166.721 46.576 166.422 46.752C166.129 46.928 165.763 47.016 165.326 47.016C164.766 47.016 164.313 46.872 163.966 46.584C163.619 46.296 163.409 45.912 163.334 45.432H164.046C164.115 45.736 164.262 45.9733 164.486 46.144C164.71 46.3147 164.993 46.4 165.334 46.4C165.755 46.4 166.073 46.2747 166.286 46.024C166.499 45.768 166.606 45.432 166.606 45.016C166.606 44.6 166.499 44.28 166.286 44.056C166.073 43.8267 165.758 43.712 165.342 43.712C165.059 43.712 164.811 43.7813 164.598 43.92C164.39 44.0533 164.238 44.2373 164.142 44.472H163.454V41.208H166.934V41.848Z" fill="#A6A6A6"/>
<rect x="103.5" y="7.5" width="69" height="47" rx="4.5" stroke="#F2F2F2" shape-rendering="crispEdges"/>
</g>
<circle cx="136" cy="68" r="5.5" fill="#32AB45" stroke="#32AB45"/>
<circle cx="136" cy="68" r="8.5" stroke="#32AB45"/>
</g>
<defs>
<filter id="filter0_ddd_1832_55976" x="-3.5" y="0" width="426" height="117" filterUnits="userSpaceOnUse" color-interpolation-filters="sRGB">
<feFlood flood-opacity="0" result="BackgroundImageFix"/>
<feColorMatrix in="SourceAlpha" type="matrix" values="0 0 0 0 0 0 0 0 0 0 0 0 0 0 0 0 0 0 127 0" result="hardAlpha"/>
<feOffset dy="4"/>
<feGaussianBlur stdDeviation="2"/>
<feComposite in2="hardAlpha" operator="out"/>
<feColorMatrix type="matrix" values="0 0 0 0 0 0 0 0 0 0 0 0 0 0 0 0 0 0 0.1 0"/>
<feBlend mode="normal" in2="BackgroundImageFix" result="effect1_dropShadow_1832_55976"/>
<feColorMatrix in="SourceAlpha" type="matrix" values="0 0 0 0 0 0 0 0 0 0 0 0 0 0 0 0 0 0 127 0" result="hardAlpha"/>
<feOffset dy="4"/>
<feGaussianBlur stdDeviation="2"/>
<feComposite in2="hardAlpha" operator="out"/>
<feColorMatrix type="matrix" values="0 0 0 0 0 0 0 0 0 0 0 0 0 0 0 0 0 0 0.1 0"/>
<feBlend mode="normal" in2="effect1_dropShadow_1832_55976" result="effect2_dropShadow_1832_55976"/>
<feColorMatrix in="SourceAlpha" type="matrix" values="0 0 0 0 0 0 0 0 0 0 0 0 0 0 0 0 0 0 127 0" result="hardAlpha"/>
<feOffset dy="4"/>
<feGaussianBlur stdDeviation="2"/>
<feComposite in2="hardAlpha" operator="out"/>
<feColorMatrix type="matrix" values="0 0 0 0 0 0 0 0 0 0 0 0 0 0 0 0 0 0 0.1 0"/>
<feBlend mode="normal" in2="effect2_dropShadow_1832_55976" result="effect3_dropShadow_1832_55976"/>
<feBlend mode="normal" in="SourceGraphic" in2="effect3_dropShadow_1832_55976" result="shape"/>
</filter>
<filter id="filter1_dddddd_1832_55976" x="-68.4092" y="-1" width="558.409" height="240" filterUnits="userSpaceOnUse" color-interpolation-filters="sRGB">
<feFlood flood-opacity="0" result="BackgroundImageFix"/>
<feColorMatrix in="SourceAlpha" type="matrix" values="0 0 0 0 0 0 0 0 0 0 0 0 0 0 0 0 0 0 127 0" result="hardAlpha"/>
<feOffset dy="2.76726"/>
<feGaussianBlur stdDeviation="0.96854"/>
<feColorMatrix type="matrix" values="0 0 0 0 0.196078 0 0 0 0 0.670588 0 0 0 0 0.270588 0 0 0 1 0"/>
<feBlend mode="normal" in2="BackgroundImageFix" result="effect1_dropShadow_1832_55976"/>
<feColorMatrix in="SourceAlpha" type="matrix" values="0 0 0 0 0 0 0 0 0 0 0 0 0 0 0 0 0 0 127 0" result="hardAlpha"/>
<feOffset dy="6.6501"/>
<feGaussianBlur stdDeviation="2.32754"/>
<feColorMatrix type="matrix" values="0 0 0 0 0.196078 0 0 0 0 0.670588 0 0 0 0 0.270588 0 0 0 1 0"/>
<feBlend mode="normal" in2="effect1_dropShadow_1832_55976" result="effect2_dropShadow_1832_55976"/>
<feColorMatrix in="SourceAlpha" type="matrix" values="0 0 0 0 0 0 0 0 0 0 0 0 0 0 0 0 0 0 127 0" result="hardAlpha"/>
<feOffset dy="12.5216"/>
<feGaussianBlur stdDeviation="4.38254"/>
<feColorMatrix type="matrix" values="0 0 0 0 0.196078 0 0 0 0 0.670588 0 0 0 0 0.270588 0 0 0 1 0"/>
<feBlend mode="normal" in2="effect2_dropShadow_1832_55976" result="effect3_dropShadow_1832_55976"/>
<feColorMatrix in="SourceAlpha" type="matrix" values="0 0 0 0 0 0 0 0 0 0 0 0 0 0 0 0 0 0 127 0" result="hardAlpha"/>
<feOffset dy="22.3363"/>
<feGaussianBlur stdDeviation="7.81771"/>
<feColorMatrix type="matrix" values="0 0 0 0 0.196078 0 0 0 0 0.670588 0 0 0 0 0.270588 0 0 0 0.5961 0"/>
<feBlend mode="normal" in2="effect3_dropShadow_1832_55976" result="effect4_dropShadow_1832_55976"/>
<feColorMatrix in="SourceAlpha" type="matrix" values="0 0 0 0 0 0 0 0 0 0 0 0 0 0 0 0 0 0 127 0" result="hardAlpha"/>
<feOffset dy="41.7776"/>
<feGaussianBlur stdDeviation="14.6222"/>
<feColorMatrix type="matrix" values="0 0 0 0 0.196078 0 0 0 0 0.670588 0 0 0 0 0.270588 0 0 0 1 0"/>
<feBlend mode="normal" in2="effect4_dropShadow_1832_55976" result="effect5_dropShadow_1832_55976"/>
<feColorMatrix in="SourceAlpha" type="matrix" values="0 0 0 0 0 0 0 0 0 0 0 0 0 0 0 0 0 0 127 0" result="hardAlpha"/>
<feOffset dy="100"/>
<feGaussianBlur stdDeviation="35"/>
<feColorMatrix type="matrix" values="0 0 0 0 0.196078 0 0 0 0 0.670588 0 0 0 0 0.270588 0 0 0 1 0"/>
<feBlend mode="normal" in2="effect5_dropShadow_1832_55976" result="effect6_dropShadow_1832_55976"/>
<feBlend mode="normal" in="SourceGraphic" in2="effect6_dropShadow_1832_55976" result="shape"/>
</filter>
<filter id="filter2_d_1832_55976" x="99" y="7" width="78" height="56" filterUnits="userSpaceOnUse" color-interpolation-filters="sRGB">
<feFlood flood-opacity="0" result="BackgroundImageFix"/>
<feColorMatrix in="SourceAlpha" type="matrix" values="0 0 0 0 0 0 0 0 0 0 0 0 0 0 0 0 0 0 127 0" result="hardAlpha"/>
<feOffset dy="4"/>
<feGaussianBlur stdDeviation="2"/>
<feComposite in2="hardAlpha" operator="out"/>
<feColorMatrix type="matrix" values="0 0 0 0 0 0 0 0 0 0 0 0 0 0 0 0 0 0 0.1 0"/>
<feBlend mode="normal" in2="BackgroundImageFix" result="effect1_dropShadow_1832_55976"/>
<feBlend mode="normal" in="SourceGraphic" in2="effect1_dropShadow_1832_55976" result="shape"/>
</filter>
<clipPath id="clip0_1832_55976">
<rect width="418" height="109" fill="white" transform="translate(0.5)"/>
</clipPath>
</defs>
</svg>
