<svg width="25" height="25" viewBox="0 0 25 25" fill="none" xmlns="http://www.w3.org/2000/svg">
<path d="M11.4584 5.20833C12.8944 5.20833 14.0626 4.03958 14.0626 2.60417C14.0626 1.16771 12.8944 0 11.4584 0C10.0225 0 8.85425 1.16771 8.85425 2.60417C8.85425 4.03958 10.0225 5.20833 11.4584 5.20833ZM11.4584 1.04167C12.3199 1.04167 13.0209 1.74271 13.0209 2.60417C13.0209 3.46562 12.3199 4.16667 11.4584 4.16667C10.597 4.16667 9.89591 3.46562 9.89591 2.60417C9.89591 1.74271 10.597 1.04167 11.4584 1.04167ZM20.8334 9.89583C20.8334 9.10052 20.235 8.44948 19.4652 8.3526L19.2714 4.6599L18.2308 4.71458L18.4209 8.33333H18.3235C17.0443 7.8625 15.0954 7.075 13.3709 6.37917C9.76779 4.92448 9.13654 4.6875 8.86779 4.6875C8.20477 4.6875 7.76154 5.33958 7.33341 5.97135C7.15216 6.23906 6.81466 6.73646 6.6605 6.78594C6.23185 6.89375 5.89331 6.95156 5.62196 6.99844C4.21571 7.24167 4.16675 7.62135 4.16675 9.375V11.4583C4.16675 12.913 4.20841 13.75 5.06206 14.0349L6.19956 14.4151L4.69487 23.351C4.63029 23.7323 4.73966 24.1141 5.00216 24.4255C5.30633 24.7854 5.773 25 6.25008 25C6.75789 25 7.43862 24.7547 7.79748 23.5911L9.65477 17.5682L12.0449 19.562L13.0402 23.563C13.2641 24.463 13.8407 25 14.5834 25C15.4449 25 16.1459 24.299 16.1433 23.3854C15.6266 18.2208 15.4792 18.0255 15.0391 17.4469L11.9798 13.3687L11.9881 10.0292L18.1141 11.4453L18.5855 11.4505L19.2714 24.5068L20.3121 24.4521L19.6266 11.4141C20.3162 11.2521 20.8334 10.6344 20.8334 9.89583ZM19.2709 10.4167H18.2907L10.949 8.71979L10.9371 13.7146L14.2095 18.0776C14.474 18.4255 14.6194 18.6167 15.1042 23.4375C15.1042 23.7245 14.8709 23.9583 14.5834 23.9583C14.2766 23.9583 14.1246 23.6062 14.0511 23.3115L12.974 18.9802L9.12144 15.7656L6.80216 23.2839C6.59435 23.9583 6.3355 23.9583 6.25008 23.9583C6.08081 23.9583 5.90321 23.8771 5.798 23.7526C5.73446 23.6771 5.70946 23.6 5.72196 23.524L7.37456 13.7094L5.39123 13.0474C5.35477 13.0354 5.34383 13.0271 5.34383 13.0271C5.25373 12.9323 5.20841 12.4042 5.20841 11.4583V9.375C5.20841 8.82083 5.20841 8.24792 5.25789 8.14844C5.31779 8.10885 5.57404 8.0651 5.79956 8.02552C6.08862 7.97552 6.448 7.91354 6.91414 7.79688C7.44435 7.66458 7.80946 7.12656 8.19591 6.55677C8.37508 6.29219 8.70373 5.80781 8.85373 5.73594C9.2756 5.85 11.2402 6.64219 12.9819 7.34531C14.7527 8.06042 16.7605 8.87135 18.0532 9.34427L18.1391 9.375H19.2709C19.5584 9.375 19.7917 9.60781 19.7917 9.89583C19.7917 10.1828 19.5584 10.4167 19.2709 10.4167Z" fill="black"/>
</svg>
