<svg width="20" height="21" viewBox="0 0 20 21" fill="none" xmlns="http://www.w3.org/2000/svg">
<path d="M10.625 3.625C10.4563 3.625 10.2875 3.6375 10.125 3.65C11.9063 4.59375 13.125 6.46875 13.125 8.625C13.125 11.7312 10.6062 14.25 7.5 14.25C5.7875 14.25 4.25625 13.4812 3.21875 12.2687C3.775 15.8688 6.875 18.625 10.625 18.625C14.7688 18.625 18.125 15.2688 18.125 11.125C18.125 6.98125 14.7688 3.625 10.625 3.625Z" stroke="black" stroke-width="2" stroke-miterlimit="10" stroke-linecap="round" stroke-linejoin="round"/>
<path d="M6.875 6.125C5.2625 6.5125 4.7625 7.0125 4.375 8.625C3.9875 7.0125 3.4875 6.5125 1.875 6.125C3.4875 5.7375 3.9875 5.2375 4.375 3.625C4.7625 5.2375 5.2625 5.7375 6.875 6.125Z" stroke="black" stroke-width="2" stroke-miterlimit="10" stroke-linecap="round" stroke-linejoin="round"/>
<path d="M7.5 9.25V10.5" stroke="black" stroke-width="2" stroke-miterlimit="10" stroke-linecap="round" stroke-linejoin="round"/>
<path d="M6.875 9.875H8.125" stroke="black" stroke-width="2" stroke-miterlimit="10" stroke-linecap="round" stroke-linejoin="round"/>
</svg>
