<svg width="11" height="11" viewBox="0 0 11 11" fill="none" xmlns="http://www.w3.org/2000/svg">
<path d="M10.3736 1.80473C10.2182 1.64922 10.0339 1.57145 9.82114 1.57145H9.03552V0.982148C9.03552 0.712112 8.93926 0.480883 8.74695 0.288547C8.55452 0.096211 8.32342 0 8.05326 0H7.6605C7.39036 0 7.15917 0.0962111 6.96683 0.288569C6.77443 0.480883 6.67826 0.712134 6.67826 0.98217V1.57148H4.32125V0.98217C4.32125 0.712134 4.22504 0.480905 4.03268 0.288569C3.84036 0.0962111 3.60915 0 3.33901 0H2.94619C2.67611 0 2.44488 0.0962111 2.25252 0.288569C2.06021 0.480883 1.96397 0.712134 1.96397 0.98217V1.57148H1.17833C0.965482 1.57148 0.781358 1.64924 0.62585 1.80475C0.470343 1.96023 0.392578 2.14444 0.392578 2.35722V10.2143C0.392578 10.427 0.470343 10.6111 0.62585 10.7667C0.781336 10.9222 0.96546 11 1.17833 11H9.82099C10.0338 11 10.2181 10.9222 10.3734 10.7667C10.5289 10.6112 10.6067 10.427 10.6067 10.2143V2.3572C10.6067 2.14436 10.529 1.96023 10.3736 1.80473ZM2.94612 10.2142H1.17833V8.44632H2.94612V10.2142ZM2.94612 8.05356H1.17833V6.0894H2.94612V8.05356ZM2.94612 5.69636H1.17833V3.92859H2.94612V5.69636ZM2.8081 2.88812C2.7692 2.84922 2.74979 2.80328 2.74979 2.75002V0.982234C2.74979 0.929044 2.7692 0.88297 2.8081 0.844142C2.84699 0.805249 2.89293 0.785835 2.94619 0.785835H3.33901C3.3922 0.785835 3.43827 0.805249 3.4771 0.844142C3.516 0.882992 3.53545 0.929044 3.53545 0.982234V2.75002C3.53545 2.8033 3.51591 2.84924 3.4771 2.88812C3.43825 2.92701 3.39227 2.94642 3.33901 2.94642H2.94619C2.893 2.94644 2.84699 2.92701 2.8081 2.88812ZM5.30327 10.2142H3.33895V8.44632H5.30327V10.2142ZM5.30327 8.05356H3.33895V6.0894H5.30327V8.05356ZM5.30327 5.69636H3.33895V3.92859H5.30327V5.69636ZM7.6605 10.2142H5.6962V8.44632H7.6605V10.2142ZM7.6605 8.05356H5.6962V6.0894H7.6605V8.05356ZM7.6605 5.69636H5.6962V3.92859H7.6605V5.69636ZM7.52232 2.88812C7.48347 2.84922 7.46412 2.80328 7.46412 2.75002V0.982234C7.46412 0.929044 7.48347 0.88297 7.52232 0.844142C7.56119 0.805249 7.60722 0.785835 7.6605 0.785835H8.05326C8.10653 0.785835 8.15252 0.805249 8.19144 0.844142C8.23031 0.882992 8.24964 0.929044 8.24964 0.982234V2.75002C8.24964 2.8033 8.23022 2.84924 8.19144 2.88812C8.15259 2.92701 8.10653 2.94642 8.05326 2.94642H7.6605C7.60725 2.94644 7.56104 2.92701 7.52232 2.88812ZM9.82099 10.2142H8.05311V8.44632H9.82099V10.2142ZM9.82099 8.05356H8.05311V6.0894H9.82099V8.05356ZM9.82099 5.69636H8.05311V3.92859H9.82099V5.69636Z" fill="black"/>
</svg>
