<svg width="46" height="46" viewBox="0 0 46 46" fill="none" xmlns="http://www.w3.org/2000/svg">
<path d="M7.0625 42.2244V37.3805C7.0625 35.8021 7.99241 34.3738 9.48491 33.8604C12.3655 32.8694 17.4823 31.4375 23 31.4375C28.5177 31.4375 33.6345 32.8694 36.5151 33.8604C38.0076 34.3738 38.9375 35.8021 38.9375 37.3805V42.0388" stroke="#14142B" stroke-width="5"/>
<path d="M23 23C28.1777 23 32.375 18.8027 32.375 13.625C32.375 8.44733 28.1777 4.25 23 4.25C17.8223 4.25 13.625 8.44733 13.625 13.625C13.625 18.8027 17.8223 23 23 23Z" stroke="#14142B" stroke-width="5"/>
<circle cx="30.25" cy="31" r="12.5" fill="white" stroke="black" stroke-width="3"/>
<g clip-path="url(#clip0_1571_4819)">
<path fill-rule="evenodd" clip-rule="evenodd" d="M25 37H29V25H25V37ZM33 25V37H37V25H33Z" fill="#1D1D1D"/>
</g>
<defs>
<clipPath id="clip0_1571_4819">
<rect width="12" height="12" fill="white" transform="translate(25 25)"/>
</clipPath>
</defs>
</svg>
