<svg width="20" height="21" viewBox="0 0 20 21" fill="none" xmlns="http://www.w3.org/2000/svg">
<g clip-path="url(#clip0_611_13440)">
<path d="M17.294 3.46024L17.1437 1.11556C17.1342 0.991453 17.0844 0.873844 17.002 0.780604C16.9059 0.70481 16.7891 0.659881 16.667 0.651775L14.3223 0.501475C14.086 0.48199 13.8786 0.657787 13.859 0.894134C13.8589 0.896389 13.8587 0.89859 13.8585 0.900844C13.8438 1.1366 14.0223 1.33993 14.2579 1.35604L15.7094 1.45051L13.8886 3.27129C11.9044 1.61799 8.95559 1.88622 7.30224 3.87045C6.7779 4.49972 6.42808 5.25563 6.28771 6.06258C3.77474 6.66909 2.22928 9.19794 2.83585 11.7109C3.30586 13.6581 4.96287 15.0905 6.95762 15.2738V17.2621H5.49327C5.25611 17.2621 5.06384 17.4544 5.06384 17.6915C5.06384 17.9287 5.25611 18.1209 5.49327 18.1209H6.96191V20.0705C6.96191 20.3077 7.15419 20.5 7.39134 20.5C7.62849 20.5 7.82077 20.3077 7.82077 20.0705V18.1209H9.28942C9.52657 18.1209 9.71885 17.9287 9.71885 17.6915C9.71885 17.4544 9.52657 17.2621 9.28942 17.2621H7.82077V15.2738C9.92551 15.0747 11.6368 13.4919 11.9991 11.409C14.5096 10.8022 16.0529 8.27526 15.4461 5.76477C15.279 5.07328 14.9563 4.42903 14.5027 3.88108L16.3321 2.05171L16.4351 3.51606C16.4488 3.74312 16.6371 3.92016 16.8645 3.91973C17.1017 3.92032 17.2945 3.72852 17.2951 3.49137C17.2951 3.48096 17.2947 3.47055 17.294 3.46024ZM7.39134 14.4364C5.27818 14.433 3.56792 12.7172 3.57136 10.604C3.57404 8.94555 4.64487 7.47765 6.22329 6.96867C6.26785 9.51878 8.34924 11.562 10.8998 11.5593H11.093C10.6587 13.2496 9.1366 14.4326 7.39134 14.4364ZM11.2133 10.6832C11.1102 10.6832 11.0071 10.6832 10.9041 10.6832C8.79563 10.6861 7.08414 8.9792 7.08129 6.87076C7.08124 6.84183 7.08156 6.8129 7.08215 6.78402C7.18522 6.78402 7.28828 6.78402 7.39134 6.78402C9.50354 6.78638 11.2152 8.49803 11.2176 10.6102C11.2176 10.636 11.2133 10.6574 11.2133 10.6832ZM14.6077 7.78555C14.4386 8.4531 14.0922 9.06257 13.6052 9.54948V9.57954C13.1744 10.0033 12.6488 10.3183 12.0721 10.4985C12.0207 7.94965 9.9407 5.90975 7.39134 5.90793H7.1981C7.71658 3.86181 9.79561 2.62344 11.8417 3.14192C13.8879 3.66046 15.1263 5.73948 14.6077 7.78555Z" fill="black"/>
</g>
<defs>
<clipPath id="clip0_611_13440">
<rect width="20" height="20" fill="white" transform="translate(0 0.5)"/>
</clipPath>
</defs>
</svg>
