<svg width="15" height="16" viewBox="0 0 15 16" fill="none" xmlns="http://www.w3.org/2000/svg">
<g clip-path="url(#clip0_2209_23045)">
<path d="M7.50021 15.5C8.41762 15.5 9.29644 15.335 10.1089 15.0335L10.435 8L10.1089 0.966494C9.29644 0.665029 8.41762 0.5 7.50021 0.5C6.58281 0.5 5.70399 0.665029 4.89153 0.966494L4.56543 8L4.8915 15.0335C5.70399 15.335 6.58281 15.5 7.50021 15.5Z" fill="#F0F0F0"/>
<path d="M0 8.0003C0 11.225 2.03531 13.9741 4.89132 15.0338V0.966797C2.03531 2.02649 0 4.77557 0 8.0003Z" fill="#FF9811"/>
<path d="M10.1089 0.966797V15.0338C12.9649 13.9741 15.0002 11.225 15.0002 8.0003C15.0002 4.77557 12.9649 2.02649 10.1089 0.966797Z" fill="#6DA544"/>
</g>
<defs>
<clipPath id="clip0_2209_23045">
<rect width="15" height="15" fill="white" transform="translate(0 0.5)"/>
</clipPath>
</defs>
</svg>
