<svg width="20" height="21" viewBox="0 0 20 21" fill="none" xmlns="http://www.w3.org/2000/svg">
<path d="M17.5 13.375V16.125C17.5 16.8125 16.9375 17.375 16.25 17.375H3.75C3.0625 17.375 2.5 16.8125 2.5 16.125V13.375" stroke="black" stroke-width="1.1" stroke-miterlimit="10" stroke-linecap="round" stroke-linejoin="round"/>
<path d="M10 15.5C9.3125 15.5 8.75 14.9375 8.75 14.25V12.375H11.25V14.25C11.25 14.9375 10.6875 15.5 10 15.5Z" stroke="black" stroke-width="1.1" stroke-miterlimit="10" stroke-linecap="round" stroke-linejoin="round"/>
<path d="M8.75 14.25H4.375C3 14.25 1.875 13.125 1.875 11.75V6.75C1.875 6.0625 2.4375 5.5 3.125 5.5H16.875C17.5625 5.5 18.125 6.0625 18.125 6.75V11.75C18.125 13.125 17 14.25 15.625 14.25H11.25" stroke="black" stroke-width="1.1" stroke-miterlimit="10" stroke-linecap="round" stroke-linejoin="round"/>
<path d="M12.5 5.5H7.5V4.25C7.5 3.5625 8.0625 3 8.75 3H11.25C11.9375 3 12.5 3.5625 12.5 4.25V5.5Z" stroke="black" stroke-width="1.1" stroke-miterlimit="10" stroke-linecap="round" stroke-linejoin="round"/>
<path d="M4.375 18V17.375" stroke="black" stroke-width="1.1" stroke-miterlimit="10" stroke-linecap="round" stroke-linejoin="round"/>
<path d="M15.625 18V17.375" stroke="black" stroke-width="1.1" stroke-miterlimit="10" stroke-linecap="round" stroke-linejoin="round"/>
</svg>
