<svg width="20" height="21" viewBox="0 0 20 21" fill="none" xmlns="http://www.w3.org/2000/svg">
<path d="M3.75 9.25C3.75 12.6875 6.5625 15.5 10 15.5C13.4375 15.5 16.25 12.6875 16.25 9.25H7.5" stroke="black" stroke-miterlimit="10" stroke-linecap="round" stroke-linejoin="round"/>
<path d="M10 9.25V3C6.5625 3 3.75 5.8125 3.75 9.25H10Z" stroke="black" stroke-miterlimit="10" stroke-linecap="round" stroke-linejoin="round"/>
<path d="M17.5 7C16.8125 7 16.25 7.5 16.25 8.125V9.25" stroke="black" stroke-miterlimit="10" stroke-linecap="round" stroke-linejoin="round"/>
<path d="M5.625 18.625C6.31536 18.625 6.875 18.0654 6.875 17.375C6.875 16.6846 6.31536 16.125 5.625 16.125C4.93464 16.125 4.375 16.6846 4.375 17.375C4.375 18.0654 4.93464 18.625 5.625 18.625Z" stroke="black" stroke-miterlimit="10" stroke-linecap="round" stroke-linejoin="round"/>
<path d="M14.375 18.625C15.0654 18.625 15.625 18.0654 15.625 17.375C15.625 16.6846 15.0654 16.125 14.375 16.125C13.6846 16.125 13.125 16.6846 13.125 17.375C13.125 18.0654 13.6846 18.625 14.375 18.625Z" stroke="black" stroke-miterlimit="10" stroke-linecap="round" stroke-linejoin="round"/>
<path d="M9.375 8.625L5.375 5.0625" stroke="black" stroke-miterlimit="10" stroke-linecap="round" stroke-linejoin="round"/>
</svg>
