<svg width="15" height="15" viewBox="0 0 15 15" fill="none" xmlns="http://www.w3.org/2000/svg">
<path fill-rule="evenodd" clip-rule="evenodd" d="M13.3142 1.53298C11.8247 0.0434432 9.40968 0.0434431 7.92015 1.53298L5.71283 3.74029C5.448 4.00512 5.67272 4.40776 6.0469 4.3917L7.49333 4.32965C7.80149 4.31643 8.09347 4.18808 8.31157 3.96998L9.33436 2.94719C10.0428 2.23871 11.1915 2.23871 11.9 2.94719C12.6085 3.65568 12.6085 4.80436 11.9 5.51285L10.2578 7.1551C10.225 7.1879 10.208 7.23331 10.2113 7.27957C10.2177 7.36948 10.1486 7.44691 10.0585 7.45077L10.0306 7.45197C9.98375 7.45398 9.93938 7.47348 9.90623 7.50663L9.6927 7.72016C8.98421 8.42865 7.83553 8.42865 7.12704 7.72016C7.04409 7.63721 6.93307 7.58486 6.81586 7.58989L6.40212 7.60764C5.60298 7.64192 5.07482 8.45461 5.6208 9.03916C5.65082 9.0713 5.6815 9.10304 5.71283 9.13438C7.20236 10.6239 9.61738 10.6239 11.1069 9.13438L13.3142 6.92706C14.8038 5.43753 14.8038 3.02251 13.3142 1.53298Z" fill="#14142B"/>
<path fill-rule="evenodd" clip-rule="evenodd" d="M8.22373 7.33152C8.99812 7.30516 9.4937 6.50713 8.94581 5.95924C7.43659 4.45002 4.98968 4.45002 3.48046 5.95924L1.34441 8.09529C-0.164803 9.6045 -0.164803 12.0514 1.34441 13.5606C2.85362 15.0698 5.30054 15.0698 6.80976 13.5606L8.94581 11.4246C9.16623 11.2042 8.98491 10.8632 8.67337 10.8738L7.07067 10.9283C6.76664 10.9387 6.47788 11.0641 6.26278 11.2792L5.39554 12.1464C4.66738 12.8746 3.48679 12.8746 2.75862 12.1464C2.03046 11.4183 2.03046 10.2377 2.75862 9.5095L4.89467 7.37345C5.48759 6.78054 6.38047 6.67041 7.08482 7.04306C7.38543 7.20211 7.70576 7.34916 8.04566 7.33759L8.22373 7.33152Z" fill="#14142B"/>
</svg>
