<svg width="100" height="47" viewBox="0 0 100 47" fill="none" xmlns="http://www.w3.org/2000/svg">
<g clip-path="url(#clip0_640_16378)">
<path d="M17.0569 22.1069V25.0501H10.3345V40.5351H7.02344V25.0501H0.301025V22.1069H17.0569Z" fill="#5C4199"/>
<path d="M27.7257 40.5351V31.0033C27.7257 28.9297 26.9565 27.9264 24.5819 27.9264C21.4381 27.9264 19.5652 29.4648 19.5652 32.0067V40.5685H16.3545V19.2307H19.5652V27.4247C20.8361 25.8194 22.8762 25.1505 24.5819 25.1505C28.6956 25.1505 30.9699 27.1906 30.9699 30.6689V40.5685H27.7257V40.5351Z" fill="#5C4199"/>
<path d="M41.9732 25.5852V28.6956C41.4047 28.3612 40.5351 28.0936 39.5318 28.0936C36.388 28.0936 34.8829 29.8327 34.8829 32.6087V40.5685H31.6722V25.6187H34.8829V27.7257C35.8863 26.0535 37.8595 25.1505 39.5652 25.1505C40.7358 25.117 41.3712 25.2842 41.9732 25.5852Z" fill="#5C4199"/>
<path d="M57.4582 25.5852L47.8261 46.4548H44.4147L48.194 38.4615H46.6221L40.4014 25.5852H43.9465L49.0636 36.5217L54.0469 25.5852H57.4582Z" fill="#5C4199"/>
<path d="M73.4448 33.0769C73.4448 37.8595 70.0669 40.9699 65.0836 40.9699C63.1773 40.9699 61.1371 40.2675 59.8997 38.7625V40.5016H56.689V19.1638H59.8997V27.2909C61.1706 25.7859 63.1773 25.0836 65.0836 25.0836C70.1003 25.117 73.4448 28.2608 73.4448 33.0769ZM70.1338 33.0769C70.1338 29.8327 67.8261 27.9264 64.7492 27.9264C61.5385 27.9264 59.6656 29.4648 59.6656 33.0769C59.6656 36.6889 61.5719 38.1605 64.7492 38.1605C67.8261 38.1605 70.1338 36.2541 70.1338 33.0769Z" fill="#5C4199"/>
<path d="M88.3947 33.9464H76.2542C76.6556 36.5551 78.5954 38.2273 81.3044 38.2273C83.077 38.2273 85.1171 37.9598 87.0569 36.8561V39.7658C85.5184 40.5685 83.679 40.9698 81.3044 40.9698C76.4549 40.9698 73.077 37.525 73.077 33.0434C73.077 28.2608 76.4883 25.1169 80.6689 25.1169C85.2509 25.1169 88.3613 27.8929 88.3613 33.3778V33.9464H88.3947ZM85.2509 31.4046C84.8161 29.0969 83.3445 27.7925 80.7024 27.7925C78.7291 27.7925 77.0235 28.9965 76.388 31.4046H85.2509Z" fill="#5C4199"/>
<path d="M93.2442 0.434774C87.9599 -0.869576 86.087 2.37458 85.4515 4.61538C85.2174 5.38461 84.3144 5.68562 83.6789 5.18395C82.5418 4.31438 80.8027 3.44482 78.8294 4.08027C77.7927 4.41472 76.5218 5.31773 76.087 6.18729C74.1137 10.2341 76.1204 14.7492 79.0636 18.5953C79.1973 18.7626 79.3311 18.9298 79.4315 19.097C79.7993 19.5987 80.8696 20.9699 82.408 22.1405C83.6455 23.1104 84.6823 23.4783 85.0167 23.5452C86.1873 23.7793 87.3579 23.6455 88.3612 23.1104C88.5284 23.0101 88.4281 22.7759 88.2609 22.8094C86.1539 23.077 84.3813 22.0067 82.6422 19.9666C82.4415 19.699 81.4716 18.3278 81.0702 17.7258C80.9365 17.5585 80.8361 17.3579 80.7023 17.1907C80.1003 16.1539 79.5987 15.1505 79.3646 14.2141C77.3244 5.8194 82.3412 7.4582 84.8161 8.52843C85.4515 8.79599 86.1539 8.56187 86.4883 7.95987C87.3244 6.35451 89.097 3.71237 91.2375 4.4816C97.0903 6.58863 96.7893 18.796 92.8763 19.7659C90.6689 20.3345 87.9933 18.495 87.4248 15.4515C87.1572 14.0803 87.9933 12.7425 89.2977 12.2743L90.8696 11.7391C90.8696 11.7391 91.0702 11.6723 91.204 11.5385C91.3044 11.4381 91.4381 11.3044 91.4381 11.1037C91.4381 10.7024 91.4381 10.2341 90.7692 10.1672C90.4348 10.1338 90.1003 10.1338 89.7659 10.1672C88.4615 10.301 83.4448 11.8395 81.9733 13.7124C81.1371 14.7826 81.2709 16.0535 81.6388 17.1238C81.806 17.592 82.4749 17.4917 82.5418 17.0234C82.5753 16.7559 82.6087 16.4883 82.709 16.2208C83.3445 14.6154 85.0836 13.7458 85.4515 16.5886C85.9532 20.4348 89.8328 25.3177 94.4816 22.3746C101.605 17.893 102.207 2.60869 93.2442 0.434774Z" fill="url(#paint0_linear_640_16378)"/>
</g>
<defs>
<linearGradient id="paint0_linear_640_16378" x1="84.8694" y1="23.514" x2="89.9264" y2="-0.27693" gradientUnits="userSpaceOnUse">
<stop offset="0.2414" stop-color="#662D91"/>
<stop offset="0.3471" stop-color="#6A2C8E"/>
<stop offset="0.4661" stop-color="#742B8A"/>
<stop offset="0.5917" stop-color="#842A83"/>
<stop offset="0.7219" stop-color="#9A2779"/>
<stop offset="0.8555" stop-color="#B5236D"/>
<stop offset="0.9902" stop-color="#D71C5D"/>
<stop offset="1" stop-color="#DA1C5C"/>
</linearGradient>
<clipPath id="clip0_640_16378">
<rect width="100" height="46.4883" fill="white"/>
</clipPath>
</defs>
</svg>
