<svg width="26" height="15" viewBox="0 0 26 15" fill="none" xmlns="http://www.w3.org/2000/svg">
<path d="M16.3152 13.2277H9.69531V1.77136H16.3152V13.2277Z" fill="#FF5F00"/>
<path d="M10.1199 7.49953C10.1199 5.17555 11.2499 3.10541 13.0095 1.77134C11.7227 0.795795 10.0987 0.213528 8.33382 0.213528C4.15554 0.213528 0.768555 3.47553 0.768555 7.49953C0.768555 11.5235 4.15554 14.7855 8.33382 14.7855C10.0987 14.7855 11.7227 14.2033 13.0095 13.2277C11.2499 11.8936 10.1199 9.8235 10.1199 7.49953Z" fill="#EB001B"/>
<path d="M25.2444 7.49953C25.2444 11.5235 21.8574 14.7855 17.6791 14.7855C15.9142 14.7855 14.2902 14.2033 13.0029 13.2277C14.763 11.8936 15.893 9.8235 15.893 7.49953C15.893 5.17555 14.763 3.10541 13.0029 1.77134C14.2902 0.795795 15.9142 0.213528 17.6791 0.213528C21.8574 0.213528 25.2444 3.47553 25.2444 7.49953Z" fill="#F79E1B"/>
</svg>
