<svg width="20" height="21" viewBox="0 0 20 21" fill="none" xmlns="http://www.w3.org/2000/svg">
<path d="M10 6.75C11.0625 6.75 11.875 5.9375 11.875 4.875C11.875 3.8125 11.0625 3 10 3C8.9375 3 8.125 3.8125 8.125 4.875C8.125 5.9375 8.9375 6.75 10 6.75Z" fill="black"/>
<path d="M10 8.625C8.9375 8.625 8.125 9.4375 8.125 10.5C8.125 11.5625 8.9375 12.375 10 12.375C11.0625 12.375 11.875 11.5625 11.875 10.5C11.875 9.4375 11.0625 8.625 10 8.625Z" fill="black"/>
<path d="M10 14.25C8.9375 14.25 8.125 15.0625 8.125 16.125C8.125 17.1875 8.9375 18 10 18C11.0625 18 11.875 17.1875 11.875 16.125C11.875 15.0625 11.0625 14.25 10 14.25Z" fill="black"/>
</svg>
