<svg width="46" height="46" viewBox="0 0 46 46" fill="none" xmlns="http://www.w3.org/2000/svg">
<rect x="17.625" y="2.375" width="11.25" height="26.25" rx="4" stroke="black" stroke-width="4"/>
<path d="M10.125 18.3125V28.125C10.125 32.5433 13.7067 36.125 18.125 36.125H28.375C32.7933 36.125 36.375 32.5433 36.375 28.125V18.3125" stroke="black" stroke-width="4"/>
<path d="M23.25 36.125V43.625" stroke="black" stroke-width="4"/>
<path d="M30.75 43.625H15.75" stroke="black" stroke-width="4"/>
<circle cx="30.5" cy="31" r="12.5" fill="white" stroke="black" stroke-width="3"/>
<path d="M24.8016 31.1917C24.7727 30.9504 24.7578 30.7108 24.7578 30.5C24.7578 27.3534 27.3534 24.7578 30.5 24.7578C31.9677 24.7578 33.3418 25.3496 34.3525 26.2724L33.8457 26.7881C33.7315 26.9023 33.6875 27.0693 33.7315 27.2276C33.7842 27.3769 33.9072 27.4912 34.0654 27.5264C34.1539 27.5441 37.06 28.4806 36.8749 28.4434C37.1103 28.5218 37.4585 28.2707 37.3936 27.9249C37.3757 27.8363 36.7323 24.608 36.7695 24.7929C36.7344 24.6348 36.6201 24.503 36.4619 24.459C36.3126 24.4151 36.1455 24.459 36.0313 24.5732L35.6006 24.995C34.2735 23.7559 32.4511 23 30.5 23C26.378 23 23 26.378 23 30.5V30.5175C23 30.7653 23.0113 30.9567 23.0245 31.1032C23.042 31.2973 23.1851 31.4563 23.3762 31.4946L24.279 31.6751C24.5729 31.7339 24.8371 31.4875 24.8016 31.1917Z" fill="black"/>
<path d="M37.6265 29.5046L36.721 29.3201C36.4268 29.2601 36.1607 29.5067 36.1969 29.8039C36.2282 30.0604 36.2422 30.3098 36.2422 30.4999C36.2422 33.6463 33.6466 36.242 30.5 36.242C29.0323 36.242 27.6582 35.6503 26.6475 34.7186L27.1543 34.2118C27.2685 34.0975 27.3125 33.9306 27.2685 33.7723C27.2158 33.6228 27.0928 33.5086 26.9346 33.4735C26.8461 33.4556 23.94 32.5193 24.1251 32.5565C23.9756 32.5302 23.8261 32.5741 23.7296 32.6795C23.624 32.7762 23.5801 32.9344 23.6064 33.075C23.6243 33.1635 24.2678 36.3624 24.2306 36.1775C24.2656 36.3358 24.3799 36.4676 24.5381 36.5114C24.7215 36.5574 24.8747 36.5018 24.9687 36.3972L25.3907 35.9754C26.7177 37.2147 28.5401 37.9999 30.5 37.9999C34.622 37.9999 38 34.6219 38 30.4999V30.4734C38 30.2786 37.9929 30.0874 37.9767 29.8973C37.9599 29.7031 37.8175 29.5436 37.6265 29.5046Z" fill="black"/>
</svg>
