<svg width="25" height="25" viewBox="0 0 25 25" fill="none" xmlns="http://www.w3.org/2000/svg">
<path d="M21.591 1.13628C21.4178 1.13469 21.2465 1.17355 21.091 1.24991L7.95464 4.54537C7.32714 4.54537 6.81828 5.05423 6.81828 5.68173V16.1136C5.04328 15.486 3.09532 16.4163 2.46782 18.1913C1.84032 19.9663 2.77055 21.9142 4.54555 22.5417C6.32055 23.1692 8.26851 22.239 8.89601 20.464C9.02623 20.0961 9.09214 19.7083 9.09101 19.3181V12.2272L20.4546 9.38628V12.7045C18.6796 12.077 16.7317 13.0072 16.1042 14.7822C15.4767 16.5574 16.4069 18.5051 18.1819 19.1326C19.9569 19.7601 21.9049 18.8299 22.5324 17.0549C22.6626 16.687 22.7285 16.2992 22.7274 15.909V2.27264C22.7274 1.64514 22.2185 1.13628 21.591 1.13628ZM9.09101 9.95446V6.54537L20.4546 3.70446V7.11355L9.09101 9.95446Z" fill="black"/>
</svg>
