<svg width="20" height="19" viewBox="0 0 20 19" fill="none" xmlns="http://www.w3.org/2000/svg">
<path d="M15.5 7.26087C15.5 5.8656 14.9205 4.52748 13.8891 3.54087C12.8576 2.55427 11.4587 2 10 2C8.54131 2 7.14236 2.55427 6.11091 3.54087C5.07946 4.52748 4.5 5.8656 4.5 7.26087C4.5 11.433 2.88279 13.5793 1.84697 14.5262C1.65234 14.7041 1.79337 15.1522 2.05706 15.1522H6.59158C6.70855 15.1522 6.81043 15.232 6.8466 15.3433C7.0417 15.9433 7.81089 17.75 10 17.75C12.1891 17.75 12.9583 15.9433 13.1534 15.3433C13.1896 15.2321 13.2915 15.1522 13.4084 15.1522H17.9429C18.2066 15.1522 18.3477 14.7041 18.153 14.5262C17.1172 13.5793 15.5 11.433 15.5 7.26087Z" stroke="#14142B" stroke-width="2"/>
</svg>
