<svg width="46" height="46" viewBox="0 0 46 46" fill="none" xmlns="http://www.w3.org/2000/svg">
<path d="M6.8125 42.2244V37.3805C6.8125 35.8021 7.74241 34.3738 9.23491 33.8604C12.1155 32.8694 17.2323 31.4375 22.75 31.4375C28.2677 31.4375 33.3845 32.8694 36.2651 33.8604C37.7576 34.3738 38.6875 35.8021 38.6875 37.3805V42.0388" stroke="#14142B" stroke-width="5"/>
<path d="M22.75 23C27.9277 23 32.125 18.8027 32.125 13.625C32.125 8.44733 27.9277 4.25 22.75 4.25C17.5723 4.25 13.375 8.44733 13.375 13.625C13.375 18.8027 17.5723 23 22.75 23Z" stroke="#14142B" stroke-width="5"/>
<circle cx="30" cy="31" r="12.5" fill="white" stroke="black" stroke-width="3"/>
<g clip-path="url(#clip0_1571_4838)">
<path d="M24.3016 31.1917C24.2727 30.9504 24.2578 30.7108 24.2578 30.5C24.2578 27.3534 26.8534 24.7578 30 24.7578C31.4677 24.7578 32.8418 25.3496 33.8525 26.2724L33.3457 26.7881C33.2315 26.9023 33.1875 27.0693 33.2315 27.2276C33.2842 27.3769 33.4072 27.4912 33.5654 27.5264C33.6539 27.5441 36.56 28.4806 36.3749 28.4434C36.6103 28.5218 36.9585 28.2707 36.8936 27.9249C36.8757 27.8363 36.2323 24.608 36.2695 24.7929C36.2344 24.6348 36.1201 24.503 35.9619 24.459C35.8126 24.4151 35.6455 24.459 35.5313 24.5732L35.1006 24.995C33.7735 23.7559 31.9511 23 30 23C25.878 23 22.5 26.378 22.5 30.5V30.5175C22.5 30.7653 22.5113 30.9567 22.5245 31.1032C22.542 31.2973 22.6851 31.4563 22.8762 31.4946L23.779 31.6751C24.0729 31.7339 24.3371 31.4875 24.3016 31.1917Z" fill="black"/>
<path d="M37.1265 29.5047L36.221 29.3202C35.9268 29.2602 35.6607 29.5069 35.6969 29.8041C35.7282 30.0605 35.7422 30.3099 35.7422 30.5C35.7422 33.6464 33.1466 36.2422 30 36.2422C28.5323 36.2422 27.1582 35.6504 26.1475 34.7187L26.6543 34.2119C26.7685 34.0977 26.8125 33.9307 26.7685 33.7724C26.7158 33.623 26.5928 33.5087 26.4346 33.4736C26.3461 33.4558 23.44 32.5194 23.6251 32.5566C23.4756 32.5303 23.3261 32.5742 23.2296 32.6796C23.124 32.7763 23.0801 32.9345 23.1064 33.0751C23.1243 33.1636 23.7678 36.3626 23.7306 36.1776C23.7656 36.3359 23.8799 36.4677 24.0381 36.5116C24.2215 36.5576 24.3747 36.5019 24.4687 36.3974L24.8907 35.9755C26.2177 37.2148 28.0401 38 30 38C34.122 38 37.5 34.622 37.5 30.5V30.4735C37.5 30.2788 37.4929 30.0875 37.4767 29.8974C37.4599 29.7032 37.3175 29.5437 37.1265 29.5047Z" fill="black"/>
</g>
<defs>
<clipPath id="clip0_1571_4838">
<rect width="15" height="15" fill="white" transform="translate(22.5 23)"/>
</clipPath>
</defs>
</svg>
