<svg width="46" height="46" viewBox="0 0 46 46" fill="none" xmlns="http://www.w3.org/2000/svg">
<path d="M42.5187 20.3563L38.675 16.5125V11.0563C38.675 10.0617 38.2799 9.1079 37.5766 8.40464C36.8734 7.70138 35.9196 7.30629 34.925 7.30629H29.4875L25.6437 3.55629C24.9411 2.85785 23.9907 2.46582 23 2.46582C22.0093 2.46582 21.0589 2.85785 20.3562 3.55629L16.5125 7.32504H11.0562C10.0617 7.32504 9.10786 7.72013 8.4046 8.42339C7.70134 9.12665 7.30625 10.0805 7.30625 11.075V16.5125L3.55625 20.3563C3.19395 20.6967 2.90295 21.1057 2.70016 21.5596C2.49736 22.0134 2.38684 22.5031 2.375 23C2.37421 23.9903 2.76515 24.9407 3.4625 25.6438L7.325 29.4875V34.9438C7.325 35.9384 7.72009 36.8922 8.42335 37.5954C9.12661 38.2987 10.0804 38.6938 11.075 38.6938H16.5125L20.3562 42.5375C21.0593 43.2349 22.0097 43.6258 23 43.625C23.9903 43.6258 24.9407 43.2349 25.6437 42.5375L29.4875 38.675H34.9437C35.9383 38.675 36.8921 38.28 37.5954 37.5767C38.2987 36.8734 38.6937 35.9196 38.6937 34.925V29.4875L42.5375 25.6438C43.2359 24.9412 43.628 23.9907 43.628 23C43.628 22.0093 43.2359 21.0589 42.5375 20.3563H42.5187ZM34.925 27.95V34.925H27.95L23 39.875L18.05 34.925H11.075V27.95L6.125 23L11.075 18.05V11.075H18.05L23 6.12504L27.95 11.075H34.925V18.05L39.875 23L34.925 27.95Z" fill="black"/>
<path d="M21.125 24.3689L16.8312 20.0752L14.1687 22.7189L21.125 29.6752L31.8312 18.9689L29.1687 16.3252L21.125 24.3689Z" fill="black"/>
</svg>
