<svg width="25" height="25" viewBox="0 0 25 25" fill="none" xmlns="http://www.w3.org/2000/svg">
<path d="M23.4375 22.9166C23.4375 23.331 23.2729 23.7285 22.9799 24.0215C22.6868 24.3145 22.2894 24.4791 21.875 24.4791H3.125C2.7106 24.4791 2.31317 24.3145 2.02015 24.0215C1.72712 23.7285 1.5625 23.331 1.5625 22.9166V13.5416C1.5625 13.1272 1.72712 12.7298 2.02015 12.4368C2.31317 12.1438 2.7106 11.9791 3.125 11.9791H8.33333C8.99263 11.9434 9.61996 11.6836 10.1115 11.2427L11.4583 9.89581H17.7083L19.0552 11.2427C19.5467 11.6836 20.174 11.9434 20.8333 11.9791H21.875C22.2894 11.9791 22.6868 12.1438 22.9799 12.4368C23.2729 12.7298 23.4375 13.1272 23.4375 13.5416V22.9166Z" stroke="black" stroke-linecap="round" stroke-linejoin="round"/>
<path d="M3.64551 11.9791V10.9375C3.64551 10.6612 3.75525 10.3963 3.9506 10.2009C4.14596 10.0056 4.41091 9.89581 4.68717 9.89581H5.72884C6.00511 9.89581 6.27006 10.0056 6.46541 10.2009C6.66076 10.3963 6.77051 10.6612 6.77051 10.9375V11.9791" stroke="black" stroke-linecap="round" stroke-linejoin="round"/>
<path d="M5.20801 17.1875C6.07095 17.1875 6.77051 16.4879 6.77051 15.625C6.77051 14.7621 6.07095 14.0625 5.20801 14.0625C4.34506 14.0625 3.64551 14.7621 3.64551 15.625C3.64551 16.4879 4.34506 17.1875 5.20801 17.1875Z" stroke="black" stroke-linecap="round" stroke-linejoin="round"/>
<path d="M15.1042 20.3125C16.5424 20.3125 17.7083 19.1466 17.7083 17.7084C17.7083 16.2701 16.5424 15.1042 15.1042 15.1042C13.6659 15.1042 12.5 16.2701 12.5 17.7084C12.5 19.1466 13.6659 20.3125 15.1042 20.3125Z" stroke="black" stroke-linecap="round" stroke-linejoin="round"/>
<path d="M15.1045 22.3958C17.6933 22.3958 19.792 20.2971 19.792 17.7083C19.792 15.1195 17.6933 13.0208 15.1045 13.0208C12.5157 13.0208 10.417 15.1195 10.417 17.7083C10.417 20.2971 12.5157 22.3958 15.1045 22.3958Z" stroke="black" stroke-linecap="round" stroke-linejoin="round"/>
<path d="M19.2712 0.520813H9.89616C9.32086 0.520813 8.85449 0.987183 8.85449 1.56248V5.72915C8.85449 6.30444 9.32086 6.77081 9.89616 6.77081H19.2712C19.8465 6.77081 20.3128 6.30444 20.3128 5.72915V1.56248C20.3128 0.987183 19.8465 0.520813 19.2712 0.520813Z" stroke="black" stroke-linecap="round" stroke-linejoin="round"/>
<path d="M18.2292 2.60419H10.9375V4.68752H18.2292V2.60419Z" stroke="black" stroke-linecap="round" stroke-linejoin="round"/>
<path d="M10.417 6.77081L11.4587 9.89581" stroke="black" stroke-linecap="round" stroke-linejoin="round"/>
<path d="M18.7497 6.77081L17.708 9.89581" stroke="black" stroke-linecap="round" stroke-linejoin="round"/>
</svg>
