<svg width="419" height="95" viewBox="0 0 419 95" fill="none" xmlns="http://www.w3.org/2000/svg">
<g clip-path="url(#clip0_1832_55959)">
<g filter="url(#filter0_dddddd_1832_55959)">
<path d="M0 3H104.458C105.837 3 107.201 3.28525 108.464 3.83782L160.427 26.5622C161.691 27.1148 163.055 27.4 164.434 27.4H218.525C220.212 27.4 221.871 27.8265 223.348 28.6397L285.327 62.7603C286.805 63.5735 288.464 64 290.15 64H350.584C351.861 64 353.125 63.7557 354.31 63.2802L419 37.3125" stroke="#D80027" stroke-width="2"/>
</g>
<circle cx="328.5" cy="64" r="5.5" fill="#D80027" stroke="#D80027"/>
<circle cx="328.5" cy="64" r="8.5" stroke="#D80027"/>
<g filter="url(#filter1_d_1832_55959)">
<rect x="296" width="65" height="48" rx="5" fill="white" shape-rendering="crispEdges"/>
<path d="M301.51 15.27C302.357 14.59 303.02 14.0333 303.5 13.6C303.98 13.16 304.383 12.7033 304.71 12.23C305.043 11.75 305.21 11.28 305.21 10.82C305.21 10.3867 305.103 10.0467 304.89 9.8C304.683 9.54667 304.347 9.42 303.88 9.42C303.427 9.42 303.073 9.56333 302.82 9.85C302.573 10.13 302.44 10.5067 302.42 10.98H301.54C301.567 10.2333 301.793 9.65667 302.22 9.25C302.647 8.84333 303.197 8.64 303.87 8.64C304.557 8.64 305.1 8.83 305.5 9.21C305.907 9.59 306.11 10.1133 306.11 10.78C306.11 11.3333 305.943 11.8733 305.61 12.4C305.283 12.92 304.91 13.38 304.49 13.78C304.07 14.1733 303.533 14.6333 302.88 15.16H306.32V15.92H301.51V15.27ZM307.152 14.39V13.7L310.662 8.84H311.752V13.6H312.752V14.39H311.752V16H310.852V14.39H307.152ZM310.892 9.79L308.202 13.6H310.892V9.79ZM316.967 9.63C316.794 9.63 316.647 9.57 316.527 9.45C316.414 9.33 316.357 9.18333 316.357 9.01C316.357 8.83667 316.414 8.69 316.527 8.57C316.647 8.45 316.794 8.39 316.967 8.39C317.14 8.39 317.284 8.45 317.397 8.57C317.517 8.69 317.577 8.83667 317.577 9.01C317.577 9.18333 317.517 9.33 317.397 9.45C317.284 9.57 317.14 9.63 316.967 9.63ZM317.417 17.19C317.417 17.6767 317.294 18.0333 317.047 18.26C316.8 18.4867 316.44 18.6 315.967 18.6H315.437V17.83H315.817C316.07 17.83 316.247 17.78 316.347 17.68C316.454 17.58 316.507 17.41 316.507 17.17V10.52H317.417V17.19ZM323.818 10.52V16H322.908V15.19C322.734 15.47 322.491 15.69 322.178 15.85C321.871 16.0033 321.531 16.08 321.158 16.08C320.731 16.08 320.348 15.9933 320.008 15.82C319.668 15.64 319.398 15.3733 319.198 15.02C319.004 14.6667 318.908 14.2367 318.908 13.73V10.52H319.808V13.61C319.808 14.15 319.944 14.5667 320.218 14.86C320.491 15.1467 320.864 15.29 321.338 15.29C321.824 15.29 322.208 15.14 322.488 14.84C322.768 14.54 322.908 14.1033 322.908 13.53V10.52H323.818ZM328.024 10.42C328.691 10.42 329.231 10.6233 329.644 11.03C330.057 11.43 330.264 12.01 330.264 12.77V16H329.364V12.9C329.364 12.3533 329.227 11.9367 328.954 11.65C328.681 11.3567 328.307 11.21 327.834 11.21C327.354 11.21 326.971 11.36 326.684 11.66C326.404 11.96 326.264 12.3967 326.264 12.97V16H325.354V10.52H326.264V11.3C326.444 11.02 326.687 10.8033 326.994 10.65C327.307 10.4967 327.651 10.42 328.024 10.42ZM336.75 13.05C336.75 13.2233 336.74 13.4067 336.72 13.6H332.34C332.374 14.14 332.557 14.5633 332.89 14.87C333.23 15.17 333.64 15.32 334.12 15.32C334.514 15.32 334.84 15.23 335.1 15.05C335.367 14.8633 335.554 14.6167 335.66 14.31H336.64C336.494 14.8367 336.2 15.2667 335.76 15.6C335.32 15.9267 334.774 16.09 334.12 16.09C333.6 16.09 333.134 15.9733 332.72 15.74C332.314 15.5067 331.994 15.1767 331.76 14.75C331.527 14.3167 331.41 13.8167 331.41 13.25C331.41 12.6833 331.524 12.1867 331.75 11.76C331.977 11.3333 332.294 11.0067 332.7 10.78C333.114 10.5467 333.587 10.43 334.12 10.43C334.64 10.43 335.1 10.5433 335.5 10.77C335.9 10.9967 336.207 11.31 336.42 11.71C336.64 12.1033 336.75 12.55 336.75 13.05ZM335.81 12.86C335.81 12.5133 335.734 12.2167 335.58 11.97C335.427 11.7167 335.217 11.5267 334.95 11.4C334.69 11.2667 334.4 11.2 334.08 11.2C333.62 11.2 333.227 11.3467 332.9 11.64C332.58 11.9333 332.397 12.34 332.35 12.86H335.81Z" fill="black"/>
<rect x="301" y="25" width="55" height="1" fill="#F2F2F2"/>
<path d="M301.408 39.416C302.085 38.872 302.616 38.4267 303 38.08C303.384 37.728 303.707 37.3627 303.968 36.984C304.235 36.6 304.368 36.224 304.368 35.856C304.368 35.5093 304.283 35.2373 304.112 35.04C303.947 34.8373 303.677 34.736 303.304 34.736C302.941 34.736 302.659 34.8507 302.456 35.08C302.259 35.304 302.152 35.6053 302.136 35.984H301.432C301.453 35.3867 301.635 34.9253 301.976 34.6C302.317 34.2747 302.757 34.112 303.296 34.112C303.845 34.112 304.28 34.264 304.6 34.568C304.925 34.872 305.088 35.2907 305.088 35.824C305.088 36.2667 304.955 36.6987 304.688 37.12C304.427 37.536 304.128 37.904 303.792 38.224C303.456 38.5387 303.027 38.9067 302.504 39.328H305.256V39.936H301.408V39.416ZM307.034 38.448C307.087 38.752 307.21 38.9867 307.402 39.152C307.599 39.3173 307.863 39.4 308.194 39.4C308.636 39.4 308.962 39.2267 309.17 38.88C309.383 38.5333 309.484 37.9493 309.474 37.128C309.362 37.368 309.175 37.5573 308.914 37.696C308.652 37.8293 308.362 37.896 308.042 37.896C307.684 37.896 307.364 37.824 307.082 37.68C306.804 37.5307 306.586 37.3147 306.426 37.032C306.266 36.7493 306.186 36.408 306.186 36.008C306.186 35.4373 306.351 34.9787 306.682 34.632C307.012 34.28 307.482 34.104 308.09 34.104C308.836 34.104 309.359 34.3467 309.658 34.832C309.962 35.3173 310.114 36.04 310.114 37C310.114 37.672 310.052 38.2267 309.93 38.664C309.812 39.1013 309.61 39.4347 309.322 39.664C309.039 39.8933 308.65 40.008 308.154 40.008C307.61 40.008 307.186 39.8613 306.882 39.568C306.578 39.2747 306.404 38.9013 306.362 38.448H307.034ZM308.162 37.28C308.519 37.28 308.812 37.1707 309.042 36.952C309.271 36.728 309.386 36.4267 309.386 36.048C309.386 35.648 309.274 35.3253 309.05 35.08C308.826 34.8347 308.511 34.712 308.106 34.712C307.732 34.712 307.434 34.8293 307.21 35.064C306.991 35.2987 306.882 35.608 306.882 35.992C306.882 36.3813 306.991 36.6933 307.21 36.928C307.428 37.1627 307.746 37.28 308.162 37.28ZM310.961 38.712V38.16L313.769 34.272H314.641V38.08H315.441V38.712H314.641V40H313.921V38.712H310.961ZM313.953 35.032L311.801 38.08H313.953V35.032ZM316.168 37.048C316.168 36.1307 316.317 35.416 316.616 34.904C316.915 34.3867 317.437 34.128 318.184 34.128C318.925 34.128 319.445 34.3867 319.744 34.904C320.043 35.416 320.192 36.1307 320.192 37.048C320.192 37.9813 320.043 38.7067 319.744 39.224C319.445 39.7413 318.925 40 318.184 40C317.437 40 316.915 39.7413 316.616 39.224C316.317 38.7067 316.168 37.9813 316.168 37.048ZM319.472 37.048C319.472 36.584 319.44 36.192 319.376 35.872C319.317 35.5467 319.192 35.2853 319 35.088C318.813 34.8907 318.541 34.792 318.184 34.792C317.821 34.792 317.544 34.8907 317.352 35.088C317.165 35.2853 317.04 35.5467 316.976 35.872C316.917 36.192 316.888 36.584 316.888 37.048C316.888 37.528 316.917 37.9307 316.976 38.256C317.04 38.5813 317.165 38.8427 317.352 39.04C317.544 39.2373 317.821 39.336 318.184 39.336C318.541 39.336 318.813 39.2373 319 39.04C319.192 38.8427 319.317 38.5813 319.376 38.256C319.44 37.9307 319.472 37.528 319.472 37.048ZM326.484 36.76V37.376H323.292V36.76H326.484ZM327.938 40V37.944H327.314V37.432H327.938V36.776H327.314V36.264H327.938V34.288H328.77L329.53 36.264H330.474V34.288H331.106V36.264H331.73V36.776H331.106V37.432H331.73V37.944H331.106V40H330.266L329.506 37.944H328.562V40H327.938ZM328.562 37.432H329.314L329.074 36.776H328.546L328.562 37.432ZM330.474 38.872H330.506L330.482 37.944H330.146L330.474 38.872ZM328.546 36.264H328.882L328.546 35.272H328.514L328.546 36.264ZM329.954 37.432H330.49L330.474 36.776H329.714L329.954 37.432ZM332.117 34.88V34.216H333.621V40H332.885V34.88H332.117ZM334.855 35.672C334.892 35.1813 335.082 34.7973 335.423 34.52C335.764 34.2427 336.207 34.104 336.751 34.104C337.114 34.104 337.426 34.1707 337.687 34.304C337.954 34.432 338.154 34.608 338.287 34.832C338.426 35.056 338.495 35.3093 338.495 35.592C338.495 35.9227 338.399 36.208 338.207 36.448C338.02 36.688 337.775 36.8427 337.471 36.912V36.952C337.818 37.0373 338.092 37.2053 338.295 37.456C338.498 37.7067 338.599 38.0347 338.599 38.44C338.599 38.744 338.53 39.0187 338.391 39.264C338.252 39.504 338.044 39.6933 337.767 39.832C337.49 39.9707 337.156 40.04 336.767 40.04C336.202 40.04 335.738 39.8933 335.375 39.6C335.012 39.3013 334.81 38.88 334.767 38.336H335.471C335.508 38.656 335.639 38.9173 335.863 39.12C336.087 39.3227 336.386 39.424 336.759 39.424C337.132 39.424 337.415 39.328 337.607 39.136C337.804 38.9387 337.903 38.6853 337.903 38.376C337.903 37.976 337.77 37.688 337.503 37.512C337.236 37.336 336.834 37.248 336.295 37.248H336.111V36.64H336.303C336.794 36.6347 337.164 36.5547 337.415 36.4C337.666 36.24 337.791 35.9947 337.791 35.664C337.791 35.3813 337.698 35.1547 337.511 34.984C337.33 34.8133 337.068 34.728 336.727 34.728C336.396 34.728 336.13 34.8133 335.927 34.984C335.724 35.1547 335.604 35.384 335.567 35.672H334.855ZM340.454 38.992L339.558 41.144H339.07L339.654 38.992H340.454ZM344.856 34.848H342.048V36.672C342.171 36.5013 342.352 36.3627 342.592 36.256C342.832 36.144 343.091 36.088 343.368 36.088C343.811 36.088 344.171 36.1813 344.448 36.368C344.725 36.5493 344.923 36.7867 345.04 37.08C345.163 37.368 345.224 37.6747 345.224 38C345.224 38.384 345.152 38.728 345.008 39.032C344.864 39.336 344.643 39.576 344.344 39.752C344.051 39.928 343.685 40.016 343.248 40.016C342.688 40.016 342.235 39.872 341.888 39.584C341.541 39.296 341.331 38.912 341.256 38.432H341.968C342.037 38.736 342.184 38.9733 342.408 39.144C342.632 39.3147 342.915 39.4 343.256 39.4C343.677 39.4 343.995 39.2747 344.208 39.024C344.421 38.768 344.528 38.432 344.528 38.016C344.528 37.6 344.421 37.28 344.208 37.056C343.995 36.8267 343.68 36.712 343.264 36.712C342.981 36.712 342.733 36.7813 342.52 36.92C342.312 37.0533 342.16 37.2373 342.064 37.472H341.376V34.208H344.856V34.848ZM346.191 37.048C346.191 36.1307 346.341 35.416 346.639 34.904C346.938 34.3867 347.461 34.128 348.207 34.128C348.949 34.128 349.469 34.3867 349.767 34.904C350.066 35.416 350.215 36.1307 350.215 37.048C350.215 37.9813 350.066 38.7067 349.767 39.224C349.469 39.7413 348.949 40 348.207 40C347.461 40 346.938 39.7413 346.639 39.224C346.341 38.7067 346.191 37.9813 346.191 37.048ZM349.495 37.048C349.495 36.584 349.463 36.192 349.399 35.872C349.341 35.5467 349.215 35.2853 349.023 35.088C348.837 34.8907 348.565 34.792 348.207 34.792C347.845 34.792 347.567 34.8907 347.375 35.088C347.189 35.2853 347.063 35.5467 346.999 35.872C346.941 36.192 346.911 36.584 346.911 37.048C346.911 37.528 346.941 37.9307 346.999 38.256C347.063 38.5813 347.189 38.8427 347.375 39.04C347.567 39.2373 347.845 39.336 348.207 39.336C348.565 39.336 348.837 39.2373 349.023 39.04C349.215 38.8427 349.341 38.5813 349.399 38.256C349.463 37.9307 349.495 37.528 349.495 37.048ZM352.151 38.448C352.204 38.752 352.327 38.9867 352.519 39.152C352.716 39.3173 352.98 39.4 353.311 39.4C353.753 39.4 354.079 39.2267 354.287 38.88C354.5 38.5333 354.601 37.9493 354.591 37.128C354.479 37.368 354.292 37.5573 354.031 37.696C353.769 37.8293 353.479 37.896 353.159 37.896C352.801 37.896 352.481 37.824 352.199 37.68C351.921 37.5307 351.703 37.3147 351.543 37.032C351.383 36.7493 351.303 36.408 351.303 36.008C351.303 35.4373 351.468 34.9787 351.799 34.632C352.129 34.28 352.599 34.104 353.207 34.104C353.953 34.104 354.476 34.3467 354.775 34.832C355.079 35.3173 355.231 36.04 355.231 37C355.231 37.672 355.169 38.2267 355.047 38.664C354.929 39.1013 354.727 39.4347 354.439 39.664C354.156 39.8933 353.767 40.008 353.271 40.008C352.727 40.008 352.303 39.8613 351.999 39.568C351.695 39.2747 351.521 38.9013 351.479 38.448H352.151ZM353.279 37.28C353.636 37.28 353.929 37.1707 354.159 36.952C354.388 36.728 354.503 36.4267 354.503 36.048C354.503 35.648 354.391 35.3253 354.167 35.08C353.943 34.8347 353.628 34.712 353.223 34.712C352.849 34.712 352.551 34.8293 352.327 35.064C352.108 35.2987 351.999 35.608 351.999 35.992C351.999 36.3813 352.108 36.6933 352.327 36.928C352.545 37.1627 352.863 37.28 353.279 37.28Z" fill="#A6A6A6"/>
<rect x="296.5" y="0.5" width="64" height="47" rx="4.5" stroke="#F2F2F2" shape-rendering="crispEdges"/>
</g>
</g>
<defs>
<filter id="filter0_dddddd_1832_55959" x="-70" y="2" width="559.373" height="233" filterUnits="userSpaceOnUse" color-interpolation-filters="sRGB">
<feFlood flood-opacity="0" result="BackgroundImageFix"/>
<feColorMatrix in="SourceAlpha" type="matrix" values="0 0 0 0 0 0 0 0 0 0 0 0 0 0 0 0 0 0 127 0" result="hardAlpha"/>
<feOffset dy="2.76726"/>
<feGaussianBlur stdDeviation="0.96854"/>
<feColorMatrix type="matrix" values="0 0 0 0 1 0 0 0 0 0 0 0 0 0 0.168627 0 0 0 1 0"/>
<feBlend mode="normal" in2="BackgroundImageFix" result="effect1_dropShadow_1832_55959"/>
<feColorMatrix in="SourceAlpha" type="matrix" values="0 0 0 0 0 0 0 0 0 0 0 0 0 0 0 0 0 0 127 0" result="hardAlpha"/>
<feOffset dy="6.6501"/>
<feGaussianBlur stdDeviation="2.32754"/>
<feColorMatrix type="matrix" values="0 0 0 0 1 0 0 0 0 0 0 0 0 0 0.168627 0 0 0 1 0"/>
<feBlend mode="normal" in2="effect1_dropShadow_1832_55959" result="effect2_dropShadow_1832_55959"/>
<feColorMatrix in="SourceAlpha" type="matrix" values="0 0 0 0 0 0 0 0 0 0 0 0 0 0 0 0 0 0 127 0" result="hardAlpha"/>
<feOffset dy="12.5216"/>
<feGaussianBlur stdDeviation="4.38254"/>
<feColorMatrix type="matrix" values="0 0 0 0 1 0 0 0 0 0 0 0 0 0 0.168627 0 0 0 1 0"/>
<feBlend mode="normal" in2="effect2_dropShadow_1832_55959" result="effect3_dropShadow_1832_55959"/>
<feColorMatrix in="SourceAlpha" type="matrix" values="0 0 0 0 0 0 0 0 0 0 0 0 0 0 0 0 0 0 127 0" result="hardAlpha"/>
<feOffset dy="22.3363"/>
<feGaussianBlur stdDeviation="7.81771"/>
<feColorMatrix type="matrix" values="0 0 0 0 1 0 0 0 0 0 0 0 0 0 0.168627 0 0 0 0.5961 0"/>
<feBlend mode="normal" in2="effect3_dropShadow_1832_55959" result="effect4_dropShadow_1832_55959"/>
<feColorMatrix in="SourceAlpha" type="matrix" values="0 0 0 0 0 0 0 0 0 0 0 0 0 0 0 0 0 0 127 0" result="hardAlpha"/>
<feOffset dy="41.7776"/>
<feGaussianBlur stdDeviation="14.6222"/>
<feColorMatrix type="matrix" values="0 0 0 0 1 0 0 0 0 0 0 0 0 0 0.168627 0 0 0 0.7189 0"/>
<feBlend mode="normal" in2="effect4_dropShadow_1832_55959" result="effect5_dropShadow_1832_55959"/>
<feColorMatrix in="SourceAlpha" type="matrix" values="0 0 0 0 0 0 0 0 0 0 0 0 0 0 0 0 0 0 127 0" result="hardAlpha"/>
<feOffset dy="100"/>
<feGaussianBlur stdDeviation="35"/>
<feColorMatrix type="matrix" values="0 0 0 0 0.941176 0 0 0 0 0.333333 0 0 0 0 0.25098 0 0 0 1 0"/>
<feBlend mode="normal" in2="effect5_dropShadow_1832_55959" result="effect6_dropShadow_1832_55959"/>
<feBlend mode="normal" in="SourceGraphic" in2="effect6_dropShadow_1832_55959" result="shape"/>
</filter>
<filter id="filter1_d_1832_55959" x="292" y="0" width="73" height="56" filterUnits="userSpaceOnUse" color-interpolation-filters="sRGB">
<feFlood flood-opacity="0" result="BackgroundImageFix"/>
<feColorMatrix in="SourceAlpha" type="matrix" values="0 0 0 0 0 0 0 0 0 0 0 0 0 0 0 0 0 0 127 0" result="hardAlpha"/>
<feOffset dy="4"/>
<feGaussianBlur stdDeviation="2"/>
<feComposite in2="hardAlpha" operator="out"/>
<feColorMatrix type="matrix" values="0 0 0 0 0 0 0 0 0 0 0 0 0 0 0 0 0 0 0.1 0"/>
<feBlend mode="normal" in2="BackgroundImageFix" result="effect1_dropShadow_1832_55959"/>
<feBlend mode="normal" in="SourceGraphic" in2="effect1_dropShadow_1832_55959" result="shape"/>
</filter>
<clipPath id="clip0_1832_55959">
<rect width="419" height="95" fill="white" transform="translate(-0.25)"/>
</clipPath>
</defs>
</svg>
