<svg width="20" height="21" viewBox="0 0 20 21" fill="none" xmlns="http://www.w3.org/2000/svg">
<g clip-path="url(#clip0_702_22234)">
<path d="M14.6878 14.6528C14.6586 14.6238 14.6239 14.6009 14.5858 14.5854C14.5478 14.5698 14.507 14.5619 14.4659 14.5622C14.3839 14.5625 14.3053 14.5951 14.2471 14.6528L14.2253 14.6716L13.2878 13.4997L12.4159 5.77781C12.3872 5.52169 12.2868 5.27884 12.1262 5.07725C11.9657 4.87562 11.7514 4.72347 11.5082 4.63825C11.2649 4.55303 11.0026 4.53825 10.7513 4.59553C10.5 4.65284 10.27 4.77994 10.0878 4.96219C10.0565 4.99656 10.0284 5.03406 10.0003 5.07156C9.97213 5.03406 9.944 4.99656 9.91275 4.96219C9.7305 4.77994 9.5005 4.65284 9.24922 4.59553C8.99794 4.53825 8.73556 4.55303 8.49234 4.63825C8.24909 4.72347 8.03484 4.87562 7.87428 5.07725C7.71369 5.27884 7.61328 5.52169 7.58463 5.77781L6.70025 13.4997L5.76275 14.6716L5.74088 14.6528C5.68231 14.5946 5.60313 14.5619 5.52056 14.5619C5.438 14.5619 5.35881 14.5946 5.30025 14.6528L3.21588 16.7497C3.15766 16.8083 3.125 16.8874 3.125 16.97C3.125 17.0526 3.15766 17.1318 3.21588 17.1903L6.13463 20.1091C6.19284 20.1668 6.27141 20.1993 6.35337 20.1997C6.3945 20.1999 6.43528 20.192 6.47334 20.1765C6.51141 20.1609 6.54606 20.138 6.57525 20.1091L8.65963 17.9997C8.71781 17.9411 8.7505 17.8619 8.7505 17.7794C8.7505 17.6968 8.71781 17.6176 8.65963 17.5591L8.20338 17.1028L10.0003 15.3153L11.7971 17.1153L11.3409 17.5716C11.2827 17.6301 11.25 17.7093 11.25 17.7919C11.25 17.8744 11.2827 17.9536 11.3409 18.0122L13.4378 20.0966C13.4669 20.1255 13.5016 20.1484 13.5397 20.164C13.5777 20.1795 13.6185 20.1874 13.6596 20.1872C13.7416 20.1868 13.8202 20.1543 13.8784 20.0966L16.7971 17.1778C16.8553 17.1193 16.888 17.0401 16.888 16.9575C16.888 16.8749 16.8553 16.7958 16.7971 16.7372L14.6878 14.6528ZM9.68775 10.1872C9.35622 10.1872 9.03828 10.3189 8.80388 10.5533C8.56944 10.7877 8.43775 11.1057 8.43775 11.4372V14.2497H9.06275V11.4372C9.06275 11.2714 9.12859 11.1125 9.24581 10.9953C9.36303 10.878 9.522 10.8122 9.68775 10.8122V14.7466L7.76275 16.6747L6.20025 15.1122L7.23775 13.8122C7.27525 13.7669 7.29813 13.7113 7.30338 13.6528L8.19713 5.84031C8.21941 5.65863 8.30794 5.49153 8.44575 5.371C8.58353 5.2505 8.76094 5.18506 8.944 5.18719C9.141 5.188 9.32969 5.26662 9.469 5.40594C9.60831 5.54525 9.68694 5.73394 9.68775 5.93094V10.1872ZM12.2409 16.6716L10.3128 14.7466V10.8122C10.4785 10.8122 10.6375 10.878 10.7547 10.9953C10.8719 11.1125 10.9378 11.2714 10.9378 11.4372V14.2497H11.5628V11.4372C11.5628 11.1057 11.4311 10.7877 11.1966 10.5533C10.9622 10.3189 10.6443 10.1872 10.3128 10.1872V5.93094C10.3136 5.73394 10.3922 5.54525 10.5315 5.40594C10.6708 5.26662 10.8595 5.188 11.0565 5.18719C11.2394 5.18678 11.4161 5.25381 11.5527 5.37544C11.6894 5.49709 11.7764 5.66481 11.7971 5.84656L12.6909 13.6591C12.6961 13.7176 12.719 13.7732 12.7565 13.8184L13.794 15.1184L12.2409 16.6716Z" fill="black"/>
<path d="M10.3125 0.8125H9.6875V3.9375H10.3125V0.8125Z" fill="black"/>
<path d="M16.5625 5.5H13.4375V6.125H16.5625V5.5Z" fill="black"/>
<path d="M6.5625 5.5H3.4375V6.125H6.5625V5.5Z" fill="black"/>
<path d="M14.4924 1.84009L12.2827 4.0498L12.7247 4.49174L14.9344 2.28203L14.4924 1.84009Z" fill="black"/>
<path d="M5.53593 1.84155L5.09399 2.28349L7.30368 4.4932L7.74565 4.05127L5.53593 1.84155Z" fill="black"/>
</g>
<defs>
<clipPath id="clip0_702_22234">
<rect width="20" height="20" fill="white" transform="translate(0 0.5)"/>
</clipPath>
</defs>
</svg>
