<svg width="33" height="33" viewBox="0 0 33 33" fill="none" xmlns="http://www.w3.org/2000/svg">
<path d="M31.1513 0.761719C30.5272 0.761719 30.0389 1.25009 30.0389 1.87412V8.46715C27.2443 3.77335 22.1706 0.761719 16.5001 0.761719C7.81794 0.761719 0.763672 7.81598 0.763672 16.5253C0.763672 25.2346 7.81794 32.2617 16.5001 32.2617C25.1823 32.2617 32.2365 25.2075 32.2365 16.5253C32.2365 15.9013 31.7482 15.4129 31.1241 15.4129C30.5001 15.4129 30.0117 15.9013 30.0117 16.5253C30.0117 23.9865 23.9342 30.064 16.473 30.064C9.01173 30.064 2.96135 23.9594 2.96135 16.4982C2.96135 9.03691 9.03887 2.95939 16.5001 2.95939C21.8451 2.95939 26.6203 6.07955 28.7908 10.8547H21.004C20.38 10.8547 19.8916 11.3431 19.8916 11.9671C19.8916 12.5912 20.38 13.0795 21.004 13.0795H31.1241C31.7482 13.0795 32.2365 12.5912 32.2365 11.9671V1.84699C32.2365 1.25009 31.7482 0.761719 31.1513 0.761719Z" fill="black"/>
</svg>
