<svg width="18" height="19" viewBox="0 0 18 19" fill="none" xmlns="http://www.w3.org/2000/svg">
<circle cx="9" cy="9.5" r="3" stroke="#959595" stroke-width="2"/>
<path d="M7.34689 2.5087C8.09521 1.25991 9.90479 1.25991 10.6531 2.5087V2.5087C11.0895 3.23697 11.9511 3.59386 12.7747 3.38748V3.38748C14.1868 3.03359 15.4664 4.31316 15.1125 5.72532V5.72532C14.9061 6.54888 15.263 7.41049 15.9913 7.84689V7.84689C17.2401 8.59521 17.2401 10.4048 15.9913 11.1531V11.1531C15.263 11.5895 14.9061 12.4511 15.1125 13.2747V13.2747C15.4664 14.6868 14.1868 15.9664 12.7747 15.6125V15.6125C11.9511 15.4061 11.0895 15.763 10.6531 16.4913V16.4913C9.90479 17.7401 8.09521 17.7401 7.34689 16.4913V16.4913C6.91049 15.763 6.04888 15.4061 5.22532 15.6125V15.6125C3.81316 15.9664 2.53359 14.6868 2.88748 13.2747V13.2747C3.09386 12.4511 2.73697 11.5895 2.0087 11.1531V11.1531C0.759913 10.4048 0.759913 8.59521 2.0087 7.84689V7.84689C2.73697 7.41049 3.09386 6.54888 2.88748 5.72532V5.72532C2.53359 4.31316 3.81316 3.03359 5.22532 3.38748V3.38748C6.04888 3.59386 6.91049 3.23697 7.34689 2.5087V2.5087Z" stroke="#959595" stroke-width="2"/>
</svg>
