<svg width="35" height="35" viewBox="0 0 35 35" fill="none" xmlns="http://www.w3.org/2000/svg">
<path d="M18.5218 20.709C17.7998 19.6875 16.6402 19.0633 15.3969 19.0161C15.3706 19.0132 15.3439 19.0115 15.3168 19.0115C13.7354 19.0115 12.4285 17.8163 12.2503 16.2819C12.7057 15.9503 13.1258 15.5295 13.4981 15.0254C14.2511 14.006 14.7399 12.7322 14.9211 11.3547C14.9766 11.2943 15.0234 11.224 15.0569 11.1441C15.3758 10.3849 15.5374 9.57432 15.5374 8.73494C15.5374 5.50695 13.0969 2.88086 10.0971 2.88086C9.32133 2.88086 8.56863 3.05709 7.85714 3.40483C7.59116 3.42725 7.3305 3.47511 7.08024 3.54757C4.57241 4.27211 3.15498 7.30439 3.92068 10.3069C3.99772 10.609 4.09568 10.9061 4.21202 11.1899C4.24374 11.2674 4.28818 11.3355 4.34054 11.3949C4.62936 13.5156 5.63307 15.28 7.0058 16.2781C6.82936 17.8144 5.52158 19.0117 3.93872 19.0117C3.91439 19.0117 3.89032 19.013 3.86654 19.0153C1.72163 19.0911 0 20.8584 0 23.0214V27.3376C0 27.7403 0.326415 28.0667 0.72912 28.0667H13.6115C14.0141 28.0667 14.3406 27.7403 14.3406 27.3376C14.3406 26.9349 14.0141 26.6085 13.6115 26.6085H1.45817V23.0213C1.45817 21.6142 2.60291 20.4695 4.01002 20.4695C4.03436 20.4695 4.05842 20.4682 4.08221 20.4659C4.60741 20.4495 5.11033 20.3438 5.57641 20.1631L9.02834 25.1453C9.16451 25.3419 9.38846 25.4592 9.62765 25.4592C9.86684 25.4592 10.0908 25.3419 10.227 25.1453L13.679 20.1631C14.1451 20.3438 14.648 20.4495 15.1732 20.4659C15.1969 20.4682 15.221 20.4695 15.2453 20.4695C16.0728 20.4695 16.8525 20.8736 17.331 21.5506C17.473 21.7516 17.6982 21.8589 17.927 21.8589C18.0725 21.8589 18.2194 21.8154 18.3472 21.7251C18.6761 21.4928 18.7542 21.0378 18.5218 20.709ZM7.48479 4.94818C7.67606 4.89295 7.87833 4.86013 8.08608 4.85077C8.19313 4.84598 8.29758 4.81768 8.39246 4.76785C8.93428 4.4832 9.50768 4.33883 10.0969 4.33883C12.2481 4.33883 14.0052 6.23197 14.0756 8.58817C13.6372 8.25663 13.0918 8.05955 12.501 8.05955H8.68798C8.49808 8.05955 8.31775 7.99994 8.16674 7.88722C8.03747 7.79076 7.93767 7.66129 7.87799 7.51247C7.74025 7.16972 7.39948 6.95562 7.0315 6.97886C6.66127 7.00258 6.34975 7.25988 6.25644 7.61877C6.07044 8.33333 5.72317 8.99881 5.25102 9.56393C4.87285 7.44985 5.8251 5.42772 7.48479 4.94818ZM5.77492 11.1229C6.41175 10.5391 6.92712 9.83163 7.28696 9.05028C7.28942 9.05213 7.29195 9.05397 7.29448 9.05582C7.69951 9.3581 8.1813 9.51779 8.68791 9.51779H12.5009C12.9589 9.51779 13.3545 9.78576 13.5423 10.1725C13.5375 11.6871 13.1059 13.1019 12.3251 14.1588C11.5888 15.1555 10.6308 15.7044 9.62751 15.7044C8.69899 15.7044 7.795 15.2248 7.08209 14.3539C6.39043 13.509 5.93276 12.3718 5.77492 11.1229ZM9.62758 23.4499L6.83736 19.4227C7.58589 18.8016 8.13154 17.945 8.36225 16.9681C8.76851 17.0952 9.1922 17.1627 9.62751 17.1627C10.0605 17.1627 10.4845 17.0971 10.8935 16.9702C11.1245 17.9462 11.6699 18.8019 12.4179 19.4226L9.62758 23.4499Z" fill="black"/>
<path d="M31.1335 23.0684C31.1097 23.066 31.0856 23.0647 31.0613 23.0647C29.4776 23.0647 28.1694 21.8663 27.9939 20.3288C28.8869 19.6786 29.6231 18.7036 30.1084 17.5179C30.1778 17.7452 30.3556 17.9286 30.5895 18.0012C30.6606 18.0232 30.7334 18.0339 30.8054 18.0339C31.0263 18.0339 31.2401 17.9332 31.3807 17.7527C32.398 16.4462 32.9268 14.7458 32.8699 12.9647C32.814 11.2175 32.1998 9.5772 31.1402 8.34619C30.0554 7.08579 28.6233 6.38436 27.1062 6.36986C27.0257 6.36658 26.8256 6.37349 26.7933 6.37547C26.0139 6.02192 25.1903 5.85676 24.3421 5.88369C22.5904 5.93968 20.9791 6.81276 19.8051 8.34209C18.6643 9.82829 18.0719 11.7667 18.1369 13.8006C18.1479 14.1452 18.1751 14.4625 18.2191 14.7646C18.3379 15.6314 18.5766 16.4614 18.9288 17.2318C19.0408 17.477 19.279 17.6404 19.5481 17.6565C19.8163 17.6727 20.0732 17.5391 20.2138 17.309C20.2725 17.2131 20.3479 17.0936 20.4311 16.9764C20.7561 17.9638 21.253 18.851 21.8839 19.5514C22.1531 19.8502 22.4437 20.1101 22.7498 20.3318C22.5731 21.8678 21.2654 23.0646 19.6828 23.0646C19.6585 23.0646 19.6344 23.0659 19.6106 23.0682C17.4659 23.1442 15.7444 24.9117 15.7444 27.0745V31.3907C15.7444 31.7934 16.0709 32.1199 16.4735 32.1199H34.2706C34.6732 32.1199 34.9997 31.7934 34.9997 31.3907V27.0745C34.9998 24.9118 33.2782 23.1444 31.1335 23.0684ZM19.8317 15.4238C19.7598 15.1429 19.7035 14.8549 19.6631 14.5607C19.6262 14.3072 19.6037 14.0433 19.5945 13.7541C19.5402 12.0562 20.0259 10.4495 20.962 9.23008C21.8649 8.05375 23.0818 7.38301 24.3887 7.34125C24.4324 7.33981 25.3722 7.2869 26.3315 7.77034C26.4388 7.82434 26.5624 7.84943 26.6828 7.84601C26.6966 7.8456 27.0708 7.8279 27.0817 7.82803C28.1768 7.83528 29.2256 8.3572 30.035 9.29755C30.878 10.277 31.3671 11.5959 31.4124 13.0114C31.4369 13.7803 31.3289 14.5276 31.1002 15.2153C31.0313 15.0316 30.9544 14.8508 30.8699 14.673C30.1659 13.1753 28.9809 12.0152 27.5331 11.4063C27.3497 11.3292 27.1429 11.3303 26.9604 11.4095C26.7779 11.4886 26.6357 11.6388 26.5667 11.8255C26.4697 12.0877 26.3521 12.3432 26.217 12.5847C25.8353 13.2673 25.0657 13.6734 24.2099 13.6435C24.0815 13.6391 23.9511 13.6389 23.8226 13.643C23.1921 13.6632 22.5773 13.7833 21.9919 14.0013C21.4138 14.2195 20.4421 14.767 19.8317 15.4238ZM21.6254 15.8206C21.9018 15.6354 22.196 15.4829 22.504 15.3665C22.9377 15.205 23.397 15.1155 23.8692 15.1003C23.9655 15.0972 24.0632 15.0973 24.1594 15.1007C25.5672 15.1489 26.8403 14.4578 27.4897 13.2963C27.5297 13.2248 27.5685 13.1523 27.606 13.0791C28.271 13.4888 28.8394 14.0662 29.2668 14.767C29.2631 14.7886 29.26 14.8103 29.2582 14.8326C29.1463 16.216 28.6691 17.4855 27.9144 18.4074C27.2015 19.2784 26.2975 19.758 25.369 19.758C23.6525 19.7579 22.1254 18.1262 21.6254 15.8206ZM24.107 21.0201C24.5174 21.1484 24.9406 21.216 25.369 21.216C25.8054 21.216 26.2301 21.1481 26.6374 21.0202C26.9302 22.2619 27.7331 23.308 28.8124 23.9252C28.3914 25.4465 26.9922 26.5405 25.3723 26.5405C23.7523 26.5405 22.3531 25.4464 21.9322 23.925C23.0114 23.308 23.8143 22.2618 24.107 21.0201ZM33.5416 30.6618H17.2028V27.0747C17.2028 25.6676 18.3475 24.5228 19.7546 24.5228C19.7789 24.5228 19.803 24.5215 19.8268 24.5192C20.0779 24.5114 20.324 24.4837 20.5634 24.4366C21.1967 26.5158 23.1346 27.9988 25.3722 27.9988C27.6099 27.9988 29.5477 26.5158 30.1812 24.4366C30.4204 24.4838 30.6666 24.5114 30.9176 24.5192C30.9414 24.5215 30.9655 24.5228 30.9898 24.5228C32.3969 24.5228 33.5416 25.6676 33.5416 27.0747V30.6618Z" fill="black"/>
</svg>
