<svg width="14" height="12" viewBox="0 0 14 12" fill="none" xmlns="http://www.w3.org/2000/svg">
<path d="M1.5 4.5835H3.5L6 2.5835V9.5835L3.5 7.5835H1.5V4.5835Z" stroke="#14142B" stroke-width="2"/>
<path d="M10.851 2C11.3617 2.51072 11.7669 3.11704 12.0433 3.78433C12.3197 4.45162 12.4619 5.16682 12.4619 5.88909C12.4619 6.61136 12.3197 7.32656 12.0433 7.99385C11.7669 8.66114 11.3617 9.26745 10.851 9.77818" stroke="#14142B" stroke-width="2"/>
<path d="M8.71751 3.90137C8.99609 4.17994 9.21707 4.51066 9.36783 4.87464C9.51859 5.23861 9.59619 5.62872 9.59619 6.02269C9.59619 6.41665 9.51859 6.80676 9.36783 7.17074C9.21707 7.53471 8.99609 7.86543 8.71751 8.14401" stroke="#14142B" stroke-width="2"/>
</svg>
