<svg width="15" height="15" viewBox="0 0 15 15" fill="none" xmlns="http://www.w3.org/2000/svg">
<path d="M3.75 5.89172H0.536611C0.241632 5.89172 0.00313808 6.13022 0 6.42833V14.4618C0 14.7599 0.241632 14.9984 0.536611 14.9984H3.75C4.04812 14.9984 4.28661 14.7568 4.28661 14.4618V6.42833C4.28661 6.13022 4.04498 5.89172 3.75 5.89172Z" fill="#A6A6A6"/>
<path d="M9.10743 0.00158691H5.89403C5.59905 0.00158691 5.35742 0.240081 5.35742 0.53506V14.4618C5.35742 14.76 5.59905 14.9985 5.89403 14.9985H9.10743C9.40555 14.9985 9.64404 14.7568 9.64404 14.4618V0.538198C9.64404 0.240081 9.40241 0.00158691 9.10743 0.00158691Z" fill="#A6A6A6"/>
<path d="M14.4629 4.28503H11.2495C10.9514 4.28503 10.7129 4.52353 10.7129 4.82165V14.4618C10.7129 14.7599 10.9545 14.9984 11.2495 14.9984H14.4629C14.761 14.9984 14.9995 14.7568 14.9995 14.4618V4.82165C14.9995 4.52353 14.7579 4.28503 14.4629 4.28503Z" fill="#A6A6A6"/>
</svg>
