<svg width="30" height="30" viewBox="0 0 30 30" fill="none" xmlns="http://www.w3.org/2000/svg">
<g clip-path="url(#clip0_1832_57868)">
<path d="M29.9539 7.44217L22.5586 0.046875V2.4617H6.15234C2.75994 2.4617 0 5.22164 0 8.61405V17.9622L1.61021 15.5469C2.91439 13.5906 5.09672 12.4226 7.44791 12.4226H22.5586V14.8375L29.9539 7.44217ZM7.44791 10.6648C5.33156 10.6648 3.32461 11.4216 1.75781 12.7579V8.61405C1.75781 6.1909 3.7292 4.21951 6.15234 4.21951H24.2453L27.468 7.44217L24.2453 10.6648H7.44791Z" fill="black"/>
<path d="M28.3896 14.4544C27.0854 16.4107 24.9031 17.5786 22.5519 17.5786H7.44119V15.1638L0.0458984 22.5591L7.44119 29.9544V27.5396H23.8475C27.2399 27.5396 29.9998 24.7796 29.9998 21.3872V12.0391L28.3896 14.4544ZM28.242 21.3872C28.242 23.8104 26.2706 25.7817 23.8475 25.7817H5.75446L2.5318 22.5591L5.75446 19.3364H22.5519C24.6682 19.3364 26.6752 18.5797 28.242 17.2434V21.3872Z" fill="black"/>
</g>
<defs>
<clipPath id="clip0_1832_57868">
<rect width="30" height="30" fill="white"/>
</clipPath>
</defs>
</svg>
