<svg width="30" height="30" viewBox="0 0 30 30" fill="none" xmlns="http://www.w3.org/2000/svg">
<path d="M15 0C14.6629 0 14.3895 0.2734 14.3895 0.610494C14.3895 0.947589 14.6629 1.22099 15 1.22099C22.5977 1.22099 28.7789 7.40225 28.7789 15C28.7789 22.5977 22.5977 28.7789 15 28.7789C7.40225 28.7789 1.22099 22.5978 1.22099 15C1.22099 9.83069 4.07424 5.14026 8.66729 2.75903C8.96664 2.60386 9.08344 2.23543 8.92828 1.93608C8.77311 1.63674 8.40458 1.51993 8.10533 1.67509C3.10579 4.26705 0 9.37292 0 15C0 23.271 6.72897 29.9999 15 29.9999C23.2709 29.9999 29.9999 23.2709 29.9999 15C29.9999 6.72897 23.271 0 15 0Z" fill="black"/>
<path d="M15 0C14.6629 0 14.3895 0.2734 14.3895 0.610494C14.3895 0.947589 14.6629 1.22099 15 1.22099C22.5977 1.22099 28.7789 7.40225 28.7789 15C28.7789 22.5977 22.5977 28.7789 15 28.7789C7.40225 28.7789 1.22099 22.5978 1.22099 15C1.22099 9.83069 4.07424 5.14026 8.66729 2.75903C8.96664 2.60386 9.08344 2.23543 8.92828 1.93608C8.77311 1.63674 8.40458 1.51993 8.10533 1.67509C3.10579 4.26705 0 9.37292 0 15C0 23.271 6.72897 29.9999 15 29.9999C23.2709 29.9999 29.9999 23.2709 29.9999 15C29.9999 6.72897 23.271 0 15 0Z" stroke="black"/>
<path d="M20.8802 7.2735C19.1784 5.9765 17.145 5.29102 15 5.29102C9.64592 5.29102 5.29004 9.64689 5.29004 15.0009C5.29004 20.355 9.64592 24.7109 15 24.7109C17.5935 24.7109 20.032 23.7009 21.8659 21.8669C22.1043 21.6285 22.1043 21.2419 21.8659 21.0035C21.6275 20.7651 21.2408 20.7651 21.0025 21.0035C19.3992 22.6069 17.2674 23.4899 15 23.4899C10.3192 23.4899 6.51103 19.6818 6.51103 15.0009C6.51103 10.3201 10.3191 6.51201 15 6.51201C18.7539 6.51201 22.1064 9.02674 23.1527 12.6275C23.2467 12.9513 23.5854 13.1374 23.9093 13.0434C24.2331 12.9493 24.4193 12.6105 24.3252 12.2868C23.7505 10.3089 22.527 8.52837 20.8802 7.2735Z" fill="black"/>
<path d="M20.8802 7.2735C19.1784 5.9765 17.145 5.29102 15 5.29102C9.64592 5.29102 5.29004 9.64689 5.29004 15.0009C5.29004 20.355 9.64592 24.7109 15 24.7109C17.5935 24.7109 20.032 23.7009 21.8659 21.8669C22.1043 21.6285 22.1043 21.2419 21.8659 21.0035C21.6275 20.7651 21.2408 20.7651 21.0025 21.0035C19.3992 22.6069 17.2674 23.4899 15 23.4899C10.3192 23.4899 6.51103 19.6818 6.51103 15.0009C6.51103 10.3201 10.3191 6.51201 15 6.51201C18.7539 6.51201 22.1064 9.02674 23.1527 12.6275C23.2467 12.9513 23.5854 13.1374 23.9093 13.0434C24.2331 12.9493 24.4193 12.6105 24.3252 12.2868C23.7505 10.3089 22.527 8.52837 20.8802 7.2735Z" stroke="black"/>
<path d="M22.1583 13.1515C21.9198 12.9131 21.5333 12.9131 21.295 13.1515C21.0566 13.3899 21.0566 13.7764 21.295 14.0148L23.5915 16.3114C23.7059 16.4258 23.8612 16.4902 24.0232 16.4902C24.1852 16.4902 24.3405 16.4258 24.4549 16.3114L26.7514 14.0148C26.9898 13.7764 26.9898 13.3899 26.7514 13.1515C26.5129 12.9131 26.1264 12.9131 25.8881 13.1515L24.0232 15.0163L22.1583 13.1515Z" fill="black"/>
<path d="M22.1583 13.1515C21.9198 12.9131 21.5333 12.9131 21.295 13.1515C21.0566 13.3899 21.0566 13.7764 21.295 14.0148L23.5915 16.3114C23.7059 16.4258 23.8612 16.4902 24.0232 16.4902C24.1852 16.4902 24.3405 16.4258 24.4549 16.3114L26.7514 14.0148C26.9898 13.7764 26.9898 13.3899 26.7514 13.1515C26.5129 12.9131 26.1264 12.9131 25.8881 13.1515L24.0232 15.0163L22.1583 13.1515Z" stroke="black"/>
</svg>
