<svg width="30" height="30" viewBox="0 0 30 30" fill="none" xmlns="http://www.w3.org/2000/svg">
<path d="M10.3125 17.8125L6 4.21875C5.8125 3.375 4.96875 2.8125 4.125 2.8125H1.875" stroke="black" stroke-width="2" stroke-miterlimit="10" stroke-linejoin="round"/>
<path d="M24.375 21.5625H7.875C6.84375 21.5625 6 20.7188 6 19.6875C6 18.6562 6.84375 18 7.875 17.8125L27.1875 15V5.625H10.3125" stroke="black" stroke-width="2" stroke-miterlimit="10" stroke-linejoin="round"/>
<path d="M10.3125 27.1875C10.8303 27.1875 11.25 26.7678 11.25 26.25C11.25 25.7322 10.8303 25.3125 10.3125 25.3125C9.79473 25.3125 9.375 25.7322 9.375 26.25C9.375 26.7678 9.79473 27.1875 10.3125 27.1875Z" stroke="black" stroke-width="2" stroke-miterlimit="10" stroke-linejoin="round"/>
<path d="M22.5 27.1875C23.0178 27.1875 23.4375 26.7678 23.4375 26.25C23.4375 25.7322 23.0178 25.3125 22.5 25.3125C21.9822 25.3125 21.5625 25.7322 21.5625 26.25C21.5625 26.7678 21.9822 27.1875 22.5 27.1875Z" stroke="black" stroke-width="2" stroke-miterlimit="10" stroke-linejoin="round"/>
</svg>
