<svg width="35" height="35" viewBox="0 0 35 35" fill="none" xmlns="http://www.w3.org/2000/svg">
<path d="M18.5218 20.7071C17.7998 19.6856 16.6402 19.0614 15.3969 19.0141C15.3706 19.0112 15.3439 19.0096 15.3168 19.0096C13.7354 19.0096 12.4285 17.8144 12.2503 16.28C12.7057 15.9484 13.1258 15.5275 13.4981 15.0235C14.2511 14.004 14.7399 12.7302 14.9211 11.3527C14.9766 11.2924 15.0234 11.2221 15.0569 11.1421C15.3758 10.3829 15.5374 9.57237 15.5374 8.73298C15.5374 5.50499 13.0969 2.87891 10.0971 2.87891C9.32133 2.87891 8.56863 3.05514 7.85714 3.40288C7.59116 3.4253 7.3305 3.47315 7.08024 3.54561C4.57241 4.27015 3.15498 7.30243 3.92068 10.305C3.99772 10.6071 4.09568 10.9041 4.21202 11.1879C4.24374 11.2654 4.28818 11.3335 4.34054 11.393C4.62936 13.5136 5.63307 15.278 7.0058 16.2761C6.82936 17.8125 5.52158 19.0097 3.93872 19.0097C3.91439 19.0097 3.89032 19.011 3.86654 19.0133C1.72163 19.0891 0 20.8564 0 23.0194V27.3356C0 27.7383 0.326415 28.0648 0.72912 28.0648H13.6115C14.0141 28.0648 14.3406 27.7383 14.3406 27.3356C14.3406 26.9329 14.0141 26.6065 13.6115 26.6065H1.45817V23.0194C1.45817 21.6122 2.60291 20.4675 4.01002 20.4675C4.03436 20.4675 4.05842 20.4662 4.08221 20.4639C4.60741 20.4475 5.11033 20.3418 5.57641 20.1611L9.02834 25.1434C9.16451 25.3399 9.38846 25.4573 9.62765 25.4573C9.86684 25.4573 10.0908 25.34 10.227 25.1434L13.679 20.1611C14.1451 20.3418 14.648 20.4475 15.1732 20.4639C15.1969 20.4662 15.221 20.4675 15.2453 20.4675C16.0728 20.4675 16.8525 20.8717 17.331 21.5486C17.473 21.7496 17.6982 21.8569 17.927 21.8569C18.0725 21.8569 18.2194 21.8134 18.3472 21.7231C18.6761 21.4909 18.7542 21.0359 18.5218 20.7071ZM7.48479 4.94623C7.67606 4.89099 7.87833 4.85818 8.08608 4.84881C8.19313 4.84403 8.29758 4.81573 8.39246 4.76589C8.93428 4.48125 9.50768 4.33687 10.0969 4.33687C12.2481 4.33687 14.0052 6.23001 14.0756 8.58622C13.6372 8.25467 13.0918 8.0576 12.501 8.0576H8.68798C8.49808 8.0576 8.31775 7.99799 8.16674 7.88526C8.03747 7.78881 7.93767 7.65933 7.87799 7.51052C7.74025 7.16776 7.39948 6.95366 7.0315 6.9769C6.66127 7.00063 6.34975 7.25793 6.25644 7.61682C6.07044 8.33137 5.72317 8.99685 5.25102 9.56198C4.87285 7.4479 5.8251 5.42577 7.48479 4.94623ZM5.77492 11.121C6.41175 10.5372 6.92712 9.82967 7.28696 9.04833C7.28942 9.05017 7.29195 9.05202 7.29448 9.05386C7.69951 9.35615 8.1813 9.51583 8.68791 9.51583H12.5009C12.9589 9.51583 13.3545 9.7838 13.5423 10.1705C13.5375 11.6851 13.1059 13.1 12.3251 14.1569C11.5888 15.1536 10.6308 15.7025 9.62751 15.7025C8.69899 15.7025 7.795 15.2228 7.08209 14.3519C6.39043 13.5071 5.93276 12.3698 5.77492 11.121ZM9.62758 23.4479L6.83736 19.4207C7.58589 18.7996 8.13154 17.9431 8.36225 16.9661C8.76851 17.0932 9.1922 17.1608 9.62751 17.1608C10.0605 17.1608 10.4845 17.0951 10.8935 16.9682C11.1245 17.9443 11.6699 18.8 12.4179 19.4207L9.62758 23.4479Z" fill="black"/>
<path d="M31.1337 23.0664C31.1099 23.0641 31.0859 23.0628 31.0615 23.0628C29.4779 23.0628 28.1696 21.8644 27.9942 20.3269C28.8871 19.6766 29.6233 18.7017 30.1086 17.516C30.1781 17.7432 30.3559 17.9267 30.5898 17.9992C30.6609 18.0213 30.7336 18.032 30.8056 18.032C31.0265 18.032 31.2404 17.9313 31.381 17.7508C32.3982 16.4443 32.927 14.7439 32.8701 12.9628C32.8142 11.2155 32.2 9.57526 31.1404 8.34425C30.0556 7.08384 28.6235 6.3824 27.1064 6.36791C27.026 6.36463 26.8259 6.37153 26.7935 6.37352C26.0141 6.01996 25.1905 5.85481 24.3423 5.88174C22.5906 5.93773 20.9793 6.81081 19.8054 8.34014C18.6646 9.82634 18.0721 11.7648 18.1371 13.7986C18.1481 14.1432 18.1753 14.4606 18.2194 14.7627C18.3381 15.6294 18.5769 16.4595 18.929 17.2299C19.041 17.4751 19.2793 17.6384 19.5483 17.6546C19.8165 17.6708 20.0734 17.5371 20.2141 17.3071C20.2727 17.2112 20.3481 17.0916 20.4313 16.9745C20.7564 17.9619 21.2533 18.8491 21.8842 19.5495C22.1533 19.8483 22.444 20.1082 22.7501 20.3299C22.5733 21.8658 21.2657 23.0627 19.6831 23.0627C19.6587 23.0627 19.6347 23.064 19.6109 23.0663C17.4662 23.1423 15.7446 24.9097 15.7446 27.0726V31.3888C15.7446 31.7915 16.0711 32.118 16.4737 32.118H34.2708C34.6734 32.118 34.9999 31.7915 34.9999 31.3888V27.0726C35.0001 24.9099 33.2784 23.1425 31.1337 23.0664ZM19.832 15.4218C19.7601 15.141 19.7037 14.853 19.6633 14.5587C19.6264 14.3052 19.604 14.0414 19.5948 13.7521C19.5405 12.0543 20.0261 10.4476 20.9622 9.22813C21.8651 8.0518 23.082 7.38106 24.3889 7.3393C24.4326 7.33786 25.3724 7.28495 26.3318 7.76839C26.439 7.82239 26.5626 7.84748 26.683 7.84406C26.6968 7.84365 27.0711 7.82595 27.0819 7.82608C28.1771 7.83333 29.2258 8.35525 30.0353 9.2956C30.8782 10.2751 31.3674 11.594 31.4126 13.0095C31.4372 13.7783 31.3292 14.5257 31.1004 15.2133C31.0315 15.0297 30.9547 14.8489 30.8701 14.6711C30.1662 13.1733 28.9812 12.0132 27.5334 11.4043C27.35 11.3272 27.1431 11.3284 26.9607 11.4076C26.7782 11.4867 26.636 11.6369 26.567 11.8235C26.4699 12.0858 26.3523 12.3412 26.2173 12.5827C25.8355 13.2654 25.066 13.6715 24.2102 13.6415C24.0817 13.6372 23.9514 13.637 23.8228 13.6411C23.1924 13.6612 22.5775 13.7814 21.9922 13.9994C21.414 14.2176 20.4423 14.7651 19.832 15.4218ZM21.6256 15.8186C21.9021 15.6335 22.1962 15.481 22.5043 15.3645C22.9379 15.2031 23.3972 15.1135 23.8694 15.0984C23.9658 15.0953 24.0634 15.0954 24.1597 15.0988C25.5674 15.1469 26.8405 14.4558 27.49 13.2943C27.5299 13.2229 27.5687 13.1504 27.6063 13.0772C28.2713 13.4868 28.8397 14.0643 29.267 14.7651C29.2634 14.7867 29.2602 14.8084 29.2584 14.8307C29.1466 16.214 28.6694 17.4836 27.9146 18.4055C27.2017 19.2765 26.2977 19.7561 25.3692 19.7561C23.6527 19.7559 22.1257 18.1243 21.6256 15.8186ZM24.1073 21.0182C24.5176 21.1464 24.9409 21.2141 25.3692 21.2141C25.8056 21.2141 26.2303 21.1462 26.6376 21.0183C26.9305 22.2599 27.7333 23.306 28.8127 23.9233C28.3916 25.4446 26.9925 26.5385 25.3725 26.5385C23.7525 26.5385 22.3534 25.4445 21.9324 23.9231C23.0116 23.306 23.8145 22.2599 24.1073 21.0182ZM33.5419 30.6599H17.203V27.0728C17.203 25.6657 18.3477 24.5209 19.7549 24.5209C19.7792 24.5209 19.8033 24.5196 19.827 24.5173C20.0781 24.5094 20.3243 24.4818 20.5636 24.4346C21.197 26.5139 23.1348 27.9968 25.3725 27.9968C27.6102 27.9968 29.5479 26.5139 30.1814 24.4347C30.4207 24.4819 30.6668 24.5095 30.9178 24.5173C30.9416 24.5196 30.9657 24.5209 30.99 24.5209C32.3971 24.5209 33.5419 25.6657 33.5419 27.0728V30.6599Z" fill="black"/>
</svg>
