<svg width="100" height="100" viewBox="0 0 100 100" fill="none" xmlns="http://www.w3.org/2000/svg">
<path d="M50.7819 71.9011C62.4461 71.9011 71.9017 62.4454 71.9017 50.7813C71.9017 39.1172 62.4461 29.6615 50.7819 29.6615C39.1178 29.6615 29.6621 39.1172 29.6621 50.7813C29.6621 62.4454 39.1178 71.9011 50.7819 71.9011Z" fill="black"/>
<path d="M50.5375 50.7813C50.0523 49.7651 49.7428 48.749 49.473 47.7329C49.2102 46.7168 49.0186 45.7007 48.8771 44.6845C48.7365 43.6684 48.6501 42.6523 48.6051 41.6361C48.5539 40.62 48.579 39.6039 48.7433 38.5878C48.8955 37.5716 49.1816 36.5555 49.4346 35.5394C49.6964 34.5232 49.9129 33.5071 49.996 32.491C50.0825 31.4749 50.0573 30.4587 49.9616 29.4426C49.867 28.4265 49.6684 27.4104 49.445 26.3942C49.2199 25.3781 48.9793 24.362 48.817 23.3459C48.7759 23.0918 48.735 22.8378 48.7043 22.5838C48.6692 22.3297 48.6383 22.0757 48.6134 21.8217L48.474 20.2975C48.3817 19.2813 48.2867 18.2652 48.2209 17.2491C48.1596 16.233 48.1341 15.2169 48.1724 14.2007C48.2506 12.1685 48.4859 10.1362 48.8524 8.10396C49.0356 7.08783 49.2549 6.07171 49.5265 5.05558C49.8027 4.03945 50.1073 3.02334 50.5375 2.0072H51.0258C51.4559 3.02334 51.7605 4.03945 52.0368 5.05558C52.3083 6.07171 52.5276 7.08783 52.7108 8.10396C53.0773 10.1362 53.3126 12.1685 53.3908 14.2007C53.4292 15.2169 53.4037 16.233 53.3423 17.2491C53.2765 18.2652 53.1815 19.2813 53.0892 20.2975L52.9499 21.8217C52.9249 22.0757 52.8941 22.3297 52.859 22.5838C52.8282 22.8378 52.7873 23.0918 52.7463 23.3459C52.584 24.362 52.3433 25.3781 52.1183 26.3942C51.8948 27.4104 51.6962 28.4265 51.6016 29.4426C51.5059 30.4588 51.4807 31.4749 51.5672 32.491C51.6504 33.5071 51.8669 34.5232 52.1287 35.5394C52.3817 36.5555 52.6678 37.5716 52.8199 38.5878C52.9842 39.6039 53.0094 40.62 52.9581 41.6361C52.9132 42.6523 52.8268 43.6684 52.6861 44.6845C52.5447 45.7007 52.353 46.7168 52.0902 47.7329C51.8205 48.749 51.511 49.7651 51.0257 50.7813H50.5375Z" fill="#FF002B"/>
<path d="M50.5414 50.8237C49.8871 49.9073 49.4058 48.9604 48.9638 48.0065C48.5285 47.0515 48.1633 46.084 47.8475 45.1079C47.5326 44.1317 47.2711 43.146 47.0503 42.1531C46.8234 41.1613 46.6717 40.1562 46.6571 39.127C46.6305 38.0999 46.7358 37.0495 46.8085 36.0049C46.8898 34.9588 46.9266 33.9205 46.8321 32.9053C46.7408 31.8896 46.5395 30.8933 46.2688 29.9093C45.9992 28.925 45.6272 27.9588 45.2307 26.9969C44.8326 26.0353 44.4192 25.0764 44.0829 24.1039C43.9983 23.8608 43.9139 23.6178 43.8395 23.3729C43.7609 23.1288 43.6864 22.884 43.6177 22.6382L43.2158 21.1613C42.9484 20.1767 42.6785 19.1925 42.4372 18.2032C42.2003 17.2132 41.9988 16.2169 41.8601 15.2096C41.5842 13.1946 41.463 11.1524 41.4711 9.08735C41.475 8.05485 41.5146 7.01608 41.6056 5.96823C41.7011 4.91958 41.8247 3.86599 42.0718 2.7906L42.5527 2.70581C43.1528 3.63181 43.6292 4.5796 44.0777 5.53231C44.5215 6.48585 44.914 7.44845 45.2708 8.41734C45.9847 10.3551 46.5693 12.3156 46.9992 14.3034C47.2134 15.2974 47.3648 16.3025 47.4808 17.3139C47.5924 18.326 47.6753 19.3432 47.7609 20.3599L47.8883 21.8851C47.9079 22.1396 47.9216 22.3952 47.9312 22.6514C47.945 22.9069 47.9488 23.1642 47.9525 23.4215C47.9691 24.4504 47.9086 25.4928 47.8634 26.5326C47.8198 27.5721 47.8006 28.6073 47.8839 29.6244C47.9661 30.6417 48.1178 31.6468 48.3794 32.6325C48.6377 33.6187 49.0274 34.5818 49.4617 35.537C49.8873 36.4938 50.3455 37.4448 50.6717 38.4191C51.01 39.3912 51.2112 40.3876 51.3372 41.3971C51.4694 42.4056 51.5607 43.4213 51.5987 44.4464C51.6358 45.4717 51.6235 46.5056 51.5411 47.552C51.4519 48.5995 51.3236 49.654 51.0222 50.7389L50.5414 50.8237Z" fill="#FF002B"/>
<path d="M50.5532 50.8648C49.7497 50.0759 49.1113 49.2269 48.5103 48.3643C47.9158 47.4993 47.3882 46.61 46.9077 45.7036C46.4281 44.7968 45.9993 43.8715 45.6096 42.932C45.2139 41.9947 44.89 41.0313 44.6968 40.0203C44.4922 39.0134 44.4135 37.9607 44.3037 36.9193C44.2022 35.8749 44.0581 34.846 43.7888 33.8627C43.5225 32.8783 43.1513 31.932 42.7138 31.0099C42.2774 30.0874 41.7432 29.2005 41.1857 28.3221C40.6267 27.4442 40.053 26.5717 39.553 25.6724C39.4275 25.4477 39.3022 25.2229 39.1864 24.9948C39.0666 24.768 38.9507 24.5399 38.8404 24.3097L38.1881 22.9251C37.7539 22.0018 37.3171 21.0794 36.9077 20.1471C36.5025 19.2133 36.131 18.2671 35.8195 17.2992C35.1979 15.3627 34.724 13.3725 34.3733 11.3375C34.1979 10.32 34.0565 9.29013 33.9641 8.24242C33.8761 7.1931 33.8149 6.13406 33.8715 5.0321L34.3303 4.86511C35.0821 5.67285 35.7159 6.52349 36.323 7.38388C36.9257 8.24585 37.4793 9.12568 37.999 10.0179C39.0385 11.8022 39.9546 13.6314 40.7232 15.5144C41.1068 16.4561 41.4303 17.4197 41.7202 18.3955C42.0059 19.3729 42.2642 20.3602 42.525 21.3466L42.9154 22.8266C42.9788 23.0738 43.0367 23.3231 43.0906 23.5738C43.1486 23.823 43.1971 24.0757 43.2454 24.3285C43.4404 25.3388 43.5618 26.376 43.6979 27.4078C43.8354 28.4391 43.9963 29.4618 44.255 30.449C44.5126 31.4366 44.8364 32.4001 45.2652 33.3253C45.691 34.2517 46.2419 35.1325 46.8355 35.9978C47.4207 36.8662 48.0371 37.7232 48.5276 38.626C49.0295 39.5246 49.4007 40.4709 49.7001 41.4433C50.0054 42.4135 50.2717 43.3979 50.4871 44.4008C50.7017 45.4041 50.8692 46.4244 50.9697 47.4692C51.0638 48.5163 51.1205 49.577 51.0121 50.6978L50.5532 50.8648Z" fill="#FF002B"/>
<path d="M50.5707 50.9034C49.6424 50.266 48.8663 49.5408 48.1246 48.7956C47.3889 48.0471 46.7149 47.2629 46.0843 46.4536C45.4545 45.644 44.8716 44.8072 44.3246 43.9497C43.7722 43.0953 43.2859 42.2027 42.9201 41.2406C42.5438 40.2845 42.2835 39.2615 41.9945 38.255C41.7132 37.2441 41.3926 36.2559 40.9566 35.3343C40.5234 34.4111 39.9935 33.5437 39.4026 32.7115C38.8126 31.8788 38.1325 31.0981 37.431 30.3299C36.728 29.5624 36.0115 28.8027 35.3629 28.0039C35.2003 27.8044 35.0379 27.6049 34.8842 27.4003C34.7268 27.1978 34.5731 26.9932 34.4245 26.7857L33.5417 25.5354C32.9537 24.7016 32.3634 23.8691 31.7984 23.022C31.2371 22.1726 30.707 21.3054 30.2321 20.4063C29.2838 18.6072 28.4714 16.7295 27.7727 14.7863C27.4232 13.8147 27.1051 12.825 26.8322 11.8093C26.5634 10.7912 26.3191 9.75888 26.1836 8.66382L26.6065 8.41968C27.487 9.0846 28.2589 9.81228 29.0062 10.5542C29.7494 11.2984 30.4474 12.0687 31.1142 12.8571C32.4477 14.4338 33.6676 16.0762 34.7515 17.797C35.2927 18.6579 35.7787 19.5506 36.2336 20.4613C36.6847 21.3742 37.1105 22.3017 37.5387 23.2278L38.1801 24.6175C38.2855 24.8499 38.3858 25.0853 38.4824 25.3229C38.5828 25.5583 38.6744 25.7987 38.7659 26.0392C39.1334 27.0004 39.433 28.0007 39.7462 28.9932C40.0607 29.9849 40.3968 30.9642 40.8229 31.8915C41.2481 32.8194 41.7344 33.7119 42.3173 34.5487C42.8974 35.3871 43.593 36.1588 44.3278 36.9079C45.0549 37.6614 45.8107 38.3984 46.4506 39.2023C47.1009 40.0002 47.6307 40.8676 48.0944 41.7732C48.5636 42.6756 48.9968 43.5988 49.3831 44.5491C49.7686 45.4999 50.1107 46.4757 50.3912 47.4871C50.6656 48.5019 50.9057 49.5367 50.9935 50.6593L50.5707 50.9034Z" fill="#FF002B"/>
<path d="M50.5956 50.9382C49.5707 50.4717 48.6805 49.8923 47.8207 49.2872C46.9662 48.6778 46.1662 48.0226 45.4047 47.3351C44.6438 46.6471 43.9245 45.9242 43.2369 45.1747C42.5445 44.4293 41.9106 43.6347 41.3833 42.7507C40.8467 41.8745 40.4127 40.9122 39.9533 39.9712C39.5007 39.0246 39.0134 38.107 38.424 37.2751C37.8371 36.4411 37.1646 35.6789 36.4382 34.9621C35.7126 34.2445 34.9073 33.5937 34.0829 32.9589C33.2574 32.3252 32.4199 31.7015 31.6424 31.0274C31.4476 30.8592 31.253 30.6909 31.0662 30.5161C30.876 30.344 30.6891 30.1693 30.5067 29.9907L29.4202 28.9127C28.6964 28.1936 27.9705 27.4762 27.2669 26.7401C26.5667 26.0012 25.894 25.2392 25.2703 24.4361C24.0239 22.829 22.8978 21.121 21.8722 19.3286C21.3594 18.4325 20.8743 17.5131 20.4291 16.5602C19.9876 15.6042 19.5678 14.63 19.2441 13.5751L19.6182 13.2612C20.6008 13.7631 21.4874 14.3457 22.3521 14.9466C23.2133 15.5504 24.0345 16.1878 24.8279 16.8485C26.415 18.1697 27.9015 19.5753 29.2678 21.0818C29.9503 21.8355 30.5839 22.6303 31.1901 23.4481C31.7928 24.2688 32.3732 25.1083 32.9557 25.946L33.8286 27.2032C33.9728 27.4138 34.1125 27.6282 34.2489 27.8454C34.3886 28.0598 34.5206 28.2806 34.6524 28.5016C35.1812 29.3844 35.65 30.3174 36.1308 31.2405C36.6128 32.1625 37.1138 33.0686 37.6945 33.9078C38.2743 34.7477 38.9082 35.5423 39.6276 36.2651C40.3445 36.99 41.1635 37.6293 42.0172 38.2394C42.8641 38.8552 43.7365 39.4497 44.5062 40.1303C45.2851 40.8031 45.9576 41.5653 46.5715 42.3766C47.1902 43.1839 47.7771 44.0179 48.3226 44.8867C48.8674 45.756 49.3737 46.6576 49.8255 47.6049C50.2721 48.5567 50.6881 49.534 50.9696 50.6243L50.5956 50.9382Z" fill="#FF002B"/>
<path d="M50.6248 50.9683C49.5345 50.6869 48.5572 50.2708 47.6054 49.8243C46.658 49.3725 45.7565 48.8662 44.8871 48.3214C44.0184 47.7759 43.1844 47.189 42.3771 46.5702C41.5658 45.9563 40.8036 45.2839 40.1308 44.5049C39.4502 43.7352 38.8557 42.8629 38.2399 42.0159C37.6298 41.1622 36.9905 40.3432 36.2656 39.6264C35.5428 38.907 34.7482 38.2731 33.9083 37.6932C33.0691 37.1125 32.163 36.6115 31.241 36.1296C30.3179 35.6488 29.3849 35.18 28.5021 34.6512C28.2811 34.5193 28.0603 34.3874 27.8459 34.2477C27.6287 34.1113 27.4143 33.9716 27.2037 33.8274L25.9465 32.9544C25.1088 32.372 24.2693 31.7916 23.4486 31.1888C22.6308 30.5827 21.836 29.9491 21.0822 29.2666C19.5757 27.9003 18.1702 26.4138 16.849 24.8267C16.1883 24.0332 15.5509 23.2121 14.9471 22.3509C14.3462 21.4861 13.7636 20.5996 13.2617 19.617L13.5756 19.2429C14.6305 19.5666 15.6047 19.9864 16.5606 20.4279C17.5136 20.8731 18.433 21.3582 19.3291 21.871C21.1215 22.8966 22.8295 24.0226 24.4366 25.269C25.2397 25.8928 26.0017 26.5655 26.7406 27.2657C27.4767 27.9692 28.1941 28.6951 28.9132 29.419L29.9912 30.5055C30.1697 30.6879 30.3445 30.8748 30.5166 31.0649C30.6914 31.2518 30.8597 31.4464 31.0279 31.6411C31.702 32.4187 32.3257 33.2561 32.9594 34.0817C33.5942 34.906 34.2449 35.7113 34.9625 36.4369C35.6794 37.1634 36.4416 37.8358 37.2756 38.4228C38.1075 39.0122 39.025 39.4995 39.9717 39.9521C40.9127 40.4114 41.875 40.8454 42.7512 41.382C43.6352 41.9094 44.4298 42.5432 45.1752 43.2356C45.9247 43.9232 46.6476 44.6426 47.3356 45.4034C48.0231 46.165 48.6783 46.9649 49.2877 47.8194C49.8927 48.6792 50.4722 49.5695 50.9387 50.5943L50.6248 50.9683Z" fill="#FF002B"/>
<path d="M50.6595 50.9927C49.5369 50.9048 48.5022 50.6648 47.4873 50.3903C46.4759 50.1099 45.5001 49.7678 44.5494 49.3822C43.5991 48.9959 42.6759 48.5627 41.7734 48.0936C40.8678 47.6299 40.0004 47.1 39.2025 46.4497C38.3986 45.8099 37.6617 45.054 36.9082 44.3269C36.1591 43.5921 35.3873 42.8966 34.5489 42.3164C33.7122 41.7335 32.8196 41.2472 31.8918 40.8221C30.9645 40.3959 29.9852 40.0599 28.9935 39.7453C28.0009 39.4321 27.0006 39.1325 26.0395 38.765C25.7989 38.6736 25.5585 38.5819 25.3231 38.4816C25.0856 38.3849 24.8502 38.2846 24.6177 38.1792L23.228 37.5378C22.3019 37.1097 21.3744 36.6839 20.4615 36.2328C19.5508 35.7779 18.6581 35.2919 17.7973 34.7506C16.0764 33.6667 14.4341 32.4468 12.8573 31.1133C12.0689 30.4466 11.2986 29.7486 10.5544 29.0054C9.81252 28.2581 9.08484 27.4862 8.41992 26.6056L8.66406 26.1827C9.75912 26.3183 10.7914 26.5625 11.8095 26.8314C12.8253 27.1043 13.815 27.4224 14.7865 27.7718C16.7298 28.4705 18.6074 29.2829 20.4065 30.2313C21.3057 30.7061 22.1729 31.2363 23.0222 31.7975C23.8693 32.3625 24.7018 32.9529 25.5356 33.5408L26.786 34.4236C26.9935 34.5723 27.1981 34.726 27.4005 34.8834C27.6051 35.0371 27.8047 35.1995 28.0042 35.362C28.803 36.0107 29.5627 36.7271 30.3301 37.4301C31.0984 38.1317 31.8791 38.8117 32.7118 39.4017C33.5439 39.9927 34.4113 40.5225 35.3345 40.9557C36.2561 41.3917 37.2444 41.7123 38.2553 41.9937C39.2617 42.2826 40.2848 42.5429 41.2408 42.9192C42.203 43.285 43.0955 43.7713 43.9499 44.3238C44.8074 44.8707 45.6442 45.4537 46.4539 46.0835C47.2631 46.7141 48.0473 47.3881 48.7959 48.1238C49.541 48.8654 50.2663 49.6415 50.9036 50.5698L50.6595 50.9927Z" fill="#FF002B"/>
<path d="M50.6979 51.0107C49.5771 51.1192 48.5164 51.0625 47.4693 50.9684C46.4246 50.8678 45.4042 50.7004 44.4009 50.4858C43.398 50.2704 42.4136 50.004 41.4434 49.6987C40.471 49.3993 39.5248 49.0282 38.6261 48.5263C37.7233 48.0358 36.8663 47.4194 35.998 46.8341C35.1327 46.2406 34.2519 45.6896 33.3255 45.2639C32.4002 44.8351 31.4367 44.5112 30.4492 44.2536C29.462 43.995 28.4392 43.8341 27.4079 43.6965C26.3761 43.5605 25.3389 43.439 24.3286 43.2441C24.0758 43.1957 23.8231 43.1473 23.5739 43.0893C23.3232 43.0354 23.0739 42.9775 22.8267 42.914L21.3467 42.5237C20.3603 42.2629 19.373 42.0046 18.3956 41.7189C17.4198 41.429 16.4562 41.1054 15.5145 40.7219C13.6316 39.9533 11.8023 39.0371 10.018 37.9976C9.12582 37.478 8.24598 36.9243 7.384 36.3216C6.52363 35.7145 5.67297 35.0807 4.86523 34.329L5.03223 33.8702C6.13418 33.8135 7.19322 33.8748 8.24254 33.9627C9.29025 34.0551 10.3201 34.1966 11.3376 34.3719C13.3727 34.7226 15.3628 35.1966 17.2993 35.8182C18.2672 36.1297 19.2134 36.5012 20.1472 36.9064C21.0796 37.3157 22.0019 37.7525 22.9252 38.1868L24.3098 38.839C24.54 38.9493 24.7682 39.0652 24.9949 39.1851C25.2231 39.3009 25.4478 39.4262 25.6725 39.5516C26.5718 40.0517 27.4444 40.6254 28.3222 41.1844C29.2006 41.7419 30.0876 42.276 31.0101 42.7125C31.9322 43.15 32.8784 43.5211 33.8628 43.7874C34.8461 44.0568 35.875 44.2009 36.9194 44.3024C37.9608 44.4122 39.0135 44.4909 40.0204 44.6954C41.0314 44.8886 41.9949 45.2125 42.9322 45.6082C43.8716 45.998 44.7969 46.4267 45.7037 46.9064C46.6102 47.3868 47.4995 47.9145 48.3644 48.509C49.227 49.11 50.076 49.7484 50.8649 50.5519L50.6979 51.0107Z" fill="#FF002B"/>
<path d="M50.7401 51.0217C49.6552 51.3231 48.6007 51.4515 47.5532 51.5407C46.5069 51.6231 45.4729 51.6353 44.4476 51.5982C43.4225 51.5602 42.4068 51.4689 41.3983 51.3367C40.3888 51.2107 39.3924 51.0095 38.4203 50.6713C37.446 50.345 36.495 49.8868 35.5382 49.4612C34.583 49.0269 33.6199 48.6373 32.6337 48.3789C31.648 48.1173 30.6429 47.9656 29.6256 47.8834C28.6085 47.8001 27.5733 47.8193 26.5338 47.8629C25.4941 47.9081 24.4516 47.9686 23.4227 47.952C23.1654 47.9483 22.9081 47.9445 22.6526 47.9307C22.3964 47.9211 22.1408 47.9074 21.8863 47.8878L20.3611 47.7604C19.3444 47.6749 18.3272 47.5919 17.3151 47.4803C16.3037 47.3643 15.2986 47.2129 14.3046 46.9987C12.3168 46.5688 10.3563 45.9842 8.41855 45.2704C7.44967 44.9135 6.48707 44.5211 5.53354 44.0772C4.5808 43.6287 3.63303 43.1523 2.70703 42.5522L2.79182 42.0714C3.86721 41.8242 4.92078 41.7006 5.96945 41.6051C7.0173 41.5141 8.05607 41.4745 9.08857 41.4706C11.1536 41.4625 13.1958 41.5837 15.2108 41.8596C16.2181 41.9983 17.2144 42.1998 18.2044 42.4367C19.1937 42.678 20.1779 42.948 21.1626 43.2153L22.6394 43.6172C22.8852 43.6859 23.1301 43.7604 23.3741 43.839C23.619 43.9135 23.8621 43.9978 24.1051 44.0824C25.0776 44.4187 26.0365 44.8321 26.9981 45.2302C27.96 45.6267 28.9262 45.9988 29.9105 46.2683C30.8945 46.5391 31.8909 46.7403 32.9066 46.8316C33.9217 46.9261 34.96 46.8893 36.0061 46.808C37.0507 46.7353 38.1011 46.63 39.1282 46.6566C40.1575 46.6713 41.1625 46.823 42.1543 47.0499C43.1472 47.2706 44.1329 47.5321 45.1091 47.847C46.0853 48.1628 47.0527 48.528 48.0077 48.9633C48.9616 49.4054 49.9085 49.8866 50.8249 50.5409L50.7401 51.0217Z" fill="#FF002B"/>
<path d="M50.7819 51.0254C49.7658 51.5106 48.7496 51.8201 47.7335 52.0898C46.7174 52.3527 45.7013 52.5443 44.6851 52.6858C43.669 52.8264 42.6529 52.9128 41.6367 52.9577C40.6206 53.009 39.6045 52.9838 38.5884 52.8196C37.5722 52.6674 36.5561 52.3813 35.54 52.1283C34.5239 51.8665 33.5077 51.65 32.4916 51.5668C31.4755 51.4804 30.4593 51.5055 29.4432 51.6012C28.4271 51.6958 27.411 51.8945 26.3948 52.1179C25.3787 52.343 24.3626 52.5836 23.3465 52.7459C23.0924 52.787 22.8384 52.8278 22.5844 52.8586C22.3304 52.8937 22.0763 52.9246 21.8223 52.9495L20.2981 53.0889C19.282 53.1811 18.2658 53.2761 17.2497 53.3419C16.2336 53.4033 15.2175 53.4288 14.2013 53.3905C12.1691 53.3122 10.1368 53.0769 8.10457 52.7104C7.08844 52.5273 6.07233 52.3079 5.05619 52.0364C4.04006 51.7602 3.02395 51.4555 2.00781 51.0254V50.5371C3.02395 50.107 4.04006 49.8023 5.05619 49.5261C6.07233 49.2546 7.08844 49.0352 8.10457 48.8521C10.1368 48.4856 12.1691 48.2503 14.2013 48.172C15.2175 48.1337 16.2336 48.1592 17.2497 48.2206C18.2658 48.2864 19.282 48.3814 20.2981 48.4736L21.8223 48.613C22.0763 48.638 22.3304 48.6688 22.5844 48.7039C22.8384 48.7347 23.0924 48.7755 23.3465 48.8166C24.3626 48.9789 25.3787 49.2196 26.3948 49.4446C27.411 49.6681 28.4271 49.8667 29.4432 49.9613C30.4594 50.057 31.4755 50.0822 32.4916 49.9957C33.5077 49.9125 34.5239 49.696 35.54 49.4342C36.5561 49.1812 37.5722 48.8951 38.5884 48.7429C39.6045 48.5787 40.6206 48.5535 41.6367 48.6048C42.6529 48.6497 43.669 48.7361 44.6851 48.8767C45.7013 49.0182 46.7174 49.2098 47.7335 49.4727C48.7496 49.7424 49.7658 50.0519 50.7819 50.5371V51.0254Z" fill="#FF002B"/>
<path d="M50.825 51.0217C49.9085 51.676 48.9616 52.1573 48.0077 52.5993C47.0527 53.0346 46.0853 53.3998 45.1091 53.7156C44.1329 54.0305 43.1472 54.292 42.1543 54.5128C41.1625 54.7397 40.1574 54.8914 39.1283 54.906C38.1011 54.9326 37.0508 54.8273 36.0061 54.7546C34.96 54.6733 33.9217 54.6365 32.9066 54.731C31.8909 54.8223 30.8945 55.0235 29.9105 55.2943C28.9262 55.5638 27.96 55.9359 26.9981 56.3324C26.0365 56.7305 25.0776 57.1439 24.1051 57.4802C23.8621 57.5648 23.619 57.6491 23.3741 57.7236C23.1301 57.8022 22.8853 57.8767 22.6394 57.9454L21.1626 58.3473C20.1779 58.6146 19.1937 58.8846 18.2044 59.1259C17.2144 59.3627 16.2181 59.5643 15.2108 59.703C13.1958 59.9789 11.1536 60.1001 9.08858 60.092C8.05608 60.0881 7.0173 60.0485 5.96945 59.9575C4.9208 59.862 3.86721 59.7384 2.79182 59.4912L2.70703 59.0104C3.63303 58.4103 4.58082 57.9339 5.53354 57.4854C6.48707 57.0415 7.44967 56.6491 8.41856 56.2922C10.3563 55.5784 12.3168 54.9938 14.3046 54.5639C15.2986 54.3497 16.3038 54.1983 17.3151 54.0823C18.3272 53.9707 19.3444 53.8878 20.3611 53.8022L21.8864 53.6748C22.1408 53.6552 22.3964 53.6415 22.6526 53.6319C22.9081 53.6181 23.1654 53.6142 23.4227 53.6106C24.4516 53.594 25.4941 53.6545 26.5338 53.6997C27.5733 53.7433 28.6085 53.7625 29.6256 53.6792C30.6429 53.597 31.648 53.4453 32.6337 53.1837C33.6199 52.9253 34.583 52.5357 35.5382 52.1014C36.495 51.6758 37.446 51.2176 38.4203 50.8913C39.3924 50.5531 40.3888 50.3519 41.3983 50.2259C42.4068 50.0937 43.4225 50.0024 44.4476 49.9644C45.4729 49.9273 46.5069 49.9395 47.5532 50.022C48.6007 50.1111 49.6552 50.2395 50.7401 50.5409L50.825 51.0217Z" fill="#FF002B"/>
<path d="M50.8649 51.0107C50.076 51.8142 49.227 52.4526 48.3644 53.0536C47.4995 53.6481 46.6101 54.1757 45.7037 54.6562C44.7969 55.1358 43.8716 55.5646 42.9322 55.9543C41.9948 56.35 41.0314 56.6739 40.0204 56.8671C39.0135 57.0716 37.9608 57.1503 36.9194 57.2602C35.875 57.3617 34.8461 57.5058 33.8628 57.7751C32.8784 58.0414 31.9322 58.4126 31.0101 58.8501C30.0876 59.2865 29.2006 59.8207 28.3222 60.3782C27.4444 60.9372 26.5718 61.5109 25.6725 62.0109C25.4478 62.1364 25.2231 62.2617 24.9949 62.3775C24.7682 62.4973 24.54 62.6132 24.3098 62.7235L22.9252 63.3758C22.0019 63.8101 21.0796 64.2468 20.1472 64.6562C19.2134 65.0614 18.2672 65.4329 17.2993 65.7444C15.3628 66.366 13.3727 66.84 11.3376 67.1906C10.3201 67.366 9.29025 67.5075 8.24254 67.5998C7.19322 67.6878 6.13418 67.7491 5.03223 67.6924L4.86523 67.2336C5.67297 66.4819 6.52361 65.8481 7.384 65.241C8.24598 64.6383 9.1258 64.0846 10.018 63.5649C11.8023 62.5255 13.6316 61.6093 15.5145 60.8407C16.4563 60.4572 17.4198 60.1336 18.3956 59.8437C19.373 59.558 20.3603 59.2997 21.3467 59.0389L22.8267 58.6486C23.0739 58.5851 23.3232 58.5272 23.5739 58.4733C23.8231 58.4153 24.0758 58.3669 24.3286 58.3185C25.3389 58.1236 26.3761 58.0021 27.4079 57.8661C28.4392 57.7285 29.462 57.5676 30.4492 57.309C31.4367 57.0514 32.4002 56.7275 33.3255 56.2987C34.2519 55.873 35.1327 55.322 35.998 54.7285C36.8663 54.1432 37.7233 53.5269 38.6261 53.0363C39.5248 52.5344 40.471 52.1633 41.4434 51.8639C42.4136 51.5586 43.398 51.2923 44.4009 51.0768C45.4042 50.8622 46.4246 50.6948 47.4693 50.5942C48.5164 50.5002 49.5771 50.4435 50.6979 50.5519L50.8649 51.0107Z" fill="#FF002B"/>
<path d="M50.9036 50.9927C50.2663 51.9209 49.541 52.697 48.7959 53.4387C48.0473 54.1744 47.2631 54.8484 46.4539 55.479C45.6442 56.1088 44.8074 56.6918 43.9499 57.2388C43.0955 57.7912 42.203 58.2775 41.2408 58.6433C40.2848 59.0196 39.2617 59.2799 38.2553 59.5688C37.2444 59.8502 36.2561 60.1708 35.3345 60.6068C34.4113 61.0399 33.5439 61.5698 32.7118 62.1608C31.8791 62.7508 31.0984 63.4308 30.3301 64.1324C29.5627 64.8354 28.803 65.5518 28.0042 66.2005C27.8047 66.363 27.6051 66.5254 27.4005 66.6791C27.198 66.8365 26.9935 66.9903 26.786 67.1389L25.5356 68.0217C24.7018 68.6097 23.8693 69.2 23.0222 69.765C22.1729 70.3262 21.3057 70.8564 20.4065 71.3312C18.6074 72.2796 16.7298 73.092 14.7865 73.7907C13.815 74.1401 12.8253 74.4582 11.8095 74.7311C10.7914 75 9.75912 75.2442 8.66406 75.3798L8.41992 74.9569C9.08484 74.0763 9.81252 73.3044 10.5544 72.5572C11.2986 71.8139 12.0689 71.1159 12.8573 70.4492C14.4341 69.1157 16.0764 67.8958 17.7973 66.8119C18.6581 66.2706 19.5509 65.7846 20.4615 65.3297C21.3744 64.8787 22.3019 64.4528 23.228 64.0247L24.6177 63.3833C24.8502 63.2779 25.0856 63.1776 25.3231 63.0809C25.5585 62.9806 25.7989 62.889 26.0395 62.7975C27.0006 62.43 28.0009 62.1303 28.9935 61.8172C29.9852 61.5026 30.9645 61.1666 31.8918 60.7404C32.8196 60.3153 33.7122 59.829 34.5489 59.246C35.3873 58.6659 36.1591 57.9704 36.9082 57.2356C37.6617 56.5084 38.3986 55.7526 39.2025 55.1128C40.0004 54.4624 40.8678 53.9326 41.7734 53.4689C42.6759 52.9998 43.5991 52.5665 44.5494 52.1803C45.5001 51.7947 46.4759 51.4526 47.4873 51.1722C48.5022 50.8977 49.5369 50.6577 50.6595 50.5698L50.9036 50.9927Z" fill="#FF002B"/>
<path d="M50.9387 50.9683C50.4722 51.9931 49.8928 52.8834 49.2877 53.7431C48.6783 54.5976 48.0231 55.3976 47.3356 56.1591C46.6476 56.92 45.9247 57.6393 45.1752 58.3269C44.4298 59.0193 43.6352 59.6532 42.7512 60.1806C41.875 60.7172 40.9127 61.1511 39.9717 61.6105C39.025 62.0631 38.1075 62.5504 37.2756 63.1398C36.4416 63.7267 35.6794 64.3992 34.9625 65.1256C34.2449 65.8512 33.5942 66.6565 32.9594 67.4809C32.3257 68.3064 31.702 69.1439 31.0279 69.9214C30.8597 70.1162 30.6914 70.3108 30.5166 70.4976C30.3445 70.6878 30.1697 70.8747 29.9912 71.0571L28.9132 72.1436C28.1941 72.8674 27.4767 73.5934 26.7406 74.2969C26.0017 74.9971 25.2397 75.6698 24.4366 76.2936C22.8295 77.5399 21.1215 78.666 19.3291 79.6915C18.433 80.2044 17.5136 80.6895 16.5606 81.1346C15.6047 81.5762 14.6305 81.996 13.5756 82.3197L13.2617 81.9456C13.7636 80.963 14.3462 80.0764 14.9471 79.2117C15.5509 78.3505 16.1883 77.5293 16.849 76.7359C18.1702 75.1488 19.5757 73.6622 21.0822 72.296C21.836 71.6135 22.6308 70.9799 23.4486 70.3737C24.2693 69.771 25.1088 69.1906 25.9465 68.6081L27.2037 67.7352C27.4143 67.591 27.6287 67.4513 27.8459 67.3149C28.0603 67.1752 28.2811 67.0432 28.5021 66.9114C29.3849 66.3826 30.3179 65.9137 31.241 65.433C32.163 64.951 33.0691 64.45 33.9083 63.8693C34.7482 63.2895 35.5428 62.6556 36.2656 61.9362C36.9905 61.2193 37.6298 60.4003 38.2399 59.5466C38.8557 58.6997 39.4502 57.8274 40.1308 57.0577C40.8036 56.2787 41.5658 55.6063 42.3771 54.9923C43.1844 54.3736 44.0184 53.7867 44.8871 53.2412C45.7565 52.6964 46.6581 52.1901 47.6054 51.7383C48.5572 51.2917 49.5345 50.8757 50.6248 50.5942L50.9387 50.9683Z" fill="#FF002B"/>
<path d="M50.9696 50.9383C50.6881 52.0285 50.272 53.0059 49.8255 53.9577C49.3737 54.905 48.8674 55.8066 48.3226 56.6759C47.7771 57.5447 47.1902 58.3786 46.5715 59.186C45.9576 59.9973 45.2851 60.7595 44.5061 61.4323C43.7364 62.1129 42.8641 62.7074 42.0172 63.3232C41.1635 63.9333 40.3445 64.5726 39.6276 65.2975C38.9082 66.0203 38.2743 66.8149 37.6945 67.6548C37.1138 68.494 36.6128 69.4001 36.1308 70.3221C35.65 71.2452 35.1812 72.1782 34.6524 73.061C34.5206 73.282 34.3886 73.5028 34.2489 73.7172C34.1125 73.9344 33.9728 74.1488 33.8286 74.3594L32.9557 75.6166C32.3732 76.4543 31.7928 77.2938 31.1901 78.1144C30.5839 78.9323 29.9503 79.7271 29.2678 80.4808C27.9015 81.9873 26.415 83.3929 24.8279 84.7141C24.0345 85.3748 23.2133 86.0122 22.3521 86.616C21.4874 87.2169 20.6008 87.7995 19.6182 88.3014L19.2441 87.9875C19.5678 86.9326 19.9876 85.9584 20.4291 85.0025C20.8743 84.0495 21.3594 83.1301 21.8722 82.234C22.8978 80.4416 24.0239 78.7336 25.2703 77.1265C25.894 76.3235 26.5667 75.5614 27.2669 74.8225C27.9704 74.0864 28.6963 73.369 29.4202 72.65L30.5067 71.5719C30.6891 71.3934 30.876 71.2186 31.0662 71.0466C31.253 70.8717 31.4476 70.7034 31.6424 70.5352C32.4199 69.8611 33.2574 69.2374 34.0829 68.6037C34.9073 67.9689 35.7126 67.3182 36.4382 66.6006C37.1646 65.8837 37.8371 65.1215 38.424 64.2875C39.0134 63.4556 39.5007 62.5381 39.9533 61.5914C40.4127 60.6504 40.8467 59.6881 41.3833 58.8119C41.9106 57.9279 42.5445 57.1333 43.2369 56.3879C43.9244 55.6384 44.6438 54.9155 45.4047 54.2275C46.1662 53.5401 46.9661 52.8848 47.8207 52.2754C48.6804 51.6704 49.5707 51.0909 50.5955 50.6244L50.9696 50.9383Z" fill="#FF002B"/>
<path d="M50.9935 50.9033C50.9057 52.0259 50.6656 53.0607 50.3912 54.0755C50.1107 55.0869 49.7686 56.0627 49.3831 57.0135C48.9968 57.9638 48.5636 58.887 48.0944 59.7894C47.6307 60.695 47.1009 61.5624 46.4506 62.3603C45.8107 63.1642 45.0549 63.9012 44.3277 64.6546C43.593 65.4037 42.8974 66.1755 42.3173 67.0139C41.7344 67.8506 41.2481 68.7432 40.8229 69.6711C40.3968 70.5984 40.0607 71.5777 39.7462 72.5694C39.433 73.5619 39.1333 74.5622 38.7659 75.5234C38.6744 75.7639 38.5828 76.0043 38.4824 76.2397C38.3858 76.4772 38.2855 76.7127 38.1801 76.9451L37.5387 78.3348C37.1105 79.2609 36.6847 80.1884 36.2336 81.1013C35.7787 82.012 35.2927 82.9047 34.7515 83.7655C33.6676 85.4864 32.4477 87.1288 31.1142 88.7055C30.4475 89.4939 29.7494 90.2642 29.0062 91.0084C28.2589 91.7503 27.4871 92.478 26.6065 93.1429L26.1836 92.8988C26.3191 91.8037 26.5634 90.7714 26.8322 89.7533C27.1051 88.7375 27.4232 87.7479 27.7727 86.7763C28.4714 84.833 29.2837 82.9554 30.2321 81.1563C30.707 80.2572 31.2371 79.3899 31.7984 78.5406C32.3634 77.6935 32.9537 76.861 33.5417 76.0272L34.4245 74.7769C34.5731 74.5694 34.7268 74.3648 34.8842 74.1623C35.0379 73.9577 35.2003 73.7581 35.3629 73.5587C36.0115 72.7598 36.728 72.0002 37.431 71.2327C38.1325 70.4645 38.8126 69.6838 39.4026 68.8511C39.9935 68.0189 40.5234 67.1515 40.9566 66.2283C41.3926 65.3067 41.7132 64.3185 41.9945 63.3076C42.2835 62.3011 42.5438 61.278 42.9201 60.322C43.2859 59.3598 43.7722 58.4673 44.3246 57.6129C44.8716 56.7554 45.4545 55.9186 46.0843 55.1089C46.7149 54.2997 47.3889 53.5155 48.1246 52.7669C48.8663 52.0218 49.6424 51.2966 50.5707 50.6592L50.9935 50.9033Z" fill="#FF002B"/>
<path d="M51.0121 50.8647C51.1205 51.9855 51.0638 53.0462 50.9697 54.0933C50.8692 55.1381 50.7017 56.1585 50.4871 57.1617C50.2717 58.1646 50.0054 59.1491 49.7001 60.1193C49.4007 61.0916 49.0295 62.0379 48.5276 62.9366C48.0371 63.8394 47.4207 64.6964 46.8355 65.5647C46.2419 66.43 45.691 67.3108 45.2652 68.2372C44.8365 69.1625 44.5126 70.1259 44.255 71.1135C43.9963 72.1007 43.8354 73.1235 43.6979 74.1548C43.5618 75.1866 43.4404 76.2237 43.2454 77.2341C43.1971 77.4868 43.1486 77.7395 43.0906 77.9888C43.0367 78.2395 42.9788 78.4888 42.9154 78.736L42.525 80.2159C42.2642 81.2023 42.0059 82.1897 41.7202 83.167C41.4304 84.1429 41.1068 85.1064 40.7232 86.0481C39.9546 87.9311 39.0385 89.7603 37.999 91.5447C37.4793 92.4368 36.9257 93.3167 36.323 94.1787C35.7159 95.039 35.0821 95.8897 34.3303 96.6974L33.8715 96.5304C33.8148 95.4285 33.8761 94.3694 33.9641 93.3201C34.0565 92.2724 34.1979 91.2425 34.3733 90.225C34.7239 88.19 35.1979 86.1998 35.8195 84.2634C36.131 83.2954 36.5025 82.3493 36.9077 81.4154C37.3171 80.4831 37.7539 79.5607 38.1881 78.6374L38.8404 77.2528C38.9507 77.0226 39.0666 76.7945 39.1864 76.5678C39.3022 76.3396 39.4275 76.1149 39.553 75.8902C40.0531 74.9908 40.6267 74.1183 41.1857 73.2404C41.7432 72.362 42.2774 71.4751 42.7138 70.5526C43.1513 69.6305 43.5225 68.6842 43.7888 67.6998C44.0581 66.7165 44.2022 65.6876 44.3037 64.6432C44.4136 63.6019 44.4922 62.5492 44.6968 61.5423C44.89 60.5312 45.2139 59.5678 45.6096 58.6305C45.9993 57.691 46.4281 56.7657 46.9077 55.8589C47.3882 54.9525 47.9158 54.0632 48.5103 53.1982C49.1113 52.3356 49.7497 51.4867 50.5532 50.6978L51.0121 50.8647Z" fill="#FF002B"/>
<path d="M51.0222 50.8237C51.3236 51.9087 51.452 52.9631 51.5411 54.0106C51.6235 55.057 51.6358 56.091 51.5987 57.1162C51.5607 58.1413 51.4694 59.157 51.3372 60.1655C51.2112 61.1751 51.01 62.1714 50.6718 63.1436C50.3455 64.1179 49.8873 65.0688 49.4617 66.0256C49.0274 66.9808 48.6378 67.9439 48.3794 68.9302C48.1178 69.9159 47.9661 70.9209 47.8839 71.9382C47.8006 72.9553 47.8198 73.9905 47.8634 75.03C47.9086 76.0698 47.9691 77.1123 47.9525 78.1411C47.9488 78.3984 47.945 78.6557 47.9312 78.9112C47.9216 79.1675 47.9079 79.423 47.8883 79.6775L47.7609 81.2027C47.6753 82.2195 47.5924 83.2366 47.4808 84.2488C47.3648 85.2601 47.2134 86.2652 46.9992 87.2593C46.5693 89.2471 45.9847 91.2076 45.2708 93.1453C44.914 94.1142 44.5215 95.0768 44.0777 96.0303C43.6292 96.9831 43.1528 97.9308 42.5527 98.8568L42.0718 98.7721C41.8247 97.6967 41.7011 96.6431 41.6056 95.5944C41.5146 94.5466 41.475 93.5078 41.4711 92.4753C41.463 90.4103 41.5842 88.368 41.8601 86.3531C41.9988 85.3457 42.2003 84.3495 42.4372 83.3594C42.6785 82.3702 42.9485 81.386 43.2158 80.4013L43.6177 78.9245C43.6864 78.6786 43.7609 78.4338 43.8395 78.1897C43.914 77.9449 43.9983 77.7018 44.0829 77.4588C44.4192 76.4863 44.8326 75.5274 45.2307 74.5657C45.6272 73.6039 45.9992 72.6377 46.2688 71.6534C46.5395 70.6693 46.7408 69.673 46.8321 68.6573C46.9266 67.6422 46.8898 66.6039 46.8085 65.5577C46.7358 64.5131 46.6305 63.4627 46.6571 62.4356C46.6718 61.4064 46.8234 60.4014 47.0503 59.4096C47.2711 58.4167 47.5326 57.431 47.8475 56.4547C48.1633 55.4786 48.5285 54.5112 48.9638 53.5561C49.4058 52.6023 49.8871 51.6553 50.5414 50.7389L51.0222 50.8237Z" fill="#FF002B"/>
<path d="M51.0257 50.7812C51.511 51.7974 51.8205 52.8135 52.0902 53.8296C52.353 54.8457 52.5447 55.8619 52.6861 56.878C52.8267 57.8941 52.9132 58.9103 52.9581 59.9264C53.0093 60.9425 52.9842 61.9586 52.8199 62.9748C52.6678 63.9909 52.3817 65.007 52.1287 66.0231C51.8669 67.0393 51.6504 68.0554 51.5672 69.0715C51.4807 70.0877 51.5059 71.1038 51.6016 72.1199C51.6962 73.136 51.8948 74.1521 52.1183 75.1683C52.3433 76.1844 52.584 77.2005 52.7463 78.2167C52.7873 78.4707 52.8282 78.7247 52.859 78.9787C52.8941 79.2328 52.9249 79.4868 52.9499 79.7408L53.0892 81.265C53.1815 82.2812 53.2765 83.2973 53.3423 84.3134C53.4037 85.3295 53.4292 86.3457 53.3908 87.3618C53.3126 89.394 53.0773 91.4263 52.7108 93.4585C52.5276 94.4747 52.3083 95.4908 52.0367 96.5069C51.7605 97.523 51.4559 98.5392 51.0258 99.5553H50.5375C50.1073 98.5392 49.8027 97.523 49.5265 96.5069C49.2549 95.4908 49.0356 94.4746 48.8524 93.4585C48.4859 91.4263 48.2506 89.394 48.1724 87.3618C48.1341 86.3457 48.1596 85.3295 48.2209 84.3134C48.2867 83.2973 48.3817 82.2811 48.474 81.265L48.6134 79.7408C48.6383 79.4868 48.6692 79.2328 48.7043 78.9787C48.735 78.7247 48.7759 78.4707 48.817 78.2167C48.9793 77.2005 49.2199 76.1844 49.445 75.1683C49.6684 74.1521 49.867 73.136 49.9616 72.1199C50.0573 71.1038 50.0825 70.0876 49.996 69.0715C49.9129 68.0554 49.6963 67.0393 49.4346 66.0231C49.1816 65.007 48.8955 63.9909 48.7433 62.9748C48.579 61.9586 48.5539 60.9425 48.6051 59.9264C48.6501 58.9103 48.7365 57.8941 48.8771 56.878C49.0186 55.8619 49.2102 54.8457 49.473 53.8296C49.7428 52.8135 50.0523 51.7974 50.5375 50.7812H51.0257Z" fill="#FF002B"/>
<path d="M51.0226 50.7389C51.6768 51.6553 52.1581 52.6023 52.6002 53.5561C53.0355 54.5112 53.4006 55.4786 53.7164 56.4547C54.0313 57.431 54.2929 58.4167 54.5136 59.4096C54.7405 60.4014 54.8922 61.4064 54.9069 62.4356C54.9335 63.4627 54.8282 64.5131 54.7555 65.5577C54.6741 66.6039 54.6374 67.6422 54.7319 68.6573C54.8232 69.673 55.0244 70.6693 55.2951 71.6534C55.5647 72.6376 55.9368 73.6039 56.3333 74.5657C56.7313 75.5273 57.1448 76.4863 57.4811 77.4588C57.5656 77.7018 57.65 77.9449 57.7244 78.1897C57.8031 78.4338 57.8776 78.6786 57.9462 78.9245L58.3482 80.4013C58.6155 81.386 58.8855 82.3702 59.1267 83.3594C59.3636 84.3495 59.5651 85.3457 59.7039 86.3531C59.9797 88.368 60.1009 90.4103 60.0929 92.4753C60.0889 93.5078 60.0494 94.5466 59.9584 95.5944C59.8628 96.6431 59.7392 97.6967 59.4921 98.7721L59.0112 98.8568C58.4112 97.9308 57.9347 96.9831 57.4863 96.0303C57.0424 95.0768 56.65 94.1142 56.2931 93.1453C55.5793 91.2076 54.9947 89.2471 54.5647 87.2593C54.3505 86.2652 54.1992 85.2601 54.0832 84.2488C53.9715 83.2366 53.8886 82.2195 53.803 81.2027L53.6756 79.6775C53.6561 79.423 53.6423 79.1675 53.6328 78.9112C53.619 78.6557 53.6151 78.3984 53.6114 78.1411C53.5948 77.1123 53.6554 76.0698 53.7006 75.03C53.7442 73.9905 53.7633 72.9553 53.68 71.9382C53.5978 70.9209 53.4462 69.9158 53.1846 68.9302C52.9262 67.9439 52.5365 66.9808 52.1023 66.0256C51.6767 65.0689 51.2185 64.1178 50.8922 63.1436C50.554 62.1714 50.3528 61.1751 50.2268 60.1655C50.0946 59.157 50.0032 58.1413 49.9653 57.1162C49.9281 56.091 49.9404 55.057 50.0228 54.0107C50.112 52.9631 50.2404 51.9087 50.5417 50.8237L51.0226 50.7389Z" fill="#FF002B"/>
<path d="M51.012 50.6978C51.8155 51.4867 52.4539 52.3356 53.0549 53.1982C53.6494 54.0632 54.177 54.9525 54.6575 55.8589C55.1372 56.7657 55.5659 57.691 55.9557 58.6305C56.3514 59.5678 56.6753 60.5313 56.8684 61.5423C57.073 62.5492 57.1517 63.6019 57.2615 64.6432C57.363 65.6876 57.5071 66.7165 57.7765 67.6998C58.0427 68.6842 58.414 69.6305 58.8514 70.5526C59.2878 71.4751 59.822 72.362 60.3795 73.2404C60.9386 74.1183 61.5122 74.9908 62.0123 75.8902C62.1377 76.1148 62.263 76.3396 62.3788 76.5678C62.4987 76.7945 62.6146 77.0226 62.7249 77.2528L63.3772 78.6374C63.8114 79.5607 64.2482 80.4831 64.6576 81.4154C65.0628 82.3493 65.4343 83.2954 65.7458 84.2634C66.3673 86.1998 66.8413 88.19 67.192 90.225C67.3674 91.2425 67.5088 92.2724 67.6012 93.3201C67.6892 94.3694 67.7504 95.4285 67.6938 96.5304L67.2349 96.6974C66.4832 95.8897 65.8494 95.0391 65.2423 94.1787C64.6396 93.3167 64.086 92.4369 63.5663 91.5447C62.5268 89.7603 61.6106 87.9311 60.8421 86.0481C60.4585 85.1064 60.1349 84.1429 59.8451 83.167C59.5594 82.1897 59.3011 81.2024 59.0403 80.2159L58.6499 78.736C58.5865 78.4887 58.5286 78.2395 58.4747 77.9888C58.4167 77.7395 58.3682 77.4868 58.3199 77.2341C58.1249 76.2237 58.0035 75.1866 57.8674 74.1548C57.7299 73.1235 57.569 72.1007 57.3103 71.1135C57.0527 70.1259 56.7289 69.1625 56.3001 68.2372C55.8743 67.3108 55.3234 66.43 54.7298 65.5647C54.1446 64.6964 53.5282 63.8394 53.0377 62.9366C52.5358 62.0379 52.1646 61.0916 51.8652 60.1193C51.5599 59.1491 51.2936 58.1646 51.0782 57.1617C50.8636 56.1585 50.6961 55.1381 50.5956 54.0933C50.5015 53.0462 50.4448 51.9855 50.5532 50.8647L51.012 50.6978Z" fill="#FF002B"/>
<path d="M50.9932 50.6592C51.9214 51.2966 52.6975 52.0218 53.4392 52.7669C54.1749 53.5155 54.8489 54.2997 55.4795 55.1089C56.1093 55.9186 56.6922 56.7554 57.2392 57.6129C57.7917 58.4673 58.2779 59.3598 58.6438 60.322C59.0201 61.278 59.2803 62.3011 59.5693 63.3076C59.8507 64.3185 60.1713 65.3067 60.6073 66.2283C61.0404 67.1515 61.5703 68.0189 62.1613 68.8511C62.7513 69.6838 63.4313 70.4645 64.1329 71.2327C64.8359 72.0002 65.5523 72.7599 66.201 73.5587C66.3635 73.7581 66.5259 73.9577 66.6796 74.1623C66.837 74.3648 66.9907 74.5694 67.1394 74.7769L68.0222 76.0272C68.6101 76.861 69.2005 77.6935 69.7655 78.5406C70.3267 79.3899 70.8569 80.2572 71.3317 81.1563C72.2801 82.9554 73.0924 84.833 73.7912 86.7763C74.1406 87.7479 74.4587 88.7375 74.7316 89.7533C75.0005 90.7714 75.2447 91.8037 75.3803 92.8988L74.9574 93.1429C74.0768 92.478 73.3049 91.7503 72.5576 91.0084C71.8144 90.2642 71.1164 89.4939 70.4497 88.7055C69.1162 87.1288 67.8963 85.4864 66.8124 83.7655C66.2711 82.9047 65.7851 82.012 65.3302 81.1013C64.8791 80.1884 64.4533 79.2609 64.0252 78.3348L63.3838 76.9451C63.2784 76.7127 63.178 76.4772 63.0814 76.2397C62.9811 76.0043 62.8895 75.7639 62.798 75.5234C62.4305 74.5622 62.1308 73.5619 61.8177 72.5694C61.5031 71.5777 61.1671 70.5984 60.7409 69.6711C60.3157 68.7432 59.8295 67.8506 59.2465 67.0139C58.6664 66.1755 57.9709 65.4037 57.2361 64.6546C56.5089 63.9012 55.7531 63.1642 55.1132 62.3603C54.4629 61.5624 53.9331 60.695 53.4694 59.7894C53.0003 58.887 52.567 57.9638 52.1807 57.0135C51.7952 56.0627 51.4531 55.0869 51.1727 54.0755C50.8982 53.0607 50.6582 52.0259 50.5703 50.9033L50.9932 50.6592Z" fill="#FF002B"/>
<path d="M50.9697 50.6244C51.9946 51.0909 52.8848 51.6703 53.7446 52.2754C54.5991 52.8848 55.3991 53.54 56.1606 54.2275C56.9214 54.9155 57.6408 55.6384 58.3284 56.3879C59.0208 57.1334 59.6547 57.9279 60.182 58.8119C60.7186 59.6881 61.1526 60.6504 61.612 61.5914C62.0646 62.5381 62.5519 63.4556 63.1413 64.2875C63.7282 65.1215 64.4006 65.8837 65.1271 66.6006C65.8527 67.3182 66.658 67.9689 67.4823 68.6037C68.3079 69.2374 69.1454 69.8611 69.9229 70.5352C70.1176 70.7034 70.3122 70.8717 70.4991 71.0466C70.6893 71.2186 70.8762 71.3934 71.0586 71.5719L72.1451 72.65C72.8689 73.369 73.5948 74.0864 74.2984 74.8225C74.9986 75.5614 75.6712 76.3235 76.295 77.1265C77.5414 78.7336 78.6675 80.4416 79.693 82.234C80.2058 83.1301 80.691 84.0495 81.1361 85.0025C81.5777 85.9584 81.9975 86.9326 82.3211 87.9875L81.9471 88.3014C80.9644 87.7995 80.0779 87.2169 79.2132 86.616C78.352 86.0122 77.5308 85.3748 76.7373 84.7141C75.1503 83.3929 73.6637 81.9873 72.2975 80.4808C71.615 79.7271 70.9813 78.9323 70.3752 78.1144C69.7724 77.2938 69.1921 76.4543 68.6096 75.6166L67.7366 74.3594C67.5924 74.1488 67.4528 73.9344 67.3164 73.7172C67.1767 73.5028 67.0447 73.282 66.9128 73.061C66.384 72.1782 65.9152 71.2452 65.4345 70.3221C64.9525 69.4001 64.4515 68.494 63.8708 67.6548C63.291 66.8149 62.6571 66.0203 61.9377 65.2975C61.2208 64.5726 60.4018 63.9333 59.5481 63.3232C58.7012 62.7074 57.8288 62.1129 57.0591 61.4323C56.2801 60.7595 55.6077 59.9973 54.9938 59.186C54.3751 58.3787 53.7881 57.5447 53.2427 56.6759C52.6979 55.8066 52.1915 54.905 51.7397 53.9577C51.2932 53.0059 50.8772 52.0285 50.5957 50.9383L50.9697 50.6244Z" fill="#FF002B"/>
<path d="M50.9389 50.5942C52.0291 50.8757 53.0065 51.2918 53.9583 51.7383C54.9056 52.1901 55.8072 52.6964 56.6765 53.2412C57.5453 53.7867 58.3793 54.3736 59.1866 54.9923C59.9979 55.6063 60.7601 56.2787 61.4329 57.0577C62.1135 57.8274 62.708 58.6997 63.3238 59.5466C63.9339 60.4003 64.5732 61.2193 65.2981 61.9362C66.0209 62.6556 66.8155 63.2895 67.6554 63.8693C68.4946 64.45 69.4007 64.951 70.3227 65.433C71.2458 65.9138 72.1788 66.3826 73.0616 66.9114C73.2826 67.0432 73.5034 67.1752 73.7178 67.3149C73.935 67.4513 74.1494 67.591 74.36 67.7352L75.6172 68.6081C76.4549 69.1906 77.2944 69.771 78.1151 70.3737C78.9329 70.9799 79.7277 71.6135 80.4814 72.296C81.9879 73.6623 83.3935 75.1488 84.7147 76.7359C85.3754 77.5293 86.0128 78.3505 86.6166 79.2117C87.2175 80.0764 87.8001 80.963 88.302 81.9456L87.9881 82.3197C86.9332 81.996 85.959 81.5762 85.0031 81.1347C84.0501 80.6895 83.1308 80.2044 82.2346 79.6916C80.4422 78.666 78.7342 77.5399 77.1271 76.2936C76.3241 75.6698 75.562 74.9971 74.8231 74.2969C74.087 73.5934 73.3697 72.8675 72.6506 72.1436L71.5726 71.0571C71.394 70.8747 71.2192 70.6878 71.0472 70.4976C70.8723 70.3108 70.704 70.1162 70.5358 69.9215C69.8618 69.1439 69.238 68.3065 68.6043 67.4809C67.9695 66.6566 67.3188 65.8513 66.6012 65.1257C65.8843 64.3992 65.1221 63.7267 64.2881 63.1398C63.4563 62.5504 62.5387 62.0631 61.592 61.6105C60.651 61.1511 59.6887 60.7172 58.8125 60.1806C57.9285 59.6532 57.1339 59.0193 56.3885 58.3269C55.639 57.6394 54.9161 56.92 54.2281 56.1591C53.5407 55.3976 52.8854 54.5976 52.276 53.7431C51.671 52.8834 51.0915 51.9931 50.625 50.9683L50.9389 50.5942Z" fill="#FF002B"/>
<path d="M50.9043 50.5698C52.0269 50.6577 53.0616 50.8977 54.0765 51.1722C55.0879 51.4526 56.0637 51.7947 57.0144 52.1803C57.9647 52.5666 58.8879 52.9998 59.7904 53.4689C60.696 53.9326 61.5634 54.4624 62.3613 55.1128C63.1652 55.7526 63.9021 56.5084 64.6556 57.2356C65.4047 57.9704 66.1765 58.6659 67.0149 59.246C67.8516 59.829 68.7442 60.3153 69.6721 60.7404C70.5993 61.1666 71.5786 61.5026 72.5704 61.8172C73.5629 62.1304 74.5632 62.43 75.5244 62.7975C75.7649 62.889 76.0053 62.9806 76.2407 63.0809C76.4782 63.1776 76.7137 63.2779 76.9461 63.3833L78.3358 64.0247C79.2619 64.4528 80.1894 64.8787 81.1023 65.3297C82.013 65.7846 82.9057 66.2706 83.7665 66.8119C85.4874 67.8958 87.1297 69.1157 88.7065 70.4492C89.4949 71.1159 90.2652 71.8139 91.0094 72.5572C91.7513 73.3044 92.479 74.0763 93.1439 74.9569L92.8997 75.3798C91.8047 75.2442 90.7724 75 89.7543 74.7311C88.7385 74.4582 87.7488 74.1401 86.7773 73.7907C84.834 73.092 82.9564 72.2796 81.1573 71.3312C80.2581 70.8563 79.3909 70.3262 78.5416 69.765C77.6945 69.2 76.862 68.6097 76.0282 68.0217L74.7779 67.1389C74.5703 66.9903 74.3657 66.8365 74.1633 66.6791C73.9587 66.5254 73.7591 66.3631 73.5596 66.2005C72.7608 65.5518 72.0012 64.8354 71.2337 64.1324C70.4654 63.4308 69.6847 62.7507 68.852 62.1608C68.0199 61.5698 67.1525 61.04 66.2293 60.6068C65.3077 60.1708 64.3195 59.8502 63.3086 59.5688C62.3021 59.2799 61.279 59.0196 60.323 58.6433C59.3608 58.2775 58.4683 57.7912 57.6139 57.2388C56.7564 56.6918 55.9196 56.1088 55.1099 55.479C54.3006 54.8485 53.5165 54.1744 52.7679 53.4387C52.0228 52.6971 51.2975 51.921 50.6602 50.9927L50.9043 50.5698Z" fill="#FF002B"/>
<path d="M50.8662 50.5519C51.987 50.4435 53.0477 50.5002 54.0948 50.5942C55.1396 50.6948 56.1599 50.8622 57.1632 51.0768C58.1661 51.2923 59.1505 51.5586 60.1207 51.8639C61.0931 52.1633 62.0394 52.5344 62.938 53.0363C63.8408 53.5268 64.6978 54.1432 65.5662 54.7285C66.4315 55.322 67.3123 55.873 68.2387 56.2987C69.1639 56.7275 70.1274 57.0514 71.115 57.309C72.1022 57.5676 73.1249 57.7286 74.1562 57.8661C75.188 58.0022 76.2252 58.1236 77.2356 58.3186C77.4883 58.3669 77.741 58.4154 77.9902 58.4733C78.2409 58.5273 78.4902 58.5851 78.7374 58.6486L80.2174 59.0389C81.2038 59.2997 82.1911 59.558 83.1685 59.8437C84.1443 60.1336 85.1079 60.4572 86.0496 60.8407C87.9326 61.6093 89.7618 62.5255 91.5461 63.565C92.4383 64.0846 93.3182 64.6383 94.1801 65.241C95.0405 65.8481 95.8912 66.4819 96.6989 67.2336L96.5319 67.6924C95.4299 67.7491 94.3709 67.6878 93.3216 67.5999C92.2739 67.5075 91.244 67.3661 90.2265 67.1907C88.1915 66.84 86.2013 66.366 84.2648 65.7445C83.2969 65.4329 82.3507 65.0614 81.4169 64.6562C80.4845 64.2469 79.5622 63.8101 78.6389 63.3758L77.2543 62.7236C77.0241 62.6132 76.7959 62.4974 76.5692 62.3775C76.341 62.2617 76.1163 62.1364 75.8916 62.011C74.9923 61.5109 74.1198 60.9372 73.2419 60.3782C72.3635 59.8207 71.4765 59.2865 70.554 58.8501C69.6319 58.4126 68.6857 58.0414 67.7013 57.7751C66.718 57.5058 65.6891 57.3617 64.6447 57.2602C63.6033 57.1503 62.5506 57.0717 61.5437 56.8671C60.5327 56.6739 59.5693 56.35 58.6319 55.9543C57.6925 55.5646 56.7672 55.1358 55.8604 54.6562C54.9539 54.1757 54.0646 53.6481 53.1997 53.0536C52.3371 52.4526 51.4881 51.8142 50.6992 51.0107L50.8662 50.5519Z" fill="#FF002B"/>
<path d="M50.8251 50.5409C51.91 50.2395 52.9644 50.1111 54.012 50.022C55.0583 49.9395 56.0923 49.9273 57.1176 49.9644C58.1427 50.0024 59.1584 50.0937 60.1669 50.2259C61.1764 50.3519 62.1728 50.5531 63.1449 50.8913C64.1192 51.2176 65.0702 51.6758 66.0269 52.1014C66.9822 52.5357 67.9453 52.9253 68.9315 53.1837C69.9172 53.4453 70.9223 53.597 71.9396 53.6792C72.9567 53.7625 73.9919 53.7433 75.0313 53.6997C76.0711 53.6545 77.1136 53.594 78.1425 53.6106C78.3998 53.6143 78.657 53.6181 78.9126 53.6319C79.1688 53.6415 79.4244 53.6552 79.6788 53.6748L81.2041 53.8022C82.2208 53.8878 83.238 53.9707 84.2501 54.0823C85.2614 54.1983 86.2666 54.3497 87.2606 54.5639C89.2484 54.9938 91.2089 55.5784 93.1467 56.2922C94.1155 56.6491 95.0781 57.0415 96.0317 57.4854C96.9844 57.9339 97.9322 58.4104 98.8582 59.0104L98.7734 59.4912C97.698 59.7384 96.6444 59.862 95.5958 59.9575C94.5479 60.0485 93.5091 60.0881 92.4766 60.092C90.4116 60.1001 88.3694 59.9789 86.3544 59.703C85.3471 59.5643 84.3508 59.3627 83.3608 59.1259C82.3715 58.8846 81.3873 58.6146 80.4026 58.3473L78.9258 57.9454C78.68 57.8767 78.4351 57.8022 78.1911 57.7236C77.9462 57.6491 77.7031 57.5648 77.4601 57.4802C76.4876 57.1439 75.5287 56.7305 74.5671 56.3324C73.6052 55.9359 72.639 55.5638 71.6547 55.2943C70.6707 55.0236 69.6743 54.8223 68.6586 54.731C67.6435 54.6365 66.6052 54.6733 65.5591 54.7546C64.5144 54.8273 63.4641 54.9326 62.437 54.906C61.4078 54.8913 60.4027 54.7397 59.4109 54.5128C58.418 54.292 57.4323 54.0305 56.4561 53.7156C55.4799 53.3998 54.5125 53.0346 53.5575 52.5993C52.6036 52.1573 51.6567 51.676 50.7402 51.0217L50.8251 50.5409Z" fill="#FF002B"/>
<path d="M50.7812 50.5371C51.7974 50.0519 52.8135 49.7424 53.8296 49.4727C54.8457 49.2098 55.8619 49.0182 56.878 48.8767C57.8941 48.7361 58.9103 48.6497 59.9264 48.6048C60.9425 48.5535 61.9586 48.5787 62.9748 48.7429C63.9909 48.8951 65.007 49.1812 66.0231 49.4342C67.0393 49.696 68.0554 49.9125 69.0715 49.9957C70.0877 50.0822 71.1038 50.057 72.1199 49.9613C73.136 49.8667 74.1521 49.6681 75.1683 49.4446C76.1844 49.2196 77.2005 48.9789 78.2167 48.8166C78.4707 48.7756 78.7247 48.7347 78.9787 48.7039C79.2328 48.6688 79.4868 48.638 79.7408 48.613L81.265 48.4736C82.2812 48.3814 83.2973 48.2864 84.3134 48.2206C85.3295 48.1592 86.3457 48.1337 87.3618 48.172C89.394 48.2503 91.4263 48.4856 93.4585 48.8521C94.4747 49.0352 95.4908 49.2546 96.5069 49.5261C97.523 49.8023 98.5392 50.107 99.5553 50.5371V51.0254C98.5392 51.4555 97.523 51.7602 96.5069 52.0364C95.4908 52.3079 94.4746 52.5273 93.4585 52.7105C91.4263 53.077 89.394 53.3122 87.3618 53.3905C86.3457 53.4288 85.3295 53.4033 84.3134 53.3419C83.2973 53.2761 82.2811 53.1812 81.265 53.0889L79.7408 52.9495C79.4868 52.9246 79.2328 52.8937 78.9787 52.8586C78.7247 52.8279 78.4707 52.787 78.2167 52.7459C77.2005 52.5836 76.1844 52.343 75.1683 52.1179C74.1521 51.8945 73.136 51.6958 72.1199 51.6013C71.1038 51.5055 70.0876 51.4804 69.0715 51.5668C68.0554 51.65 67.0393 51.8665 66.0231 52.1283C65.007 52.3813 63.9909 52.6674 62.9748 52.8196C61.9586 52.9838 60.9425 53.009 59.9264 52.9578C58.9103 52.9128 57.8941 52.8264 56.878 52.6858C55.8619 52.5443 54.8457 52.3527 53.8296 52.0898C52.8135 51.8201 51.7974 51.5106 50.7812 51.0254V50.5371Z" fill="#FF002B"/>
<path d="M50.7402 50.5408C51.6567 49.8865 52.6036 49.4052 53.5575 48.9632C54.5125 48.5278 55.4799 48.1627 56.4561 47.8469C57.4323 47.532 58.418 47.2704 59.4109 47.0497C60.4027 46.8228 61.4078 46.6711 62.437 46.6565C63.4641 46.6299 64.5145 46.7352 65.5591 46.8078C66.6052 46.8892 67.6435 46.926 68.6586 46.8315C69.6743 46.7402 70.6707 46.5389 71.6547 46.2682C72.639 45.9986 73.6052 45.6266 74.5671 45.2301C75.5287 44.832 76.4876 44.4186 77.4601 44.0822C77.7031 43.9977 77.9462 43.9133 78.1911 43.8389C78.4351 43.7603 78.6799 43.6858 78.9258 43.6171L80.4026 43.2152C81.3873 42.9478 82.3715 42.6778 83.3608 42.4366C84.3508 42.1997 85.3471 41.9982 86.3544 41.8595C88.3694 41.5836 90.4116 41.4624 92.4766 41.4705C93.5091 41.4744 94.5479 41.514 95.5958 41.6049C96.6444 41.7005 97.698 41.8241 98.7734 42.0712L98.8582 42.5521C97.9322 43.1521 96.9844 43.6286 96.0317 44.0771C95.0781 44.5209 94.1155 44.9134 93.1467 45.2702C91.2089 45.9841 89.2484 46.5687 87.2606 46.9986C86.2666 47.2128 85.2614 47.3642 84.2501 47.4801C83.238 47.5918 82.2208 47.6747 81.2041 47.7603L79.6789 47.8877C79.4243 47.9073 79.1688 47.921 78.9126 47.9306C78.657 47.9444 78.3998 47.9482 78.1425 47.9519C77.1136 47.9685 76.0711 47.908 75.0314 47.8628C73.9919 47.8192 72.9567 47.8 71.9396 47.8833C70.9223 47.9655 69.9172 48.1172 68.9315 48.3788C67.9453 48.6371 66.9822 49.0268 66.027 49.4611C65.0702 49.8867 64.1192 50.3449 63.1449 50.6711C62.1728 51.0094 61.1764 51.2106 60.1669 51.3366C59.1584 51.4688 58.1427 51.5601 57.1176 51.5981C56.0923 51.6352 55.0583 51.6229 54.012 51.5405C52.9645 51.4513 51.91 51.323 50.8251 51.0216L50.7402 50.5408Z" fill="#FF002B"/>
<path d="M50.6992 50.5519C51.4881 49.7484 52.3371 49.11 53.1997 48.509C54.0646 47.9145 54.954 47.3869 55.8604 46.9064C56.7672 46.4267 57.6925 45.998 58.6319 45.6082C59.5693 45.2125 60.5327 44.8886 61.5437 44.6954C62.5506 44.4909 63.6033 44.4122 64.6447 44.3024C65.6891 44.2009 66.718 44.0568 67.7013 43.7874C68.6857 43.5211 69.6319 43.1499 70.554 42.7125C71.4765 42.2761 72.3635 41.7419 73.2419 41.1844C74.1198 40.6253 74.9923 40.0517 75.8916 39.5516C76.1163 39.4262 76.341 39.3009 76.5692 39.1851C76.7959 39.0652 77.0241 38.9494 77.2543 38.839L78.6389 38.1868C79.5622 37.7525 80.4845 37.3157 81.4169 36.9064C82.3507 36.5012 83.2969 36.1297 84.2648 35.8182C86.2013 35.1966 88.1914 34.7226 90.2265 34.3719C91.244 34.1966 92.2739 34.0551 93.3216 33.9627C94.3709 33.8748 95.4299 33.8135 96.5319 33.8702L96.6989 34.329C95.8912 35.0807 95.0405 35.7145 94.1801 36.3216C93.3182 36.9243 92.4383 37.478 91.5461 37.9977C89.7618 39.0371 87.9325 39.9533 86.0496 40.7219C85.1079 41.1054 84.1443 41.429 83.1685 41.7189C82.1911 42.0046 81.2038 42.2629 80.2174 42.5237L78.7374 42.914C78.4902 42.9775 78.2409 43.0354 77.9902 43.0893C77.741 43.1473 77.4883 43.1957 77.2356 43.2441C76.2252 43.439 75.188 43.5605 74.1562 43.6965C73.1249 43.8341 72.1022 43.995 71.115 44.2536C70.1274 44.5112 69.1639 44.8351 68.2387 45.2639C67.3123 45.6896 66.4315 46.2406 65.5662 46.8341C64.6978 47.4194 63.8408 48.0358 62.938 48.5263C62.0394 49.0282 61.0931 49.3994 60.1207 49.6987C59.1505 50.004 58.1661 50.2704 57.1632 50.4858C56.1599 50.7004 55.1395 50.8678 54.0948 50.9684C53.0477 51.0625 51.987 51.1191 50.8662 51.0107L50.6992 50.5519Z" fill="#FF002B"/>
<path d="M50.6602 50.5698C51.2975 49.6416 52.0228 48.8655 52.7679 48.1238C53.5165 47.3881 54.3006 46.7141 55.1099 46.0835C55.9196 45.4537 56.7564 44.8707 57.6139 44.3238C58.4683 43.7713 59.3608 43.285 60.323 42.9192C61.279 42.5429 62.3021 42.2826 63.3086 41.9937C64.3195 41.7123 65.3077 41.3917 66.2293 40.9557C67.1525 40.5226 68.0199 39.9927 68.852 39.4017C69.6847 38.8117 70.4654 38.1317 71.2337 37.4301C72.0012 36.7271 72.7608 36.0107 73.5596 35.362C73.7591 35.1995 73.9587 35.037 74.1633 34.8834C74.3658 34.726 74.5703 34.5722 74.7779 34.4236L76.0282 33.5408C76.862 32.9529 77.6945 32.3625 78.5416 31.7975C79.3909 31.2363 80.2581 30.7061 81.1573 30.2313C82.9564 29.2829 84.834 28.4705 86.7773 27.7718C87.7488 27.4224 88.7385 27.1043 89.7543 26.8314C90.7724 26.5625 91.8047 26.3183 92.8997 26.1827L93.1439 26.6056C92.479 27.4862 91.7513 28.2581 91.0094 29.0054C90.2652 29.7486 89.4949 30.4466 88.7065 31.1133C87.1297 32.4468 85.4874 33.6667 83.7665 34.7506C82.9057 35.2919 82.013 35.7779 81.1023 36.2328C80.1894 36.6839 79.2619 37.1097 78.3358 37.5378L76.9461 38.1792C76.7137 38.2846 76.4782 38.3849 76.2407 38.4816C76.0053 38.5819 75.7649 38.6735 75.5244 38.765C74.5632 39.1325 73.5629 39.4322 72.5704 39.7453C71.5786 40.0599 70.5993 40.3959 69.6721 40.8221C68.7442 41.2473 67.8516 41.7335 67.0149 42.3165C66.1765 42.8966 65.4047 43.5921 64.6556 44.3269C63.9021 45.0541 63.1652 45.8099 62.3613 46.4497C61.5634 47.1001 60.696 47.6299 59.7904 48.0936C58.8879 48.5627 57.9647 48.996 57.0144 49.3822C56.0637 49.7678 55.0879 50.1099 54.0765 50.3903C53.0616 50.6648 52.0269 50.9048 50.9043 50.9927L50.6602 50.5698Z" fill="#FF002B"/>
<path d="M50.625 50.5942C51.0915 49.5694 51.671 48.6791 52.276 47.8193C52.8854 46.9648 53.5406 46.1649 54.2281 45.4033C54.9162 44.6425 55.639 43.9231 56.3885 43.2355C57.134 42.5431 57.9285 41.9092 58.8125 41.3819C59.6887 40.8453 60.651 40.4114 61.592 39.952C62.5387 39.4994 63.4563 39.0121 64.2881 38.4226C65.1221 37.8357 65.8843 37.1633 66.6012 36.4368C67.3188 35.7112 67.9695 34.9059 68.6043 34.0816C69.238 33.256 69.8618 32.4185 70.5358 31.641C70.704 31.4463 70.8723 31.2517 71.0472 31.0648C71.2192 30.8747 71.394 30.6877 71.5726 30.5054L72.6506 29.4189C73.3697 28.695 74.087 27.9691 74.8231 27.2656C75.562 26.5654 76.3241 25.8927 77.1271 25.2689C78.7342 24.0225 80.4422 22.8965 82.2346 21.8709C83.1308 21.3581 84.0501 20.8729 85.0031 20.4278C85.959 19.9862 86.9332 19.5665 87.9881 19.2428L88.302 19.6168C87.8001 20.5995 87.2175 21.486 86.6166 22.3508C86.0128 23.2119 85.3754 24.0331 84.7147 24.8266C83.3935 26.4137 81.9879 27.9002 80.4814 29.2664C79.7277 29.949 78.9329 30.5826 78.1151 31.1887C77.2944 31.7915 76.4549 32.3719 75.6172 32.9543L74.36 33.8273C74.1494 33.9715 73.935 34.1111 73.7178 34.2475C73.5034 34.3873 73.2826 34.5192 73.0616 34.6511C72.1788 35.1799 71.2458 35.6487 70.3227 36.1294C69.4007 36.6114 68.4946 37.1124 67.6554 37.6931C66.8155 38.273 66.0209 38.9068 65.2981 39.6262C64.5732 40.3431 63.9339 41.1621 63.3238 42.0158C62.708 42.8628 62.1135 43.7351 61.4329 44.5048C60.7601 45.2838 59.9979 45.9562 59.1866 46.5701C58.3793 47.1888 57.5453 47.7758 56.6765 48.3213C55.8072 48.866 54.9056 49.3724 53.9583 49.8242C53.0065 50.2707 52.0292 50.6868 50.9389 50.9682L50.625 50.5942Z" fill="#FF002B"/>
<path d="M50.5957 50.6243C50.8772 49.5341 51.2932 48.5567 51.7397 47.6049C52.1915 46.6576 52.6979 45.756 53.2427 44.8867C53.7881 44.0179 54.3751 43.1839 54.9938 42.3766C55.6077 41.5653 56.2801 40.8031 57.0591 40.1303C57.8288 39.4497 58.7012 38.8552 59.5481 38.2394C60.4018 37.6293 61.2208 36.99 61.9377 36.2651C62.6571 35.5423 63.2909 34.7477 63.8708 33.9078C64.4515 33.0686 64.9525 32.1625 65.4345 31.2405C65.9152 30.3174 66.384 29.3844 66.9128 28.5016C67.0447 28.2806 67.1767 28.0598 67.3164 27.8454C67.4528 27.6282 67.5924 27.4138 67.7366 27.2032L68.6096 25.946C69.1921 25.1083 69.7724 24.2688 70.3752 23.4481C70.9814 22.6303 71.615 21.8355 72.2975 21.0818C73.6637 19.5753 75.1503 18.1697 76.7373 16.8485C77.5308 16.1878 78.352 15.5504 79.2132 14.9466C80.0779 14.3457 80.9644 13.7631 81.9471 13.2612L82.3211 13.5751C81.9975 14.63 81.5777 15.6042 81.1361 16.5602C80.691 17.5131 80.2059 18.4325 79.693 19.3286C78.6675 21.121 77.5414 22.829 76.295 24.4361C75.6712 25.2392 74.9986 26.0012 74.2984 26.7401C73.5948 27.4762 72.8689 28.1936 72.1451 28.9127L71.0586 29.9907C70.8762 30.1693 70.6893 30.344 70.4991 30.5161C70.3123 30.6909 70.1176 30.8592 69.9229 31.0274C69.1454 31.7015 68.3079 32.3252 67.4824 32.9589C66.658 33.5937 65.8527 34.2444 65.1271 34.962C64.4006 35.6789 63.7282 36.4411 63.1413 37.2751C62.5519 38.107 62.0646 39.0245 61.612 39.9712C61.1526 40.9122 60.7186 41.8745 60.182 42.7507C59.6547 43.6347 59.0208 44.4293 58.3284 45.1747C57.6408 45.9243 56.9215 46.6471 56.1606 47.3351C55.3991 48.0226 54.5991 48.6778 53.7446 49.2872C52.8848 49.8923 51.9946 50.4717 50.9697 50.9382L50.5957 50.6243Z" fill="#FF002B"/>
<path d="M50.5703 50.6592C50.6582 49.5366 50.8982 48.5018 51.1727 47.487C51.4531 46.4755 51.7952 45.4997 52.1807 44.549C52.567 43.5987 53.0003 42.6755 53.4694 41.7731C53.9331 40.8674 54.4629 40 55.1132 39.2022C55.7531 38.3983 56.5089 37.6613 57.2361 36.9078C57.9709 36.1587 58.6664 35.387 59.2465 34.5486C59.8295 33.7118 60.3157 32.8192 60.7409 31.8914C61.1671 30.9641 61.5031 29.9848 61.8177 28.9931C62.1308 28.0006 62.4305 27.0003 62.798 26.0391C62.8895 25.7986 62.9811 25.5582 63.0814 25.3228C63.1781 25.0852 63.2784 24.8498 63.3838 24.6173L64.0252 23.2277C64.4533 22.3015 64.8791 21.374 65.3302 20.4612C65.7851 19.5505 66.2711 18.6577 66.8124 17.7969C67.8963 16.076 69.1162 14.4337 70.4497 12.857C71.1164 12.0686 71.8144 11.2982 72.5576 10.554C73.3049 9.81215 74.0768 9.08448 74.9574 8.41956L75.3803 8.6637C75.2447 9.75875 75.0005 10.7911 74.7316 11.8092C74.4587 12.8249 74.1406 13.8146 73.7912 14.7862C73.0925 16.7294 72.2801 18.607 71.3317 20.4061C70.8568 21.3053 70.3267 22.1725 69.7655 23.0218C69.2005 23.8689 68.6101 24.7014 68.0222 25.5353L67.1394 26.7856C66.9907 26.9931 66.837 27.1977 66.6796 27.4001C66.5259 27.6048 66.3635 27.8043 66.201 28.0038C65.5523 28.8026 64.8359 29.5623 64.1329 30.3298C63.4313 31.098 62.7512 31.8787 62.1613 32.7114C61.5703 33.5435 61.0405 34.4109 60.6073 35.3342C60.1713 36.2557 59.8507 37.244 59.5693 38.2549C59.2803 39.2614 59.0201 40.2844 58.6438 41.2405C58.2779 42.2026 57.7917 43.0952 57.2392 43.9495C56.6922 44.8071 56.1093 45.6438 55.4795 46.4535C54.8489 47.2628 54.1749 48.047 53.4392 48.7955C52.6976 49.5407 51.9214 50.2659 50.9932 50.9033L50.5703 50.6592Z" fill="#FF002B"/>
<path d="M50.5532 50.6978C50.4448 49.577 50.5015 48.5163 50.5956 47.4692C50.6961 46.4245 50.8636 45.4041 51.0782 44.4008C51.2936 43.3979 51.5599 42.4135 51.8652 41.4433C52.1646 40.4709 52.5358 39.5246 53.0377 38.626C53.5282 37.7232 54.1446 36.8662 54.7298 35.9979C55.3234 35.1325 55.8744 34.2517 56.3001 33.3253C56.7289 32.4001 57.0528 31.4366 57.3103 30.449C57.569 29.4619 57.7299 28.4391 57.8674 27.4078C58.0035 26.376 58.1249 25.3388 58.3199 24.3285C58.3682 24.0757 58.4167 23.823 58.4747 23.5738C58.5286 23.3231 58.5865 23.0738 58.6499 22.8266L59.0403 21.3466C59.3011 20.3602 59.5594 19.3729 59.8451 18.3955C60.1349 17.4197 60.4585 16.4561 60.8421 15.5144C61.6107 13.6315 62.5268 11.8022 63.5663 10.0179C64.086 9.1257 64.6396 8.24585 65.2423 7.38388C65.8494 6.52351 66.4832 5.67285 67.235 4.86511L67.6938 5.0321C67.7504 6.13406 67.6892 7.1931 67.6012 8.24242C67.5088 9.29013 67.3674 10.32 67.192 11.3375C66.8413 13.3725 66.3674 15.3627 65.7458 17.2992C65.4343 18.2671 65.0628 19.2132 64.6576 20.1471C64.2482 21.0794 63.8114 22.0018 63.3772 22.9251L62.7249 24.3097C62.6146 24.5399 62.4987 24.768 62.3788 24.9948C62.263 25.2229 62.1378 25.4477 62.0123 25.6724C61.5122 26.5717 60.9386 27.4442 60.3796 28.3221C59.822 29.2005 59.2879 30.0874 58.8514 31.0099C58.414 31.9321 58.0428 32.8783 57.7765 33.8627C57.5071 34.846 57.363 35.8749 57.2615 36.9193C57.1517 37.9607 57.073 39.0134 56.8684 40.0203C56.6753 41.0313 56.3514 41.9947 55.9557 42.9321C55.5659 43.8715 55.1372 44.7968 54.6575 45.7036C54.1771 46.61 53.6494 47.4993 53.0549 48.3643C52.4539 49.2269 51.8155 50.0759 51.0121 50.8648L50.5532 50.6978Z" fill="#FF002B"/>
<path d="M50.5417 50.7389C50.2404 49.654 50.112 48.5995 50.0228 47.552C49.9404 46.5057 49.9281 45.4717 49.9653 44.4464C50.0032 43.4213 50.0946 42.4056 50.2268 41.3971C50.3528 40.3875 50.554 39.3912 50.8922 38.4191C51.2185 37.4448 51.6767 36.4938 52.1023 35.537C52.5365 34.5818 52.9262 33.6187 53.1846 32.6325C53.4462 31.6468 53.5978 30.6417 53.68 29.6244C53.7633 28.6073 53.7442 27.5721 53.7006 26.5326C53.6554 25.4929 53.5948 24.4504 53.6114 23.4215C53.6151 23.1642 53.619 22.9069 53.6328 22.6514C53.6423 22.3951 53.6561 22.1396 53.6756 21.8851L53.803 20.3599C53.8886 19.3432 53.9715 18.326 54.0832 17.3139C54.1992 16.3025 54.3505 15.2974 54.5647 14.3034C54.9947 12.3156 55.5793 10.3551 56.2931 8.41733C56.65 7.44845 57.0424 6.48585 57.4863 5.53231C57.9347 4.57958 58.4112 3.63181 59.0112 2.70581L59.4921 2.7906C59.7393 3.86599 59.8628 4.91956 59.9584 5.96823C60.0494 7.01608 60.0889 8.05485 60.0929 9.08735C60.1009 11.1524 59.9797 13.1946 59.7039 15.2096C59.5652 16.2169 59.3636 17.2132 59.1267 18.2032C58.8855 19.1925 58.6155 20.1767 58.3482 21.1613L57.9462 22.6382C57.8776 22.884 57.8031 23.1288 57.7244 23.3729C57.65 23.6177 57.5656 23.8608 57.4811 24.1039C57.1448 25.0764 56.7313 26.0353 56.3333 26.9969C55.9367 27.9588 55.5647 28.925 55.2951 29.9092C55.0244 30.8933 54.8232 31.8896 54.7319 32.9053C54.6374 33.9205 54.6741 34.9588 54.7555 36.0049C54.8282 37.0495 54.9335 38.0999 54.9069 39.127C54.8922 40.1562 54.7405 41.1613 54.5136 42.1531C54.2929 43.146 54.0313 44.1316 53.7164 45.1079C53.4007 46.0841 53.0355 47.0515 52.6002 48.0065C52.1581 48.9603 51.6768 49.9073 51.0226 50.8237L50.5417 50.7389Z" fill="#FF002B"/>
<path d="M51.0265 63.5701C58.1194 63.5701 63.8693 57.8202 63.8693 50.7273C63.8693 43.6343 58.1194 37.8844 51.0265 37.8844C43.9335 37.8844 38.1836 43.6343 38.1836 50.7273C38.1836 57.8202 43.9335 63.5701 51.0265 63.5701Z" fill="url(#paint0_radial_1807_18116)"/>
<path d="M46.6135 45.2447C47.6298 45.2447 48.4536 44.4209 48.4536 43.4047C48.4536 42.3884 47.6298 41.5646 46.6135 41.5646C45.5973 41.5646 44.7734 42.3884 44.7734 43.4047C44.7734 44.4209 45.5973 45.2447 46.6135 45.2447Z" fill="url(#paint1_radial_1807_18116)"/>
<path d="M43.5432 48.4325C44.5595 48.4325 45.3833 47.6086 45.3833 46.5924C45.3833 45.5762 44.5595 44.7523 43.5432 44.7523C42.527 44.7523 41.7031 45.5762 41.7031 46.5924C41.7031 47.6086 42.527 48.4325 43.5432 48.4325Z" fill="url(#paint2_radial_1807_18116)"/>
<path d="M42.4788 52.7281C43.495 52.7281 44.3188 51.9043 44.3188 50.8881C44.3188 49.8718 43.495 49.048 42.4788 49.048C41.4625 49.048 40.6387 49.8718 40.6387 50.8881C40.6387 51.9043 41.4625 52.7281 42.4788 52.7281Z" fill="url(#paint3_radial_1807_18116)"/>
<path d="M43.7034 56.9807C44.7196 56.9807 45.5434 56.1569 45.5434 55.1406C45.5434 54.1244 44.7196 53.3005 43.7034 53.3005C42.6871 53.3005 41.8633 54.1244 41.8633 55.1406C41.8633 56.1569 42.6871 56.9807 43.7034 56.9807Z" fill="url(#paint4_radial_1807_18116)"/>
<path d="M46.8909 60.0508C47.9071 60.0508 48.7309 59.2269 48.7309 58.2107C48.7309 57.1944 47.9071 56.3706 46.8909 56.3706C45.8746 56.3706 45.0508 57.1944 45.0508 58.2107C45.0508 59.2269 45.8746 60.0508 46.8909 60.0508Z" fill="url(#paint5_radial_1807_18116)"/>
<path d="M51.1877 61.1157C52.204 61.1157 53.0278 60.2919 53.0278 59.2756C53.0278 58.2594 52.204 57.4355 51.1877 57.4355C50.1715 57.4355 49.3477 58.2594 49.3477 59.2756C49.3477 60.2919 50.1715 61.1157 51.1877 61.1157Z" fill="url(#paint6_radial_1807_18116)"/>
<path d="M55.4397 59.89C56.4559 59.89 57.2798 59.0662 57.2798 58.0499C57.2798 57.0337 56.4559 56.2098 55.4397 56.2098C54.4234 56.2098 53.5996 57.0337 53.5996 58.0499C53.5996 59.0662 54.4234 59.89 55.4397 59.89Z" fill="url(#paint7_radial_1807_18116)"/>
<path d="M58.51 56.7023C59.5262 56.7023 60.3501 55.8784 60.3501 54.8622C60.3501 53.8459 59.5262 53.0221 58.51 53.0221C57.4938 53.0221 56.6699 53.8459 56.6699 54.8622C56.6699 55.8784 57.4938 56.7023 58.51 56.7023Z" fill="url(#paint8_radial_1807_18116)"/>
<path d="M59.5745 52.4066C60.5907 52.4066 61.4145 51.5828 61.4145 50.5665C61.4145 49.5503 60.5907 48.7264 59.5745 48.7264C58.5582 48.7264 57.7344 49.5503 57.7344 50.5665C57.7344 51.5828 58.5582 52.4066 59.5745 52.4066Z" fill="url(#paint9_radial_1807_18116)"/>
<path d="M58.3498 48.1539C59.3661 48.1539 60.1899 47.3301 60.1899 46.3138C60.1899 45.2976 59.3661 44.4738 58.3498 44.4738C57.3336 44.4738 56.5098 45.2976 56.5098 46.3138C56.5098 47.3301 57.3336 48.1539 58.3498 48.1539Z" fill="url(#paint10_radial_1807_18116)"/>
<path d="M55.1623 45.084C56.1786 45.084 57.0024 44.2601 57.0024 43.2439C57.0024 42.2276 56.1786 41.4038 55.1623 41.4038C54.1461 41.4038 53.3223 42.2276 53.3223 43.2439C53.3223 44.2601 54.1461 45.084 55.1623 45.084Z" fill="url(#paint11_radial_1807_18116)"/>
<path d="M50.8655 44.019C51.8817 44.019 52.7055 43.1952 52.7055 42.1789C52.7055 41.1627 51.8817 40.3389 50.8655 40.3389C49.8492 40.3389 49.0254 41.1627 49.0254 42.1789C49.0254 43.1952 49.8492 44.019 50.8655 44.019Z" fill="url(#paint12_radial_1807_18116)"/>
<path d="M48.605 47.72C49.1624 47.72 49.6143 47.2681 49.6143 46.7107C49.6143 46.1533 49.1624 45.7014 48.605 45.7014C48.0476 45.7014 47.5957 46.1533 47.5957 46.7107C47.5957 47.2681 48.0476 47.72 48.605 47.72Z" fill="url(#paint13_radial_1807_18116)"/>
<path d="M46.9214 49.4685C47.4788 49.4685 47.9307 49.0166 47.9307 48.4592C47.9307 47.9018 47.4788 47.45 46.9214 47.45C46.364 47.45 45.9121 47.9018 45.9121 48.4592C45.9121 49.0166 46.364 49.4685 46.9214 49.4685Z" fill="url(#paint14_radial_1807_18116)"/>
<path d="M46.3374 51.8247C46.8948 51.8247 47.3467 51.3728 47.3467 50.8154C47.3467 50.258 46.8948 49.8062 46.3374 49.8062C45.78 49.8062 45.3281 50.258 45.3281 50.8154C45.3281 51.3728 45.78 51.8247 46.3374 51.8247Z" fill="url(#paint15_radial_1807_18116)"/>
<path d="M47.0093 54.1572C47.5667 54.1572 48.0186 53.7054 48.0186 53.148C48.0186 52.5905 47.5667 52.1387 47.0093 52.1387C46.4519 52.1387 46 52.5905 46 53.148C46 53.7054 46.4519 54.1572 47.0093 54.1572Z" fill="url(#paint16_radial_1807_18116)"/>
<path d="M48.7573 55.8412C49.3147 55.8412 49.7666 55.3893 49.7666 54.8319C49.7666 54.2745 49.3147 53.8226 48.7573 53.8226C48.1999 53.8226 47.748 54.2745 47.748 54.8319C47.748 55.3893 48.1999 55.8412 48.7573 55.8412Z" fill="url(#paint17_radial_1807_18116)"/>
<path d="M51.1147 56.4252C51.6722 56.4252 52.124 55.9733 52.124 55.4159C52.124 54.8585 51.6722 54.4066 51.1147 54.4066C50.5573 54.4066 50.1055 54.8585 50.1055 55.4159C50.1055 55.9733 50.5573 56.4252 51.1147 56.4252Z" fill="url(#paint18_radial_1807_18116)"/>
<path d="M53.4468 55.7529C54.0042 55.7529 54.4561 55.3011 54.4561 54.7437C54.4561 54.1862 54.0042 53.7344 53.4468 53.7344C52.8894 53.7344 52.4375 54.1862 52.4375 54.7437C52.4375 55.3011 52.8894 55.7529 53.4468 55.7529Z" fill="url(#paint19_radial_1807_18116)"/>
<path d="M55.1304 54.0045C55.6878 54.0045 56.1396 53.5526 56.1396 52.9952C56.1396 52.4378 55.6878 51.986 55.1304 51.986C54.573 51.986 54.1211 52.4378 54.1211 52.9952C54.1211 53.5526 54.573 54.0045 55.1304 54.0045Z" fill="url(#paint20_radial_1807_18116)"/>
<path d="M55.7144 51.6483C56.2718 51.6483 56.7236 51.1964 56.7236 50.639C56.7236 50.0816 56.2718 49.6298 55.7144 49.6298C55.1569 49.6298 54.7051 50.0816 54.7051 50.639C54.7051 51.1964 55.1569 51.6483 55.7144 51.6483Z" fill="url(#paint21_radial_1807_18116)"/>
<path d="M55.0425 49.3158C55.5999 49.3158 56.0518 48.8639 56.0518 48.3065C56.0518 47.7491 55.5999 47.2972 55.0425 47.2972C54.4851 47.2972 54.0332 47.7491 54.0332 48.3065C54.0332 48.8639 54.4851 49.3158 55.0425 49.3158Z" fill="url(#paint22_radial_1807_18116)"/>
<path d="M53.2944 47.6318C53.8518 47.6318 54.3037 47.18 54.3037 46.6226C54.3037 46.0652 53.8518 45.6133 53.2944 45.6133C52.737 45.6133 52.2852 46.0652 52.2852 46.6226C52.2852 47.18 52.737 47.6318 53.2944 47.6318Z" fill="url(#paint23_radial_1807_18116)"/>
<path d="M50.937 47.0477C51.4944 47.0477 51.9463 46.5959 51.9463 46.0385C51.9463 45.481 51.4944 45.0292 50.937 45.0292C50.3796 45.0292 49.9277 45.481 49.9277 46.0385C49.9277 46.5959 50.3796 47.0477 50.937 47.0477Z" fill="url(#paint24_radial_1807_18116)"/>
<defs>
<radialGradient id="paint0_radial_1807_18116" cx="0" cy="0" r="1" gradientUnits="userSpaceOnUse" gradientTransform="translate(51.0265 50.7273) scale(12.8429)">
<stop stop-color="white"/>
<stop offset="0.1579" stop-color="#FDE8CE"/>
<stop offset="0.3805" stop-color="#FBCA90"/>
<stop offset="0.5841" stop-color="#F9B25F"/>
<stop offset="0.7616" stop-color="#F8A13C"/>
<stop offset="0.9063" stop-color="#F79726"/>
<stop offset="1" stop-color="#F7931E"/>
</radialGradient>
<radialGradient id="paint1_radial_1807_18116" cx="0" cy="0" r="1" gradientUnits="userSpaceOnUse" gradientTransform="translate(46.6135 43.4047) scale(1.84008)">
<stop stop-color="white"/>
<stop offset="0.1579" stop-color="#FDE8CE"/>
<stop offset="0.3805" stop-color="#FBCA90"/>
<stop offset="0.5841" stop-color="#F9B25F"/>
<stop offset="0.7616" stop-color="#F8A13C"/>
<stop offset="0.9063" stop-color="#F79726"/>
<stop offset="1" stop-color="#F7931E"/>
</radialGradient>
<radialGradient id="paint2_radial_1807_18116" cx="0" cy="0" r="1" gradientUnits="userSpaceOnUse" gradientTransform="translate(43.542 46.5913) rotate(-30.0007) scale(1.84004)">
<stop stop-color="white"/>
<stop offset="0.1579" stop-color="#FDE8CE"/>
<stop offset="0.3805" stop-color="#FBCA90"/>
<stop offset="0.5841" stop-color="#F9B25F"/>
<stop offset="0.7616" stop-color="#F8A13C"/>
<stop offset="0.9063" stop-color="#F79726"/>
<stop offset="1" stop-color="#F7931E"/>
</radialGradient>
<radialGradient id="paint3_radial_1807_18116" cx="0" cy="0" r="1" gradientUnits="userSpaceOnUse" gradientTransform="translate(42.4776 50.8892) rotate(-59.9992) scale(1.84004)">
<stop stop-color="white"/>
<stop offset="0.1579" stop-color="#FDE8CE"/>
<stop offset="0.3805" stop-color="#FBCA90"/>
<stop offset="0.5841" stop-color="#F9B25F"/>
<stop offset="0.7616" stop-color="#F8A13C"/>
<stop offset="0.9063" stop-color="#F79726"/>
<stop offset="1" stop-color="#F7931E"/>
</radialGradient>
<radialGradient id="paint4_radial_1807_18116" cx="0" cy="0" r="1" gradientUnits="userSpaceOnUse" gradientTransform="translate(43.7034 55.1406) rotate(-90) scale(1.84008)">
<stop stop-color="white"/>
<stop offset="0.1579" stop-color="#FDE8CE"/>
<stop offset="0.3805" stop-color="#FBCA90"/>
<stop offset="0.5841" stop-color="#F9B25F"/>
<stop offset="0.7616" stop-color="#F8A13C"/>
<stop offset="0.9063" stop-color="#F79726"/>
<stop offset="1" stop-color="#F7931E"/>
</radialGradient>
<radialGradient id="paint5_radial_1807_18116" cx="0" cy="0" r="1" gradientUnits="userSpaceOnUse" gradientTransform="translate(46.8898 58.2119) rotate(-120.001) scale(1.84004)">
<stop stop-color="white"/>
<stop offset="0.1579" stop-color="#FDE8CE"/>
<stop offset="0.3805" stop-color="#FBCA90"/>
<stop offset="0.5841" stop-color="#F9B25F"/>
<stop offset="0.7616" stop-color="#F8A13C"/>
<stop offset="0.9063" stop-color="#F79726"/>
<stop offset="1" stop-color="#F7931E"/>
</radialGradient>
<radialGradient id="paint6_radial_1807_18116" cx="0" cy="0" r="1" gradientUnits="userSpaceOnUse" gradientTransform="translate(51.1889 59.2767) rotate(-149.999) scale(1.84004)">
<stop stop-color="white"/>
<stop offset="0.1579" stop-color="#FDE8CE"/>
<stop offset="0.3805" stop-color="#FBCA90"/>
<stop offset="0.5841" stop-color="#F9B25F"/>
<stop offset="0.7616" stop-color="#F8A13C"/>
<stop offset="0.9063" stop-color="#F79726"/>
<stop offset="1" stop-color="#F7931E"/>
</radialGradient>
<radialGradient id="paint7_radial_1807_18116" cx="0" cy="0" r="1" gradientUnits="userSpaceOnUse" gradientTransform="translate(55.4397 58.0499) rotate(180) scale(1.84008)">
<stop stop-color="white"/>
<stop offset="0.1579" stop-color="#FDE8CE"/>
<stop offset="0.3805" stop-color="#FBCA90"/>
<stop offset="0.5841" stop-color="#F9B25F"/>
<stop offset="0.7616" stop-color="#F8A13C"/>
<stop offset="0.9063" stop-color="#F79726"/>
<stop offset="1" stop-color="#F7931E"/>
</radialGradient>
<radialGradient id="paint8_radial_1807_18116" cx="0" cy="0" r="1" gradientUnits="userSpaceOnUse" gradientTransform="translate(58.5112 54.8633) rotate(149.999) scale(1.84004)">
<stop stop-color="white"/>
<stop offset="0.1579" stop-color="#FDE8CE"/>
<stop offset="0.3805" stop-color="#FBCA90"/>
<stop offset="0.5841" stop-color="#F9B25F"/>
<stop offset="0.7616" stop-color="#F8A13C"/>
<stop offset="0.9063" stop-color="#F79726"/>
<stop offset="1" stop-color="#F7931E"/>
</radialGradient>
<radialGradient id="paint9_radial_1807_18116" cx="0" cy="0" r="1" gradientUnits="userSpaceOnUse" gradientTransform="translate(59.5756 50.5653) rotate(120.001) scale(1.84004)">
<stop stop-color="white"/>
<stop offset="0.1579" stop-color="#FDE8CE"/>
<stop offset="0.3805" stop-color="#FBCA90"/>
<stop offset="0.5841" stop-color="#F9B25F"/>
<stop offset="0.7616" stop-color="#F8A13C"/>
<stop offset="0.9063" stop-color="#F79726"/>
<stop offset="1" stop-color="#F7931E"/>
</radialGradient>
<radialGradient id="paint10_radial_1807_18116" cx="0" cy="0" r="1" gradientUnits="userSpaceOnUse" gradientTransform="translate(58.3498 46.3138) rotate(90) scale(1.84008)">
<stop stop-color="white"/>
<stop offset="0.1579" stop-color="#FDE8CE"/>
<stop offset="0.3805" stop-color="#FBCA90"/>
<stop offset="0.5841" stop-color="#F9B25F"/>
<stop offset="0.7616" stop-color="#F8A13C"/>
<stop offset="0.9063" stop-color="#F79726"/>
<stop offset="1" stop-color="#F7931E"/>
</radialGradient>
<radialGradient id="paint11_radial_1807_18116" cx="0" cy="0" r="1" gradientUnits="userSpaceOnUse" gradientTransform="translate(55.1634 43.2427) rotate(59.9993) scale(1.84004)">
<stop stop-color="white"/>
<stop offset="0.1579" stop-color="#FDE8CE"/>
<stop offset="0.3805" stop-color="#FBCA90"/>
<stop offset="0.5841" stop-color="#F9B25F"/>
<stop offset="0.7616" stop-color="#F8A13C"/>
<stop offset="0.9063" stop-color="#F79726"/>
<stop offset="1" stop-color="#F7931E"/>
</radialGradient>
<radialGradient id="paint12_radial_1807_18116" cx="0" cy="0" r="1" gradientUnits="userSpaceOnUse" gradientTransform="translate(50.8643 42.1779) rotate(30.0007) scale(1.84004)">
<stop stop-color="white"/>
<stop offset="0.1579" stop-color="#FDE8CE"/>
<stop offset="0.3805" stop-color="#FBCA90"/>
<stop offset="0.5841" stop-color="#F9B25F"/>
<stop offset="0.7616" stop-color="#F8A13C"/>
<stop offset="0.9063" stop-color="#F79726"/>
<stop offset="1" stop-color="#F7931E"/>
</radialGradient>
<radialGradient id="paint13_radial_1807_18116" cx="0" cy="0" r="1" gradientUnits="userSpaceOnUse" gradientTransform="translate(48.605 46.7107) scale(1.00928)">
<stop stop-color="white"/>
<stop offset="0.1579" stop-color="#FDE8CE"/>
<stop offset="0.3805" stop-color="#FBCA90"/>
<stop offset="0.5841" stop-color="#F9B25F"/>
<stop offset="0.7616" stop-color="#F8A13C"/>
<stop offset="0.9063" stop-color="#F79726"/>
<stop offset="1" stop-color="#F7931E"/>
</radialGradient>
<radialGradient id="paint14_radial_1807_18116" cx="0" cy="0" r="1" gradientUnits="userSpaceOnUse" gradientTransform="translate(46.9214 48.4592) scale(1.00946)">
<stop stop-color="white"/>
<stop offset="0.1579" stop-color="#FDE8CE"/>
<stop offset="0.3805" stop-color="#FBCA90"/>
<stop offset="0.5841" stop-color="#F9B25F"/>
<stop offset="0.7616" stop-color="#F8A13C"/>
<stop offset="0.9063" stop-color="#F79726"/>
<stop offset="1" stop-color="#F7931E"/>
</radialGradient>
<radialGradient id="paint15_radial_1807_18116" cx="0" cy="0" r="1" gradientUnits="userSpaceOnUse" gradientTransform="translate(46.3374 50.8154) scale(1.00945)">
<stop stop-color="white"/>
<stop offset="0.1579" stop-color="#FDE8CE"/>
<stop offset="0.3805" stop-color="#FBCA90"/>
<stop offset="0.5841" stop-color="#F9B25F"/>
<stop offset="0.7616" stop-color="#F8A13C"/>
<stop offset="0.9063" stop-color="#F79726"/>
<stop offset="1" stop-color="#F7931E"/>
</radialGradient>
<radialGradient id="paint16_radial_1807_18116" cx="0" cy="0" r="1" gradientUnits="userSpaceOnUse" gradientTransform="translate(47.0093 53.1479) scale(1.00928)">
<stop stop-color="white"/>
<stop offset="0.1579" stop-color="#FDE8CE"/>
<stop offset="0.3805" stop-color="#FBCA90"/>
<stop offset="0.5841" stop-color="#F9B25F"/>
<stop offset="0.7616" stop-color="#F8A13C"/>
<stop offset="0.9063" stop-color="#F79726"/>
<stop offset="1" stop-color="#F7931E"/>
</radialGradient>
<radialGradient id="paint17_radial_1807_18116" cx="0" cy="0" r="1" gradientUnits="userSpaceOnUse" gradientTransform="translate(48.7573 54.8319) scale(1.00945)">
<stop stop-color="white"/>
<stop offset="0.1579" stop-color="#FDE8CE"/>
<stop offset="0.3805" stop-color="#FBCA90"/>
<stop offset="0.5841" stop-color="#F9B25F"/>
<stop offset="0.7616" stop-color="#F8A13C"/>
<stop offset="0.9063" stop-color="#F79726"/>
<stop offset="1" stop-color="#F7931E"/>
</radialGradient>
<radialGradient id="paint18_radial_1807_18116" cx="0" cy="0" r="1" gradientUnits="userSpaceOnUse" gradientTransform="translate(51.1147 55.4159) scale(1.00945)">
<stop stop-color="white"/>
<stop offset="0.1579" stop-color="#FDE8CE"/>
<stop offset="0.3805" stop-color="#FBCA90"/>
<stop offset="0.5841" stop-color="#F9B25F"/>
<stop offset="0.7616" stop-color="#F8A13C"/>
<stop offset="0.9063" stop-color="#F79726"/>
<stop offset="1" stop-color="#F7931E"/>
</radialGradient>
<radialGradient id="paint19_radial_1807_18116" cx="0" cy="0" r="1" gradientUnits="userSpaceOnUse" gradientTransform="translate(53.4468 54.7437) scale(1.00928)">
<stop stop-color="white"/>
<stop offset="0.1579" stop-color="#FDE8CE"/>
<stop offset="0.3805" stop-color="#FBCA90"/>
<stop offset="0.5841" stop-color="#F9B25F"/>
<stop offset="0.7616" stop-color="#F8A13C"/>
<stop offset="0.9063" stop-color="#F79726"/>
<stop offset="1" stop-color="#F7931E"/>
</radialGradient>
<radialGradient id="paint20_radial_1807_18116" cx="0" cy="0" r="1" gradientUnits="userSpaceOnUse" gradientTransform="translate(55.1304 52.9952) scale(1.00945)">
<stop stop-color="white"/>
<stop offset="0.1579" stop-color="#FDE8CE"/>
<stop offset="0.3805" stop-color="#FBCA90"/>
<stop offset="0.5841" stop-color="#F9B25F"/>
<stop offset="0.7616" stop-color="#F8A13C"/>
<stop offset="0.9063" stop-color="#F79726"/>
<stop offset="1" stop-color="#F7931E"/>
</radialGradient>
<radialGradient id="paint21_radial_1807_18116" cx="0" cy="0" r="1" gradientUnits="userSpaceOnUse" gradientTransform="translate(55.7144 50.639) scale(1.00945)">
<stop stop-color="white"/>
<stop offset="0.1579" stop-color="#FDE8CE"/>
<stop offset="0.3805" stop-color="#FBCA90"/>
<stop offset="0.5841" stop-color="#F9B25F"/>
<stop offset="0.7616" stop-color="#F8A13C"/>
<stop offset="0.9063" stop-color="#F79726"/>
<stop offset="1" stop-color="#F7931E"/>
</radialGradient>
<radialGradient id="paint22_radial_1807_18116" cx="0" cy="0" r="1" gradientUnits="userSpaceOnUse" gradientTransform="translate(55.0425 48.3065) scale(1.00928)">
<stop stop-color="white"/>
<stop offset="0.1579" stop-color="#FDE8CE"/>
<stop offset="0.3805" stop-color="#FBCA90"/>
<stop offset="0.5841" stop-color="#F9B25F"/>
<stop offset="0.7616" stop-color="#F8A13C"/>
<stop offset="0.9063" stop-color="#F79726"/>
<stop offset="1" stop-color="#F7931E"/>
</radialGradient>
<radialGradient id="paint23_radial_1807_18116" cx="0" cy="0" r="1" gradientUnits="userSpaceOnUse" gradientTransform="translate(53.2944 46.6226) scale(1.00945)">
<stop stop-color="white"/>
<stop offset="0.1579" stop-color="#FDE8CE"/>
<stop offset="0.3805" stop-color="#FBCA90"/>
<stop offset="0.5841" stop-color="#F9B25F"/>
<stop offset="0.7616" stop-color="#F8A13C"/>
<stop offset="0.9063" stop-color="#F79726"/>
<stop offset="1" stop-color="#F7931E"/>
</radialGradient>
<radialGradient id="paint24_radial_1807_18116" cx="0" cy="0" r="1" gradientUnits="userSpaceOnUse" gradientTransform="translate(50.937 46.0385) scale(1.00945)">
<stop stop-color="white"/>
<stop offset="0.1579" stop-color="#FDE8CE"/>
<stop offset="0.3805" stop-color="#FBCA90"/>
<stop offset="0.5841" stop-color="#F9B25F"/>
<stop offset="0.7616" stop-color="#F8A13C"/>
<stop offset="0.9063" stop-color="#F79726"/>
<stop offset="1" stop-color="#F7931E"/>
</radialGradient>
</defs>
</svg>
