<svg width="25" height="25" viewBox="0 0 25 25" fill="none" xmlns="http://www.w3.org/2000/svg">
<path d="M1.5625 17.1873L3.59375 16.4842C6.64062 15.4685 10.0781 16.1717 12.5 18.3592C14.9219 20.5467 18.2812 21.2498 21.4062 20.2342L23.4375 19.531" stroke="black" stroke-width="2" stroke-miterlimit="10" stroke-linecap="round" stroke-linejoin="round"/>
<path d="M17.9688 12.5C19.6946 12.5 21.0938 11.1009 21.0938 9.375C21.0938 7.64911 19.6946 6.25 17.9688 6.25C16.2429 6.25 14.8438 7.64911 14.8438 9.375C14.8438 11.1009 16.2429 12.5 17.9688 12.5Z" stroke="black" stroke-width="2" stroke-miterlimit="10" stroke-linecap="round" stroke-linejoin="round"/>
<path d="M14.0625 19.5313L14.8438 18.75C16.1719 17.4219 16.1719 15.3125 14.8438 14.0625L8.98438 8.20312C7.89063 7.10937 6.17187 7.10937 5.07812 8.20312L1.64063 11.6406C1.17187 12.1094 1.17187 12.8906 1.64063 13.3594C2.03125 13.75 2.65625 13.8281 3.20313 13.5156L7.03125 10.9375L9.375 13.2813L6.64062 16.0156" stroke="black" stroke-width="2" stroke-miterlimit="10" stroke-linecap="round" stroke-linejoin="round"/>
</svg>
