<svg width="100" height="100" viewBox="0 0 100 100" fill="none" xmlns="http://www.w3.org/2000/svg">
<path d="M86.8492 73.5376L65.6141 68.1248L50 89.7762C56.2456 94.9809 71.4434 98.52 77.897 99.7692" fill="#F7B64C"/>
<path d="M90.5973 91.2333C88.9318 97.0626 83.1025 101.018 78.106 99.7689C72.9013 98.728 70.403 93.107 72.0687 87.0694C75.1915 76.8682 81.0208 72.0799 86.2253 73.1208C91.2218 74.3701 93.512 80.824 90.5973 91.2333Z" fill="#FFD15C"/>
<path d="M13.1504 73.5376L34.3855 68.1248L49.9995 89.7762C43.7539 94.9809 28.5562 98.52 22.1025 99.7692" fill="#F7B64C"/>
<path d="M9.40255 91.2333C11.068 97.0626 16.8973 101.018 21.8938 99.7689C26.8903 98.5198 29.5968 93.107 27.9312 87.0694C24.8084 76.8682 18.979 72.0799 13.7745 73.1208C8.77799 74.3701 6.488 80.824 9.40255 91.2333Z" fill="#FFD15C"/>
<path d="M70.8192 49.8042C70.8192 56.2581 61.4508 73.1212 50.0004 73.1212C38.5501 73.1212 29.1816 56.2581 29.1816 49.8042C29.1816 43.3503 38.5501 37.9375 50.0004 37.9375C61.4508 37.9375 70.8192 43.1421 70.8192 49.8042Z" fill="#F7B64C"/>
<path d="M46.6692 90.4007C48.7511 91.6498 51.2494 91.6498 53.3311 90.4007C60.2013 86.4451 74.9825 76.4521 74.9825 61.6709C74.9825 54.3844 69.1532 48.3468 61.8667 48.3468C56.662 48.3468 52.2901 51.4696 50.0001 55.8415C47.9181 51.4696 43.3381 48.3468 38.1334 48.3468C30.8469 48.3468 25.0176 54.3842 25.0176 61.6709C25.0176 76.4521 39.799 86.4451 46.6692 90.4007Z" fill="#F3705A"/>
<path d="M56.8691 40.4356C56.8691 40.4356 72.8995 38.9783 80.1862 48.9713C85.599 55.8415 90.5955 66.0427 83.5173 69.1655C81.4353 70.2064 78.9371 70.4146 76.6471 69.7901C74.3571 69.1655 72.0669 67.7081 72.8997 64.3773C76.4388 52.7186 64.3639 46.6813 56.8691 40.4356Z" fill="#F7B64C"/>
<path d="M43.1292 40.4356C43.1292 40.4356 27.0989 38.9783 19.8122 48.9713C14.3994 55.8415 9.4029 66.0427 16.4811 69.1655C18.5631 70.2064 21.0613 70.4146 23.3513 69.7901C25.6413 69.1655 27.9315 67.7081 27.0987 64.3773C23.5598 52.7186 35.6345 46.6813 43.1292 40.4356Z" fill="#F7B64C"/>
<path d="M40.4221 5.25189C41.8794 9.41558 40.8384 16.494 36.6747 17.9514C32.511 19.4088 27.098 15.0368 25.4326 10.873C23.9752 6.70927 26.0571 2.12908 30.0128 0.671706C34.1764 -0.993728 38.7564 1.08821 40.4221 5.25189Z" fill="#F7B64C"/>
<path d="M59.576 5.25192C58.1186 9.41561 59.1597 16.494 63.3234 17.9514C67.487 19.4088 72.9 15.0369 74.5655 10.873C76.2309 6.70911 74.1491 2.12911 69.9853 0.463681C65.8216 -0.993695 61.2414 1.08824 59.576 5.25192Z" fill="#F7B64C"/>
<path d="M71.8593 23.5726C71.6511 35.231 61.8663 46.6814 49.9997 46.6814C38.3412 46.6814 28.5563 35.0229 28.14 23.5726C27.9317 11.7059 37.7167 1.71289 49.9997 1.71289C62.2826 1.71289 72.0676 11.7059 71.8593 23.5726Z" fill="#FFD15C"/>
<path d="M61.242 30.0262C61.242 36.2718 56.2455 38.9783 49.9999 38.9783C43.7543 38.9783 38.7578 36.2718 38.7578 30.0262C38.7578 23.7806 43.7543 18.7841 49.9999 18.7841C56.2455 18.7841 61.242 23.7806 61.242 30.0262Z" fill="white"/>
<path d="M50.0002 36.2719C47.2937 36.2719 43.7546 35.0228 42.2972 32.5245C42.0889 32.3163 42.2972 31.9 42.5055 31.6917C42.7137 31.4835 43.13 31.6917 43.3383 31.9C44.5874 33.9819 47.7102 35.0228 50.0002 35.0228C52.2902 35.0228 55.413 33.9819 56.6621 31.9C56.8704 31.6917 57.2867 31.4837 57.495 31.6917C57.7032 31.9 57.9113 32.3163 57.7032 32.5245C56.2458 35.0228 52.7067 36.2719 50.0002 36.2719Z" fill="#415A6B"/>
<path d="M50.0007 28.1526C52.9901 28.1526 55.4135 26.4748 55.4135 24.4052C55.4135 22.3356 52.9901 20.6578 50.0007 20.6578C47.0113 20.6578 44.5879 22.3356 44.5879 24.4052C44.5879 26.4748 47.0113 28.1526 50.0007 28.1526Z" fill="#415A6B"/>
<path d="M50.6241 27.5281H49.375V35.2311H50.6241V27.5281Z" fill="#415A6B"/>
<path d="M59.7854 20.4497C61.1651 20.4497 62.2836 19.3312 62.2836 17.9515C62.2836 16.5718 61.1651 15.4532 59.7854 15.4532C58.4056 15.4532 57.2871 16.5718 57.2871 17.9515C57.2871 19.3312 58.4056 20.4497 59.7854 20.4497Z" fill="#344A5E"/>
<path d="M60.8257 17.7433C61.1707 17.7433 61.4503 17.4636 61.4503 17.1187C61.4503 16.7738 61.1707 16.4941 60.8257 16.4941C60.4808 16.4941 60.2012 16.7738 60.2012 17.1187C60.2012 17.4636 60.4808 17.7433 60.8257 17.7433Z" fill="white"/>
<path d="M40.215 20.4497C41.5948 20.4497 42.7133 19.3312 42.7133 17.9515C42.7133 16.5718 41.5948 15.4532 40.215 15.4532C38.8353 15.4532 37.7168 16.5718 37.7168 17.9515C37.7168 19.3312 38.8353 20.4497 40.215 20.4497Z" fill="#344A5E"/>
<path d="M39.1734 17.7433C39.5183 17.7433 39.798 17.4636 39.798 17.1187C39.798 16.7738 39.5183 16.4941 39.1734 16.4941C38.8285 16.4941 38.5488 16.7738 38.5488 17.1187C38.5488 17.4636 38.8285 17.7433 39.1734 17.7433Z" fill="white"/>
<path d="M33.5527 73.3293V64.3772H35.6347V71.4556H39.382V73.3293H33.5527Z" fill="white"/>
<path d="M48.1254 72.2884C47.2925 73.1213 46.0434 73.5376 44.7943 73.5376C43.5452 73.5376 42.2961 73.1213 41.4632 72.2884C40.6304 71.4556 40.0059 70.2065 40.0059 68.9574C40.0059 67.7083 40.4222 66.4591 41.4632 65.6263C42.2961 64.7935 43.5452 64.3772 44.7943 64.3772C46.0434 64.3772 47.2925 64.7935 48.1254 65.6263C48.9582 66.4591 49.5827 67.7083 49.5827 68.9574C49.5827 70.2065 48.9582 71.2474 48.1254 72.2884ZM47.5008 68.9574C47.5008 68.1246 47.2925 67.5 46.668 66.8754C46.2517 66.2509 45.6271 66.0426 44.7943 66.0426C43.9615 66.0426 43.3369 66.2509 42.9206 66.8754C42.5043 67.5 42.0878 68.1246 42.0878 68.9574C42.0878 69.7902 42.2961 70.4148 42.9206 71.0393C43.3369 71.6639 43.9615 71.8721 44.7943 71.8721C45.6271 71.8721 46.2517 71.6639 46.668 71.0393C47.0845 70.4148 47.5008 69.7902 47.5008 68.9574Z" fill="white"/>
<path d="M54.3717 70.2065L56.6617 64.5854H58.7437L55.2046 73.5376H53.5391L50 64.5854H52.0819L54.3717 70.2065Z" fill="white"/>
<path d="M66.2388 64.3771V66.2508H61.8669V68.1245H65.8225V69.79H61.8669V71.6636H66.4471V73.3291H59.7852V64.377H66.2388V64.3771Z" fill="white"/>
</svg>
