<svg width="131" height="61" viewBox="0 0 131 61" fill="none" xmlns="http://www.w3.org/2000/svg">
<g clip-path="url(#clip0_951_39587)">
<path d="M22.6739 28.7393V32.5653H13.9348V52.6958H9.63043V32.5653H0.891296V28.7393H22.6739Z" fill="white"/>
<path d="M36.5435 52.6957V40.3044C36.5435 37.6087 35.5435 36.3043 32.4565 36.3043C28.3696 36.3043 25.9348 38.3044 25.9348 41.6087V52.7391H21.7609V25H25.9348V35.6522C27.587 33.5652 30.2391 32.6957 32.4565 32.6957C37.8043 32.6957 40.7609 35.3478 40.7609 39.8696V52.7391H36.5435V52.6957Z" fill="white"/>
<path d="M55.0652 33.2611V37.3046C54.3261 36.8698 53.1957 36.522 51.8913 36.522C47.8044 36.522 45.8478 38.7829 45.8478 42.3916V52.7394H41.6739V33.3046H45.8478V36.0437C47.1522 33.8698 49.7174 32.6959 51.9348 32.6959C53.4565 32.6524 54.2826 32.8698 55.0652 33.2611Z" fill="white"/>
<path d="M75.1956 33.2607L62.6739 60.3912H58.2391L63.1522 49.9999H61.1087L53.0217 33.2607H57.6304L64.2826 47.4781L70.7609 33.2607H75.1956Z" fill="white"/>
<path d="M95.9783 43C95.9783 49.2174 91.587 53.2609 85.1087 53.2609C82.6304 53.2609 79.9783 52.3479 78.3696 50.3913V52.6522H74.1956V24.9131H78.3696V35.4783C80.0217 33.5218 82.6304 32.6087 85.1087 32.6087C91.6304 32.6522 95.9783 36.7392 95.9783 43ZM91.6739 43C91.6739 38.7827 88.6739 36.3044 84.6739 36.3044C80.5 36.3044 78.0652 38.3044 78.0652 43C78.0652 47.6957 80.5435 49.6087 84.6739 49.6087C88.6739 49.6087 91.6739 47.1305 91.6739 43Z" fill="white"/>
<path d="M115.413 44.1306H99.6304C100.152 47.5219 102.674 49.6958 106.196 49.6958C108.5 49.6958 111.152 49.348 113.674 47.9132V51.6958C111.674 52.7393 109.283 53.261 106.196 53.261C99.8913 53.261 95.5 48.7828 95.5 42.9567C95.5 36.7393 99.9348 32.6523 105.37 32.6523C111.326 32.6523 115.37 36.261 115.37 43.3915V44.1306H115.413ZM111.326 40.8263C110.761 37.8263 108.848 36.1306 105.413 36.1306C102.848 36.1306 100.63 37.6958 99.8043 40.8263H111.326Z" fill="white"/>
<path d="M121.717 0.565157C114.848 -1.1305 112.413 3.0869 111.587 5.99994C111.283 6.99994 110.109 7.39125 109.283 6.73907C107.804 5.60864 105.543 4.47821 102.978 5.3043C101.63 5.73908 99.9783 6.91299 99.413 8.04342C96.8478 13.3043 99.4565 19.1739 103.283 24.1739C103.457 24.3913 103.63 24.6086 103.761 24.826C104.239 25.4782 105.63 27.2608 107.63 28.7826C109.239 30.0434 110.587 30.5217 111.022 30.6086C112.543 30.913 114.065 30.7391 115.37 30.0434C115.587 29.913 115.457 29.6086 115.239 29.6521C112.5 29.9999 110.196 28.6086 107.935 25.9565C107.674 25.6086 106.413 23.826 105.891 23.0434C105.717 22.826 105.587 22.5652 105.413 22.3478C104.63 20.9999 103.978 19.6956 103.674 18.4782C101.022 7.56516 107.543 9.6956 110.761 11.0869C111.587 11.4347 112.5 11.1304 112.935 10.3478C114.022 8.26081 116.326 4.82603 119.109 5.82603C126.717 8.56516 126.326 24.4347 121.239 25.6956C118.37 26.4347 114.891 24.0434 114.152 20.0869C113.804 18.3043 114.891 16.5652 116.587 15.9565L118.63 15.2608C118.63 15.2608 118.891 15.1739 119.065 14.9999C119.196 14.8695 119.37 14.6956 119.37 14.4347C119.37 13.913 119.37 13.3043 118.5 13.2173C118.065 13.1739 117.63 13.1739 117.196 13.2173C115.5 13.3912 108.978 15.3912 107.065 17.826C105.978 19.2173 106.152 20.8695 106.63 22.2608C106.848 22.8695 107.717 22.7391 107.804 22.1304C107.848 21.7825 107.891 21.4347 108.022 21.0869C108.848 18.9999 111.109 17.8695 111.587 21.5652C112.239 26.5652 117.283 32.913 123.326 29.0869C132.587 23.2608 133.37 3.39124 121.717 0.565157Z" fill="white"/>
</g>
<defs>
<clipPath id="clip0_951_39587">
<rect width="130" height="60.4348" fill="white" transform="translate(0.5)"/>
</clipPath>
</defs>
</svg>
