<svg width="100" height="100" viewBox="0 0 100 100" fill="none" xmlns="http://www.w3.org/2000/svg">
<g clip-path="url(#clip0_1807_20051)">
<path d="M50.1086 44.7785C57.8412 44.7785 64.1097 38.51 64.1097 30.7774C64.1097 23.0448 57.8412 16.7762 50.1086 16.7762C42.376 16.7762 36.1074 23.0448 36.1074 30.7774C36.1074 38.51 42.376 44.7785 50.1086 44.7785Z" fill="#FBA542"/>
<path d="M48.2418 37.8817C53.5401 37.8817 57.8352 33.5866 57.8352 28.2883C57.8352 22.99 53.5401 18.6949 48.2418 18.6949C42.9435 18.6949 38.6484 22.99 38.6484 28.2883C38.6484 33.5866 42.9435 37.8817 48.2418 37.8817Z" fill="#FFC614"/>
<path d="M62.2433 63.5764C69.976 63.5764 76.2445 57.3079 76.2445 49.5752C76.2445 41.8426 69.976 35.5741 62.2433 35.5741C54.5107 35.5741 48.2422 41.8426 48.2422 49.5752C48.2422 57.3079 54.5107 63.5764 62.2433 63.5764Z" fill="#FBA542"/>
<path d="M60.3766 56.6795C65.6749 56.6795 69.97 52.3844 69.97 47.0861C69.97 41.7878 65.6749 37.4927 60.3766 37.4927C55.0783 37.4927 50.7832 41.7878 50.7832 47.0861C50.7832 52.3844 55.0783 56.6795 60.3766 56.6795Z" fill="#FFC614"/>
<path d="M39.3234 63.5764C47.056 63.5764 53.3246 57.3079 53.3246 49.5752C53.3246 41.8426 47.056 35.5741 39.3234 35.5741C31.5908 35.5741 25.3223 41.8426 25.3223 49.5752C25.3223 57.3079 31.5908 63.5764 39.3234 63.5764Z" fill="#FBA542"/>
<path d="M37.4567 56.6795C42.7549 56.6795 47.05 52.3844 47.05 47.0861C47.05 41.7878 42.7549 37.4927 37.4567 37.4927C32.1584 37.4927 27.8633 41.7878 27.8633 47.0861C27.8633 52.3844 32.1584 56.6795 37.4567 56.6795Z" fill="#FFC614"/>
<path d="M50.1086 80.8445C57.8412 80.8445 64.1097 74.5759 64.1097 66.8433C64.1097 59.1107 57.8412 52.8422 50.1086 52.8422C42.376 52.8422 36.1074 59.1107 36.1074 66.8433C36.1074 74.5759 42.376 80.8445 50.1086 80.8445Z" fill="#FBA542"/>
<path d="M48.2418 73.9476C53.5401 73.9476 57.8352 69.6525 57.8352 64.3542C57.8352 59.056 53.5401 54.7609 48.2418 54.7609C42.9435 54.7609 38.6484 59.056 38.6484 64.3542C38.6484 69.6525 42.9435 73.9476 48.2418 73.9476Z" fill="#FFC614"/>
<path d="M74.2551 80.8445C81.9877 80.8445 88.2562 74.5759 88.2562 66.8433C88.2562 59.1107 81.9877 52.8422 74.2551 52.8422C66.5224 52.8422 60.2539 59.1107 60.2539 66.8433C60.2539 74.5759 66.5224 80.8445 74.2551 80.8445Z" fill="#FBA542"/>
<path d="M72.3883 73.9476C77.6866 73.9476 81.9817 69.6525 81.9817 64.3542C81.9817 59.056 77.6866 54.7609 72.3883 54.7609C67.09 54.7609 62.7949 59.056 62.7949 64.3542C62.7949 69.6525 67.09 73.9476 72.3883 73.9476Z" fill="#FFC614"/>
<path d="M26.6965 80.8445C34.4291 80.8445 40.6976 74.5759 40.6976 66.8433C40.6976 59.1107 34.4291 52.8422 26.6965 52.8422C18.9638 52.8422 12.6953 59.1107 12.6953 66.8433C12.6953 74.5759 18.9638 80.8445 26.6965 80.8445Z" fill="#FBA542"/>
<path d="M24.8297 73.9476C30.128 73.9476 34.4231 69.6525 34.4231 64.3542C34.4231 59.056 30.128 54.7609 24.8297 54.7609C19.5314 54.7609 15.2363 59.056 15.2363 64.3542C15.2363 69.6525 19.5314 73.9476 24.8297 73.9476Z" fill="#FFC614"/>
<path d="M4.29297 78.2776H96.7006" stroke="#00A99D" stroke-width="25" stroke-miterlimit="10" stroke-linecap="round" stroke-linejoin="round"/>
<path d="M9.89258 80.8071L22.1695 93.9786H78.7316L88.2537 80.8071H9.89258Z" fill="#634F96" stroke="#662D91" stroke-width="5" stroke-miterlimit="10" stroke-linecap="round" stroke-linejoin="round"/>
<path d="M25.0625 90.8672H38.9859" stroke="white" stroke-width="5" stroke-miterlimit="10" stroke-linecap="round" stroke-linejoin="round"/>
<path d="M33.0599 44.7785C34.3702 44.7785 35.4323 43.7164 35.4323 42.4061C35.4323 41.0959 34.3702 40.0337 33.0599 40.0337C31.7497 40.0337 30.6875 41.0959 30.6875 42.4061C30.6875 43.7164 31.7497 44.7785 33.0599 44.7785Z" fill="#F2ED91"/>
<path d="M56.9134 44.26C58.2237 44.26 59.2859 43.1978 59.2859 41.8876C59.2859 40.5773 58.2237 39.5151 56.9134 39.5151C55.6032 39.5151 54.541 40.5773 54.541 41.8876C54.541 43.1978 55.6032 44.26 56.9134 44.26Z" fill="#F2ED91"/>
<path d="M44.6771 25.0732C45.9874 25.0732 47.0495 24.011 47.0495 22.7008C47.0495 21.3905 45.9874 20.3284 44.6771 20.3284C43.3669 20.3284 42.3047 21.3905 42.3047 22.7008C42.3047 24.011 43.3669 25.0732 44.6771 25.0732Z" fill="#F2ED91"/>
<path d="M43.0677 63.8357C44.378 63.8357 45.4402 62.7735 45.4402 61.4632C45.4402 60.153 44.378 59.0908 43.0677 59.0908C41.7575 59.0908 40.6953 60.153 40.6953 61.4632C40.6953 62.7735 41.7575 63.8357 43.0677 63.8357Z" fill="#F2ED91"/>
<path d="M67.0384 63.5764C68.3487 63.5764 69.4109 62.5142 69.4109 61.204C69.4109 59.8937 68.3487 58.8315 67.0384 58.8315C65.7282 58.8315 64.666 59.8937 64.666 61.204C64.666 62.5142 65.7282 63.5764 67.0384 63.5764Z" fill="#F2ED91"/>
<path d="M19.7982 62.5912C21.1085 62.5912 22.1706 61.529 22.1706 60.2187C22.1706 58.9085 21.1085 57.8463 19.7982 57.8463C18.488 57.8463 17.4258 58.9085 17.4258 60.2187C17.4258 61.529 18.488 62.5912 19.7982 62.5912Z" fill="#F2ED91"/>
<path d="M12.6941 17.6354C13.9058 17.6354 14.8881 16.6531 14.8881 15.4414C14.8881 14.2296 13.9058 13.2473 12.6941 13.2473C11.4823 13.2473 10.5 14.2296 10.5 15.4414C10.5 16.6531 11.4823 17.6354 12.6941 17.6354Z" fill="#00A99D"/>
<path d="M78.0033 7.97904C78.6091 7.97904 79.1003 7.48788 79.1003 6.882C79.1003 6.27613 78.6091 5.78497 78.0033 5.78497C77.3974 5.78497 76.9062 6.27613 76.9062 6.882C76.9062 7.48788 77.3974 7.97904 78.0033 7.97904Z" fill="#F90847"/>
<path d="M18.349 27.7728C18.9549 27.7728 19.446 27.2816 19.446 26.6758C19.446 26.0699 18.9549 25.5787 18.349 25.5787C17.7431 25.5787 17.252 26.0699 17.252 26.6758C17.252 27.2816 17.7431 27.7728 18.349 27.7728Z" fill="#F90847"/>
<path d="M14.1791 4.91019C14.7849 4.91019 15.2761 4.41903 15.2761 3.81316C15.2761 3.20728 14.7849 2.71613 14.1791 2.71613C13.5732 2.71613 13.082 3.20728 13.082 3.81316C13.082 4.41903 13.5732 4.91019 14.1791 4.91019Z" fill="#634F96" stroke="#634F96" stroke-width="5" stroke-miterlimit="10" stroke-linecap="round" stroke-linejoin="round"/>
<path d="M93.2279 21.5096C95.1378 21.5096 96.6862 19.9613 96.6862 18.0513C96.6862 16.1413 95.1378 14.593 93.2279 14.593C91.3179 14.593 89.7695 16.1413 89.7695 18.0513C89.7695 19.9613 91.3179 21.5096 93.2279 21.5096Z" fill="#FFEC00"/>
<path d="M74.328 17.6356C74.6544 18.0494 74.8178 18.4632 74.9402 18.877C75.0549 19.2909 75.1093 19.7047 75.1091 20.1185C75.109 20.5323 75.0602 20.9461 74.9423 21.36C74.8204 21.7738 74.6563 22.1876 74.328 22.6014C73.9997 22.1876 73.8356 21.7738 73.7137 21.36C73.5958 20.9461 73.547 20.5323 73.5469 20.1185C73.5467 19.7047 73.6011 19.2909 73.7158 18.877C73.8383 18.4632 74.0016 18.0494 74.328 17.6356Z" fill="#634F96"/>
<path d="M76.8116 20.203C76.3978 20.5294 75.9839 20.6928 75.5701 20.8152C75.1563 20.9299 74.7425 20.9843 74.3286 20.9841C73.9148 20.984 73.501 20.9352 73.0872 20.8173C72.6734 20.6954 72.2595 20.5313 71.8457 20.203C72.2595 19.8747 72.6733 19.7106 73.0872 19.5887C73.501 19.4708 73.9148 19.422 74.3286 19.4219C74.7425 19.4217 75.1563 19.4761 75.5701 19.5908C75.9839 19.7133 76.3978 19.8766 76.8116 20.203Z" fill="#634F96"/>
<path d="M29.6073 3.81317C29.9337 4.227 30.0971 4.64081 30.2195 5.05464C30.3342 5.46846 30.3886 5.88227 30.3884 6.2961C30.3883 6.70993 30.3395 7.12374 30.2216 7.53757C30.0997 7.95139 29.9356 8.3652 29.6073 8.77903C29.279 8.3652 29.1149 7.95139 28.993 7.53757C28.8751 7.12374 28.8263 6.70993 28.8262 6.2961C28.826 5.88227 28.8804 5.46846 28.9951 5.05464C29.1175 4.64081 29.2809 4.22698 29.6073 3.81317Z" fill="#FFEC00"/>
<path d="M32.0909 6.38074C31.677 6.70711 31.2632 6.87049 30.8494 6.99293C30.4356 7.10768 30.0218 7.16207 29.6079 7.16188C29.1941 7.16176 28.7803 7.11293 28.3665 6.99504C27.9526 6.87313 27.5388 6.709 27.125 6.38074C27.5388 6.05248 27.9526 5.88836 28.3665 5.76645C28.7803 5.64856 29.1941 5.59973 29.6079 5.59961C30.0218 5.59941 30.4356 5.65381 30.8494 5.76856C31.2632 5.89098 31.6771 6.05436 32.0909 6.38074Z" fill="#FFEC00"/>
</g>
<defs>
<clipPath id="clip0_1807_20051">
<rect width="100" height="100" fill="white"/>
</clipPath>
</defs>
</svg>
