<svg width="15" height="18" viewBox="0 0 15 18" fill="none" xmlns="http://www.w3.org/2000/svg">
<path d="M8.71852 5.4L8.54977 5.0625H7.19977H5.84977L5.73727 5.45625C5.39977 6.4125 4.72477 7.25625 3.82477 7.875C0.393516 10.1813 1.01227 14.9063 4.94977 16.425C6.41227 16.9875 8.04352 16.9875 9.44977 16.425C13.3873 14.9063 14.006 10.125 10.631 7.81875C9.73102 7.2 9.05602 6.4125 8.71852 5.4Z" stroke="black" stroke-width="2" stroke-miterlimit="10" stroke-linecap="round" stroke-linejoin="round"/>
<path d="M4.0498 1.96875L5.9623 5.0625" stroke="black" stroke-width="2" stroke-miterlimit="10" stroke-linecap="round" stroke-linejoin="round"/>
<path d="M4.7251 2.5877L5.34385 1.96895C5.68135 1.63145 6.24385 1.63145 6.58135 1.96895C6.91885 2.30645 7.48135 2.30645 7.81885 1.96895C8.15635 1.63145 8.71885 1.63145 9.05635 1.96895L9.6751 2.5877" stroke="black" stroke-width="2" stroke-miterlimit="10" stroke-linecap="round" stroke-linejoin="round"/>
<path d="M10.35 5.0625H8.4375L10.35 1.96875" stroke="black" stroke-width="2" stroke-miterlimit="10" stroke-linecap="round" stroke-linejoin="round"/>
<path d="M7.2002 9V9.5625" stroke="black" stroke-width="2" stroke-miterlimit="10" stroke-linecap="round" stroke-linejoin="round"/>
<path d="M7.2002 12.9375V13.5" stroke="black" stroke-width="2" stroke-miterlimit="10" stroke-linecap="round" stroke-linejoin="round"/>
<path d="M7.76269 9.5625H6.91894C6.46895 9.5625 6.0752 9.95625 6.0752 10.4062C6.0752 10.8563 6.46895 11.25 6.91894 11.25H7.48144C7.93144 11.25 8.32519 11.6437 8.32519 12.0938C8.32519 12.5438 7.93144 12.9375 7.48144 12.9375H6.6377" stroke="black" stroke-width="2" stroke-miterlimit="10" stroke-linecap="round" stroke-linejoin="round"/>
</svg>
