<svg width="15" height="16" viewBox="0 0 15 16" fill="none" xmlns="http://www.w3.org/2000/svg">
<g clip-path="url(#clip0_1876_3701)">
<path d="M12.4219 2.375H9.84375V1.90625C9.84375 1.12959 9.21416 0.5 8.4375 0.5H6.5625C5.78584 0.5 5.15625 1.12959 5.15625 1.90625V2.375H2.57812C1.93093 2.375 1.40625 2.89968 1.40625 3.54688V4.48438C1.40625 4.74327 1.6161 4.95312 1.875 4.95312H13.125C13.3839 4.95312 13.5938 4.74327 13.5938 4.48438V3.54688C13.5938 2.89968 13.0691 2.375 12.4219 2.375ZM6.09375 1.90625C6.09375 1.64785 6.3041 1.4375 6.5625 1.4375H8.4375C8.6959 1.4375 8.90625 1.64785 8.90625 1.90625V2.375H6.09375V1.90625Z" fill="white"/>
<path d="M2.29589 5.89062C2.21225 5.89062 2.1456 5.96053 2.14958 6.04408L2.5363 14.1605C2.57204 14.9117 3.18904 15.5 3.94079 15.5H11.0593C11.8111 15.5 12.4281 14.9117 12.4638 14.1605L12.8506 6.04408C12.8545 5.96053 12.7879 5.89062 12.7043 5.89062H2.29589ZM9.37507 7.0625C9.37507 6.80352 9.58484 6.59375 9.84382 6.59375C10.1028 6.59375 10.3126 6.80352 10.3126 7.0625V13.1562C10.3126 13.4152 10.1028 13.625 9.84382 13.625C9.58484 13.625 9.37507 13.4152 9.37507 13.1562V7.0625ZM7.03132 7.0625C7.03132 6.80352 7.24109 6.59375 7.50007 6.59375C7.75906 6.59375 7.96882 6.80352 7.96882 7.0625V13.1562C7.96882 13.4152 7.75906 13.625 7.50007 13.625C7.24109 13.625 7.03132 13.4152 7.03132 13.1562V7.0625ZM4.68757 7.0625C4.68757 6.80352 4.89734 6.59375 5.15632 6.59375C5.41531 6.59375 5.62507 6.80352 5.62507 7.0625V13.1562C5.62507 13.4152 5.41531 13.625 5.15632 13.625C4.89734 13.625 4.68757 13.4152 4.68757 13.1562V7.0625Z" fill="white"/>
</g>
<defs>
<clipPath id="clip0_1876_3701">
<rect width="15" height="15" fill="white" transform="translate(0 0.5)"/>
</clipPath>
</defs>
</svg>
