<svg width="15" height="16" viewBox="0 0 15 16" fill="none" xmlns="http://www.w3.org/2000/svg">
<g clip-path="url(#clip0_2127_22941)">
<path d="M7.5 15.5C11.6421 15.5 15 12.1421 15 8C15 3.85786 11.6421 0.5 7.5 0.5C3.35786 0.5 0 3.85786 0 8C0 12.1421 3.35786 15.5 7.5 15.5Z" fill="#F0F0F0"/>
<path d="M1.71436 3.2269H13.2857C12.8583 2.70937 12.3626 2.25044 11.8127 1.86328H3.18731C2.63744 2.25038 2.14177 2.70935 1.71436 3.2269Z" fill="#F0F0F0"/>
<path d="M0 8.00016C0 8.23005 0.0109277 8.45733 0.0311719 8.68198H14.9688C14.9891 8.45733 15 8.23005 15 8.00016C15 7.77026 14.9891 7.54298 14.9688 7.31836H0.0311719C0.0109277 7.54298 0 7.77026 0 8.00016Z" fill="#F0F0F0"/>
<path d="M0.817656 11.4095H14.1819C14.4028 10.9775 14.5829 10.5213 14.7174 10.0459H0.282227C0.41667 10.5213 0.596846 10.9775 0.817656 11.4095Z" fill="#F0F0F0"/>
<path d="M3.18731 14.1361H11.8127C12.3626 13.7489 12.8583 13.29 13.2857 12.7725H1.71436C2.14177 13.2899 2.63744 13.7489 3.18731 14.1361Z" fill="#F0F0F0"/>
<path d="M0.282227 5.95444H14.7174C14.583 5.47901 14.4028 5.0228 14.182 4.59082H0.817685C0.596875 5.0228 0.416699 5.47901 0.282227 5.95444Z" fill="#F0F0F0"/>
<path d="M3.58691 1.86362H11.8127C10.5927 1.0047 9.10533 0.5 7.49995 0.5C6.5217 0.5 4.80684 1.0047 3.58691 1.86362Z" fill="#D80027"/>
<path d="M7.17383 4.59116H14.1821C13.9326 4.10328 13.6314 3.64628 13.2856 3.22754H7.17383V4.59116Z" fill="#D80027"/>
<path d="M7.17383 7.31772H14.9687C14.9265 6.8495 14.8418 6.39353 14.7175 5.9541H7.17383V7.31772Z" fill="#D80027"/>
<path d="M0.2825 10.0453H14.7177C14.8419 9.60587 14.9267 9.14986 14.9689 8.68164H0.03125C0.0734375 9.14986 0.158223 9.60584 0.2825 10.0453Z" fill="#D80027"/>
<path d="M1.71435 12.7728H13.2857C13.6315 12.354 13.9328 11.897 14.1822 11.4092H0.817871C1.06728 11.8971 1.36851 12.3541 1.71435 12.7728Z" fill="#D80027"/>
<path d="M7.50021 15.5003C9.10559 15.5003 10.593 14.9956 11.8129 14.1367H3.1875C4.40742 14.9956 5.89482 15.5003 7.50021 15.5003Z" fill="#D80027"/>
<path d="M0.282471 5.95455C0.158193 6.394 0.0734375 6.84995 0.03125 7.31817H7.50008V0.5C4.06707 0.5 1.17286 2.8066 0.282471 5.95455Z" fill="#0052B4"/>
<path d="M4.46442 2.45605L4.95002 3.95064H6.52168L5.25025 4.87443L5.73582 6.3691L4.46442 5.44536L3.19297 6.3691L3.67865 4.87443L2.40723 3.95064H3.9788L4.46442 2.45605Z" fill="#F0F0F0"/>
</g>
<defs>
<clipPath id="clip0_2127_22941">
<rect width="15" height="15" fill="white" transform="translate(0 0.5)"/>
</clipPath>
</defs>
</svg>
