<svg width="15" height="16" viewBox="0 0 15 16" fill="none" xmlns="http://www.w3.org/2000/svg">
<path d="M14.0062 7.11877L12.725 5.83751V4.01876C12.725 3.68724 12.5933 3.3693 12.3589 3.13488C12.1245 2.90046 11.8065 2.76876 11.475 2.76876H9.6625L8.38125 1.51876C8.14705 1.28595 7.83023 1.15527 7.5 1.15527C7.16977 1.15527 6.85295 1.28595 6.61875 1.51876L5.3375 2.77501H3.51875C3.18723 2.77501 2.86929 2.90671 2.63487 3.14113C2.40045 3.37555 2.26875 3.69349 2.26875 4.02501V5.83751L1.01875 7.11877C0.897984 7.23222 0.800982 7.36856 0.733385 7.51985C0.665788 7.67114 0.628946 7.83436 0.625 8.00002C0.624737 8.33011 0.75505 8.6469 0.9875 8.88127L2.275 10.1625V11.9813C2.275 12.3128 2.4067 12.6307 2.64112 12.8651C2.87554 13.0996 3.19348 13.2313 3.525 13.2313H5.3375L6.61875 14.5125C6.85311 14.745 7.16991 14.8753 7.5 14.875C7.83009 14.8753 8.14689 14.745 8.38125 14.5125L9.6625 13.225H11.4812C11.8128 13.225 12.1307 13.0933 12.3651 12.8589C12.5996 12.6245 12.7312 12.3065 12.7312 11.975V10.1625L14.0125 8.88127C14.2453 8.64706 14.376 8.33025 14.376 8.00002C14.376 7.66978 14.2453 7.35297 14.0125 7.11877H14.0062ZM11.475 9.65002V11.975H9.15L7.5 13.625L5.85 11.975H3.525V9.65002L1.875 8.00002L3.525 6.35001V4.02501H5.85L7.5 2.37501L9.15 4.02501H11.475V6.35001L13.125 8.00002L11.475 9.65002Z" fill="#08C4FF"/>
<path d="M6.87499 8.45627L5.44374 7.02502L4.55624 7.90627L6.87499 10.225L10.4437 6.65627L9.55624 5.77502L6.87499 8.45627Z" fill="#08C4FF"/>
</svg>
