<svg width="20" height="20" viewBox="0 0 20 20" fill="none" xmlns="http://www.w3.org/2000/svg">
<path d="M18.6747 8.82486L16.9663 7.11652V4.69152C16.9663 4.2495 16.7907 3.82557 16.4782 3.51301C16.1656 3.20045 15.7417 3.02486 15.2997 3.02486H12.883L11.1747 1.35819C10.8624 1.04777 10.44 0.873535 9.99968 0.873535C9.55937 0.873535 9.13695 1.04777 8.82468 1.35819L7.11634 3.03319H4.69134C4.24931 3.03319 3.82539 3.20878 3.51283 3.52135C3.20027 3.83391 3.02468 4.25783 3.02468 4.69986V7.11652L1.35801 8.82486C1.19699 8.97614 1.06765 9.15792 0.977521 9.35964C0.887392 9.56136 0.838269 9.77898 0.833008 9.99986C0.832657 10.44 1.00641 10.8624 1.31634 11.1749L3.03301 12.8832V15.3082C3.03301 15.7502 3.2086 16.1741 3.52116 16.4867C3.83372 16.7993 4.25765 16.9749 4.69968 16.9749H7.11634L8.82468 18.6832C9.13716 18.9931 9.55956 19.1669 9.99968 19.1665C10.4398 19.1669 10.8622 18.9931 11.1747 18.6832L12.883 16.9665H15.308C15.75 16.9665 16.174 16.7909 16.4865 16.4784C16.7991 16.1658 16.9747 15.7419 16.9747 15.2999V12.8832L18.683 11.1749C18.9934 10.8626 19.1677 10.4402 19.1677 9.99986C19.1677 9.55955 18.9934 9.13713 18.683 8.82486H18.6747ZM15.2997 12.1999V15.2999H12.1997L9.99968 17.4999L7.79968 15.2999H4.69968V12.1999L2.49968 9.99986L4.69968 7.79986V4.69986H7.79968L9.99968 2.49986L12.1997 4.69986H15.2997V7.79986L17.4997 9.99986L15.2997 12.1999Z" fill="#08C4FF"/>
<path d="M9.16686 10.6082L7.25853 8.69987L6.0752 9.87487L9.16686 12.9665L13.9252 8.2082L12.7419 7.0332L9.16686 10.6082Z" fill="#08C4FF"/>
</svg>
