<svg width="27" height="9" viewBox="0 0 27 9" fill="none" xmlns="http://www.w3.org/2000/svg">
<path d="M24.9998 8.8701L24.7466 7.56533H21.9184L21.4684 8.86082L19.2015 8.86546C20.2807 6.18998 21.3622 3.5155 22.446 0.84201C22.6305 0.388531 22.9579 0.157733 23.4405 0.160052C23.8095 0.163531 24.4114 0.163531 25.2472 0.161211L27 8.86662L24.9998 8.8701ZM22.5551 5.77809H24.3776L23.697 2.50747L22.5551 5.77809ZM7.9425 0.158892L10.2218 0.161211L6.69825 8.87126L4.39088 8.86894C3.81065 6.56828 3.23765 4.26569 2.67188 1.96121C2.55938 1.50193 2.33663 1.18067 1.908 1.02874C1.52663 0.893041 0.891 0.684279 0 0.400129V0.162372H3.64162C4.27163 0.162372 4.6395 0.476675 4.75763 1.12152C4.87687 1.76753 5.17612 3.41211 5.65762 6.05528L7.9425 0.158892ZM13.3538 0.161211L11.5515 8.86894L9.3825 8.86662L11.1825 0.158892L13.3538 0.161211ZM17.7525 0C18.4016 0 19.2195 0.208763 19.6898 0.400129L19.3095 2.20593C18.8842 2.02964 18.1845 1.79188 17.5961 1.8C16.7411 1.81508 16.2124 2.18505 16.2124 2.53995C16.2124 3.11753 17.1304 3.40863 18.0754 4.03956C19.1542 4.75863 19.296 5.40464 19.2825 6.10631C19.2679 7.56302 18.0754 9 15.5599 9C14.4124 8.9826 13.9984 8.88286 13.0624 8.54072L13.4584 6.65606C14.4113 7.06778 14.8151 7.19884 15.6296 7.19884C16.3755 7.19884 17.0156 6.88802 17.0212 6.34639C17.0257 5.96134 16.7962 5.76997 15.9592 5.29446C15.1222 4.81778 13.9478 4.15786 13.9635 2.83338C13.9826 1.13776 15.5408 0 17.7536 0H17.7525Z" fill="white"/>
</svg>
