<svg width="159" height="142" viewBox="0 0 159 142" fill="none" xmlns="http://www.w3.org/2000/svg">
<g filter="url(#filter0_dddddd_1029_36556)">
<rect x="58" y="31" width="43" height="26" rx="5" fill="url(#paint0_linear_1029_36556)"/>
</g>
<path d="M90.9998 48.8701L90.7466 47.5653H87.9184L87.4684 48.8608L85.2015 48.8655C86.2807 46.19 87.3622 43.5155 88.446 40.842C88.6305 40.3885 88.9579 40.1577 89.4405 40.1601C89.8095 40.1635 90.4114 40.1635 91.2472 40.1612L93 48.8666L90.9998 48.8701ZM88.5551 45.7781H90.3776L89.697 42.5075L88.5551 45.7781ZM73.9425 40.1589L76.2218 40.1612L72.6982 48.8713L70.3909 48.8689C69.8107 46.5683 69.2377 44.2657 68.6719 41.9612C68.5594 41.5019 68.3366 41.1807 67.908 41.0287C67.5266 40.893 66.891 40.6843 66 40.4001V40.1624H69.6416C70.2716 40.1624 70.6395 40.4767 70.7576 41.1215C70.8769 41.7675 71.1761 43.4121 71.6576 46.0553L73.9425 40.1589ZM79.3538 40.1612L77.5515 48.8689L75.3825 48.8666L77.1825 40.1589L79.3538 40.1612ZM83.7525 40C84.4016 40 85.2195 40.2088 85.6898 40.4001L85.3095 42.2059C84.8842 42.0296 84.1845 41.7919 83.5961 41.8C82.7411 41.8151 82.2124 42.1851 82.2124 42.5399C82.2124 43.1175 83.1304 43.4086 84.0754 44.0396C85.1542 44.7586 85.296 45.4046 85.2825 46.1063C85.2679 47.563 84.0754 49 81.5599 49C80.4124 48.9826 79.9984 48.8829 79.0624 48.5407L79.4584 46.6561C80.4113 47.0678 80.8151 47.1988 81.6296 47.1988C82.3755 47.1988 83.0156 46.888 83.0212 46.3464C83.0257 45.9613 82.7962 45.77 81.9592 45.2945C81.1222 44.8178 79.9478 44.1579 79.9635 42.8334C79.9826 41.1378 81.5408 40 83.7536 40H83.7525Z" fill="white"/>
<defs>
<filter id="filter0_dddddd_1029_36556" x="0" y="0" width="159" height="142" filterUnits="userSpaceOnUse" color-interpolation-filters="sRGB">
<feFlood flood-opacity="0" result="BackgroundImageFix"/>
<feColorMatrix in="SourceAlpha" type="matrix" values="0 0 0 0 0 0 0 0 0 0 0 0 0 0 0 0 0 0 127 0" result="hardAlpha"/>
<feOffset dy="0.747159"/>
<feGaussianBlur stdDeviation="0.802504"/>
<feColorMatrix type="matrix" values="0 0 0 0 0.807843 0 0 0 0 0.0823529 0 0 0 0 0.0823529 0 0 0 0.0449833 0"/>
<feBlend mode="normal" in2="BackgroundImageFix" result="effect1_dropShadow_1029_36556"/>
<feColorMatrix in="SourceAlpha" type="matrix" values="0 0 0 0 0 0 0 0 0 0 0 0 0 0 0 0 0 0 127 0" result="hardAlpha"/>
<feOffset dy="1.79553"/>
<feGaussianBlur stdDeviation="1.92853"/>
<feColorMatrix type="matrix" values="0 0 0 0 0.807843 0 0 0 0 0.0823529 0 0 0 0 0.0823529 0 0 0 0.0646228 0"/>
<feBlend mode="normal" in2="effect1_dropShadow_1029_36556" result="effect2_dropShadow_1029_36556"/>
<feColorMatrix in="SourceAlpha" type="matrix" values="0 0 0 0 0 0 0 0 0 0 0 0 0 0 0 0 0 0 127 0" result="hardAlpha"/>
<feOffset dy="3.38082"/>
<feGaussianBlur stdDeviation="3.63125"/>
<feColorMatrix type="matrix" values="0 0 0 0 0.807843 0 0 0 0 0.0823529 0 0 0 0 0.0823529 0 0 0 0.08 0"/>
<feBlend mode="normal" in2="effect2_dropShadow_1029_36556" result="effect3_dropShadow_1029_36556"/>
<feColorMatrix in="SourceAlpha" type="matrix" values="0 0 0 0 0 0 0 0 0 0 0 0 0 0 0 0 0 0 127 0" result="hardAlpha"/>
<feOffset dy="6.0308"/>
<feGaussianBlur stdDeviation="6.47753"/>
<feColorMatrix type="matrix" values="0 0 0 0 0.807843 0 0 0 0 0.0823529 0 0 0 0 0.0823529 0 0 0 0.0953772 0"/>
<feBlend mode="normal" in2="effect3_dropShadow_1029_36556" result="effect4_dropShadow_1029_36556"/>
<feColorMatrix in="SourceAlpha" type="matrix" values="0 0 0 0 0 0 0 0 0 0 0 0 0 0 0 0 0 0 127 0" result="hardAlpha"/>
<feOffset dy="11.28"/>
<feGaussianBlur stdDeviation="12.1155"/>
<feColorMatrix type="matrix" values="0 0 0 0 0.807843 0 0 0 0 0.0823529 0 0 0 0 0.0823529 0 0 0 0.115017 0"/>
<feBlend mode="normal" in2="effect4_dropShadow_1029_36556" result="effect5_dropShadow_1029_36556"/>
<feColorMatrix in="SourceAlpha" type="matrix" values="0 0 0 0 0 0 0 0 0 0 0 0 0 0 0 0 0 0 127 0" result="hardAlpha"/>
<feOffset dy="27"/>
<feGaussianBlur stdDeviation="29"/>
<feColorMatrix type="matrix" values="0 0 0 0 0.807843 0 0 0 0 0.0823529 0 0 0 0 0.0823529 0 0 0 0.16 0"/>
<feBlend mode="normal" in2="effect5_dropShadow_1029_36556" result="effect6_dropShadow_1029_36556"/>
<feBlend mode="normal" in="SourceGraphic" in2="effect6_dropShadow_1029_36556" result="shape"/>
</filter>
<linearGradient id="paint0_linear_1029_36556" x1="65.5" y1="57" x2="99.8353" y2="25.8638" gradientUnits="userSpaceOnUse">
<stop offset="0.0001" stop-color="#FF2B2B"/>
<stop offset="1" stop-color="#F83939"/>
</linearGradient>
</defs>
</svg>
