<svg width="16" height="11" viewBox="0 0 16 11" fill="none" xmlns="http://www.w3.org/2000/svg">
<path d="M15.4829 8.75099L13.5789 6.21621C13.5693 6.20341 13.5561 6.19366 13.5411 6.18814C13.5261 6.18263 13.5097 6.18158 13.4941 6.18512C13.4785 6.18867 13.4642 6.19666 13.4531 6.20813C13.4419 6.2196 13.4343 6.23406 13.4311 6.24977L13.2161 7.3237L12.9693 7.26937L12.8046 7.23311L11.9597 7.05463C11.631 6.98779 11.3024 6.92204 10.9737 6.85739C10.7377 6.81143 10.5013 6.76681 10.2645 6.72352C9.69827 6.61943 9.1306 6.52211 8.56145 6.43157C8.27677 6.38745 7.99159 6.34446 7.70581 6.30511C7.62988 6.29461 7.55372 6.28506 7.47767 6.27504L7.46716 6.04859L7.3031 2.51534L7.27681 1.95144L6.76414 1.85594L6.12264 1.73647L1.07256 0.7956L0.855722 1.79137L5.92379 3.05686L5.92398 3.05716L5.87611 5.68177L5.85159 7.02382L5.84271 7.51053L5.84086 7.62187L6.51666 7.82561C6.79355 7.90887 7.07131 7.98765 7.34994 8.06194C7.62871 8.1371 7.90787 8.20833 8.18726 8.27861C8.74655 8.41803 9.3073 8.54933 9.8695 8.67251C10.4315 8.79799 10.9956 8.91316 11.5598 9.02708L12.4077 9.19144L12.5236 9.21291L12.8265 9.26906L12.6212 10.2944C12.6181 10.31 12.6195 10.3261 12.6252 10.3409C12.631 10.3556 12.6408 10.3684 12.6536 10.3778C12.6664 10.3871 12.6817 10.3926 12.6975 10.3936C12.7133 10.3946 12.7291 10.391 12.7429 10.3833L15.4569 8.87338C15.4672 8.86762 15.4762 8.8597 15.4833 8.85017C15.4903 8.84063 15.4953 8.8297 15.4977 8.8181C15.5002 8.8065 15.5001 8.79451 15.4976 8.78294C15.495 8.77136 15.49 8.76047 15.4829 8.75099Z" fill="#FF0000"/>
</svg>
