<svg width="25" height="25" viewBox="0 0 25 25" fill="none" xmlns="http://www.w3.org/2000/svg">
<path d="M22.105 14.8828L18.8805 12.5818L17.2139 9.2521C16.9985 8.81857 16.6662 8.45398 16.2543 8.19956C15.8425 7.94515 15.3677 7.81107 14.8837 7.81251H10.116C9.63172 7.81088 9.1567 7.94486 8.74469 8.19929C8.33267 8.45371 8.00013 8.81841 7.78471 9.2521L6.11804 12.5818L2.89877 14.8797C2.52059 15.1426 2.25214 15.5353 2.14441 15.9831C2.03668 16.4309 2.09717 16.9027 2.3144 17.3089C2.44131 17.5305 2.61316 17.7232 2.81892 17.8745C3.02468 18.0258 3.2598 18.1324 3.50919 18.1875C3.63665 18.2153 3.76674 18.2293 3.89721 18.2292C4.04342 18.2274 4.18888 18.2081 4.33054 18.1719C4.28452 18.6344 4.39348 19.099 4.6403 19.4928C4.88712 19.8866 5.2578 20.1872 5.69408 20.3474L7.16596 20.8854C7.00398 21.1854 6.91831 21.5206 6.91648 21.8615C6.91692 22.1075 6.95937 22.3516 7.042 22.5833C7.19291 22.9871 7.46356 23.3352 7.81774 23.5809C8.17191 23.8267 8.5927 23.9584 9.02377 23.9583C9.26638 23.9583 9.50714 23.916 9.73523 23.8333L12.4998 22.825L15.2649 23.8313C15.6626 23.9776 16.0953 23.9997 16.5057 23.8946C16.9162 23.7895 17.2851 23.5622 17.5635 23.2428C17.8419 22.9234 18.0167 22.527 18.0648 22.106C18.1128 21.685 18.0319 21.2594 17.8326 20.8854L19.3081 20.3485C19.712 20.1996 20.0606 19.9307 20.3071 19.578C20.5537 19.2252 20.6863 18.8054 20.6873 18.375C20.6873 18.3073 20.6764 18.2401 20.6696 18.1724C20.8102 18.2086 20.9546 18.2277 21.0998 18.2292C21.4317 18.2298 21.7575 18.1399 22.0421 17.969C22.3266 17.7981 22.5591 17.5527 22.7144 17.2594C22.9177 16.8566 22.968 16.3937 22.856 15.9567C22.7439 15.5196 22.4771 15.1381 22.105 14.8828ZM8.85398 17.0313L7.1321 16.4063C7.11127 16.3985 7.0894 16.3964 7.06804 16.3896L8.60971 15.2891C8.69727 15.2272 8.77903 15.1574 8.85398 15.0807V17.0313ZM9.38002 22.8537C9.11687 22.9482 8.82712 22.9357 8.5731 22.8188C8.31908 22.7019 8.12108 22.49 8.02169 22.2287C7.97983 22.1104 7.95834 21.9859 7.95815 21.8604C7.95903 21.6395 8.02956 21.4244 8.15971 21.2458L10.979 22.2719L9.38002 22.8537ZM16.979 22.2208C16.8828 22.4839 16.6863 22.6981 16.4324 22.8166C16.1786 22.935 15.8882 22.9479 15.6248 22.8526L6.04981 19.3688C5.91935 19.3212 5.79952 19.2485 5.69718 19.1546C5.59483 19.0608 5.51197 18.9477 5.45333 18.8218C5.39469 18.696 5.36141 18.5598 5.3554 18.421C5.34939 18.2823 5.37077 18.1438 5.4183 18.0133C5.46584 17.8828 5.53861 17.763 5.63245 17.6607C5.7263 17.5583 5.83938 17.4755 5.96525 17.4168C6.09111 17.3582 6.2273 17.3249 6.36603 17.3189C6.50475 17.3129 6.6433 17.3343 6.77377 17.3818L16.3451 20.8651C16.6088 20.9611 16.8236 21.1577 16.9424 21.4119C17.0612 21.6661 17.0744 21.957 16.979 22.2208ZM18.954 19.3698L17.0608 20.0594C16.9473 19.9905 16.8274 19.9326 16.7029 19.8865L14.0238 18.911L18.2253 17.3807C18.4885 17.2861 18.7783 17.2985 19.0323 17.4154C19.2864 17.5323 19.4844 17.7443 19.5837 18.0057C19.6255 18.124 19.647 18.2485 19.6472 18.374C19.6471 18.5911 19.5804 18.8029 19.4562 18.981C19.3319 19.159 19.1561 19.2947 18.9524 19.3698H18.954ZM16.1498 17.0261V15.0771C16.2244 15.1536 16.3056 15.2233 16.3925 15.2854L17.9342 16.386C17.9128 16.3927 17.891 16.3943 17.8701 16.4021L16.1498 17.0261ZM21.7951 16.7656C21.7411 16.8623 21.6676 16.9467 21.5793 17.0135C21.491 17.0803 21.3898 17.128 21.2821 17.1536C21.1743 17.1792 21.0625 17.1821 20.9535 17.1622C20.8446 17.1424 20.741 17.1001 20.6493 17.038L16.9998 14.4339C16.8962 14.3598 16.8122 14.2617 16.755 14.1479L16.0936 12.8349C16.041 12.7301 15.9547 12.6461 15.8485 12.5964C15.7423 12.5468 15.6224 12.5344 15.5083 12.5614C15.3942 12.5883 15.2925 12.6529 15.2197 12.7448C15.1469 12.8367 15.1072 12.9505 15.1071 13.0677V17.4078L12.5029 18.3573L9.89877 17.4083V13.0677C9.89865 12.9505 9.85897 12.8367 9.78616 12.7448C9.71336 12.6529 9.61168 12.5883 9.49757 12.5614C9.38347 12.5344 9.26362 12.5468 9.15741 12.5964C9.0512 12.6461 8.96484 12.7301 8.91231 12.8349L8.2545 14.1495C8.19727 14.2643 8.11266 14.3632 8.00815 14.4375L4.35919 17.0417C4.27002 17.1056 4.1684 17.15 4.06094 17.172C3.95348 17.194 3.84258 17.1931 3.73547 17.1695C3.62837 17.1458 3.52745 17.0998 3.43928 17.0345C3.35112 16.9693 3.27769 16.8862 3.22377 16.7906C3.13319 16.6091 3.11232 16.4006 3.16512 16.2047C3.21791 16.0088 3.34069 15.8391 3.51023 15.7276L6.83523 13.3547C6.90454 13.3053 6.96069 13.2397 6.99877 13.1636L8.72221 9.71824C8.85112 9.4588 9.04986 9.24047 9.29609 9.08782C9.54232 8.93517 9.82625 8.85426 10.116 8.85418H14.8837C15.1743 8.85319 15.4595 8.9336 15.7068 9.08631C15.9542 9.23902 16.1538 9.45793 16.2831 9.71824L18.0066 13.1636C18.0447 13.2397 18.1008 13.3053 18.1701 13.3547L21.4998 15.7292C21.6648 15.8394 21.785 16.0049 21.8388 16.1958C21.8927 16.3868 21.8766 16.5907 21.7936 16.7708L21.7951 16.7656Z" fill="black"/>
<path d="M15.8853 4.42717C15.8853 3.75759 15.6868 3.10306 15.3148 2.54633C14.9428 1.9896 14.4141 1.55568 13.7955 1.29945C13.1769 1.04321 12.4962 0.976172 11.8395 1.1068C11.1828 1.23743 10.5795 1.55986 10.1061 2.03332C9.63261 2.50677 9.31018 3.11 9.17955 3.7667C9.04893 4.42341 9.11597 5.1041 9.3722 5.72271C9.62844 6.34131 10.0624 6.87004 10.6191 7.24204C11.1758 7.61403 11.8303 7.81258 12.4999 7.81258C13.3975 7.81148 14.2579 7.45445 14.8926 6.8198C15.5272 6.18515 15.8842 5.3247 15.8853 4.42717ZM12.4999 6.77092C12.0364 6.77092 11.5832 6.63346 11.1978 6.37592C10.8124 6.11839 10.512 5.75234 10.3346 5.32408C10.1572 4.89582 10.1108 4.42457 10.2012 3.96992C10.2916 3.51528 10.5149 3.09766 10.8426 2.76988C11.1704 2.44211 11.588 2.21888 12.0427 2.12845C12.4973 2.03802 12.9686 2.08443 13.3968 2.26182C13.8251 2.43922 14.1911 2.73962 14.4487 3.12505C14.7062 3.51048 14.8437 3.96362 14.8437 4.42717C14.843 5.04856 14.5958 5.6443 14.1564 6.08369C13.7171 6.52308 13.1213 6.77023 12.4999 6.77092Z" fill="black"/>
<path d="M4.16659 6.25008H4.68742V6.77091C4.68742 6.90905 4.74229 7.04152 4.83997 7.1392C4.93764 7.23687 5.07012 7.29175 5.20825 7.29175C5.34639 7.29175 5.47886 7.23687 5.57654 7.1392C5.67421 7.04152 5.72909 6.90905 5.72909 6.77091V6.25008H6.24992C6.38805 6.25008 6.52053 6.19521 6.6182 6.09753C6.71588 5.99986 6.77075 5.86738 6.77075 5.72925C6.77075 5.59111 6.71588 5.45864 6.6182 5.36096C6.52053 5.26329 6.38805 5.20841 6.24992 5.20841H5.72909V4.68758C5.72909 4.54945 5.67421 4.41697 5.57654 4.3193C5.47886 4.22162 5.34639 4.16675 5.20825 4.16675C5.07012 4.16675 4.93764 4.22162 4.83997 4.3193C4.74229 4.41697 4.68742 4.54945 4.68742 4.68758V5.20841H4.16659C4.02845 5.20841 3.89598 5.26329 3.7983 5.36096C3.70063 5.45864 3.64575 5.59111 3.64575 5.72925C3.64575 5.86738 3.70063 5.99986 3.7983 6.09753C3.89598 6.19521 4.02845 6.25008 4.16659 6.25008Z" fill="black"/>
<path d="M20.3123 9.37516C20.1742 9.37516 20.0417 9.43004 19.9441 9.52771C19.8464 9.62539 19.7915 9.75786 19.7915 9.896C19.7915 10.0341 19.8464 10.1666 19.9441 10.2643C20.0417 10.362 20.1742 10.4168 20.3123 10.4168H20.8332V10.9377C20.8332 11.0758 20.888 11.2083 20.9857 11.3059C21.0834 11.4036 21.2159 11.4585 21.354 11.4585C21.4921 11.4585 21.6246 11.4036 21.7223 11.3059C21.82 11.2083 21.8748 11.0758 21.8748 10.9377V10.4168H22.3957C22.5338 10.4168 22.6663 10.362 22.764 10.2643C22.8616 10.1666 22.9165 10.0341 22.9165 9.896C22.9165 9.75786 22.8616 9.62539 22.764 9.52771C22.6663 9.43004 22.5338 9.37516 22.3957 9.37516H21.8748V8.85433C21.8748 8.7162 21.82 8.58372 21.7223 8.48604C21.6246 8.38837 21.4921 8.3335 21.354 8.3335C21.2159 8.3335 21.0834 8.38837 20.9857 8.48604C20.888 8.58372 20.8332 8.7162 20.8332 8.85433V9.37516H20.3123Z" fill="black"/>
<path d="M19.7916 5.72917C20.0792 5.72917 20.3124 5.49598 20.3124 5.20833C20.3124 4.92068 20.0792 4.6875 19.7916 4.6875C19.5039 4.6875 19.2708 4.92068 19.2708 5.20833C19.2708 5.49598 19.5039 5.72917 19.7916 5.72917Z" fill="black"/>
<path d="M2.60409 10.4167C2.89173 10.4167 3.12492 10.1835 3.12492 9.89583C3.12492 9.60819 2.89173 9.375 2.60409 9.375C2.31644 9.375 2.08325 9.60819 2.08325 9.89583C2.08325 10.1835 2.31644 10.4167 2.60409 10.4167Z" fill="black"/>
</svg>
